%TF.GenerationSoftware,KiCad,Pcbnew,(5.1.8)-1*%
%TF.CreationDate,2021-01-26T23:12:48-05:00*%
%TF.ProjectId,LedController2,4c656443-6f6e-4747-926f-6c6c6572322e,rev?*%
%TF.SameCoordinates,Original*%
%TF.FileFunction,Legend,Top*%
%TF.FilePolarity,Positive*%
%FSLAX46Y46*%
G04 Gerber Fmt 4.6, Leading zero omitted, Abs format (unit mm)*
G04 Created by KiCad (PCBNEW (5.1.8)-1) date 2021-01-26 23:12:48*
%MOMM*%
%LPD*%
G01*
G04 APERTURE LIST*
%ADD10C,0.150000*%
%ADD11C,0.120000*%
G04 APERTURE END LIST*
D10*
%TO.C,G_CV_IN_3*%
G36*
X103313000Y-26352500D02*
G01*
X103313000Y-25209500D01*
X111187000Y-25209500D01*
X111187000Y-26352500D01*
X103313000Y-26352500D01*
G37*
X103313000Y-26352500D02*
X103313000Y-25209500D01*
X111187000Y-25209500D01*
X111187000Y-26352500D01*
X103313000Y-26352500D01*
X102297000Y-26352500D02*
X102297000Y-15811500D01*
X112203000Y-26352500D02*
X102297000Y-26352500D01*
X112203000Y-15811500D02*
X112203000Y-26352500D01*
X102297000Y-15811500D02*
X112203000Y-15811500D01*
X110842102Y-21272500D02*
G75*
G03*
X110842102Y-21272500I-3592102J0D01*
G01*
%TO.C,B_CV_IN_3*%
G36*
X103313000Y-38735000D02*
G01*
X103313000Y-37592000D01*
X111187000Y-37592000D01*
X111187000Y-38735000D01*
X103313000Y-38735000D01*
G37*
X103313000Y-38735000D02*
X103313000Y-37592000D01*
X111187000Y-37592000D01*
X111187000Y-38735000D01*
X103313000Y-38735000D01*
X102297000Y-38735000D02*
X102297000Y-28194000D01*
X112203000Y-38735000D02*
X102297000Y-38735000D01*
X112203000Y-28194000D02*
X112203000Y-38735000D01*
X102297000Y-28194000D02*
X112203000Y-28194000D01*
X110842102Y-33655000D02*
G75*
G03*
X110842102Y-33655000I-3592102J0D01*
G01*
%TO.C,R_CV_IN_3*%
G36*
X103313000Y-13970000D02*
G01*
X103313000Y-12827000D01*
X111187000Y-12827000D01*
X111187000Y-13970000D01*
X103313000Y-13970000D01*
G37*
X103313000Y-13970000D02*
X103313000Y-12827000D01*
X111187000Y-12827000D01*
X111187000Y-13970000D01*
X103313000Y-13970000D01*
X102297000Y-13970000D02*
X102297000Y-3429000D01*
X112203000Y-13970000D02*
X102297000Y-13970000D01*
X112203000Y-3429000D02*
X112203000Y-13970000D01*
X102297000Y-3429000D02*
X112203000Y-3429000D01*
X110842102Y-8890000D02*
G75*
G03*
X110842102Y-8890000I-3592102J0D01*
G01*
%TO.C,G_CV_IN_2*%
G36*
X53783000Y-26352500D02*
G01*
X53783000Y-25209500D01*
X61657000Y-25209500D01*
X61657000Y-26352500D01*
X53783000Y-26352500D01*
G37*
X53783000Y-26352500D02*
X53783000Y-25209500D01*
X61657000Y-25209500D01*
X61657000Y-26352500D01*
X53783000Y-26352500D01*
X52767000Y-26352500D02*
X52767000Y-15811500D01*
X62673000Y-26352500D02*
X52767000Y-26352500D01*
X62673000Y-15811500D02*
X62673000Y-26352500D01*
X52767000Y-15811500D02*
X62673000Y-15811500D01*
X61312102Y-21272500D02*
G75*
G03*
X61312102Y-21272500I-3592102J0D01*
G01*
%TO.C,B_CV_IN_2*%
G36*
X53783000Y-38735000D02*
G01*
X53783000Y-37592000D01*
X61657000Y-37592000D01*
X61657000Y-38735000D01*
X53783000Y-38735000D01*
G37*
X53783000Y-38735000D02*
X53783000Y-37592000D01*
X61657000Y-37592000D01*
X61657000Y-38735000D01*
X53783000Y-38735000D01*
X52767000Y-38735000D02*
X52767000Y-28194000D01*
X62673000Y-38735000D02*
X52767000Y-38735000D01*
X62673000Y-28194000D02*
X62673000Y-38735000D01*
X52767000Y-28194000D02*
X62673000Y-28194000D01*
X61312102Y-33655000D02*
G75*
G03*
X61312102Y-33655000I-3592102J0D01*
G01*
%TO.C,R_CV_IN_2*%
G36*
X53783000Y-13970000D02*
G01*
X53783000Y-12827000D01*
X61657000Y-12827000D01*
X61657000Y-13970000D01*
X53783000Y-13970000D01*
G37*
X53783000Y-13970000D02*
X53783000Y-12827000D01*
X61657000Y-12827000D01*
X61657000Y-13970000D01*
X53783000Y-13970000D01*
X52767000Y-13970000D02*
X52767000Y-3429000D01*
X62673000Y-13970000D02*
X52767000Y-13970000D01*
X62673000Y-3429000D02*
X62673000Y-13970000D01*
X52767000Y-3429000D02*
X62673000Y-3429000D01*
X61312102Y-8890000D02*
G75*
G03*
X61312102Y-8890000I-3592102J0D01*
G01*
%TO.C,G_CV_IN_1*%
G36*
X4318000Y-26352500D02*
G01*
X4318000Y-25209500D01*
X12192000Y-25209500D01*
X12192000Y-26352500D01*
X4318000Y-26352500D01*
G37*
X4318000Y-26352500D02*
X4318000Y-25209500D01*
X12192000Y-25209500D01*
X12192000Y-26352500D01*
X4318000Y-26352500D01*
X3302000Y-26352500D02*
X3302000Y-15811500D01*
X13208000Y-26352500D02*
X3302000Y-26352500D01*
X13208000Y-15811500D02*
X13208000Y-26352500D01*
X3302000Y-15811500D02*
X13208000Y-15811500D01*
X11847102Y-21272500D02*
G75*
G03*
X11847102Y-21272500I-3592102J0D01*
G01*
%TO.C,B_CV_IN_1*%
G36*
X4318000Y-38735000D02*
G01*
X4318000Y-37592000D01*
X12192000Y-37592000D01*
X12192000Y-38735000D01*
X4318000Y-38735000D01*
G37*
X4318000Y-38735000D02*
X4318000Y-37592000D01*
X12192000Y-37592000D01*
X12192000Y-38735000D01*
X4318000Y-38735000D01*
X3302000Y-38735000D02*
X3302000Y-28194000D01*
X13208000Y-38735000D02*
X3302000Y-38735000D01*
X13208000Y-28194000D02*
X13208000Y-38735000D01*
X3302000Y-28194000D02*
X13208000Y-28194000D01*
X11847102Y-33655000D02*
G75*
G03*
X11847102Y-33655000I-3592102J0D01*
G01*
%TO.C,R_CV_IN_1*%
G36*
X4318000Y-13970000D02*
G01*
X4318000Y-12827000D01*
X12192000Y-12827000D01*
X12192000Y-13970000D01*
X4318000Y-13970000D01*
G37*
X4318000Y-13970000D02*
X4318000Y-12827000D01*
X12192000Y-12827000D01*
X12192000Y-13970000D01*
X4318000Y-13970000D01*
X3302000Y-13970000D02*
X3302000Y-3429000D01*
X13208000Y-13970000D02*
X3302000Y-13970000D01*
X13208000Y-3429000D02*
X13208000Y-13970000D01*
X3302000Y-3429000D02*
X13208000Y-3429000D01*
X11847102Y-8890000D02*
G75*
G03*
X11847102Y-8890000I-3592102J0D01*
G01*
%TO.C,Audio_R_3*%
G36*
X127443000Y-13970000D02*
G01*
X127443000Y-12827000D01*
X135317000Y-12827000D01*
X135317000Y-13970000D01*
X127443000Y-13970000D01*
G37*
X127443000Y-13970000D02*
X127443000Y-12827000D01*
X135317000Y-12827000D01*
X135317000Y-13970000D01*
X127443000Y-13970000D01*
X126427000Y-13970000D02*
X126427000Y-3429000D01*
X136333000Y-13970000D02*
X126427000Y-13970000D01*
X136333000Y-3429000D02*
X136333000Y-13970000D01*
X126427000Y-3429000D02*
X136333000Y-3429000D01*
X134972102Y-8890000D02*
G75*
G03*
X134972102Y-8890000I-3592102J0D01*
G01*
%TO.C,Audio_B_3*%
G36*
X127443000Y-38735000D02*
G01*
X127443000Y-37592000D01*
X135317000Y-37592000D01*
X135317000Y-38735000D01*
X127443000Y-38735000D01*
G37*
X127443000Y-38735000D02*
X127443000Y-37592000D01*
X135317000Y-37592000D01*
X135317000Y-38735000D01*
X127443000Y-38735000D01*
X126427000Y-38735000D02*
X126427000Y-28194000D01*
X136333000Y-38735000D02*
X126427000Y-38735000D01*
X136333000Y-28194000D02*
X136333000Y-38735000D01*
X126427000Y-28194000D02*
X136333000Y-28194000D01*
X134972102Y-33655000D02*
G75*
G03*
X134972102Y-33655000I-3592102J0D01*
G01*
%TO.C,Audio_G_3*%
G36*
X127443000Y-26352500D02*
G01*
X127443000Y-25209500D01*
X135317000Y-25209500D01*
X135317000Y-26352500D01*
X127443000Y-26352500D01*
G37*
X127443000Y-26352500D02*
X127443000Y-25209500D01*
X135317000Y-25209500D01*
X135317000Y-26352500D01*
X127443000Y-26352500D01*
X126427000Y-26352500D02*
X126427000Y-15811500D01*
X136333000Y-26352500D02*
X126427000Y-26352500D01*
X136333000Y-15811500D02*
X136333000Y-26352500D01*
X126427000Y-15811500D02*
X136333000Y-15811500D01*
X134972102Y-21272500D02*
G75*
G03*
X134972102Y-21272500I-3592102J0D01*
G01*
%TO.C,Audio_R_2*%
G36*
X77953000Y-13970000D02*
G01*
X77953000Y-12827000D01*
X85827000Y-12827000D01*
X85827000Y-13970000D01*
X77953000Y-13970000D01*
G37*
X77953000Y-13970000D02*
X77953000Y-12827000D01*
X85827000Y-12827000D01*
X85827000Y-13970000D01*
X77953000Y-13970000D01*
X76937000Y-13970000D02*
X76937000Y-3429000D01*
X86843000Y-13970000D02*
X76937000Y-13970000D01*
X86843000Y-3429000D02*
X86843000Y-13970000D01*
X76937000Y-3429000D02*
X86843000Y-3429000D01*
X85482102Y-8890000D02*
G75*
G03*
X85482102Y-8890000I-3592102J0D01*
G01*
%TO.C,Audio_B_2*%
G36*
X77953000Y-38735000D02*
G01*
X77953000Y-37592000D01*
X85827000Y-37592000D01*
X85827000Y-38735000D01*
X77953000Y-38735000D01*
G37*
X77953000Y-38735000D02*
X77953000Y-37592000D01*
X85827000Y-37592000D01*
X85827000Y-38735000D01*
X77953000Y-38735000D01*
X76937000Y-38735000D02*
X76937000Y-28194000D01*
X86843000Y-38735000D02*
X76937000Y-38735000D01*
X86843000Y-28194000D02*
X86843000Y-38735000D01*
X76937000Y-28194000D02*
X86843000Y-28194000D01*
X85482102Y-33655000D02*
G75*
G03*
X85482102Y-33655000I-3592102J0D01*
G01*
%TO.C,Audio_G_2*%
G36*
X77953000Y-26352500D02*
G01*
X77953000Y-25209500D01*
X85827000Y-25209500D01*
X85827000Y-26352500D01*
X77953000Y-26352500D01*
G37*
X77953000Y-26352500D02*
X77953000Y-25209500D01*
X85827000Y-25209500D01*
X85827000Y-26352500D01*
X77953000Y-26352500D01*
X76937000Y-26352500D02*
X76937000Y-15811500D01*
X86843000Y-26352500D02*
X76937000Y-26352500D01*
X86843000Y-15811500D02*
X86843000Y-26352500D01*
X76937000Y-15811500D02*
X86843000Y-15811500D01*
X85482102Y-21272500D02*
G75*
G03*
X85482102Y-21272500I-3592102J0D01*
G01*
%TO.C,Audio_R_1*%
G36*
X27178000Y-13970000D02*
G01*
X27178000Y-12827000D01*
X35052000Y-12827000D01*
X35052000Y-13970000D01*
X27178000Y-13970000D01*
G37*
X27178000Y-13970000D02*
X27178000Y-12827000D01*
X35052000Y-12827000D01*
X35052000Y-13970000D01*
X27178000Y-13970000D01*
X26162000Y-13970000D02*
X26162000Y-3429000D01*
X36068000Y-13970000D02*
X26162000Y-13970000D01*
X36068000Y-3429000D02*
X36068000Y-13970000D01*
X26162000Y-3429000D02*
X36068000Y-3429000D01*
X34707102Y-8890000D02*
G75*
G03*
X34707102Y-8890000I-3592102J0D01*
G01*
%TO.C,Audio_B_1*%
G36*
X27178000Y-38735000D02*
G01*
X27178000Y-37592000D01*
X35052000Y-37592000D01*
X35052000Y-38735000D01*
X27178000Y-38735000D01*
G37*
X27178000Y-38735000D02*
X27178000Y-37592000D01*
X35052000Y-37592000D01*
X35052000Y-38735000D01*
X27178000Y-38735000D01*
X26162000Y-38735000D02*
X26162000Y-28194000D01*
X36068000Y-38735000D02*
X26162000Y-38735000D01*
X36068000Y-28194000D02*
X36068000Y-38735000D01*
X26162000Y-28194000D02*
X36068000Y-28194000D01*
X34707102Y-33655000D02*
G75*
G03*
X34707102Y-33655000I-3592102J0D01*
G01*
%TO.C,Audio_G_1*%
G36*
X27178000Y-26352500D02*
G01*
X27178000Y-25209500D01*
X35052000Y-25209500D01*
X35052000Y-26352500D01*
X27178000Y-26352500D01*
G37*
X27178000Y-26352500D02*
X27178000Y-25209500D01*
X35052000Y-25209500D01*
X35052000Y-26352500D01*
X27178000Y-26352500D01*
X26162000Y-26352500D02*
X26162000Y-15811500D01*
X36068000Y-26352500D02*
X26162000Y-26352500D01*
X36068000Y-15811500D02*
X36068000Y-26352500D01*
X26162000Y-15811500D02*
X36068000Y-15811500D01*
X34707102Y-21272500D02*
G75*
G03*
X34707102Y-21272500I-3592102J0D01*
G01*
D11*
%TO.C,G_CV_3*%
X112145000Y-68175000D02*
X102405000Y-68175000D01*
X112145000Y-79765000D02*
X110655000Y-79765000D01*
X112145000Y-71235000D02*
X112145000Y-68175000D01*
X102395000Y-79765000D02*
X102395000Y-75045000D01*
X102405000Y-71235000D02*
X102405000Y-68175000D01*
X112145000Y-79765000D02*
X112145000Y-75045000D01*
X103585000Y-79765000D02*
X102405000Y-79765000D01*
X106485000Y-79765000D02*
X105955000Y-79765000D01*
X108935000Y-79765000D02*
X108105000Y-79765000D01*
%TO.C,B_CV_3*%
X112145000Y-91035000D02*
X102405000Y-91035000D01*
X112145000Y-102625000D02*
X110655000Y-102625000D01*
X112145000Y-94095000D02*
X112145000Y-91035000D01*
X102395000Y-102625000D02*
X102395000Y-97905000D01*
X102405000Y-94095000D02*
X102405000Y-91035000D01*
X112145000Y-102625000D02*
X112145000Y-97905000D01*
X103585000Y-102625000D02*
X102405000Y-102625000D01*
X106485000Y-102625000D02*
X105955000Y-102625000D01*
X108935000Y-102625000D02*
X108105000Y-102625000D01*
%TO.C,R_CV_3*%
X112145000Y-45315000D02*
X102405000Y-45315000D01*
X112145000Y-56905000D02*
X110655000Y-56905000D01*
X112145000Y-48375000D02*
X112145000Y-45315000D01*
X102395000Y-56905000D02*
X102395000Y-52185000D01*
X102405000Y-48375000D02*
X102405000Y-45315000D01*
X112145000Y-56905000D02*
X112145000Y-52185000D01*
X103585000Y-56905000D02*
X102405000Y-56905000D01*
X106485000Y-56905000D02*
X105955000Y-56905000D01*
X108935000Y-56905000D02*
X108105000Y-56905000D01*
%TO.C,G_CV_2*%
X62615000Y-68175000D02*
X52875000Y-68175000D01*
X62615000Y-79765000D02*
X61125000Y-79765000D01*
X62615000Y-71235000D02*
X62615000Y-68175000D01*
X52865000Y-79765000D02*
X52865000Y-75045000D01*
X52875000Y-71235000D02*
X52875000Y-68175000D01*
X62615000Y-79765000D02*
X62615000Y-75045000D01*
X54055000Y-79765000D02*
X52875000Y-79765000D01*
X56955000Y-79765000D02*
X56425000Y-79765000D01*
X59405000Y-79765000D02*
X58575000Y-79765000D01*
%TO.C,B_CV_2*%
X62615000Y-91035000D02*
X52875000Y-91035000D01*
X62615000Y-102625000D02*
X61125000Y-102625000D01*
X62615000Y-94095000D02*
X62615000Y-91035000D01*
X52865000Y-102625000D02*
X52865000Y-97905000D01*
X52875000Y-94095000D02*
X52875000Y-91035000D01*
X62615000Y-102625000D02*
X62615000Y-97905000D01*
X54055000Y-102625000D02*
X52875000Y-102625000D01*
X56955000Y-102625000D02*
X56425000Y-102625000D01*
X59405000Y-102625000D02*
X58575000Y-102625000D01*
%TO.C,R_CV_2*%
X62615000Y-45315000D02*
X52875000Y-45315000D01*
X62615000Y-56905000D02*
X61125000Y-56905000D01*
X62615000Y-48375000D02*
X62615000Y-45315000D01*
X52865000Y-56905000D02*
X52865000Y-52185000D01*
X52875000Y-48375000D02*
X52875000Y-45315000D01*
X62615000Y-56905000D02*
X62615000Y-52185000D01*
X54055000Y-56905000D02*
X52875000Y-56905000D01*
X56955000Y-56905000D02*
X56425000Y-56905000D01*
X59405000Y-56905000D02*
X58575000Y-56905000D01*
%TO.C,G_CV_1*%
X37215000Y-68175000D02*
X27475000Y-68175000D01*
X37215000Y-79765000D02*
X35725000Y-79765000D01*
X37215000Y-71235000D02*
X37215000Y-68175000D01*
X27465000Y-79765000D02*
X27465000Y-75045000D01*
X27475000Y-71235000D02*
X27475000Y-68175000D01*
X37215000Y-79765000D02*
X37215000Y-75045000D01*
X28655000Y-79765000D02*
X27475000Y-79765000D01*
X31555000Y-79765000D02*
X31025000Y-79765000D01*
X34005000Y-79765000D02*
X33175000Y-79765000D01*
%TO.C,B_CV_1*%
X37215000Y-91035000D02*
X27475000Y-91035000D01*
X37215000Y-102625000D02*
X35725000Y-102625000D01*
X37215000Y-94095000D02*
X37215000Y-91035000D01*
X27465000Y-102625000D02*
X27465000Y-97905000D01*
X27475000Y-94095000D02*
X27475000Y-91035000D01*
X37215000Y-102625000D02*
X37215000Y-97905000D01*
X28655000Y-102625000D02*
X27475000Y-102625000D01*
X31555000Y-102625000D02*
X31025000Y-102625000D01*
X34005000Y-102625000D02*
X33175000Y-102625000D01*
%TO.C,R_CV_1*%
X37215000Y-45315000D02*
X27475000Y-45315000D01*
X37215000Y-56905000D02*
X35725000Y-56905000D01*
X37215000Y-48375000D02*
X37215000Y-45315000D01*
X27465000Y-56905000D02*
X27465000Y-52185000D01*
X27475000Y-48375000D02*
X27475000Y-45315000D01*
X37215000Y-56905000D02*
X37215000Y-52185000D01*
X28655000Y-56905000D02*
X27475000Y-56905000D01*
X31555000Y-56905000D02*
X31025000Y-56905000D01*
X34005000Y-56905000D02*
X33175000Y-56905000D01*
%TO.C,B_A_RV1*%
X13085000Y-91035000D02*
X3345000Y-91035000D01*
X13085000Y-102625000D02*
X11595000Y-102625000D01*
X13085000Y-94095000D02*
X13085000Y-91035000D01*
X3335000Y-102625000D02*
X3335000Y-97905000D01*
X3345000Y-94095000D02*
X3345000Y-91035000D01*
X13085000Y-102625000D02*
X13085000Y-97905000D01*
X4525000Y-102625000D02*
X3345000Y-102625000D01*
X7425000Y-102625000D02*
X6895000Y-102625000D01*
X9875000Y-102625000D02*
X9045000Y-102625000D01*
%TO.C,R_A_RV3*%
X136275000Y-45315000D02*
X126535000Y-45315000D01*
X136275000Y-56905000D02*
X134785000Y-56905000D01*
X136275000Y-48375000D02*
X136275000Y-45315000D01*
X126525000Y-56905000D02*
X126525000Y-52185000D01*
X126535000Y-48375000D02*
X126535000Y-45315000D01*
X136275000Y-56905000D02*
X136275000Y-52185000D01*
X127715000Y-56905000D02*
X126535000Y-56905000D01*
X130615000Y-56905000D02*
X130085000Y-56905000D01*
X133065000Y-56905000D02*
X132235000Y-56905000D01*
%TO.C,B_A_RV3*%
X136275000Y-91035000D02*
X126535000Y-91035000D01*
X136275000Y-102625000D02*
X134785000Y-102625000D01*
X136275000Y-94095000D02*
X136275000Y-91035000D01*
X126525000Y-102625000D02*
X126525000Y-97905000D01*
X126535000Y-94095000D02*
X126535000Y-91035000D01*
X136275000Y-102625000D02*
X136275000Y-97905000D01*
X127715000Y-102625000D02*
X126535000Y-102625000D01*
X130615000Y-102625000D02*
X130085000Y-102625000D01*
X133065000Y-102625000D02*
X132235000Y-102625000D01*
%TO.C,G_A_RV3*%
X136275000Y-68175000D02*
X126535000Y-68175000D01*
X136275000Y-79765000D02*
X134785000Y-79765000D01*
X136275000Y-71235000D02*
X136275000Y-68175000D01*
X126525000Y-79765000D02*
X126525000Y-75045000D01*
X126535000Y-71235000D02*
X126535000Y-68175000D01*
X136275000Y-79765000D02*
X136275000Y-75045000D01*
X127715000Y-79765000D02*
X126535000Y-79765000D01*
X130615000Y-79765000D02*
X130085000Y-79765000D01*
X133065000Y-79765000D02*
X132235000Y-79765000D01*
%TO.C,R_A_RV2*%
X86785000Y-45315000D02*
X77045000Y-45315000D01*
X86785000Y-56905000D02*
X85295000Y-56905000D01*
X86785000Y-48375000D02*
X86785000Y-45315000D01*
X77035000Y-56905000D02*
X77035000Y-52185000D01*
X77045000Y-48375000D02*
X77045000Y-45315000D01*
X86785000Y-56905000D02*
X86785000Y-52185000D01*
X78225000Y-56905000D02*
X77045000Y-56905000D01*
X81125000Y-56905000D02*
X80595000Y-56905000D01*
X83575000Y-56905000D02*
X82745000Y-56905000D01*
%TO.C,B_A_RV2*%
X86785000Y-91035000D02*
X77045000Y-91035000D01*
X86785000Y-102625000D02*
X85295000Y-102625000D01*
X86785000Y-94095000D02*
X86785000Y-91035000D01*
X77035000Y-102625000D02*
X77035000Y-97905000D01*
X77045000Y-94095000D02*
X77045000Y-91035000D01*
X86785000Y-102625000D02*
X86785000Y-97905000D01*
X78225000Y-102625000D02*
X77045000Y-102625000D01*
X81125000Y-102625000D02*
X80595000Y-102625000D01*
X83575000Y-102625000D02*
X82745000Y-102625000D01*
%TO.C,G_A_RV2*%
X86785000Y-68175000D02*
X77045000Y-68175000D01*
X86785000Y-79765000D02*
X85295000Y-79765000D01*
X86785000Y-71235000D02*
X86785000Y-68175000D01*
X77035000Y-79765000D02*
X77035000Y-75045000D01*
X77045000Y-71235000D02*
X77045000Y-68175000D01*
X86785000Y-79765000D02*
X86785000Y-75045000D01*
X78225000Y-79765000D02*
X77045000Y-79765000D01*
X81125000Y-79765000D02*
X80595000Y-79765000D01*
X83575000Y-79765000D02*
X82745000Y-79765000D01*
%TO.C,R_A_RV1*%
X13085000Y-45315000D02*
X3345000Y-45315000D01*
X13085000Y-56905000D02*
X11595000Y-56905000D01*
X13085000Y-48375000D02*
X13085000Y-45315000D01*
X3335000Y-56905000D02*
X3335000Y-52185000D01*
X3345000Y-48375000D02*
X3345000Y-45315000D01*
X13085000Y-56905000D02*
X13085000Y-52185000D01*
X4525000Y-56905000D02*
X3345000Y-56905000D01*
X7425000Y-56905000D02*
X6895000Y-56905000D01*
X9875000Y-56905000D02*
X9045000Y-56905000D01*
%TO.C,G_A_RV1*%
X13085000Y-68175000D02*
X3345000Y-68175000D01*
X13085000Y-79765000D02*
X11595000Y-79765000D01*
X13085000Y-71235000D02*
X13085000Y-68175000D01*
X3335000Y-79765000D02*
X3335000Y-75045000D01*
X3345000Y-71235000D02*
X3345000Y-68175000D01*
X13085000Y-79765000D02*
X13085000Y-75045000D01*
X4525000Y-79765000D02*
X3345000Y-79765000D01*
X7425000Y-79765000D02*
X6895000Y-79765000D01*
X9875000Y-79765000D02*
X9045000Y-79765000D01*
%TO.C,J4*%
X114190000Y-1845000D02*
X114190000Y-4505000D01*
X121870000Y-1845000D02*
X114190000Y-1845000D01*
X121870000Y-4505000D02*
X114190000Y-4505000D01*
X121870000Y-1845000D02*
X121870000Y-4505000D01*
X123140000Y-1845000D02*
X124470000Y-1845000D01*
X124470000Y-1845000D02*
X124470000Y-3175000D01*
%TO.C,J3*%
X64680000Y-1845000D02*
X64680000Y-4505000D01*
X72360000Y-1845000D02*
X64680000Y-1845000D01*
X72360000Y-4505000D02*
X64680000Y-4505000D01*
X72360000Y-1845000D02*
X72360000Y-4505000D01*
X73630000Y-1845000D02*
X74960000Y-1845000D01*
X74960000Y-1845000D02*
X74960000Y-3175000D01*
%TO.C,J2*%
X14560000Y-1845000D02*
X14560000Y-4505000D01*
X22240000Y-1845000D02*
X14560000Y-1845000D01*
X22240000Y-4505000D02*
X14560000Y-4505000D01*
X22240000Y-1845000D02*
X22240000Y-4505000D01*
X23510000Y-1845000D02*
X24840000Y-1845000D01*
X24840000Y-1845000D02*
X24840000Y-3175000D01*
%TO.C,G_CV_IN_3*%
D10*
X104202380Y-21661500D02*
X104107142Y-21613880D01*
X103964285Y-21613880D01*
X103821428Y-21661500D01*
X103726190Y-21756738D01*
X103678571Y-21851976D01*
X103630952Y-22042452D01*
X103630952Y-22185309D01*
X103678571Y-22375785D01*
X103726190Y-22471023D01*
X103821428Y-22566261D01*
X103964285Y-22613880D01*
X104059523Y-22613880D01*
X104202380Y-22566261D01*
X104250000Y-22518642D01*
X104250000Y-22185309D01*
X104059523Y-22185309D01*
X104440476Y-22709119D02*
X105202380Y-22709119D01*
X106011904Y-22518642D02*
X105964285Y-22566261D01*
X105821428Y-22613880D01*
X105726190Y-22613880D01*
X105583333Y-22566261D01*
X105488095Y-22471023D01*
X105440476Y-22375785D01*
X105392857Y-22185309D01*
X105392857Y-22042452D01*
X105440476Y-21851976D01*
X105488095Y-21756738D01*
X105583333Y-21661500D01*
X105726190Y-21613880D01*
X105821428Y-21613880D01*
X105964285Y-21661500D01*
X106011904Y-21709119D01*
X106297619Y-21613880D02*
X106630952Y-22613880D01*
X106964285Y-21613880D01*
X107059523Y-22709119D02*
X107821428Y-22709119D01*
X108059523Y-22613880D02*
X108059523Y-21613880D01*
X108535714Y-22613880D02*
X108535714Y-21613880D01*
X109107142Y-22613880D01*
X109107142Y-21613880D01*
X109345238Y-22709119D02*
X110107142Y-22709119D01*
X110250000Y-21613880D02*
X110869047Y-21613880D01*
X110535714Y-21994833D01*
X110678571Y-21994833D01*
X110773809Y-22042452D01*
X110821428Y-22090071D01*
X110869047Y-22185309D01*
X110869047Y-22423404D01*
X110821428Y-22518642D01*
X110773809Y-22566261D01*
X110678571Y-22613880D01*
X110392857Y-22613880D01*
X110297619Y-22566261D01*
X110250000Y-22518642D01*
%TO.C,B_CV_IN_3*%
X104011904Y-34472571D02*
X104154761Y-34520190D01*
X104202380Y-34567809D01*
X104250000Y-34663047D01*
X104250000Y-34805904D01*
X104202380Y-34901142D01*
X104154761Y-34948761D01*
X104059523Y-34996380D01*
X103678571Y-34996380D01*
X103678571Y-33996380D01*
X104011904Y-33996380D01*
X104107142Y-34044000D01*
X104154761Y-34091619D01*
X104202380Y-34186857D01*
X104202380Y-34282095D01*
X104154761Y-34377333D01*
X104107142Y-34424952D01*
X104011904Y-34472571D01*
X103678571Y-34472571D01*
X104440476Y-35091619D02*
X105202380Y-35091619D01*
X106011904Y-34901142D02*
X105964285Y-34948761D01*
X105821428Y-34996380D01*
X105726190Y-34996380D01*
X105583333Y-34948761D01*
X105488095Y-34853523D01*
X105440476Y-34758285D01*
X105392857Y-34567809D01*
X105392857Y-34424952D01*
X105440476Y-34234476D01*
X105488095Y-34139238D01*
X105583333Y-34044000D01*
X105726190Y-33996380D01*
X105821428Y-33996380D01*
X105964285Y-34044000D01*
X106011904Y-34091619D01*
X106297619Y-33996380D02*
X106630952Y-34996380D01*
X106964285Y-33996380D01*
X107059523Y-35091619D02*
X107821428Y-35091619D01*
X108059523Y-34996380D02*
X108059523Y-33996380D01*
X108535714Y-34996380D02*
X108535714Y-33996380D01*
X109107142Y-34996380D01*
X109107142Y-33996380D01*
X109345238Y-35091619D02*
X110107142Y-35091619D01*
X110250000Y-33996380D02*
X110869047Y-33996380D01*
X110535714Y-34377333D01*
X110678571Y-34377333D01*
X110773809Y-34424952D01*
X110821428Y-34472571D01*
X110869047Y-34567809D01*
X110869047Y-34805904D01*
X110821428Y-34901142D01*
X110773809Y-34948761D01*
X110678571Y-34996380D01*
X110392857Y-34996380D01*
X110297619Y-34948761D01*
X110250000Y-34901142D01*
%TO.C,R_CV_IN_3*%
X104250000Y-10231380D02*
X103916666Y-9755190D01*
X103678571Y-10231380D02*
X103678571Y-9231380D01*
X104059523Y-9231380D01*
X104154761Y-9279000D01*
X104202380Y-9326619D01*
X104250000Y-9421857D01*
X104250000Y-9564714D01*
X104202380Y-9659952D01*
X104154761Y-9707571D01*
X104059523Y-9755190D01*
X103678571Y-9755190D01*
X104440476Y-10326619D02*
X105202380Y-10326619D01*
X106011904Y-10136142D02*
X105964285Y-10183761D01*
X105821428Y-10231380D01*
X105726190Y-10231380D01*
X105583333Y-10183761D01*
X105488095Y-10088523D01*
X105440476Y-9993285D01*
X105392857Y-9802809D01*
X105392857Y-9659952D01*
X105440476Y-9469476D01*
X105488095Y-9374238D01*
X105583333Y-9279000D01*
X105726190Y-9231380D01*
X105821428Y-9231380D01*
X105964285Y-9279000D01*
X106011904Y-9326619D01*
X106297619Y-9231380D02*
X106630952Y-10231380D01*
X106964285Y-9231380D01*
X107059523Y-10326619D02*
X107821428Y-10326619D01*
X108059523Y-10231380D02*
X108059523Y-9231380D01*
X108535714Y-10231380D02*
X108535714Y-9231380D01*
X109107142Y-10231380D01*
X109107142Y-9231380D01*
X109345238Y-10326619D02*
X110107142Y-10326619D01*
X110250000Y-9231380D02*
X110869047Y-9231380D01*
X110535714Y-9612333D01*
X110678571Y-9612333D01*
X110773809Y-9659952D01*
X110821428Y-9707571D01*
X110869047Y-9802809D01*
X110869047Y-10040904D01*
X110821428Y-10136142D01*
X110773809Y-10183761D01*
X110678571Y-10231380D01*
X110392857Y-10231380D01*
X110297619Y-10183761D01*
X110250000Y-10136142D01*
%TO.C,G_CV_IN_2*%
X54672380Y-21661500D02*
X54577142Y-21613880D01*
X54434285Y-21613880D01*
X54291428Y-21661500D01*
X54196190Y-21756738D01*
X54148571Y-21851976D01*
X54100952Y-22042452D01*
X54100952Y-22185309D01*
X54148571Y-22375785D01*
X54196190Y-22471023D01*
X54291428Y-22566261D01*
X54434285Y-22613880D01*
X54529523Y-22613880D01*
X54672380Y-22566261D01*
X54720000Y-22518642D01*
X54720000Y-22185309D01*
X54529523Y-22185309D01*
X54910476Y-22709119D02*
X55672380Y-22709119D01*
X56481904Y-22518642D02*
X56434285Y-22566261D01*
X56291428Y-22613880D01*
X56196190Y-22613880D01*
X56053333Y-22566261D01*
X55958095Y-22471023D01*
X55910476Y-22375785D01*
X55862857Y-22185309D01*
X55862857Y-22042452D01*
X55910476Y-21851976D01*
X55958095Y-21756738D01*
X56053333Y-21661500D01*
X56196190Y-21613880D01*
X56291428Y-21613880D01*
X56434285Y-21661500D01*
X56481904Y-21709119D01*
X56767619Y-21613880D02*
X57100952Y-22613880D01*
X57434285Y-21613880D01*
X57529523Y-22709119D02*
X58291428Y-22709119D01*
X58529523Y-22613880D02*
X58529523Y-21613880D01*
X59005714Y-22613880D02*
X59005714Y-21613880D01*
X59577142Y-22613880D01*
X59577142Y-21613880D01*
X59815238Y-22709119D02*
X60577142Y-22709119D01*
X60767619Y-21709119D02*
X60815238Y-21661500D01*
X60910476Y-21613880D01*
X61148571Y-21613880D01*
X61243809Y-21661500D01*
X61291428Y-21709119D01*
X61339047Y-21804357D01*
X61339047Y-21899595D01*
X61291428Y-22042452D01*
X60720000Y-22613880D01*
X61339047Y-22613880D01*
%TO.C,B_CV_IN_2*%
X54481904Y-28779071D02*
X54624761Y-28826690D01*
X54672380Y-28874309D01*
X54720000Y-28969547D01*
X54720000Y-29112404D01*
X54672380Y-29207642D01*
X54624761Y-29255261D01*
X54529523Y-29302880D01*
X54148571Y-29302880D01*
X54148571Y-28302880D01*
X54481904Y-28302880D01*
X54577142Y-28350500D01*
X54624761Y-28398119D01*
X54672380Y-28493357D01*
X54672380Y-28588595D01*
X54624761Y-28683833D01*
X54577142Y-28731452D01*
X54481904Y-28779071D01*
X54148571Y-28779071D01*
X54910476Y-29398119D02*
X55672380Y-29398119D01*
X56481904Y-29207642D02*
X56434285Y-29255261D01*
X56291428Y-29302880D01*
X56196190Y-29302880D01*
X56053333Y-29255261D01*
X55958095Y-29160023D01*
X55910476Y-29064785D01*
X55862857Y-28874309D01*
X55862857Y-28731452D01*
X55910476Y-28540976D01*
X55958095Y-28445738D01*
X56053333Y-28350500D01*
X56196190Y-28302880D01*
X56291428Y-28302880D01*
X56434285Y-28350500D01*
X56481904Y-28398119D01*
X56767619Y-28302880D02*
X57100952Y-29302880D01*
X57434285Y-28302880D01*
X57529523Y-29398119D02*
X58291428Y-29398119D01*
X58529523Y-29302880D02*
X58529523Y-28302880D01*
X59005714Y-29302880D02*
X59005714Y-28302880D01*
X59577142Y-29302880D01*
X59577142Y-28302880D01*
X59815238Y-29398119D02*
X60577142Y-29398119D01*
X60767619Y-28398119D02*
X60815238Y-28350500D01*
X60910476Y-28302880D01*
X61148571Y-28302880D01*
X61243809Y-28350500D01*
X61291428Y-28398119D01*
X61339047Y-28493357D01*
X61339047Y-28588595D01*
X61291428Y-28731452D01*
X60720000Y-29302880D01*
X61339047Y-29302880D01*
%TO.C,R_CV_IN_2*%
X54720000Y-10231380D02*
X54386666Y-9755190D01*
X54148571Y-10231380D02*
X54148571Y-9231380D01*
X54529523Y-9231380D01*
X54624761Y-9279000D01*
X54672380Y-9326619D01*
X54720000Y-9421857D01*
X54720000Y-9564714D01*
X54672380Y-9659952D01*
X54624761Y-9707571D01*
X54529523Y-9755190D01*
X54148571Y-9755190D01*
X54910476Y-10326619D02*
X55672380Y-10326619D01*
X56481904Y-10136142D02*
X56434285Y-10183761D01*
X56291428Y-10231380D01*
X56196190Y-10231380D01*
X56053333Y-10183761D01*
X55958095Y-10088523D01*
X55910476Y-9993285D01*
X55862857Y-9802809D01*
X55862857Y-9659952D01*
X55910476Y-9469476D01*
X55958095Y-9374238D01*
X56053333Y-9279000D01*
X56196190Y-9231380D01*
X56291428Y-9231380D01*
X56434285Y-9279000D01*
X56481904Y-9326619D01*
X56767619Y-9231380D02*
X57100952Y-10231380D01*
X57434285Y-9231380D01*
X57529523Y-10326619D02*
X58291428Y-10326619D01*
X58529523Y-10231380D02*
X58529523Y-9231380D01*
X59005714Y-10231380D02*
X59005714Y-9231380D01*
X59577142Y-10231380D01*
X59577142Y-9231380D01*
X59815238Y-10326619D02*
X60577142Y-10326619D01*
X60767619Y-9326619D02*
X60815238Y-9279000D01*
X60910476Y-9231380D01*
X61148571Y-9231380D01*
X61243809Y-9279000D01*
X61291428Y-9326619D01*
X61339047Y-9421857D01*
X61339047Y-9517095D01*
X61291428Y-9659952D01*
X60720000Y-10231380D01*
X61339047Y-10231380D01*
%TO.C,G_CV_IN_1*%
X5207380Y-21661500D02*
X5112142Y-21613880D01*
X4969285Y-21613880D01*
X4826428Y-21661500D01*
X4731190Y-21756738D01*
X4683571Y-21851976D01*
X4635952Y-22042452D01*
X4635952Y-22185309D01*
X4683571Y-22375785D01*
X4731190Y-22471023D01*
X4826428Y-22566261D01*
X4969285Y-22613880D01*
X5064523Y-22613880D01*
X5207380Y-22566261D01*
X5255000Y-22518642D01*
X5255000Y-22185309D01*
X5064523Y-22185309D01*
X5445476Y-22709119D02*
X6207380Y-22709119D01*
X7016904Y-22518642D02*
X6969285Y-22566261D01*
X6826428Y-22613880D01*
X6731190Y-22613880D01*
X6588333Y-22566261D01*
X6493095Y-22471023D01*
X6445476Y-22375785D01*
X6397857Y-22185309D01*
X6397857Y-22042452D01*
X6445476Y-21851976D01*
X6493095Y-21756738D01*
X6588333Y-21661500D01*
X6731190Y-21613880D01*
X6826428Y-21613880D01*
X6969285Y-21661500D01*
X7016904Y-21709119D01*
X7302619Y-21613880D02*
X7635952Y-22613880D01*
X7969285Y-21613880D01*
X8064523Y-22709119D02*
X8826428Y-22709119D01*
X9064523Y-22613880D02*
X9064523Y-21613880D01*
X9540714Y-22613880D02*
X9540714Y-21613880D01*
X10112142Y-22613880D01*
X10112142Y-21613880D01*
X10350238Y-22709119D02*
X11112142Y-22709119D01*
X11874047Y-22613880D02*
X11302619Y-22613880D01*
X11588333Y-22613880D02*
X11588333Y-21613880D01*
X11493095Y-21756738D01*
X11397857Y-21851976D01*
X11302619Y-21899595D01*
%TO.C,B_CV_IN_1*%
X5016904Y-34472571D02*
X5159761Y-34520190D01*
X5207380Y-34567809D01*
X5255000Y-34663047D01*
X5255000Y-34805904D01*
X5207380Y-34901142D01*
X5159761Y-34948761D01*
X5064523Y-34996380D01*
X4683571Y-34996380D01*
X4683571Y-33996380D01*
X5016904Y-33996380D01*
X5112142Y-34044000D01*
X5159761Y-34091619D01*
X5207380Y-34186857D01*
X5207380Y-34282095D01*
X5159761Y-34377333D01*
X5112142Y-34424952D01*
X5016904Y-34472571D01*
X4683571Y-34472571D01*
X5445476Y-35091619D02*
X6207380Y-35091619D01*
X7016904Y-34901142D02*
X6969285Y-34948761D01*
X6826428Y-34996380D01*
X6731190Y-34996380D01*
X6588333Y-34948761D01*
X6493095Y-34853523D01*
X6445476Y-34758285D01*
X6397857Y-34567809D01*
X6397857Y-34424952D01*
X6445476Y-34234476D01*
X6493095Y-34139238D01*
X6588333Y-34044000D01*
X6731190Y-33996380D01*
X6826428Y-33996380D01*
X6969285Y-34044000D01*
X7016904Y-34091619D01*
X7302619Y-33996380D02*
X7635952Y-34996380D01*
X7969285Y-33996380D01*
X8064523Y-35091619D02*
X8826428Y-35091619D01*
X9064523Y-34996380D02*
X9064523Y-33996380D01*
X9540714Y-34996380D02*
X9540714Y-33996380D01*
X10112142Y-34996380D01*
X10112142Y-33996380D01*
X10350238Y-35091619D02*
X11112142Y-35091619D01*
X11874047Y-34996380D02*
X11302619Y-34996380D01*
X11588333Y-34996380D02*
X11588333Y-33996380D01*
X11493095Y-34139238D01*
X11397857Y-34234476D01*
X11302619Y-34282095D01*
%TO.C,R_CV_IN_1*%
X5255000Y-10231380D02*
X4921666Y-9755190D01*
X4683571Y-10231380D02*
X4683571Y-9231380D01*
X5064523Y-9231380D01*
X5159761Y-9279000D01*
X5207380Y-9326619D01*
X5255000Y-9421857D01*
X5255000Y-9564714D01*
X5207380Y-9659952D01*
X5159761Y-9707571D01*
X5064523Y-9755190D01*
X4683571Y-9755190D01*
X5445476Y-10326619D02*
X6207380Y-10326619D01*
X7016904Y-10136142D02*
X6969285Y-10183761D01*
X6826428Y-10231380D01*
X6731190Y-10231380D01*
X6588333Y-10183761D01*
X6493095Y-10088523D01*
X6445476Y-9993285D01*
X6397857Y-9802809D01*
X6397857Y-9659952D01*
X6445476Y-9469476D01*
X6493095Y-9374238D01*
X6588333Y-9279000D01*
X6731190Y-9231380D01*
X6826428Y-9231380D01*
X6969285Y-9279000D01*
X7016904Y-9326619D01*
X7302619Y-9231380D02*
X7635952Y-10231380D01*
X7969285Y-9231380D01*
X8064523Y-10326619D02*
X8826428Y-10326619D01*
X9064523Y-10231380D02*
X9064523Y-9231380D01*
X9540714Y-10231380D02*
X9540714Y-9231380D01*
X10112142Y-10231380D01*
X10112142Y-9231380D01*
X10350238Y-10326619D02*
X11112142Y-10326619D01*
X11874047Y-10231380D02*
X11302619Y-10231380D01*
X11588333Y-10231380D02*
X11588333Y-9231380D01*
X11493095Y-9374238D01*
X11397857Y-9469476D01*
X11302619Y-9517095D01*
%TO.C,Audio_R_3*%
X127808571Y-9945666D02*
X128284761Y-9945666D01*
X127713333Y-10231380D02*
X128046666Y-9231380D01*
X128380000Y-10231380D01*
X129141904Y-9564714D02*
X129141904Y-10231380D01*
X128713333Y-9564714D02*
X128713333Y-10088523D01*
X128760952Y-10183761D01*
X128856190Y-10231380D01*
X128999047Y-10231380D01*
X129094285Y-10183761D01*
X129141904Y-10136142D01*
X130046666Y-10231380D02*
X130046666Y-9231380D01*
X130046666Y-10183761D02*
X129951428Y-10231380D01*
X129760952Y-10231380D01*
X129665714Y-10183761D01*
X129618095Y-10136142D01*
X129570476Y-10040904D01*
X129570476Y-9755190D01*
X129618095Y-9659952D01*
X129665714Y-9612333D01*
X129760952Y-9564714D01*
X129951428Y-9564714D01*
X130046666Y-9612333D01*
X130522857Y-10231380D02*
X130522857Y-9564714D01*
X130522857Y-9231380D02*
X130475238Y-9279000D01*
X130522857Y-9326619D01*
X130570476Y-9279000D01*
X130522857Y-9231380D01*
X130522857Y-9326619D01*
X131141904Y-10231380D02*
X131046666Y-10183761D01*
X130999047Y-10136142D01*
X130951428Y-10040904D01*
X130951428Y-9755190D01*
X130999047Y-9659952D01*
X131046666Y-9612333D01*
X131141904Y-9564714D01*
X131284761Y-9564714D01*
X131380000Y-9612333D01*
X131427619Y-9659952D01*
X131475238Y-9755190D01*
X131475238Y-10040904D01*
X131427619Y-10136142D01*
X131380000Y-10183761D01*
X131284761Y-10231380D01*
X131141904Y-10231380D01*
X131665714Y-10326619D02*
X132427619Y-10326619D01*
X133237142Y-10231380D02*
X132903809Y-9755190D01*
X132665714Y-10231380D02*
X132665714Y-9231380D01*
X133046666Y-9231380D01*
X133141904Y-9279000D01*
X133189523Y-9326619D01*
X133237142Y-9421857D01*
X133237142Y-9564714D01*
X133189523Y-9659952D01*
X133141904Y-9707571D01*
X133046666Y-9755190D01*
X132665714Y-9755190D01*
X133427619Y-10326619D02*
X134189523Y-10326619D01*
X134332380Y-9231380D02*
X134951428Y-9231380D01*
X134618095Y-9612333D01*
X134760952Y-9612333D01*
X134856190Y-9659952D01*
X134903809Y-9707571D01*
X134951428Y-9802809D01*
X134951428Y-10040904D01*
X134903809Y-10136142D01*
X134856190Y-10183761D01*
X134760952Y-10231380D01*
X134475238Y-10231380D01*
X134380000Y-10183761D01*
X134332380Y-10136142D01*
%TO.C,Audio_B_3*%
X127808571Y-34710666D02*
X128284761Y-34710666D01*
X127713333Y-34996380D02*
X128046666Y-33996380D01*
X128380000Y-34996380D01*
X129141904Y-34329714D02*
X129141904Y-34996380D01*
X128713333Y-34329714D02*
X128713333Y-34853523D01*
X128760952Y-34948761D01*
X128856190Y-34996380D01*
X128999047Y-34996380D01*
X129094285Y-34948761D01*
X129141904Y-34901142D01*
X130046666Y-34996380D02*
X130046666Y-33996380D01*
X130046666Y-34948761D02*
X129951428Y-34996380D01*
X129760952Y-34996380D01*
X129665714Y-34948761D01*
X129618095Y-34901142D01*
X129570476Y-34805904D01*
X129570476Y-34520190D01*
X129618095Y-34424952D01*
X129665714Y-34377333D01*
X129760952Y-34329714D01*
X129951428Y-34329714D01*
X130046666Y-34377333D01*
X130522857Y-34996380D02*
X130522857Y-34329714D01*
X130522857Y-33996380D02*
X130475238Y-34044000D01*
X130522857Y-34091619D01*
X130570476Y-34044000D01*
X130522857Y-33996380D01*
X130522857Y-34091619D01*
X131141904Y-34996380D02*
X131046666Y-34948761D01*
X130999047Y-34901142D01*
X130951428Y-34805904D01*
X130951428Y-34520190D01*
X130999047Y-34424952D01*
X131046666Y-34377333D01*
X131141904Y-34329714D01*
X131284761Y-34329714D01*
X131380000Y-34377333D01*
X131427619Y-34424952D01*
X131475238Y-34520190D01*
X131475238Y-34805904D01*
X131427619Y-34901142D01*
X131380000Y-34948761D01*
X131284761Y-34996380D01*
X131141904Y-34996380D01*
X131665714Y-35091619D02*
X132427619Y-35091619D01*
X132999047Y-34472571D02*
X133141904Y-34520190D01*
X133189523Y-34567809D01*
X133237142Y-34663047D01*
X133237142Y-34805904D01*
X133189523Y-34901142D01*
X133141904Y-34948761D01*
X133046666Y-34996380D01*
X132665714Y-34996380D01*
X132665714Y-33996380D01*
X132999047Y-33996380D01*
X133094285Y-34044000D01*
X133141904Y-34091619D01*
X133189523Y-34186857D01*
X133189523Y-34282095D01*
X133141904Y-34377333D01*
X133094285Y-34424952D01*
X132999047Y-34472571D01*
X132665714Y-34472571D01*
X133427619Y-35091619D02*
X134189523Y-35091619D01*
X134332380Y-33996380D02*
X134951428Y-33996380D01*
X134618095Y-34377333D01*
X134760952Y-34377333D01*
X134856190Y-34424952D01*
X134903809Y-34472571D01*
X134951428Y-34567809D01*
X134951428Y-34805904D01*
X134903809Y-34901142D01*
X134856190Y-34948761D01*
X134760952Y-34996380D01*
X134475238Y-34996380D01*
X134380000Y-34948761D01*
X134332380Y-34901142D01*
%TO.C,Audio_G_3*%
X127808571Y-22328166D02*
X128284761Y-22328166D01*
X127713333Y-22613880D02*
X128046666Y-21613880D01*
X128380000Y-22613880D01*
X129141904Y-21947214D02*
X129141904Y-22613880D01*
X128713333Y-21947214D02*
X128713333Y-22471023D01*
X128760952Y-22566261D01*
X128856190Y-22613880D01*
X128999047Y-22613880D01*
X129094285Y-22566261D01*
X129141904Y-22518642D01*
X130046666Y-22613880D02*
X130046666Y-21613880D01*
X130046666Y-22566261D02*
X129951428Y-22613880D01*
X129760952Y-22613880D01*
X129665714Y-22566261D01*
X129618095Y-22518642D01*
X129570476Y-22423404D01*
X129570476Y-22137690D01*
X129618095Y-22042452D01*
X129665714Y-21994833D01*
X129760952Y-21947214D01*
X129951428Y-21947214D01*
X130046666Y-21994833D01*
X130522857Y-22613880D02*
X130522857Y-21947214D01*
X130522857Y-21613880D02*
X130475238Y-21661500D01*
X130522857Y-21709119D01*
X130570476Y-21661500D01*
X130522857Y-21613880D01*
X130522857Y-21709119D01*
X131141904Y-22613880D02*
X131046666Y-22566261D01*
X130999047Y-22518642D01*
X130951428Y-22423404D01*
X130951428Y-22137690D01*
X130999047Y-22042452D01*
X131046666Y-21994833D01*
X131141904Y-21947214D01*
X131284761Y-21947214D01*
X131380000Y-21994833D01*
X131427619Y-22042452D01*
X131475238Y-22137690D01*
X131475238Y-22423404D01*
X131427619Y-22518642D01*
X131380000Y-22566261D01*
X131284761Y-22613880D01*
X131141904Y-22613880D01*
X131665714Y-22709119D02*
X132427619Y-22709119D01*
X133189523Y-21661500D02*
X133094285Y-21613880D01*
X132951428Y-21613880D01*
X132808571Y-21661500D01*
X132713333Y-21756738D01*
X132665714Y-21851976D01*
X132618095Y-22042452D01*
X132618095Y-22185309D01*
X132665714Y-22375785D01*
X132713333Y-22471023D01*
X132808571Y-22566261D01*
X132951428Y-22613880D01*
X133046666Y-22613880D01*
X133189523Y-22566261D01*
X133237142Y-22518642D01*
X133237142Y-22185309D01*
X133046666Y-22185309D01*
X133427619Y-22709119D02*
X134189523Y-22709119D01*
X134332380Y-21613880D02*
X134951428Y-21613880D01*
X134618095Y-21994833D01*
X134760952Y-21994833D01*
X134856190Y-22042452D01*
X134903809Y-22090071D01*
X134951428Y-22185309D01*
X134951428Y-22423404D01*
X134903809Y-22518642D01*
X134856190Y-22566261D01*
X134760952Y-22613880D01*
X134475238Y-22613880D01*
X134380000Y-22566261D01*
X134332380Y-22518642D01*
%TO.C,Audio_R_2*%
X78318571Y-9945666D02*
X78794761Y-9945666D01*
X78223333Y-10231380D02*
X78556666Y-9231380D01*
X78890000Y-10231380D01*
X79651904Y-9564714D02*
X79651904Y-10231380D01*
X79223333Y-9564714D02*
X79223333Y-10088523D01*
X79270952Y-10183761D01*
X79366190Y-10231380D01*
X79509047Y-10231380D01*
X79604285Y-10183761D01*
X79651904Y-10136142D01*
X80556666Y-10231380D02*
X80556666Y-9231380D01*
X80556666Y-10183761D02*
X80461428Y-10231380D01*
X80270952Y-10231380D01*
X80175714Y-10183761D01*
X80128095Y-10136142D01*
X80080476Y-10040904D01*
X80080476Y-9755190D01*
X80128095Y-9659952D01*
X80175714Y-9612333D01*
X80270952Y-9564714D01*
X80461428Y-9564714D01*
X80556666Y-9612333D01*
X81032857Y-10231380D02*
X81032857Y-9564714D01*
X81032857Y-9231380D02*
X80985238Y-9279000D01*
X81032857Y-9326619D01*
X81080476Y-9279000D01*
X81032857Y-9231380D01*
X81032857Y-9326619D01*
X81651904Y-10231380D02*
X81556666Y-10183761D01*
X81509047Y-10136142D01*
X81461428Y-10040904D01*
X81461428Y-9755190D01*
X81509047Y-9659952D01*
X81556666Y-9612333D01*
X81651904Y-9564714D01*
X81794761Y-9564714D01*
X81890000Y-9612333D01*
X81937619Y-9659952D01*
X81985238Y-9755190D01*
X81985238Y-10040904D01*
X81937619Y-10136142D01*
X81890000Y-10183761D01*
X81794761Y-10231380D01*
X81651904Y-10231380D01*
X82175714Y-10326619D02*
X82937619Y-10326619D01*
X83747142Y-10231380D02*
X83413809Y-9755190D01*
X83175714Y-10231380D02*
X83175714Y-9231380D01*
X83556666Y-9231380D01*
X83651904Y-9279000D01*
X83699523Y-9326619D01*
X83747142Y-9421857D01*
X83747142Y-9564714D01*
X83699523Y-9659952D01*
X83651904Y-9707571D01*
X83556666Y-9755190D01*
X83175714Y-9755190D01*
X83937619Y-10326619D02*
X84699523Y-10326619D01*
X84890000Y-9326619D02*
X84937619Y-9279000D01*
X85032857Y-9231380D01*
X85270952Y-9231380D01*
X85366190Y-9279000D01*
X85413809Y-9326619D01*
X85461428Y-9421857D01*
X85461428Y-9517095D01*
X85413809Y-9659952D01*
X84842380Y-10231380D01*
X85461428Y-10231380D01*
%TO.C,Audio_B_2*%
X78318571Y-34710666D02*
X78794761Y-34710666D01*
X78223333Y-34996380D02*
X78556666Y-33996380D01*
X78890000Y-34996380D01*
X79651904Y-34329714D02*
X79651904Y-34996380D01*
X79223333Y-34329714D02*
X79223333Y-34853523D01*
X79270952Y-34948761D01*
X79366190Y-34996380D01*
X79509047Y-34996380D01*
X79604285Y-34948761D01*
X79651904Y-34901142D01*
X80556666Y-34996380D02*
X80556666Y-33996380D01*
X80556666Y-34948761D02*
X80461428Y-34996380D01*
X80270952Y-34996380D01*
X80175714Y-34948761D01*
X80128095Y-34901142D01*
X80080476Y-34805904D01*
X80080476Y-34520190D01*
X80128095Y-34424952D01*
X80175714Y-34377333D01*
X80270952Y-34329714D01*
X80461428Y-34329714D01*
X80556666Y-34377333D01*
X81032857Y-34996380D02*
X81032857Y-34329714D01*
X81032857Y-33996380D02*
X80985238Y-34044000D01*
X81032857Y-34091619D01*
X81080476Y-34044000D01*
X81032857Y-33996380D01*
X81032857Y-34091619D01*
X81651904Y-34996380D02*
X81556666Y-34948761D01*
X81509047Y-34901142D01*
X81461428Y-34805904D01*
X81461428Y-34520190D01*
X81509047Y-34424952D01*
X81556666Y-34377333D01*
X81651904Y-34329714D01*
X81794761Y-34329714D01*
X81890000Y-34377333D01*
X81937619Y-34424952D01*
X81985238Y-34520190D01*
X81985238Y-34805904D01*
X81937619Y-34901142D01*
X81890000Y-34948761D01*
X81794761Y-34996380D01*
X81651904Y-34996380D01*
X82175714Y-35091619D02*
X82937619Y-35091619D01*
X83509047Y-34472571D02*
X83651904Y-34520190D01*
X83699523Y-34567809D01*
X83747142Y-34663047D01*
X83747142Y-34805904D01*
X83699523Y-34901142D01*
X83651904Y-34948761D01*
X83556666Y-34996380D01*
X83175714Y-34996380D01*
X83175714Y-33996380D01*
X83509047Y-33996380D01*
X83604285Y-34044000D01*
X83651904Y-34091619D01*
X83699523Y-34186857D01*
X83699523Y-34282095D01*
X83651904Y-34377333D01*
X83604285Y-34424952D01*
X83509047Y-34472571D01*
X83175714Y-34472571D01*
X83937619Y-35091619D02*
X84699523Y-35091619D01*
X84890000Y-34091619D02*
X84937619Y-34044000D01*
X85032857Y-33996380D01*
X85270952Y-33996380D01*
X85366190Y-34044000D01*
X85413809Y-34091619D01*
X85461428Y-34186857D01*
X85461428Y-34282095D01*
X85413809Y-34424952D01*
X84842380Y-34996380D01*
X85461428Y-34996380D01*
%TO.C,Audio_G_2*%
X78318571Y-22328166D02*
X78794761Y-22328166D01*
X78223333Y-22613880D02*
X78556666Y-21613880D01*
X78890000Y-22613880D01*
X79651904Y-21947214D02*
X79651904Y-22613880D01*
X79223333Y-21947214D02*
X79223333Y-22471023D01*
X79270952Y-22566261D01*
X79366190Y-22613880D01*
X79509047Y-22613880D01*
X79604285Y-22566261D01*
X79651904Y-22518642D01*
X80556666Y-22613880D02*
X80556666Y-21613880D01*
X80556666Y-22566261D02*
X80461428Y-22613880D01*
X80270952Y-22613880D01*
X80175714Y-22566261D01*
X80128095Y-22518642D01*
X80080476Y-22423404D01*
X80080476Y-22137690D01*
X80128095Y-22042452D01*
X80175714Y-21994833D01*
X80270952Y-21947214D01*
X80461428Y-21947214D01*
X80556666Y-21994833D01*
X81032857Y-22613880D02*
X81032857Y-21947214D01*
X81032857Y-21613880D02*
X80985238Y-21661500D01*
X81032857Y-21709119D01*
X81080476Y-21661500D01*
X81032857Y-21613880D01*
X81032857Y-21709119D01*
X81651904Y-22613880D02*
X81556666Y-22566261D01*
X81509047Y-22518642D01*
X81461428Y-22423404D01*
X81461428Y-22137690D01*
X81509047Y-22042452D01*
X81556666Y-21994833D01*
X81651904Y-21947214D01*
X81794761Y-21947214D01*
X81890000Y-21994833D01*
X81937619Y-22042452D01*
X81985238Y-22137690D01*
X81985238Y-22423404D01*
X81937619Y-22518642D01*
X81890000Y-22566261D01*
X81794761Y-22613880D01*
X81651904Y-22613880D01*
X82175714Y-22709119D02*
X82937619Y-22709119D01*
X83699523Y-21661500D02*
X83604285Y-21613880D01*
X83461428Y-21613880D01*
X83318571Y-21661500D01*
X83223333Y-21756738D01*
X83175714Y-21851976D01*
X83128095Y-22042452D01*
X83128095Y-22185309D01*
X83175714Y-22375785D01*
X83223333Y-22471023D01*
X83318571Y-22566261D01*
X83461428Y-22613880D01*
X83556666Y-22613880D01*
X83699523Y-22566261D01*
X83747142Y-22518642D01*
X83747142Y-22185309D01*
X83556666Y-22185309D01*
X83937619Y-22709119D02*
X84699523Y-22709119D01*
X84890000Y-21709119D02*
X84937619Y-21661500D01*
X85032857Y-21613880D01*
X85270952Y-21613880D01*
X85366190Y-21661500D01*
X85413809Y-21709119D01*
X85461428Y-21804357D01*
X85461428Y-21899595D01*
X85413809Y-22042452D01*
X84842380Y-22613880D01*
X85461428Y-22613880D01*
%TO.C,Audio_R_1*%
X27543571Y-9945666D02*
X28019761Y-9945666D01*
X27448333Y-10231380D02*
X27781666Y-9231380D01*
X28115000Y-10231380D01*
X28876904Y-9564714D02*
X28876904Y-10231380D01*
X28448333Y-9564714D02*
X28448333Y-10088523D01*
X28495952Y-10183761D01*
X28591190Y-10231380D01*
X28734047Y-10231380D01*
X28829285Y-10183761D01*
X28876904Y-10136142D01*
X29781666Y-10231380D02*
X29781666Y-9231380D01*
X29781666Y-10183761D02*
X29686428Y-10231380D01*
X29495952Y-10231380D01*
X29400714Y-10183761D01*
X29353095Y-10136142D01*
X29305476Y-10040904D01*
X29305476Y-9755190D01*
X29353095Y-9659952D01*
X29400714Y-9612333D01*
X29495952Y-9564714D01*
X29686428Y-9564714D01*
X29781666Y-9612333D01*
X30257857Y-10231380D02*
X30257857Y-9564714D01*
X30257857Y-9231380D02*
X30210238Y-9279000D01*
X30257857Y-9326619D01*
X30305476Y-9279000D01*
X30257857Y-9231380D01*
X30257857Y-9326619D01*
X30876904Y-10231380D02*
X30781666Y-10183761D01*
X30734047Y-10136142D01*
X30686428Y-10040904D01*
X30686428Y-9755190D01*
X30734047Y-9659952D01*
X30781666Y-9612333D01*
X30876904Y-9564714D01*
X31019761Y-9564714D01*
X31115000Y-9612333D01*
X31162619Y-9659952D01*
X31210238Y-9755190D01*
X31210238Y-10040904D01*
X31162619Y-10136142D01*
X31115000Y-10183761D01*
X31019761Y-10231380D01*
X30876904Y-10231380D01*
X31400714Y-10326619D02*
X32162619Y-10326619D01*
X32972142Y-10231380D02*
X32638809Y-9755190D01*
X32400714Y-10231380D02*
X32400714Y-9231380D01*
X32781666Y-9231380D01*
X32876904Y-9279000D01*
X32924523Y-9326619D01*
X32972142Y-9421857D01*
X32972142Y-9564714D01*
X32924523Y-9659952D01*
X32876904Y-9707571D01*
X32781666Y-9755190D01*
X32400714Y-9755190D01*
X33162619Y-10326619D02*
X33924523Y-10326619D01*
X34686428Y-10231380D02*
X34115000Y-10231380D01*
X34400714Y-10231380D02*
X34400714Y-9231380D01*
X34305476Y-9374238D01*
X34210238Y-9469476D01*
X34115000Y-9517095D01*
%TO.C,Audio_B_1*%
X27543571Y-34710666D02*
X28019761Y-34710666D01*
X27448333Y-34996380D02*
X27781666Y-33996380D01*
X28115000Y-34996380D01*
X28876904Y-34329714D02*
X28876904Y-34996380D01*
X28448333Y-34329714D02*
X28448333Y-34853523D01*
X28495952Y-34948761D01*
X28591190Y-34996380D01*
X28734047Y-34996380D01*
X28829285Y-34948761D01*
X28876904Y-34901142D01*
X29781666Y-34996380D02*
X29781666Y-33996380D01*
X29781666Y-34948761D02*
X29686428Y-34996380D01*
X29495952Y-34996380D01*
X29400714Y-34948761D01*
X29353095Y-34901142D01*
X29305476Y-34805904D01*
X29305476Y-34520190D01*
X29353095Y-34424952D01*
X29400714Y-34377333D01*
X29495952Y-34329714D01*
X29686428Y-34329714D01*
X29781666Y-34377333D01*
X30257857Y-34996380D02*
X30257857Y-34329714D01*
X30257857Y-33996380D02*
X30210238Y-34044000D01*
X30257857Y-34091619D01*
X30305476Y-34044000D01*
X30257857Y-33996380D01*
X30257857Y-34091619D01*
X30876904Y-34996380D02*
X30781666Y-34948761D01*
X30734047Y-34901142D01*
X30686428Y-34805904D01*
X30686428Y-34520190D01*
X30734047Y-34424952D01*
X30781666Y-34377333D01*
X30876904Y-34329714D01*
X31019761Y-34329714D01*
X31115000Y-34377333D01*
X31162619Y-34424952D01*
X31210238Y-34520190D01*
X31210238Y-34805904D01*
X31162619Y-34901142D01*
X31115000Y-34948761D01*
X31019761Y-34996380D01*
X30876904Y-34996380D01*
X31400714Y-35091619D02*
X32162619Y-35091619D01*
X32734047Y-34472571D02*
X32876904Y-34520190D01*
X32924523Y-34567809D01*
X32972142Y-34663047D01*
X32972142Y-34805904D01*
X32924523Y-34901142D01*
X32876904Y-34948761D01*
X32781666Y-34996380D01*
X32400714Y-34996380D01*
X32400714Y-33996380D01*
X32734047Y-33996380D01*
X32829285Y-34044000D01*
X32876904Y-34091619D01*
X32924523Y-34186857D01*
X32924523Y-34282095D01*
X32876904Y-34377333D01*
X32829285Y-34424952D01*
X32734047Y-34472571D01*
X32400714Y-34472571D01*
X33162619Y-35091619D02*
X33924523Y-35091619D01*
X34686428Y-34996380D02*
X34115000Y-34996380D01*
X34400714Y-34996380D02*
X34400714Y-33996380D01*
X34305476Y-34139238D01*
X34210238Y-34234476D01*
X34115000Y-34282095D01*
%TO.C,Audio_G_1*%
X27543571Y-22328166D02*
X28019761Y-22328166D01*
X27448333Y-22613880D02*
X27781666Y-21613880D01*
X28115000Y-22613880D01*
X28876904Y-21947214D02*
X28876904Y-22613880D01*
X28448333Y-21947214D02*
X28448333Y-22471023D01*
X28495952Y-22566261D01*
X28591190Y-22613880D01*
X28734047Y-22613880D01*
X28829285Y-22566261D01*
X28876904Y-22518642D01*
X29781666Y-22613880D02*
X29781666Y-21613880D01*
X29781666Y-22566261D02*
X29686428Y-22613880D01*
X29495952Y-22613880D01*
X29400714Y-22566261D01*
X29353095Y-22518642D01*
X29305476Y-22423404D01*
X29305476Y-22137690D01*
X29353095Y-22042452D01*
X29400714Y-21994833D01*
X29495952Y-21947214D01*
X29686428Y-21947214D01*
X29781666Y-21994833D01*
X30257857Y-22613880D02*
X30257857Y-21947214D01*
X30257857Y-21613880D02*
X30210238Y-21661500D01*
X30257857Y-21709119D01*
X30305476Y-21661500D01*
X30257857Y-21613880D01*
X30257857Y-21709119D01*
X30876904Y-22613880D02*
X30781666Y-22566261D01*
X30734047Y-22518642D01*
X30686428Y-22423404D01*
X30686428Y-22137690D01*
X30734047Y-22042452D01*
X30781666Y-21994833D01*
X30876904Y-21947214D01*
X31019761Y-21947214D01*
X31115000Y-21994833D01*
X31162619Y-22042452D01*
X31210238Y-22137690D01*
X31210238Y-22423404D01*
X31162619Y-22518642D01*
X31115000Y-22566261D01*
X31019761Y-22613880D01*
X30876904Y-22613880D01*
X31400714Y-22709119D02*
X32162619Y-22709119D01*
X32924523Y-21661500D02*
X32829285Y-21613880D01*
X32686428Y-21613880D01*
X32543571Y-21661500D01*
X32448333Y-21756738D01*
X32400714Y-21851976D01*
X32353095Y-22042452D01*
X32353095Y-22185309D01*
X32400714Y-22375785D01*
X32448333Y-22471023D01*
X32543571Y-22566261D01*
X32686428Y-22613880D01*
X32781666Y-22613880D01*
X32924523Y-22566261D01*
X32972142Y-22518642D01*
X32972142Y-22185309D01*
X32781666Y-22185309D01*
X33162619Y-22709119D02*
X33924523Y-22709119D01*
X34686428Y-22613880D02*
X34115000Y-22613880D01*
X34400714Y-22613880D02*
X34400714Y-21613880D01*
X34305476Y-21756738D01*
X34210238Y-21851976D01*
X34115000Y-21899595D01*
%TO.C,G_CV_3*%
X99475000Y-76099761D02*
X99427380Y-76195000D01*
X99427380Y-76337857D01*
X99475000Y-76480714D01*
X99570238Y-76575952D01*
X99665476Y-76623571D01*
X99855952Y-76671190D01*
X99998809Y-76671190D01*
X100189285Y-76623571D01*
X100284523Y-76575952D01*
X100379761Y-76480714D01*
X100427380Y-76337857D01*
X100427380Y-76242619D01*
X100379761Y-76099761D01*
X100332142Y-76052142D01*
X99998809Y-76052142D01*
X99998809Y-76242619D01*
X100522619Y-75861666D02*
X100522619Y-75099761D01*
X100332142Y-74290238D02*
X100379761Y-74337857D01*
X100427380Y-74480714D01*
X100427380Y-74575952D01*
X100379761Y-74718809D01*
X100284523Y-74814047D01*
X100189285Y-74861666D01*
X99998809Y-74909285D01*
X99855952Y-74909285D01*
X99665476Y-74861666D01*
X99570238Y-74814047D01*
X99475000Y-74718809D01*
X99427380Y-74575952D01*
X99427380Y-74480714D01*
X99475000Y-74337857D01*
X99522619Y-74290238D01*
X99427380Y-74004523D02*
X100427380Y-73671190D01*
X99427380Y-73337857D01*
X100522619Y-73242619D02*
X100522619Y-72480714D01*
X99427380Y-72337857D02*
X99427380Y-71718809D01*
X99808333Y-72052142D01*
X99808333Y-71909285D01*
X99855952Y-71814047D01*
X99903571Y-71766428D01*
X99998809Y-71718809D01*
X100236904Y-71718809D01*
X100332142Y-71766428D01*
X100379761Y-71814047D01*
X100427380Y-71909285D01*
X100427380Y-72195000D01*
X100379761Y-72290238D01*
X100332142Y-72337857D01*
%TO.C,B_CV_3*%
X99903571Y-99150238D02*
X99951190Y-99007380D01*
X99998809Y-98959761D01*
X100094047Y-98912142D01*
X100236904Y-98912142D01*
X100332142Y-98959761D01*
X100379761Y-99007380D01*
X100427380Y-99102619D01*
X100427380Y-99483571D01*
X99427380Y-99483571D01*
X99427380Y-99150238D01*
X99475000Y-99055000D01*
X99522619Y-99007380D01*
X99617857Y-98959761D01*
X99713095Y-98959761D01*
X99808333Y-99007380D01*
X99855952Y-99055000D01*
X99903571Y-99150238D01*
X99903571Y-99483571D01*
X100522619Y-98721666D02*
X100522619Y-97959761D01*
X100332142Y-97150238D02*
X100379761Y-97197857D01*
X100427380Y-97340714D01*
X100427380Y-97435952D01*
X100379761Y-97578809D01*
X100284523Y-97674047D01*
X100189285Y-97721666D01*
X99998809Y-97769285D01*
X99855952Y-97769285D01*
X99665476Y-97721666D01*
X99570238Y-97674047D01*
X99475000Y-97578809D01*
X99427380Y-97435952D01*
X99427380Y-97340714D01*
X99475000Y-97197857D01*
X99522619Y-97150238D01*
X99427380Y-96864523D02*
X100427380Y-96531190D01*
X99427380Y-96197857D01*
X100522619Y-96102619D02*
X100522619Y-95340714D01*
X99427380Y-95197857D02*
X99427380Y-94578809D01*
X99808333Y-94912142D01*
X99808333Y-94769285D01*
X99855952Y-94674047D01*
X99903571Y-94626428D01*
X99998809Y-94578809D01*
X100236904Y-94578809D01*
X100332142Y-94626428D01*
X100379761Y-94674047D01*
X100427380Y-94769285D01*
X100427380Y-95055000D01*
X100379761Y-95150238D01*
X100332142Y-95197857D01*
%TO.C,R_CV_3*%
X100427380Y-53192142D02*
X99951190Y-53525476D01*
X100427380Y-53763571D02*
X99427380Y-53763571D01*
X99427380Y-53382619D01*
X99475000Y-53287380D01*
X99522619Y-53239761D01*
X99617857Y-53192142D01*
X99760714Y-53192142D01*
X99855952Y-53239761D01*
X99903571Y-53287380D01*
X99951190Y-53382619D01*
X99951190Y-53763571D01*
X100522619Y-53001666D02*
X100522619Y-52239761D01*
X100332142Y-51430238D02*
X100379761Y-51477857D01*
X100427380Y-51620714D01*
X100427380Y-51715952D01*
X100379761Y-51858809D01*
X100284523Y-51954047D01*
X100189285Y-52001666D01*
X99998809Y-52049285D01*
X99855952Y-52049285D01*
X99665476Y-52001666D01*
X99570238Y-51954047D01*
X99475000Y-51858809D01*
X99427380Y-51715952D01*
X99427380Y-51620714D01*
X99475000Y-51477857D01*
X99522619Y-51430238D01*
X99427380Y-51144523D02*
X100427380Y-50811190D01*
X99427380Y-50477857D01*
X100522619Y-50382619D02*
X100522619Y-49620714D01*
X99427380Y-49477857D02*
X99427380Y-48858809D01*
X99808333Y-49192142D01*
X99808333Y-49049285D01*
X99855952Y-48954047D01*
X99903571Y-48906428D01*
X99998809Y-48858809D01*
X100236904Y-48858809D01*
X100332142Y-48906428D01*
X100379761Y-48954047D01*
X100427380Y-49049285D01*
X100427380Y-49335000D01*
X100379761Y-49430238D01*
X100332142Y-49477857D01*
%TO.C,G_CV_2*%
X49945000Y-76099761D02*
X49897380Y-76195000D01*
X49897380Y-76337857D01*
X49945000Y-76480714D01*
X50040238Y-76575952D01*
X50135476Y-76623571D01*
X50325952Y-76671190D01*
X50468809Y-76671190D01*
X50659285Y-76623571D01*
X50754523Y-76575952D01*
X50849761Y-76480714D01*
X50897380Y-76337857D01*
X50897380Y-76242619D01*
X50849761Y-76099761D01*
X50802142Y-76052142D01*
X50468809Y-76052142D01*
X50468809Y-76242619D01*
X50992619Y-75861666D02*
X50992619Y-75099761D01*
X50802142Y-74290238D02*
X50849761Y-74337857D01*
X50897380Y-74480714D01*
X50897380Y-74575952D01*
X50849761Y-74718809D01*
X50754523Y-74814047D01*
X50659285Y-74861666D01*
X50468809Y-74909285D01*
X50325952Y-74909285D01*
X50135476Y-74861666D01*
X50040238Y-74814047D01*
X49945000Y-74718809D01*
X49897380Y-74575952D01*
X49897380Y-74480714D01*
X49945000Y-74337857D01*
X49992619Y-74290238D01*
X49897380Y-74004523D02*
X50897380Y-73671190D01*
X49897380Y-73337857D01*
X50992619Y-73242619D02*
X50992619Y-72480714D01*
X49992619Y-72290238D02*
X49945000Y-72242619D01*
X49897380Y-72147380D01*
X49897380Y-71909285D01*
X49945000Y-71814047D01*
X49992619Y-71766428D01*
X50087857Y-71718809D01*
X50183095Y-71718809D01*
X50325952Y-71766428D01*
X50897380Y-72337857D01*
X50897380Y-71718809D01*
%TO.C,B_CV_2*%
X50373571Y-99150238D02*
X50421190Y-99007380D01*
X50468809Y-98959761D01*
X50564047Y-98912142D01*
X50706904Y-98912142D01*
X50802142Y-98959761D01*
X50849761Y-99007380D01*
X50897380Y-99102619D01*
X50897380Y-99483571D01*
X49897380Y-99483571D01*
X49897380Y-99150238D01*
X49945000Y-99055000D01*
X49992619Y-99007380D01*
X50087857Y-98959761D01*
X50183095Y-98959761D01*
X50278333Y-99007380D01*
X50325952Y-99055000D01*
X50373571Y-99150238D01*
X50373571Y-99483571D01*
X50992619Y-98721666D02*
X50992619Y-97959761D01*
X50802142Y-97150238D02*
X50849761Y-97197857D01*
X50897380Y-97340714D01*
X50897380Y-97435952D01*
X50849761Y-97578809D01*
X50754523Y-97674047D01*
X50659285Y-97721666D01*
X50468809Y-97769285D01*
X50325952Y-97769285D01*
X50135476Y-97721666D01*
X50040238Y-97674047D01*
X49945000Y-97578809D01*
X49897380Y-97435952D01*
X49897380Y-97340714D01*
X49945000Y-97197857D01*
X49992619Y-97150238D01*
X49897380Y-96864523D02*
X50897380Y-96531190D01*
X49897380Y-96197857D01*
X50992619Y-96102619D02*
X50992619Y-95340714D01*
X49992619Y-95150238D02*
X49945000Y-95102619D01*
X49897380Y-95007380D01*
X49897380Y-94769285D01*
X49945000Y-94674047D01*
X49992619Y-94626428D01*
X50087857Y-94578809D01*
X50183095Y-94578809D01*
X50325952Y-94626428D01*
X50897380Y-95197857D01*
X50897380Y-94578809D01*
%TO.C,R_CV_2*%
X50897380Y-53192142D02*
X50421190Y-53525476D01*
X50897380Y-53763571D02*
X49897380Y-53763571D01*
X49897380Y-53382619D01*
X49945000Y-53287380D01*
X49992619Y-53239761D01*
X50087857Y-53192142D01*
X50230714Y-53192142D01*
X50325952Y-53239761D01*
X50373571Y-53287380D01*
X50421190Y-53382619D01*
X50421190Y-53763571D01*
X50992619Y-53001666D02*
X50992619Y-52239761D01*
X50802142Y-51430238D02*
X50849761Y-51477857D01*
X50897380Y-51620714D01*
X50897380Y-51715952D01*
X50849761Y-51858809D01*
X50754523Y-51954047D01*
X50659285Y-52001666D01*
X50468809Y-52049285D01*
X50325952Y-52049285D01*
X50135476Y-52001666D01*
X50040238Y-51954047D01*
X49945000Y-51858809D01*
X49897380Y-51715952D01*
X49897380Y-51620714D01*
X49945000Y-51477857D01*
X49992619Y-51430238D01*
X49897380Y-51144523D02*
X50897380Y-50811190D01*
X49897380Y-50477857D01*
X50992619Y-50382619D02*
X50992619Y-49620714D01*
X49992619Y-49430238D02*
X49945000Y-49382619D01*
X49897380Y-49287380D01*
X49897380Y-49049285D01*
X49945000Y-48954047D01*
X49992619Y-48906428D01*
X50087857Y-48858809D01*
X50183095Y-48858809D01*
X50325952Y-48906428D01*
X50897380Y-49477857D01*
X50897380Y-48858809D01*
%TO.C,G_CV_1*%
X24545000Y-76099761D02*
X24497380Y-76195000D01*
X24497380Y-76337857D01*
X24545000Y-76480714D01*
X24640238Y-76575952D01*
X24735476Y-76623571D01*
X24925952Y-76671190D01*
X25068809Y-76671190D01*
X25259285Y-76623571D01*
X25354523Y-76575952D01*
X25449761Y-76480714D01*
X25497380Y-76337857D01*
X25497380Y-76242619D01*
X25449761Y-76099761D01*
X25402142Y-76052142D01*
X25068809Y-76052142D01*
X25068809Y-76242619D01*
X25592619Y-75861666D02*
X25592619Y-75099761D01*
X25402142Y-74290238D02*
X25449761Y-74337857D01*
X25497380Y-74480714D01*
X25497380Y-74575952D01*
X25449761Y-74718809D01*
X25354523Y-74814047D01*
X25259285Y-74861666D01*
X25068809Y-74909285D01*
X24925952Y-74909285D01*
X24735476Y-74861666D01*
X24640238Y-74814047D01*
X24545000Y-74718809D01*
X24497380Y-74575952D01*
X24497380Y-74480714D01*
X24545000Y-74337857D01*
X24592619Y-74290238D01*
X24497380Y-74004523D02*
X25497380Y-73671190D01*
X24497380Y-73337857D01*
X25592619Y-73242619D02*
X25592619Y-72480714D01*
X25497380Y-71718809D02*
X25497380Y-72290238D01*
X25497380Y-72004523D02*
X24497380Y-72004523D01*
X24640238Y-72099761D01*
X24735476Y-72195000D01*
X24783095Y-72290238D01*
%TO.C,B_CV_1*%
X24973571Y-99150238D02*
X25021190Y-99007380D01*
X25068809Y-98959761D01*
X25164047Y-98912142D01*
X25306904Y-98912142D01*
X25402142Y-98959761D01*
X25449761Y-99007380D01*
X25497380Y-99102619D01*
X25497380Y-99483571D01*
X24497380Y-99483571D01*
X24497380Y-99150238D01*
X24545000Y-99055000D01*
X24592619Y-99007380D01*
X24687857Y-98959761D01*
X24783095Y-98959761D01*
X24878333Y-99007380D01*
X24925952Y-99055000D01*
X24973571Y-99150238D01*
X24973571Y-99483571D01*
X25592619Y-98721666D02*
X25592619Y-97959761D01*
X25402142Y-97150238D02*
X25449761Y-97197857D01*
X25497380Y-97340714D01*
X25497380Y-97435952D01*
X25449761Y-97578809D01*
X25354523Y-97674047D01*
X25259285Y-97721666D01*
X25068809Y-97769285D01*
X24925952Y-97769285D01*
X24735476Y-97721666D01*
X24640238Y-97674047D01*
X24545000Y-97578809D01*
X24497380Y-97435952D01*
X24497380Y-97340714D01*
X24545000Y-97197857D01*
X24592619Y-97150238D01*
X24497380Y-96864523D02*
X25497380Y-96531190D01*
X24497380Y-96197857D01*
X25592619Y-96102619D02*
X25592619Y-95340714D01*
X25497380Y-94578809D02*
X25497380Y-95150238D01*
X25497380Y-94864523D02*
X24497380Y-94864523D01*
X24640238Y-94959761D01*
X24735476Y-95055000D01*
X24783095Y-95150238D01*
%TO.C,R_CV_1*%
X25497380Y-53192142D02*
X25021190Y-53525476D01*
X25497380Y-53763571D02*
X24497380Y-53763571D01*
X24497380Y-53382619D01*
X24545000Y-53287380D01*
X24592619Y-53239761D01*
X24687857Y-53192142D01*
X24830714Y-53192142D01*
X24925952Y-53239761D01*
X24973571Y-53287380D01*
X25021190Y-53382619D01*
X25021190Y-53763571D01*
X25592619Y-53001666D02*
X25592619Y-52239761D01*
X25402142Y-51430238D02*
X25449761Y-51477857D01*
X25497380Y-51620714D01*
X25497380Y-51715952D01*
X25449761Y-51858809D01*
X25354523Y-51954047D01*
X25259285Y-52001666D01*
X25068809Y-52049285D01*
X24925952Y-52049285D01*
X24735476Y-52001666D01*
X24640238Y-51954047D01*
X24545000Y-51858809D01*
X24497380Y-51715952D01*
X24497380Y-51620714D01*
X24545000Y-51477857D01*
X24592619Y-51430238D01*
X24497380Y-51144523D02*
X25497380Y-50811190D01*
X24497380Y-50477857D01*
X25592619Y-50382619D02*
X25592619Y-49620714D01*
X25497380Y-48858809D02*
X25497380Y-49430238D01*
X25497380Y-49144523D02*
X24497380Y-49144523D01*
X24640238Y-49239761D01*
X24735476Y-49335000D01*
X24783095Y-49430238D01*
%TO.C,B_A_RV1*%
X843571Y-99578809D02*
X891190Y-99435952D01*
X938809Y-99388333D01*
X1034047Y-99340714D01*
X1176904Y-99340714D01*
X1272142Y-99388333D01*
X1319761Y-99435952D01*
X1367380Y-99531190D01*
X1367380Y-99912142D01*
X367380Y-99912142D01*
X367380Y-99578809D01*
X414999Y-99483571D01*
X462619Y-99435952D01*
X557857Y-99388333D01*
X653095Y-99388333D01*
X748333Y-99435952D01*
X795952Y-99483571D01*
X843571Y-99578809D01*
X843571Y-99912142D01*
X1462619Y-99150238D02*
X1462619Y-98388333D01*
X1081666Y-98197857D02*
X1081666Y-97721666D01*
X1367380Y-98293095D02*
X367380Y-97959761D01*
X1367380Y-97626428D01*
X1462619Y-97531190D02*
X1462619Y-96769285D01*
X1367380Y-95959761D02*
X891190Y-96293095D01*
X1367380Y-96531190D02*
X367380Y-96531190D01*
X367380Y-96150238D01*
X415000Y-96055000D01*
X462619Y-96007380D01*
X557857Y-95959761D01*
X700714Y-95959761D01*
X795952Y-96007380D01*
X843571Y-96055000D01*
X891190Y-96150238D01*
X891190Y-96531190D01*
X367380Y-95674047D02*
X1367380Y-95340714D01*
X367380Y-95007380D01*
X1367380Y-94150238D02*
X1367380Y-94721666D01*
X1367380Y-94435952D02*
X367380Y-94435952D01*
X510238Y-94531190D01*
X605476Y-94626428D01*
X653095Y-94721666D01*
%TO.C,R_A_RV3*%
X124557380Y-53620714D02*
X124081190Y-53954047D01*
X124557380Y-54192142D02*
X123557380Y-54192142D01*
X123557380Y-53811190D01*
X123605000Y-53715952D01*
X123652619Y-53668333D01*
X123747857Y-53620714D01*
X123890714Y-53620714D01*
X123985952Y-53668333D01*
X124033571Y-53715952D01*
X124081190Y-53811190D01*
X124081190Y-54192142D01*
X124652619Y-53430238D02*
X124652619Y-52668333D01*
X124271666Y-52477857D02*
X124271666Y-52001666D01*
X124557380Y-52573095D02*
X123557380Y-52239761D01*
X124557380Y-51906428D01*
X124652619Y-51811190D02*
X124652619Y-51049285D01*
X124557380Y-50239761D02*
X124081190Y-50573095D01*
X124557380Y-50811190D02*
X123557380Y-50811190D01*
X123557380Y-50430238D01*
X123605000Y-50335000D01*
X123652619Y-50287380D01*
X123747857Y-50239761D01*
X123890714Y-50239761D01*
X123985952Y-50287380D01*
X124033571Y-50335000D01*
X124081190Y-50430238D01*
X124081190Y-50811190D01*
X123557380Y-49954047D02*
X124557380Y-49620714D01*
X123557380Y-49287380D01*
X123557380Y-49049285D02*
X123557380Y-48430238D01*
X123938333Y-48763571D01*
X123938333Y-48620714D01*
X123985952Y-48525476D01*
X124033571Y-48477857D01*
X124128809Y-48430238D01*
X124366904Y-48430238D01*
X124462142Y-48477857D01*
X124509761Y-48525476D01*
X124557380Y-48620714D01*
X124557380Y-48906428D01*
X124509761Y-49001666D01*
X124462142Y-49049285D01*
%TO.C,B_A_RV3*%
X124033571Y-99578809D02*
X124081190Y-99435952D01*
X124128809Y-99388333D01*
X124224047Y-99340714D01*
X124366904Y-99340714D01*
X124462142Y-99388333D01*
X124509761Y-99435952D01*
X124557380Y-99531190D01*
X124557380Y-99912142D01*
X123557380Y-99912142D01*
X123557380Y-99578809D01*
X123605000Y-99483571D01*
X123652619Y-99435952D01*
X123747857Y-99388333D01*
X123843095Y-99388333D01*
X123938333Y-99435952D01*
X123985952Y-99483571D01*
X124033571Y-99578809D01*
X124033571Y-99912142D01*
X124652619Y-99150238D02*
X124652619Y-98388333D01*
X124271666Y-98197857D02*
X124271666Y-97721666D01*
X124557380Y-98293095D02*
X123557380Y-97959761D01*
X124557380Y-97626428D01*
X124652619Y-97531190D02*
X124652619Y-96769285D01*
X124557380Y-95959761D02*
X124081190Y-96293095D01*
X124557380Y-96531190D02*
X123557380Y-96531190D01*
X123557380Y-96150238D01*
X123605000Y-96055000D01*
X123652619Y-96007380D01*
X123747857Y-95959761D01*
X123890714Y-95959761D01*
X123985952Y-96007380D01*
X124033571Y-96055000D01*
X124081190Y-96150238D01*
X124081190Y-96531190D01*
X123557380Y-95674047D02*
X124557380Y-95340714D01*
X123557380Y-95007380D01*
X123557380Y-94769285D02*
X123557380Y-94150238D01*
X123938333Y-94483571D01*
X123938333Y-94340714D01*
X123985952Y-94245476D01*
X124033571Y-94197857D01*
X124128809Y-94150238D01*
X124366904Y-94150238D01*
X124462142Y-94197857D01*
X124509761Y-94245476D01*
X124557380Y-94340714D01*
X124557380Y-94626428D01*
X124509761Y-94721666D01*
X124462142Y-94769285D01*
%TO.C,G_A_RV3*%
X123605000Y-76528333D02*
X123557380Y-76623571D01*
X123557380Y-76766428D01*
X123605000Y-76909285D01*
X123700238Y-77004523D01*
X123795476Y-77052142D01*
X123985952Y-77099761D01*
X124128809Y-77099761D01*
X124319285Y-77052142D01*
X124414523Y-77004523D01*
X124509761Y-76909285D01*
X124557380Y-76766428D01*
X124557380Y-76671190D01*
X124509761Y-76528333D01*
X124462142Y-76480714D01*
X124128809Y-76480714D01*
X124128809Y-76671190D01*
X124652619Y-76290238D02*
X124652619Y-75528333D01*
X124271666Y-75337857D02*
X124271666Y-74861666D01*
X124557380Y-75433095D02*
X123557380Y-75099761D01*
X124557380Y-74766428D01*
X124652619Y-74671190D02*
X124652619Y-73909285D01*
X124557380Y-73099761D02*
X124081190Y-73433095D01*
X124557380Y-73671190D02*
X123557380Y-73671190D01*
X123557380Y-73290238D01*
X123605000Y-73195000D01*
X123652619Y-73147380D01*
X123747857Y-73099761D01*
X123890714Y-73099761D01*
X123985952Y-73147380D01*
X124033571Y-73195000D01*
X124081190Y-73290238D01*
X124081190Y-73671190D01*
X123557380Y-72814047D02*
X124557380Y-72480714D01*
X123557380Y-72147380D01*
X123557380Y-71909285D02*
X123557380Y-71290238D01*
X123938333Y-71623571D01*
X123938333Y-71480714D01*
X123985952Y-71385476D01*
X124033571Y-71337857D01*
X124128809Y-71290238D01*
X124366904Y-71290238D01*
X124462142Y-71337857D01*
X124509761Y-71385476D01*
X124557380Y-71480714D01*
X124557380Y-71766428D01*
X124509761Y-71861666D01*
X124462142Y-71909285D01*
%TO.C,R_A_RV2*%
X75067380Y-53620714D02*
X74591190Y-53954047D01*
X75067380Y-54192142D02*
X74067380Y-54192142D01*
X74067380Y-53811190D01*
X74115000Y-53715952D01*
X74162619Y-53668333D01*
X74257857Y-53620714D01*
X74400714Y-53620714D01*
X74495952Y-53668333D01*
X74543571Y-53715952D01*
X74591190Y-53811190D01*
X74591190Y-54192142D01*
X75162619Y-53430238D02*
X75162619Y-52668333D01*
X74781666Y-52477857D02*
X74781666Y-52001666D01*
X75067380Y-52573095D02*
X74067380Y-52239761D01*
X75067380Y-51906428D01*
X75162619Y-51811190D02*
X75162619Y-51049285D01*
X75067380Y-50239761D02*
X74591190Y-50573095D01*
X75067380Y-50811190D02*
X74067380Y-50811190D01*
X74067380Y-50430238D01*
X74115000Y-50335000D01*
X74162619Y-50287380D01*
X74257857Y-50239761D01*
X74400714Y-50239761D01*
X74495952Y-50287380D01*
X74543571Y-50335000D01*
X74591190Y-50430238D01*
X74591190Y-50811190D01*
X74067380Y-49954047D02*
X75067380Y-49620714D01*
X74067380Y-49287380D01*
X74162619Y-49001666D02*
X74115000Y-48954047D01*
X74067380Y-48858809D01*
X74067380Y-48620714D01*
X74115000Y-48525476D01*
X74162619Y-48477857D01*
X74257857Y-48430238D01*
X74353095Y-48430238D01*
X74495952Y-48477857D01*
X75067380Y-49049285D01*
X75067380Y-48430238D01*
%TO.C,B_A_RV2*%
X74543571Y-99578809D02*
X74591190Y-99435952D01*
X74638809Y-99388333D01*
X74734047Y-99340714D01*
X74876904Y-99340714D01*
X74972142Y-99388333D01*
X75019761Y-99435952D01*
X75067380Y-99531190D01*
X75067380Y-99912142D01*
X74067380Y-99912142D01*
X74067380Y-99578809D01*
X74115000Y-99483571D01*
X74162619Y-99435952D01*
X74257857Y-99388333D01*
X74353095Y-99388333D01*
X74448333Y-99435952D01*
X74495952Y-99483571D01*
X74543571Y-99578809D01*
X74543571Y-99912142D01*
X75162619Y-99150238D02*
X75162619Y-98388333D01*
X74781666Y-98197857D02*
X74781666Y-97721666D01*
X75067380Y-98293095D02*
X74067380Y-97959761D01*
X75067380Y-97626428D01*
X75162619Y-97531190D02*
X75162619Y-96769285D01*
X75067380Y-95959761D02*
X74591190Y-96293095D01*
X75067380Y-96531190D02*
X74067380Y-96531190D01*
X74067380Y-96150238D01*
X74115000Y-96055000D01*
X74162619Y-96007380D01*
X74257857Y-95959761D01*
X74400714Y-95959761D01*
X74495952Y-96007380D01*
X74543571Y-96055000D01*
X74591190Y-96150238D01*
X74591190Y-96531190D01*
X74067380Y-95674047D02*
X75067380Y-95340714D01*
X74067380Y-95007380D01*
X74162619Y-94721666D02*
X74115000Y-94674047D01*
X74067380Y-94578809D01*
X74067380Y-94340714D01*
X74115000Y-94245476D01*
X74162619Y-94197857D01*
X74257857Y-94150238D01*
X74353095Y-94150238D01*
X74495952Y-94197857D01*
X75067380Y-94769285D01*
X75067380Y-94150238D01*
%TO.C,G_A_RV2*%
X74115000Y-76528333D02*
X74067380Y-76623571D01*
X74067380Y-76766428D01*
X74115000Y-76909285D01*
X74210238Y-77004523D01*
X74305476Y-77052142D01*
X74495952Y-77099761D01*
X74638809Y-77099761D01*
X74829285Y-77052142D01*
X74924523Y-77004523D01*
X75019761Y-76909285D01*
X75067380Y-76766428D01*
X75067380Y-76671190D01*
X75019761Y-76528333D01*
X74972142Y-76480714D01*
X74638809Y-76480714D01*
X74638809Y-76671190D01*
X75162619Y-76290238D02*
X75162619Y-75528333D01*
X74781666Y-75337857D02*
X74781666Y-74861666D01*
X75067380Y-75433095D02*
X74067380Y-75099761D01*
X75067380Y-74766428D01*
X75162619Y-74671190D02*
X75162619Y-73909285D01*
X75067380Y-73099761D02*
X74591190Y-73433095D01*
X75067380Y-73671190D02*
X74067380Y-73671190D01*
X74067380Y-73290238D01*
X74115000Y-73195000D01*
X74162619Y-73147380D01*
X74257857Y-73099761D01*
X74400714Y-73099761D01*
X74495952Y-73147380D01*
X74543571Y-73195000D01*
X74591190Y-73290238D01*
X74591190Y-73671190D01*
X74067380Y-72814047D02*
X75067380Y-72480714D01*
X74067380Y-72147380D01*
X74162619Y-71861666D02*
X74115000Y-71814047D01*
X74067380Y-71718809D01*
X74067380Y-71480714D01*
X74115000Y-71385476D01*
X74162619Y-71337857D01*
X74257857Y-71290238D01*
X74353095Y-71290238D01*
X74495952Y-71337857D01*
X75067380Y-71909285D01*
X75067380Y-71290238D01*
%TO.C,R_A_RV1*%
X1367380Y-53620714D02*
X891190Y-53954047D01*
X1367380Y-54192142D02*
X367380Y-54192142D01*
X367380Y-53811190D01*
X414999Y-53715952D01*
X462619Y-53668333D01*
X557857Y-53620714D01*
X700714Y-53620714D01*
X795952Y-53668333D01*
X843571Y-53715952D01*
X891190Y-53811190D01*
X891190Y-54192142D01*
X1462619Y-53430238D02*
X1462619Y-52668333D01*
X1081666Y-52477857D02*
X1081666Y-52001666D01*
X1367380Y-52573095D02*
X367380Y-52239761D01*
X1367380Y-51906428D01*
X1462619Y-51811190D02*
X1462619Y-51049285D01*
X1367380Y-50239761D02*
X891190Y-50573095D01*
X1367380Y-50811190D02*
X367380Y-50811190D01*
X367380Y-50430238D01*
X415000Y-50335000D01*
X462619Y-50287380D01*
X557857Y-50239761D01*
X700714Y-50239761D01*
X795952Y-50287380D01*
X843571Y-50335000D01*
X891190Y-50430238D01*
X891190Y-50811190D01*
X367380Y-49954047D02*
X1367380Y-49620714D01*
X367380Y-49287380D01*
X1367380Y-48430238D02*
X1367380Y-49001666D01*
X1367380Y-48715952D02*
X367380Y-48715952D01*
X510238Y-48811190D01*
X605476Y-48906428D01*
X653095Y-49001666D01*
%TO.C,G_A_RV1*%
X414999Y-76528333D02*
X367380Y-76623571D01*
X367380Y-76766428D01*
X414999Y-76909285D01*
X510238Y-77004523D01*
X605476Y-77052142D01*
X795952Y-77099761D01*
X938809Y-77099761D01*
X1129285Y-77052142D01*
X1224523Y-77004523D01*
X1319761Y-76909285D01*
X1367380Y-76766428D01*
X1367380Y-76671190D01*
X1319761Y-76528333D01*
X1272142Y-76480714D01*
X938809Y-76480714D01*
X938809Y-76671190D01*
X1462619Y-76290238D02*
X1462619Y-75528333D01*
X1081666Y-75337857D02*
X1081666Y-74861666D01*
X1367380Y-75433095D02*
X367380Y-75099761D01*
X1367380Y-74766428D01*
X1462619Y-74671190D02*
X1462619Y-73909285D01*
X1367380Y-73099761D02*
X891190Y-73433095D01*
X1367380Y-73671190D02*
X367380Y-73671190D01*
X367380Y-73290238D01*
X415000Y-73195000D01*
X462619Y-73147380D01*
X557857Y-73099761D01*
X700714Y-73099761D01*
X795952Y-73147380D01*
X843571Y-73195000D01*
X891190Y-73290238D01*
X891190Y-73671190D01*
X367380Y-72814047D02*
X1367380Y-72480714D01*
X367380Y-72147380D01*
X1367380Y-71290238D02*
X1367380Y-71861666D01*
X1367380Y-71575952D02*
X367380Y-71575952D01*
X510238Y-71671190D01*
X605476Y-71766428D01*
X653095Y-71861666D01*
%TO.C,J4*%
X124922380Y-3508333D02*
X125636666Y-3508333D01*
X125779523Y-3555952D01*
X125874761Y-3651190D01*
X125922380Y-3794047D01*
X125922380Y-3889285D01*
X125255714Y-2603571D02*
X125922380Y-2603571D01*
X124874761Y-2841666D02*
X125589047Y-3079761D01*
X125589047Y-2460714D01*
%TO.C,J3*%
X75412380Y-3508333D02*
X76126666Y-3508333D01*
X76269523Y-3555952D01*
X76364761Y-3651190D01*
X76412380Y-3794047D01*
X76412380Y-3889285D01*
X75412380Y-3127380D02*
X75412380Y-2508333D01*
X75793333Y-2841666D01*
X75793333Y-2698809D01*
X75840952Y-2603571D01*
X75888571Y-2555952D01*
X75983809Y-2508333D01*
X76221904Y-2508333D01*
X76317142Y-2555952D01*
X76364761Y-2603571D01*
X76412380Y-2698809D01*
X76412380Y-2984523D01*
X76364761Y-3079761D01*
X76317142Y-3127380D01*
%TO.C,J2*%
X25292380Y-3508333D02*
X26006666Y-3508333D01*
X26149523Y-3555952D01*
X26244761Y-3651190D01*
X26292380Y-3794047D01*
X26292380Y-3889285D01*
X25387619Y-3079761D02*
X25340000Y-3032142D01*
X25292380Y-2936904D01*
X25292380Y-2698809D01*
X25340000Y-2603571D01*
X25387619Y-2555952D01*
X25482857Y-2508333D01*
X25578095Y-2508333D01*
X25720952Y-2555952D01*
X26292380Y-3127380D01*
X26292380Y-2508333D01*
%TD*%
M02*
