%TF.GenerationSoftware,KiCad,Pcbnew,(5.1.8)-1*%
%TF.CreationDate,2021-01-26T23:12:48-05:00*%
%TF.ProjectId,LedController2,4c656443-6f6e-4747-926f-6c6c6572322e,rev?*%
%TF.SameCoordinates,Original*%
%TF.FileFunction,Soldermask,Top*%
%TF.FilePolarity,Negative*%
%FSLAX46Y46*%
G04 Gerber Fmt 4.6, Leading zero omitted, Abs format (unit mm)*
G04 Created by KiCad (PCBNEW (5.1.8)-1) date 2021-01-26 23:12:48*
%MOMM*%
%LPD*%
G01*
G04 APERTURE LIST*
%ADD10R,1.750000X3.000000*%
%ADD11R,1.850000X1.850000*%
%ADD12O,3.000000X1.524000*%
%ADD13C,3.240000*%
%ADD14C,1.800000*%
%ADD15R,1.800000X1.800000*%
%ADD16O,1.700000X1.700000*%
%ADD17R,1.700000X1.700000*%
G04 APERTURE END LIST*
D10*
%TO.C,G_CV_IN_3*%
X102550000Y-21872500D03*
D11*
X111950000Y-21872500D03*
D12*
X107250000Y-24572500D03*
X107250000Y-16472500D03*
%TD*%
D10*
%TO.C,B_CV_IN_3*%
X102550000Y-34255000D03*
D11*
X111950000Y-34255000D03*
D12*
X107250000Y-36955000D03*
X107250000Y-28855000D03*
%TD*%
D10*
%TO.C,R_CV_IN_3*%
X102550000Y-9490000D03*
D11*
X111950000Y-9490000D03*
D12*
X107250000Y-12190000D03*
X107250000Y-4090000D03*
%TD*%
D10*
%TO.C,G_CV_IN_2*%
X53020000Y-21872500D03*
D11*
X62420000Y-21872500D03*
D12*
X57720000Y-24572500D03*
X57720000Y-16472500D03*
%TD*%
D10*
%TO.C,B_CV_IN_2*%
X53020000Y-34255000D03*
D11*
X62420000Y-34255000D03*
D12*
X57720000Y-36955000D03*
X57720000Y-28855000D03*
%TD*%
D10*
%TO.C,R_CV_IN_2*%
X53020000Y-9490000D03*
D11*
X62420000Y-9490000D03*
D12*
X57720000Y-12190000D03*
X57720000Y-4090000D03*
%TD*%
D10*
%TO.C,G_CV_IN_1*%
X3555000Y-21872500D03*
D11*
X12955000Y-21872500D03*
D12*
X8255000Y-24572500D03*
X8255000Y-16472500D03*
%TD*%
D10*
%TO.C,B_CV_IN_1*%
X3555000Y-34255000D03*
D11*
X12955000Y-34255000D03*
D12*
X8255000Y-36955000D03*
X8255000Y-28855000D03*
%TD*%
D10*
%TO.C,R_CV_IN_1*%
X3555000Y-9490000D03*
D11*
X12955000Y-9490000D03*
D12*
X8255000Y-12190000D03*
X8255000Y-4090000D03*
%TD*%
D10*
%TO.C,Audio_R_3*%
X126680000Y-9490000D03*
D11*
X136080000Y-9490000D03*
D12*
X131380000Y-12190000D03*
X131380000Y-4090000D03*
%TD*%
D10*
%TO.C,Audio_B_3*%
X126680000Y-34255000D03*
D11*
X136080000Y-34255000D03*
D12*
X131380000Y-36955000D03*
X131380000Y-28855000D03*
%TD*%
D10*
%TO.C,Audio_G_3*%
X126680000Y-21872500D03*
D11*
X136080000Y-21872500D03*
D12*
X131380000Y-24572500D03*
X131380000Y-16472500D03*
%TD*%
D10*
%TO.C,Audio_R_2*%
X77190000Y-9490000D03*
D11*
X86590000Y-9490000D03*
D12*
X81890000Y-12190000D03*
X81890000Y-4090000D03*
%TD*%
D10*
%TO.C,Audio_B_2*%
X77190000Y-34255000D03*
D11*
X86590000Y-34255000D03*
D12*
X81890000Y-36955000D03*
X81890000Y-28855000D03*
%TD*%
D10*
%TO.C,Audio_G_2*%
X77190000Y-21872500D03*
D11*
X86590000Y-21872500D03*
D12*
X81890000Y-24572500D03*
X81890000Y-16472500D03*
%TD*%
D10*
%TO.C,Audio_R_1*%
X26415000Y-9490000D03*
D11*
X35815000Y-9490000D03*
D12*
X31115000Y-12190000D03*
X31115000Y-4090000D03*
%TD*%
D10*
%TO.C,Audio_B_1*%
X26415000Y-34255000D03*
D11*
X35815000Y-34255000D03*
D12*
X31115000Y-36955000D03*
X31115000Y-28855000D03*
%TD*%
D10*
%TO.C,Audio_G_1*%
X26415000Y-21872500D03*
D11*
X35815000Y-21872500D03*
D12*
X31115000Y-24572500D03*
X31115000Y-16472500D03*
%TD*%
D13*
%TO.C,G_CV_3*%
X102475000Y-73145000D03*
X112075000Y-73145000D03*
D14*
X109775000Y-80645000D03*
X107275000Y-80645000D03*
D15*
X104775000Y-80645000D03*
%TD*%
D13*
%TO.C,B_CV_3*%
X102475000Y-96005000D03*
X112075000Y-96005000D03*
D14*
X109775000Y-103505000D03*
X107275000Y-103505000D03*
D15*
X104775000Y-103505000D03*
%TD*%
D13*
%TO.C,R_CV_3*%
X102475000Y-50285000D03*
X112075000Y-50285000D03*
D14*
X109775000Y-57785000D03*
X107275000Y-57785000D03*
D15*
X104775000Y-57785000D03*
%TD*%
D13*
%TO.C,G_CV_2*%
X52945000Y-73145000D03*
X62545000Y-73145000D03*
D14*
X60245000Y-80645000D03*
X57745000Y-80645000D03*
D15*
X55245000Y-80645000D03*
%TD*%
D13*
%TO.C,B_CV_2*%
X52945000Y-96005000D03*
X62545000Y-96005000D03*
D14*
X60245000Y-103505000D03*
X57745000Y-103505000D03*
D15*
X55245000Y-103505000D03*
%TD*%
D13*
%TO.C,R_CV_2*%
X52945000Y-50285000D03*
X62545000Y-50285000D03*
D14*
X60245000Y-57785000D03*
X57745000Y-57785000D03*
D15*
X55245000Y-57785000D03*
%TD*%
D13*
%TO.C,G_CV_1*%
X27545000Y-73145000D03*
X37145000Y-73145000D03*
D14*
X34845000Y-80645000D03*
X32345000Y-80645000D03*
D15*
X29845000Y-80645000D03*
%TD*%
D13*
%TO.C,B_CV_1*%
X27545000Y-96005000D03*
X37145000Y-96005000D03*
D14*
X34845000Y-103505000D03*
X32345000Y-103505000D03*
D15*
X29845000Y-103505000D03*
%TD*%
D13*
%TO.C,R_CV_1*%
X27545000Y-50285000D03*
X37145000Y-50285000D03*
D14*
X34845000Y-57785000D03*
X32345000Y-57785000D03*
D15*
X29845000Y-57785000D03*
%TD*%
D13*
%TO.C,B_A_RV1*%
X3415000Y-96005000D03*
X13015000Y-96005000D03*
D14*
X10715000Y-103505000D03*
X8215000Y-103505000D03*
D15*
X5715000Y-103505000D03*
%TD*%
D13*
%TO.C,R_A_RV3*%
X126605000Y-50285000D03*
X136205000Y-50285000D03*
D14*
X133905000Y-57785000D03*
X131405000Y-57785000D03*
D15*
X128905000Y-57785000D03*
%TD*%
D13*
%TO.C,B_A_RV3*%
X126605000Y-96005000D03*
X136205000Y-96005000D03*
D14*
X133905000Y-103505000D03*
X131405000Y-103505000D03*
D15*
X128905000Y-103505000D03*
%TD*%
D13*
%TO.C,G_A_RV3*%
X126605000Y-73145000D03*
X136205000Y-73145000D03*
D14*
X133905000Y-80645000D03*
X131405000Y-80645000D03*
D15*
X128905000Y-80645000D03*
%TD*%
D13*
%TO.C,R_A_RV2*%
X77115000Y-50285000D03*
X86715000Y-50285000D03*
D14*
X84415000Y-57785000D03*
X81915000Y-57785000D03*
D15*
X79415000Y-57785000D03*
%TD*%
D13*
%TO.C,B_A_RV2*%
X77115000Y-96005000D03*
X86715000Y-96005000D03*
D14*
X84415000Y-103505000D03*
X81915000Y-103505000D03*
D15*
X79415000Y-103505000D03*
%TD*%
D13*
%TO.C,G_A_RV2*%
X77115000Y-73145000D03*
X86715000Y-73145000D03*
D14*
X84415000Y-80645000D03*
X81915000Y-80645000D03*
D15*
X79415000Y-80645000D03*
%TD*%
D13*
%TO.C,R_A_RV1*%
X3415000Y-50285000D03*
X13015000Y-50285000D03*
D14*
X10715000Y-57785000D03*
X8215000Y-57785000D03*
D15*
X5715000Y-57785000D03*
%TD*%
D13*
%TO.C,G_A_RV1*%
X3415000Y-73145000D03*
X13015000Y-73145000D03*
D14*
X10715000Y-80645000D03*
X8215000Y-80645000D03*
D15*
X5715000Y-80645000D03*
%TD*%
D16*
%TO.C,J4*%
X115520000Y-3175000D03*
X118060000Y-3175000D03*
X120600000Y-3175000D03*
D17*
X123140000Y-3175000D03*
%TD*%
D16*
%TO.C,J3*%
X66010000Y-3175000D03*
X68550000Y-3175000D03*
X71090000Y-3175000D03*
D17*
X73630000Y-3175000D03*
%TD*%
D16*
%TO.C,J2*%
X15890000Y-3175000D03*
X18430000Y-3175000D03*
X20970000Y-3175000D03*
D17*
X23510000Y-3175000D03*
%TD*%
D16*
%TO.C,J1*%
X46355000Y-78740000D03*
X43815000Y-78740000D03*
X46355000Y-81280000D03*
X43815000Y-81280000D03*
X46355000Y-83820000D03*
X43815000Y-83820000D03*
X46355000Y-86360000D03*
X43815000Y-86360000D03*
X46355000Y-88900000D03*
X43815000Y-88900000D03*
X46355000Y-91440000D03*
X43815000Y-91440000D03*
X46355000Y-93980000D03*
X43815000Y-93980000D03*
X46355000Y-96520000D03*
D17*
X43815000Y-96520000D03*
%TD*%
M02*
