%TF.GenerationSoftware,KiCad,Pcbnew,(5.1.8)-1*%
%TF.CreationDate,2021-01-26T23:12:48-05:00*%
%TF.ProjectId,LedController2,4c656443-6f6e-4747-926f-6c6c6572322e,rev?*%
%TF.SameCoordinates,Original*%
%TF.FileFunction,Soldermask,Bot*%
%TF.FilePolarity,Negative*%
%FSLAX46Y46*%
G04 Gerber Fmt 4.6, Leading zero omitted, Abs format (unit mm)*
G04 Created by KiCad (PCBNEW (5.1.8)-1) date 2021-01-26 23:12:48*
%MOMM*%
%LPD*%
G01*
G04 APERTURE LIST*
%ADD10R,1.750000X3.000000*%
%ADD11R,1.850000X1.850000*%
%ADD12O,3.000000X1.524000*%
%ADD13C,3.240000*%
%ADD14C,1.800000*%
%ADD15R,1.800000X1.800000*%
%ADD16O,1.700000X1.700000*%
%ADD17R,1.700000X1.700000*%
G04 APERTURE END LIST*
%TO.C,R45*%
G36*
G01*
X122290000Y-25409999D02*
X122290000Y-26660001D01*
G75*
G02*
X122040001Y-26910000I-249999J0D01*
G01*
X121414999Y-26910000D01*
G75*
G02*
X121165000Y-26660001I0J249999D01*
G01*
X121165000Y-25409999D01*
G75*
G02*
X121414999Y-25160000I249999J0D01*
G01*
X122040001Y-25160000D01*
G75*
G02*
X122290000Y-25409999I0J-249999D01*
G01*
G37*
G36*
G01*
X125215000Y-25409999D02*
X125215000Y-26660001D01*
G75*
G02*
X124965001Y-26910000I-249999J0D01*
G01*
X124339999Y-26910000D01*
G75*
G02*
X124090000Y-26660001I0J249999D01*
G01*
X124090000Y-25409999D01*
G75*
G02*
X124339999Y-25160000I249999J0D01*
G01*
X124965001Y-25160000D01*
G75*
G02*
X125215000Y-25409999I0J-249999D01*
G01*
G37*
%TD*%
%TO.C,R44*%
G36*
G01*
X131622000Y-1279999D02*
X131622000Y-2530001D01*
G75*
G02*
X131372001Y-2780000I-249999J0D01*
G01*
X130746999Y-2780000D01*
G75*
G02*
X130497000Y-2530001I0J249999D01*
G01*
X130497000Y-1279999D01*
G75*
G02*
X130746999Y-1030000I249999J0D01*
G01*
X131372001Y-1030000D01*
G75*
G02*
X131622000Y-1279999I0J-249999D01*
G01*
G37*
G36*
G01*
X134547000Y-1279999D02*
X134547000Y-2530001D01*
G75*
G02*
X134297001Y-2780000I-249999J0D01*
G01*
X133671999Y-2780000D01*
G75*
G02*
X133422000Y-2530001I0J249999D01*
G01*
X133422000Y-1279999D01*
G75*
G02*
X133671999Y-1030000I249999J0D01*
G01*
X134297001Y-1030000D01*
G75*
G02*
X134547000Y-1279999I0J-249999D01*
G01*
G37*
%TD*%
%TO.C,R43*%
G36*
G01*
X127370000Y-40014999D02*
X127370000Y-41265001D01*
G75*
G02*
X127120001Y-41515000I-249999J0D01*
G01*
X126494999Y-41515000D01*
G75*
G02*
X126245000Y-41265001I0J249999D01*
G01*
X126245000Y-40014999D01*
G75*
G02*
X126494999Y-39765000I249999J0D01*
G01*
X127120001Y-39765000D01*
G75*
G02*
X127370000Y-40014999I0J-249999D01*
G01*
G37*
G36*
G01*
X130295000Y-40014999D02*
X130295000Y-41265001D01*
G75*
G02*
X130045001Y-41515000I-249999J0D01*
G01*
X129419999Y-41515000D01*
G75*
G02*
X129170000Y-41265001I0J249999D01*
G01*
X129170000Y-40014999D01*
G75*
G02*
X129419999Y-39765000I249999J0D01*
G01*
X130045001Y-39765000D01*
G75*
G02*
X130295000Y-40014999I0J-249999D01*
G01*
G37*
%TD*%
%TO.C,R42*%
G36*
G01*
X74920001Y-23422500D02*
X73669999Y-23422500D01*
G75*
G02*
X73420000Y-23172501I0J249999D01*
G01*
X73420000Y-22547499D01*
G75*
G02*
X73669999Y-22297500I249999J0D01*
G01*
X74920001Y-22297500D01*
G75*
G02*
X75170000Y-22547499I0J-249999D01*
G01*
X75170000Y-23172501D01*
G75*
G02*
X74920001Y-23422500I-249999J0D01*
G01*
G37*
G36*
G01*
X74920001Y-26347500D02*
X73669999Y-26347500D01*
G75*
G02*
X73420000Y-26097501I0J249999D01*
G01*
X73420000Y-25472499D01*
G75*
G02*
X73669999Y-25222500I249999J0D01*
G01*
X74920001Y-25222500D01*
G75*
G02*
X75170000Y-25472499I0J-249999D01*
G01*
X75170000Y-26097501D01*
G75*
G02*
X74920001Y-26347500I-249999J0D01*
G01*
G37*
%TD*%
%TO.C,R41*%
G36*
G01*
X89525001Y-12435000D02*
X88274999Y-12435000D01*
G75*
G02*
X88025000Y-12185001I0J249999D01*
G01*
X88025000Y-11559999D01*
G75*
G02*
X88274999Y-11310000I249999J0D01*
G01*
X89525001Y-11310000D01*
G75*
G02*
X89775000Y-11559999I0J-249999D01*
G01*
X89775000Y-12185001D01*
G75*
G02*
X89525001Y-12435000I-249999J0D01*
G01*
G37*
G36*
G01*
X89525001Y-15360000D02*
X88274999Y-15360000D01*
G75*
G02*
X88025000Y-15110001I0J249999D01*
G01*
X88025000Y-14484999D01*
G75*
G02*
X88274999Y-14235000I249999J0D01*
G01*
X89525001Y-14235000D01*
G75*
G02*
X89775000Y-14484999I0J-249999D01*
G01*
X89775000Y-15110001D01*
G75*
G02*
X89525001Y-15360000I-249999J0D01*
G01*
G37*
%TD*%
%TO.C,R40*%
G36*
G01*
X84720000Y-41265001D02*
X84720000Y-40014999D01*
G75*
G02*
X84969999Y-39765000I249999J0D01*
G01*
X85595001Y-39765000D01*
G75*
G02*
X85845000Y-40014999I0J-249999D01*
G01*
X85845000Y-41265001D01*
G75*
G02*
X85595001Y-41515000I-249999J0D01*
G01*
X84969999Y-41515000D01*
G75*
G02*
X84720000Y-41265001I0J249999D01*
G01*
G37*
G36*
G01*
X81795000Y-41265001D02*
X81795000Y-40014999D01*
G75*
G02*
X82044999Y-39765000I249999J0D01*
G01*
X82670001Y-39765000D01*
G75*
G02*
X82920000Y-40014999I0J-249999D01*
G01*
X82920000Y-41265001D01*
G75*
G02*
X82670001Y-41515000I-249999J0D01*
G01*
X82044999Y-41515000D01*
G75*
G02*
X81795000Y-41265001I0J249999D01*
G01*
G37*
%TD*%
%TO.C,R39*%
G36*
G01*
X18680000Y-24120001D02*
X18680000Y-22869999D01*
G75*
G02*
X18929999Y-22620000I249999J0D01*
G01*
X19555001Y-22620000D01*
G75*
G02*
X19805000Y-22869999I0J-249999D01*
G01*
X19805000Y-24120001D01*
G75*
G02*
X19555001Y-24370000I-249999J0D01*
G01*
X18929999Y-24370000D01*
G75*
G02*
X18680000Y-24120001I0J249999D01*
G01*
G37*
G36*
G01*
X15755000Y-24120001D02*
X15755000Y-22869999D01*
G75*
G02*
X16004999Y-22620000I249999J0D01*
G01*
X16630001Y-22620000D01*
G75*
G02*
X16880000Y-22869999I0J-249999D01*
G01*
X16880000Y-24120001D01*
G75*
G02*
X16630001Y-24370000I-249999J0D01*
G01*
X16004999Y-24370000D01*
G75*
G02*
X15755000Y-24120001I0J249999D01*
G01*
G37*
%TD*%
%TO.C,R38*%
G36*
G01*
X41900001Y-17515000D02*
X40649999Y-17515000D01*
G75*
G02*
X40400000Y-17265001I0J249999D01*
G01*
X40400000Y-16639999D01*
G75*
G02*
X40649999Y-16390000I249999J0D01*
G01*
X41900001Y-16390000D01*
G75*
G02*
X42150000Y-16639999I0J-249999D01*
G01*
X42150000Y-17265001D01*
G75*
G02*
X41900001Y-17515000I-249999J0D01*
G01*
G37*
G36*
G01*
X41900001Y-20440000D02*
X40649999Y-20440000D01*
G75*
G02*
X40400000Y-20190001I0J249999D01*
G01*
X40400000Y-19564999D01*
G75*
G02*
X40649999Y-19315000I249999J0D01*
G01*
X41900001Y-19315000D01*
G75*
G02*
X42150000Y-19564999I0J-249999D01*
G01*
X42150000Y-20190001D01*
G75*
G02*
X41900001Y-20440000I-249999J0D01*
G01*
G37*
%TD*%
%TO.C,R37*%
G36*
G01*
X39995001Y-22595000D02*
X38744999Y-22595000D01*
G75*
G02*
X38495000Y-22345001I0J249999D01*
G01*
X38495000Y-21719999D01*
G75*
G02*
X38744999Y-21470000I249999J0D01*
G01*
X39995001Y-21470000D01*
G75*
G02*
X40245000Y-21719999I0J-249999D01*
G01*
X40245000Y-22345001D01*
G75*
G02*
X39995001Y-22595000I-249999J0D01*
G01*
G37*
G36*
G01*
X39995001Y-25520000D02*
X38744999Y-25520000D01*
G75*
G02*
X38495000Y-25270001I0J249999D01*
G01*
X38495000Y-24644999D01*
G75*
G02*
X38744999Y-24395000I249999J0D01*
G01*
X39995001Y-24395000D01*
G75*
G02*
X40245000Y-24644999I0J-249999D01*
G01*
X40245000Y-25270001D01*
G75*
G02*
X39995001Y-25520000I-249999J0D01*
G01*
G37*
%TD*%
D10*
%TO.C,G_CV_IN_3*%
X102550000Y-21872500D03*
D11*
X111950000Y-21872500D03*
D12*
X107250000Y-24572500D03*
X107250000Y-16472500D03*
%TD*%
D10*
%TO.C,B_CV_IN_3*%
X102550000Y-34255000D03*
D11*
X111950000Y-34255000D03*
D12*
X107250000Y-36955000D03*
X107250000Y-28855000D03*
%TD*%
D10*
%TO.C,R_CV_IN_3*%
X102550000Y-9490000D03*
D11*
X111950000Y-9490000D03*
D12*
X107250000Y-12190000D03*
X107250000Y-4090000D03*
%TD*%
D10*
%TO.C,G_CV_IN_2*%
X53020000Y-21872500D03*
D11*
X62420000Y-21872500D03*
D12*
X57720000Y-24572500D03*
X57720000Y-16472500D03*
%TD*%
D10*
%TO.C,B_CV_IN_2*%
X53020000Y-34255000D03*
D11*
X62420000Y-34255000D03*
D12*
X57720000Y-36955000D03*
X57720000Y-28855000D03*
%TD*%
D10*
%TO.C,R_CV_IN_2*%
X53020000Y-9490000D03*
D11*
X62420000Y-9490000D03*
D12*
X57720000Y-12190000D03*
X57720000Y-4090000D03*
%TD*%
D10*
%TO.C,G_CV_IN_1*%
X3555000Y-21872500D03*
D11*
X12955000Y-21872500D03*
D12*
X8255000Y-24572500D03*
X8255000Y-16472500D03*
%TD*%
D10*
%TO.C,B_CV_IN_1*%
X3555000Y-34255000D03*
D11*
X12955000Y-34255000D03*
D12*
X8255000Y-36955000D03*
X8255000Y-28855000D03*
%TD*%
D10*
%TO.C,R_CV_IN_1*%
X3555000Y-9490000D03*
D11*
X12955000Y-9490000D03*
D12*
X8255000Y-12190000D03*
X8255000Y-4090000D03*
%TD*%
D10*
%TO.C,Audio_R_3*%
X126680000Y-9490000D03*
D11*
X136080000Y-9490000D03*
D12*
X131380000Y-12190000D03*
X131380000Y-4090000D03*
%TD*%
D10*
%TO.C,Audio_B_3*%
X126680000Y-34255000D03*
D11*
X136080000Y-34255000D03*
D12*
X131380000Y-36955000D03*
X131380000Y-28855000D03*
%TD*%
D10*
%TO.C,Audio_G_3*%
X126680000Y-21872500D03*
D11*
X136080000Y-21872500D03*
D12*
X131380000Y-24572500D03*
X131380000Y-16472500D03*
%TD*%
D10*
%TO.C,Audio_R_2*%
X77190000Y-9490000D03*
D11*
X86590000Y-9490000D03*
D12*
X81890000Y-12190000D03*
X81890000Y-4090000D03*
%TD*%
D10*
%TO.C,Audio_B_2*%
X77190000Y-34255000D03*
D11*
X86590000Y-34255000D03*
D12*
X81890000Y-36955000D03*
X81890000Y-28855000D03*
%TD*%
D10*
%TO.C,Audio_G_2*%
X77190000Y-21872500D03*
D11*
X86590000Y-21872500D03*
D12*
X81890000Y-24572500D03*
X81890000Y-16472500D03*
%TD*%
D10*
%TO.C,Audio_R_1*%
X26415000Y-9490000D03*
D11*
X35815000Y-9490000D03*
D12*
X31115000Y-12190000D03*
X31115000Y-4090000D03*
%TD*%
D10*
%TO.C,Audio_B_1*%
X26415000Y-34255000D03*
D11*
X35815000Y-34255000D03*
D12*
X31115000Y-36955000D03*
X31115000Y-28855000D03*
%TD*%
D10*
%TO.C,Audio_G_1*%
X26415000Y-21872500D03*
D11*
X35815000Y-21872500D03*
D12*
X31115000Y-24572500D03*
X31115000Y-16472500D03*
%TD*%
D13*
%TO.C,G_CV_3*%
X102475000Y-73145000D03*
X112075000Y-73145000D03*
D14*
X109775000Y-80645000D03*
X107275000Y-80645000D03*
D15*
X104775000Y-80645000D03*
%TD*%
D13*
%TO.C,B_CV_3*%
X102475000Y-96005000D03*
X112075000Y-96005000D03*
D14*
X109775000Y-103505000D03*
X107275000Y-103505000D03*
D15*
X104775000Y-103505000D03*
%TD*%
D13*
%TO.C,R_CV_3*%
X102475000Y-50285000D03*
X112075000Y-50285000D03*
D14*
X109775000Y-57785000D03*
X107275000Y-57785000D03*
D15*
X104775000Y-57785000D03*
%TD*%
D13*
%TO.C,G_CV_2*%
X52945000Y-73145000D03*
X62545000Y-73145000D03*
D14*
X60245000Y-80645000D03*
X57745000Y-80645000D03*
D15*
X55245000Y-80645000D03*
%TD*%
D13*
%TO.C,B_CV_2*%
X52945000Y-96005000D03*
X62545000Y-96005000D03*
D14*
X60245000Y-103505000D03*
X57745000Y-103505000D03*
D15*
X55245000Y-103505000D03*
%TD*%
D13*
%TO.C,R_CV_2*%
X52945000Y-50285000D03*
X62545000Y-50285000D03*
D14*
X60245000Y-57785000D03*
X57745000Y-57785000D03*
D15*
X55245000Y-57785000D03*
%TD*%
D13*
%TO.C,G_CV_1*%
X27545000Y-73145000D03*
X37145000Y-73145000D03*
D14*
X34845000Y-80645000D03*
X32345000Y-80645000D03*
D15*
X29845000Y-80645000D03*
%TD*%
D13*
%TO.C,B_CV_1*%
X27545000Y-96005000D03*
X37145000Y-96005000D03*
D14*
X34845000Y-103505000D03*
X32345000Y-103505000D03*
D15*
X29845000Y-103505000D03*
%TD*%
D13*
%TO.C,R_CV_1*%
X27545000Y-50285000D03*
X37145000Y-50285000D03*
D14*
X34845000Y-57785000D03*
X32345000Y-57785000D03*
D15*
X29845000Y-57785000D03*
%TD*%
D13*
%TO.C,B_A_RV1*%
X3415000Y-96005000D03*
X13015000Y-96005000D03*
D14*
X10715000Y-103505000D03*
X8215000Y-103505000D03*
D15*
X5715000Y-103505000D03*
%TD*%
%TO.C,U5*%
G36*
G01*
X120840000Y-15390000D02*
X120840000Y-15090000D01*
G75*
G02*
X120990000Y-14940000I150000J0D01*
G01*
X122640000Y-14940000D01*
G75*
G02*
X122790000Y-15090000I0J-150000D01*
G01*
X122790000Y-15390000D01*
G75*
G02*
X122640000Y-15540000I-150000J0D01*
G01*
X120990000Y-15540000D01*
G75*
G02*
X120840000Y-15390000I0J150000D01*
G01*
G37*
G36*
G01*
X120840000Y-14120000D02*
X120840000Y-13820000D01*
G75*
G02*
X120990000Y-13670000I150000J0D01*
G01*
X122640000Y-13670000D01*
G75*
G02*
X122790000Y-13820000I0J-150000D01*
G01*
X122790000Y-14120000D01*
G75*
G02*
X122640000Y-14270000I-150000J0D01*
G01*
X120990000Y-14270000D01*
G75*
G02*
X120840000Y-14120000I0J150000D01*
G01*
G37*
G36*
G01*
X120840000Y-12850000D02*
X120840000Y-12550000D01*
G75*
G02*
X120990000Y-12400000I150000J0D01*
G01*
X122640000Y-12400000D01*
G75*
G02*
X122790000Y-12550000I0J-150000D01*
G01*
X122790000Y-12850000D01*
G75*
G02*
X122640000Y-13000000I-150000J0D01*
G01*
X120990000Y-13000000D01*
G75*
G02*
X120840000Y-12850000I0J150000D01*
G01*
G37*
G36*
G01*
X120840000Y-11580000D02*
X120840000Y-11280000D01*
G75*
G02*
X120990000Y-11130000I150000J0D01*
G01*
X122640000Y-11130000D01*
G75*
G02*
X122790000Y-11280000I0J-150000D01*
G01*
X122790000Y-11580000D01*
G75*
G02*
X122640000Y-11730000I-150000J0D01*
G01*
X120990000Y-11730000D01*
G75*
G02*
X120840000Y-11580000I0J150000D01*
G01*
G37*
G36*
G01*
X120840000Y-10310000D02*
X120840000Y-10010000D01*
G75*
G02*
X120990000Y-9860000I150000J0D01*
G01*
X122640000Y-9860000D01*
G75*
G02*
X122790000Y-10010000I0J-150000D01*
G01*
X122790000Y-10310000D01*
G75*
G02*
X122640000Y-10460000I-150000J0D01*
G01*
X120990000Y-10460000D01*
G75*
G02*
X120840000Y-10310000I0J150000D01*
G01*
G37*
G36*
G01*
X120840000Y-9040000D02*
X120840000Y-8740000D01*
G75*
G02*
X120990000Y-8590000I150000J0D01*
G01*
X122640000Y-8590000D01*
G75*
G02*
X122790000Y-8740000I0J-150000D01*
G01*
X122790000Y-9040000D01*
G75*
G02*
X122640000Y-9190000I-150000J0D01*
G01*
X120990000Y-9190000D01*
G75*
G02*
X120840000Y-9040000I0J150000D01*
G01*
G37*
G36*
G01*
X120840000Y-7770000D02*
X120840000Y-7470000D01*
G75*
G02*
X120990000Y-7320000I150000J0D01*
G01*
X122640000Y-7320000D01*
G75*
G02*
X122790000Y-7470000I0J-150000D01*
G01*
X122790000Y-7770000D01*
G75*
G02*
X122640000Y-7920000I-150000J0D01*
G01*
X120990000Y-7920000D01*
G75*
G02*
X120840000Y-7770000I0J150000D01*
G01*
G37*
G36*
G01*
X115890000Y-7770000D02*
X115890000Y-7470000D01*
G75*
G02*
X116040000Y-7320000I150000J0D01*
G01*
X117690000Y-7320000D01*
G75*
G02*
X117840000Y-7470000I0J-150000D01*
G01*
X117840000Y-7770000D01*
G75*
G02*
X117690000Y-7920000I-150000J0D01*
G01*
X116040000Y-7920000D01*
G75*
G02*
X115890000Y-7770000I0J150000D01*
G01*
G37*
G36*
G01*
X115890000Y-9040000D02*
X115890000Y-8740000D01*
G75*
G02*
X116040000Y-8590000I150000J0D01*
G01*
X117690000Y-8590000D01*
G75*
G02*
X117840000Y-8740000I0J-150000D01*
G01*
X117840000Y-9040000D01*
G75*
G02*
X117690000Y-9190000I-150000J0D01*
G01*
X116040000Y-9190000D01*
G75*
G02*
X115890000Y-9040000I0J150000D01*
G01*
G37*
G36*
G01*
X115890000Y-10310000D02*
X115890000Y-10010000D01*
G75*
G02*
X116040000Y-9860000I150000J0D01*
G01*
X117690000Y-9860000D01*
G75*
G02*
X117840000Y-10010000I0J-150000D01*
G01*
X117840000Y-10310000D01*
G75*
G02*
X117690000Y-10460000I-150000J0D01*
G01*
X116040000Y-10460000D01*
G75*
G02*
X115890000Y-10310000I0J150000D01*
G01*
G37*
G36*
G01*
X115890000Y-11580000D02*
X115890000Y-11280000D01*
G75*
G02*
X116040000Y-11130000I150000J0D01*
G01*
X117690000Y-11130000D01*
G75*
G02*
X117840000Y-11280000I0J-150000D01*
G01*
X117840000Y-11580000D01*
G75*
G02*
X117690000Y-11730000I-150000J0D01*
G01*
X116040000Y-11730000D01*
G75*
G02*
X115890000Y-11580000I0J150000D01*
G01*
G37*
G36*
G01*
X115890000Y-12850000D02*
X115890000Y-12550000D01*
G75*
G02*
X116040000Y-12400000I150000J0D01*
G01*
X117690000Y-12400000D01*
G75*
G02*
X117840000Y-12550000I0J-150000D01*
G01*
X117840000Y-12850000D01*
G75*
G02*
X117690000Y-13000000I-150000J0D01*
G01*
X116040000Y-13000000D01*
G75*
G02*
X115890000Y-12850000I0J150000D01*
G01*
G37*
G36*
G01*
X115890000Y-14120000D02*
X115890000Y-13820000D01*
G75*
G02*
X116040000Y-13670000I150000J0D01*
G01*
X117690000Y-13670000D01*
G75*
G02*
X117840000Y-13820000I0J-150000D01*
G01*
X117840000Y-14120000D01*
G75*
G02*
X117690000Y-14270000I-150000J0D01*
G01*
X116040000Y-14270000D01*
G75*
G02*
X115890000Y-14120000I0J150000D01*
G01*
G37*
G36*
G01*
X115890000Y-15390000D02*
X115890000Y-15090000D01*
G75*
G02*
X116040000Y-14940000I150000J0D01*
G01*
X117690000Y-14940000D01*
G75*
G02*
X117840000Y-15090000I0J-150000D01*
G01*
X117840000Y-15390000D01*
G75*
G02*
X117690000Y-15540000I-150000J0D01*
G01*
X116040000Y-15540000D01*
G75*
G02*
X115890000Y-15390000I0J150000D01*
G01*
G37*
%TD*%
%TO.C,U3*%
G36*
G01*
X71330000Y-50950000D02*
X71330000Y-50650000D01*
G75*
G02*
X71480000Y-50500000I150000J0D01*
G01*
X73130000Y-50500000D01*
G75*
G02*
X73280000Y-50650000I0J-150000D01*
G01*
X73280000Y-50950000D01*
G75*
G02*
X73130000Y-51100000I-150000J0D01*
G01*
X71480000Y-51100000D01*
G75*
G02*
X71330000Y-50950000I0J150000D01*
G01*
G37*
G36*
G01*
X71330000Y-49680000D02*
X71330000Y-49380000D01*
G75*
G02*
X71480000Y-49230000I150000J0D01*
G01*
X73130000Y-49230000D01*
G75*
G02*
X73280000Y-49380000I0J-150000D01*
G01*
X73280000Y-49680000D01*
G75*
G02*
X73130000Y-49830000I-150000J0D01*
G01*
X71480000Y-49830000D01*
G75*
G02*
X71330000Y-49680000I0J150000D01*
G01*
G37*
G36*
G01*
X71330000Y-48410000D02*
X71330000Y-48110000D01*
G75*
G02*
X71480000Y-47960000I150000J0D01*
G01*
X73130000Y-47960000D01*
G75*
G02*
X73280000Y-48110000I0J-150000D01*
G01*
X73280000Y-48410000D01*
G75*
G02*
X73130000Y-48560000I-150000J0D01*
G01*
X71480000Y-48560000D01*
G75*
G02*
X71330000Y-48410000I0J150000D01*
G01*
G37*
G36*
G01*
X71330000Y-47140000D02*
X71330000Y-46840000D01*
G75*
G02*
X71480000Y-46690000I150000J0D01*
G01*
X73130000Y-46690000D01*
G75*
G02*
X73280000Y-46840000I0J-150000D01*
G01*
X73280000Y-47140000D01*
G75*
G02*
X73130000Y-47290000I-150000J0D01*
G01*
X71480000Y-47290000D01*
G75*
G02*
X71330000Y-47140000I0J150000D01*
G01*
G37*
G36*
G01*
X71330000Y-45870000D02*
X71330000Y-45570000D01*
G75*
G02*
X71480000Y-45420000I150000J0D01*
G01*
X73130000Y-45420000D01*
G75*
G02*
X73280000Y-45570000I0J-150000D01*
G01*
X73280000Y-45870000D01*
G75*
G02*
X73130000Y-46020000I-150000J0D01*
G01*
X71480000Y-46020000D01*
G75*
G02*
X71330000Y-45870000I0J150000D01*
G01*
G37*
G36*
G01*
X71330000Y-44600000D02*
X71330000Y-44300000D01*
G75*
G02*
X71480000Y-44150000I150000J0D01*
G01*
X73130000Y-44150000D01*
G75*
G02*
X73280000Y-44300000I0J-150000D01*
G01*
X73280000Y-44600000D01*
G75*
G02*
X73130000Y-44750000I-150000J0D01*
G01*
X71480000Y-44750000D01*
G75*
G02*
X71330000Y-44600000I0J150000D01*
G01*
G37*
G36*
G01*
X71330000Y-43330000D02*
X71330000Y-43030000D01*
G75*
G02*
X71480000Y-42880000I150000J0D01*
G01*
X73130000Y-42880000D01*
G75*
G02*
X73280000Y-43030000I0J-150000D01*
G01*
X73280000Y-43330000D01*
G75*
G02*
X73130000Y-43480000I-150000J0D01*
G01*
X71480000Y-43480000D01*
G75*
G02*
X71330000Y-43330000I0J150000D01*
G01*
G37*
G36*
G01*
X66380000Y-43330000D02*
X66380000Y-43030000D01*
G75*
G02*
X66530000Y-42880000I150000J0D01*
G01*
X68180000Y-42880000D01*
G75*
G02*
X68330000Y-43030000I0J-150000D01*
G01*
X68330000Y-43330000D01*
G75*
G02*
X68180000Y-43480000I-150000J0D01*
G01*
X66530000Y-43480000D01*
G75*
G02*
X66380000Y-43330000I0J150000D01*
G01*
G37*
G36*
G01*
X66380000Y-44600000D02*
X66380000Y-44300000D01*
G75*
G02*
X66530000Y-44150000I150000J0D01*
G01*
X68180000Y-44150000D01*
G75*
G02*
X68330000Y-44300000I0J-150000D01*
G01*
X68330000Y-44600000D01*
G75*
G02*
X68180000Y-44750000I-150000J0D01*
G01*
X66530000Y-44750000D01*
G75*
G02*
X66380000Y-44600000I0J150000D01*
G01*
G37*
G36*
G01*
X66380000Y-45870000D02*
X66380000Y-45570000D01*
G75*
G02*
X66530000Y-45420000I150000J0D01*
G01*
X68180000Y-45420000D01*
G75*
G02*
X68330000Y-45570000I0J-150000D01*
G01*
X68330000Y-45870000D01*
G75*
G02*
X68180000Y-46020000I-150000J0D01*
G01*
X66530000Y-46020000D01*
G75*
G02*
X66380000Y-45870000I0J150000D01*
G01*
G37*
G36*
G01*
X66380000Y-47140000D02*
X66380000Y-46840000D01*
G75*
G02*
X66530000Y-46690000I150000J0D01*
G01*
X68180000Y-46690000D01*
G75*
G02*
X68330000Y-46840000I0J-150000D01*
G01*
X68330000Y-47140000D01*
G75*
G02*
X68180000Y-47290000I-150000J0D01*
G01*
X66530000Y-47290000D01*
G75*
G02*
X66380000Y-47140000I0J150000D01*
G01*
G37*
G36*
G01*
X66380000Y-48410000D02*
X66380000Y-48110000D01*
G75*
G02*
X66530000Y-47960000I150000J0D01*
G01*
X68180000Y-47960000D01*
G75*
G02*
X68330000Y-48110000I0J-150000D01*
G01*
X68330000Y-48410000D01*
G75*
G02*
X68180000Y-48560000I-150000J0D01*
G01*
X66530000Y-48560000D01*
G75*
G02*
X66380000Y-48410000I0J150000D01*
G01*
G37*
G36*
G01*
X66380000Y-49680000D02*
X66380000Y-49380000D01*
G75*
G02*
X66530000Y-49230000I150000J0D01*
G01*
X68180000Y-49230000D01*
G75*
G02*
X68330000Y-49380000I0J-150000D01*
G01*
X68330000Y-49680000D01*
G75*
G02*
X68180000Y-49830000I-150000J0D01*
G01*
X66530000Y-49830000D01*
G75*
G02*
X66380000Y-49680000I0J150000D01*
G01*
G37*
G36*
G01*
X66380000Y-50950000D02*
X66380000Y-50650000D01*
G75*
G02*
X66530000Y-50500000I150000J0D01*
G01*
X68180000Y-50500000D01*
G75*
G02*
X68330000Y-50650000I0J-150000D01*
G01*
X68330000Y-50950000D01*
G75*
G02*
X68180000Y-51100000I-150000J0D01*
G01*
X66530000Y-51100000D01*
G75*
G02*
X66380000Y-50950000I0J150000D01*
G01*
G37*
%TD*%
%TO.C,U1*%
G36*
G01*
X21185000Y-15390000D02*
X21185000Y-15090000D01*
G75*
G02*
X21335000Y-14940000I150000J0D01*
G01*
X22985000Y-14940000D01*
G75*
G02*
X23135000Y-15090000I0J-150000D01*
G01*
X23135000Y-15390000D01*
G75*
G02*
X22985000Y-15540000I-150000J0D01*
G01*
X21335000Y-15540000D01*
G75*
G02*
X21185000Y-15390000I0J150000D01*
G01*
G37*
G36*
G01*
X21185000Y-14120000D02*
X21185000Y-13820000D01*
G75*
G02*
X21335000Y-13670000I150000J0D01*
G01*
X22985000Y-13670000D01*
G75*
G02*
X23135000Y-13820000I0J-150000D01*
G01*
X23135000Y-14120000D01*
G75*
G02*
X22985000Y-14270000I-150000J0D01*
G01*
X21335000Y-14270000D01*
G75*
G02*
X21185000Y-14120000I0J150000D01*
G01*
G37*
G36*
G01*
X21185000Y-12850000D02*
X21185000Y-12550000D01*
G75*
G02*
X21335000Y-12400000I150000J0D01*
G01*
X22985000Y-12400000D01*
G75*
G02*
X23135000Y-12550000I0J-150000D01*
G01*
X23135000Y-12850000D01*
G75*
G02*
X22985000Y-13000000I-150000J0D01*
G01*
X21335000Y-13000000D01*
G75*
G02*
X21185000Y-12850000I0J150000D01*
G01*
G37*
G36*
G01*
X21185000Y-11580000D02*
X21185000Y-11280000D01*
G75*
G02*
X21335000Y-11130000I150000J0D01*
G01*
X22985000Y-11130000D01*
G75*
G02*
X23135000Y-11280000I0J-150000D01*
G01*
X23135000Y-11580000D01*
G75*
G02*
X22985000Y-11730000I-150000J0D01*
G01*
X21335000Y-11730000D01*
G75*
G02*
X21185000Y-11580000I0J150000D01*
G01*
G37*
G36*
G01*
X21185000Y-10310000D02*
X21185000Y-10010000D01*
G75*
G02*
X21335000Y-9860000I150000J0D01*
G01*
X22985000Y-9860000D01*
G75*
G02*
X23135000Y-10010000I0J-150000D01*
G01*
X23135000Y-10310000D01*
G75*
G02*
X22985000Y-10460000I-150000J0D01*
G01*
X21335000Y-10460000D01*
G75*
G02*
X21185000Y-10310000I0J150000D01*
G01*
G37*
G36*
G01*
X21185000Y-9040000D02*
X21185000Y-8740000D01*
G75*
G02*
X21335000Y-8590000I150000J0D01*
G01*
X22985000Y-8590000D01*
G75*
G02*
X23135000Y-8740000I0J-150000D01*
G01*
X23135000Y-9040000D01*
G75*
G02*
X22985000Y-9190000I-150000J0D01*
G01*
X21335000Y-9190000D01*
G75*
G02*
X21185000Y-9040000I0J150000D01*
G01*
G37*
G36*
G01*
X21185000Y-7770000D02*
X21185000Y-7470000D01*
G75*
G02*
X21335000Y-7320000I150000J0D01*
G01*
X22985000Y-7320000D01*
G75*
G02*
X23135000Y-7470000I0J-150000D01*
G01*
X23135000Y-7770000D01*
G75*
G02*
X22985000Y-7920000I-150000J0D01*
G01*
X21335000Y-7920000D01*
G75*
G02*
X21185000Y-7770000I0J150000D01*
G01*
G37*
G36*
G01*
X16235000Y-7770000D02*
X16235000Y-7470000D01*
G75*
G02*
X16385000Y-7320000I150000J0D01*
G01*
X18035000Y-7320000D01*
G75*
G02*
X18185000Y-7470000I0J-150000D01*
G01*
X18185000Y-7770000D01*
G75*
G02*
X18035000Y-7920000I-150000J0D01*
G01*
X16385000Y-7920000D01*
G75*
G02*
X16235000Y-7770000I0J150000D01*
G01*
G37*
G36*
G01*
X16235000Y-9040000D02*
X16235000Y-8740000D01*
G75*
G02*
X16385000Y-8590000I150000J0D01*
G01*
X18035000Y-8590000D01*
G75*
G02*
X18185000Y-8740000I0J-150000D01*
G01*
X18185000Y-9040000D01*
G75*
G02*
X18035000Y-9190000I-150000J0D01*
G01*
X16385000Y-9190000D01*
G75*
G02*
X16235000Y-9040000I0J150000D01*
G01*
G37*
G36*
G01*
X16235000Y-10310000D02*
X16235000Y-10010000D01*
G75*
G02*
X16385000Y-9860000I150000J0D01*
G01*
X18035000Y-9860000D01*
G75*
G02*
X18185000Y-10010000I0J-150000D01*
G01*
X18185000Y-10310000D01*
G75*
G02*
X18035000Y-10460000I-150000J0D01*
G01*
X16385000Y-10460000D01*
G75*
G02*
X16235000Y-10310000I0J150000D01*
G01*
G37*
G36*
G01*
X16235000Y-11580000D02*
X16235000Y-11280000D01*
G75*
G02*
X16385000Y-11130000I150000J0D01*
G01*
X18035000Y-11130000D01*
G75*
G02*
X18185000Y-11280000I0J-150000D01*
G01*
X18185000Y-11580000D01*
G75*
G02*
X18035000Y-11730000I-150000J0D01*
G01*
X16385000Y-11730000D01*
G75*
G02*
X16235000Y-11580000I0J150000D01*
G01*
G37*
G36*
G01*
X16235000Y-12850000D02*
X16235000Y-12550000D01*
G75*
G02*
X16385000Y-12400000I150000J0D01*
G01*
X18035000Y-12400000D01*
G75*
G02*
X18185000Y-12550000I0J-150000D01*
G01*
X18185000Y-12850000D01*
G75*
G02*
X18035000Y-13000000I-150000J0D01*
G01*
X16385000Y-13000000D01*
G75*
G02*
X16235000Y-12850000I0J150000D01*
G01*
G37*
G36*
G01*
X16235000Y-14120000D02*
X16235000Y-13820000D01*
G75*
G02*
X16385000Y-13670000I150000J0D01*
G01*
X18035000Y-13670000D01*
G75*
G02*
X18185000Y-13820000I0J-150000D01*
G01*
X18185000Y-14120000D01*
G75*
G02*
X18035000Y-14270000I-150000J0D01*
G01*
X16385000Y-14270000D01*
G75*
G02*
X16235000Y-14120000I0J150000D01*
G01*
G37*
G36*
G01*
X16235000Y-15390000D02*
X16235000Y-15090000D01*
G75*
G02*
X16385000Y-14940000I150000J0D01*
G01*
X18035000Y-14940000D01*
G75*
G02*
X18185000Y-15090000I0J-150000D01*
G01*
X18185000Y-15390000D01*
G75*
G02*
X18035000Y-15540000I-150000J0D01*
G01*
X16385000Y-15540000D01*
G75*
G02*
X16235000Y-15390000I0J150000D01*
G01*
G37*
%TD*%
%TO.C,U6*%
G36*
G01*
X120840000Y-50950000D02*
X120840000Y-50650000D01*
G75*
G02*
X120990000Y-50500000I150000J0D01*
G01*
X122640000Y-50500000D01*
G75*
G02*
X122790000Y-50650000I0J-150000D01*
G01*
X122790000Y-50950000D01*
G75*
G02*
X122640000Y-51100000I-150000J0D01*
G01*
X120990000Y-51100000D01*
G75*
G02*
X120840000Y-50950000I0J150000D01*
G01*
G37*
G36*
G01*
X120840000Y-49680000D02*
X120840000Y-49380000D01*
G75*
G02*
X120990000Y-49230000I150000J0D01*
G01*
X122640000Y-49230000D01*
G75*
G02*
X122790000Y-49380000I0J-150000D01*
G01*
X122790000Y-49680000D01*
G75*
G02*
X122640000Y-49830000I-150000J0D01*
G01*
X120990000Y-49830000D01*
G75*
G02*
X120840000Y-49680000I0J150000D01*
G01*
G37*
G36*
G01*
X120840000Y-48410000D02*
X120840000Y-48110000D01*
G75*
G02*
X120990000Y-47960000I150000J0D01*
G01*
X122640000Y-47960000D01*
G75*
G02*
X122790000Y-48110000I0J-150000D01*
G01*
X122790000Y-48410000D01*
G75*
G02*
X122640000Y-48560000I-150000J0D01*
G01*
X120990000Y-48560000D01*
G75*
G02*
X120840000Y-48410000I0J150000D01*
G01*
G37*
G36*
G01*
X120840000Y-47140000D02*
X120840000Y-46840000D01*
G75*
G02*
X120990000Y-46690000I150000J0D01*
G01*
X122640000Y-46690000D01*
G75*
G02*
X122790000Y-46840000I0J-150000D01*
G01*
X122790000Y-47140000D01*
G75*
G02*
X122640000Y-47290000I-150000J0D01*
G01*
X120990000Y-47290000D01*
G75*
G02*
X120840000Y-47140000I0J150000D01*
G01*
G37*
G36*
G01*
X120840000Y-45870000D02*
X120840000Y-45570000D01*
G75*
G02*
X120990000Y-45420000I150000J0D01*
G01*
X122640000Y-45420000D01*
G75*
G02*
X122790000Y-45570000I0J-150000D01*
G01*
X122790000Y-45870000D01*
G75*
G02*
X122640000Y-46020000I-150000J0D01*
G01*
X120990000Y-46020000D01*
G75*
G02*
X120840000Y-45870000I0J150000D01*
G01*
G37*
G36*
G01*
X120840000Y-44600000D02*
X120840000Y-44300000D01*
G75*
G02*
X120990000Y-44150000I150000J0D01*
G01*
X122640000Y-44150000D01*
G75*
G02*
X122790000Y-44300000I0J-150000D01*
G01*
X122790000Y-44600000D01*
G75*
G02*
X122640000Y-44750000I-150000J0D01*
G01*
X120990000Y-44750000D01*
G75*
G02*
X120840000Y-44600000I0J150000D01*
G01*
G37*
G36*
G01*
X120840000Y-43330000D02*
X120840000Y-43030000D01*
G75*
G02*
X120990000Y-42880000I150000J0D01*
G01*
X122640000Y-42880000D01*
G75*
G02*
X122790000Y-43030000I0J-150000D01*
G01*
X122790000Y-43330000D01*
G75*
G02*
X122640000Y-43480000I-150000J0D01*
G01*
X120990000Y-43480000D01*
G75*
G02*
X120840000Y-43330000I0J150000D01*
G01*
G37*
G36*
G01*
X115890000Y-43330000D02*
X115890000Y-43030000D01*
G75*
G02*
X116040000Y-42880000I150000J0D01*
G01*
X117690000Y-42880000D01*
G75*
G02*
X117840000Y-43030000I0J-150000D01*
G01*
X117840000Y-43330000D01*
G75*
G02*
X117690000Y-43480000I-150000J0D01*
G01*
X116040000Y-43480000D01*
G75*
G02*
X115890000Y-43330000I0J150000D01*
G01*
G37*
G36*
G01*
X115890000Y-44600000D02*
X115890000Y-44300000D01*
G75*
G02*
X116040000Y-44150000I150000J0D01*
G01*
X117690000Y-44150000D01*
G75*
G02*
X117840000Y-44300000I0J-150000D01*
G01*
X117840000Y-44600000D01*
G75*
G02*
X117690000Y-44750000I-150000J0D01*
G01*
X116040000Y-44750000D01*
G75*
G02*
X115890000Y-44600000I0J150000D01*
G01*
G37*
G36*
G01*
X115890000Y-45870000D02*
X115890000Y-45570000D01*
G75*
G02*
X116040000Y-45420000I150000J0D01*
G01*
X117690000Y-45420000D01*
G75*
G02*
X117840000Y-45570000I0J-150000D01*
G01*
X117840000Y-45870000D01*
G75*
G02*
X117690000Y-46020000I-150000J0D01*
G01*
X116040000Y-46020000D01*
G75*
G02*
X115890000Y-45870000I0J150000D01*
G01*
G37*
G36*
G01*
X115890000Y-47140000D02*
X115890000Y-46840000D01*
G75*
G02*
X116040000Y-46690000I150000J0D01*
G01*
X117690000Y-46690000D01*
G75*
G02*
X117840000Y-46840000I0J-150000D01*
G01*
X117840000Y-47140000D01*
G75*
G02*
X117690000Y-47290000I-150000J0D01*
G01*
X116040000Y-47290000D01*
G75*
G02*
X115890000Y-47140000I0J150000D01*
G01*
G37*
G36*
G01*
X115890000Y-48410000D02*
X115890000Y-48110000D01*
G75*
G02*
X116040000Y-47960000I150000J0D01*
G01*
X117690000Y-47960000D01*
G75*
G02*
X117840000Y-48110000I0J-150000D01*
G01*
X117840000Y-48410000D01*
G75*
G02*
X117690000Y-48560000I-150000J0D01*
G01*
X116040000Y-48560000D01*
G75*
G02*
X115890000Y-48410000I0J150000D01*
G01*
G37*
G36*
G01*
X115890000Y-49680000D02*
X115890000Y-49380000D01*
G75*
G02*
X116040000Y-49230000I150000J0D01*
G01*
X117690000Y-49230000D01*
G75*
G02*
X117840000Y-49380000I0J-150000D01*
G01*
X117840000Y-49680000D01*
G75*
G02*
X117690000Y-49830000I-150000J0D01*
G01*
X116040000Y-49830000D01*
G75*
G02*
X115890000Y-49680000I0J150000D01*
G01*
G37*
G36*
G01*
X115890000Y-50950000D02*
X115890000Y-50650000D01*
G75*
G02*
X116040000Y-50500000I150000J0D01*
G01*
X117690000Y-50500000D01*
G75*
G02*
X117840000Y-50650000I0J-150000D01*
G01*
X117840000Y-50950000D01*
G75*
G02*
X117690000Y-51100000I-150000J0D01*
G01*
X116040000Y-51100000D01*
G75*
G02*
X115890000Y-50950000I0J150000D01*
G01*
G37*
%TD*%
%TO.C,U4*%
G36*
G01*
X71330000Y-15390000D02*
X71330000Y-15090000D01*
G75*
G02*
X71480000Y-14940000I150000J0D01*
G01*
X73130000Y-14940000D01*
G75*
G02*
X73280000Y-15090000I0J-150000D01*
G01*
X73280000Y-15390000D01*
G75*
G02*
X73130000Y-15540000I-150000J0D01*
G01*
X71480000Y-15540000D01*
G75*
G02*
X71330000Y-15390000I0J150000D01*
G01*
G37*
G36*
G01*
X71330000Y-14120000D02*
X71330000Y-13820000D01*
G75*
G02*
X71480000Y-13670000I150000J0D01*
G01*
X73130000Y-13670000D01*
G75*
G02*
X73280000Y-13820000I0J-150000D01*
G01*
X73280000Y-14120000D01*
G75*
G02*
X73130000Y-14270000I-150000J0D01*
G01*
X71480000Y-14270000D01*
G75*
G02*
X71330000Y-14120000I0J150000D01*
G01*
G37*
G36*
G01*
X71330000Y-12850000D02*
X71330000Y-12550000D01*
G75*
G02*
X71480000Y-12400000I150000J0D01*
G01*
X73130000Y-12400000D01*
G75*
G02*
X73280000Y-12550000I0J-150000D01*
G01*
X73280000Y-12850000D01*
G75*
G02*
X73130000Y-13000000I-150000J0D01*
G01*
X71480000Y-13000000D01*
G75*
G02*
X71330000Y-12850000I0J150000D01*
G01*
G37*
G36*
G01*
X71330000Y-11580000D02*
X71330000Y-11280000D01*
G75*
G02*
X71480000Y-11130000I150000J0D01*
G01*
X73130000Y-11130000D01*
G75*
G02*
X73280000Y-11280000I0J-150000D01*
G01*
X73280000Y-11580000D01*
G75*
G02*
X73130000Y-11730000I-150000J0D01*
G01*
X71480000Y-11730000D01*
G75*
G02*
X71330000Y-11580000I0J150000D01*
G01*
G37*
G36*
G01*
X71330000Y-10310000D02*
X71330000Y-10010000D01*
G75*
G02*
X71480000Y-9860000I150000J0D01*
G01*
X73130000Y-9860000D01*
G75*
G02*
X73280000Y-10010000I0J-150000D01*
G01*
X73280000Y-10310000D01*
G75*
G02*
X73130000Y-10460000I-150000J0D01*
G01*
X71480000Y-10460000D01*
G75*
G02*
X71330000Y-10310000I0J150000D01*
G01*
G37*
G36*
G01*
X71330000Y-9040000D02*
X71330000Y-8740000D01*
G75*
G02*
X71480000Y-8590000I150000J0D01*
G01*
X73130000Y-8590000D01*
G75*
G02*
X73280000Y-8740000I0J-150000D01*
G01*
X73280000Y-9040000D01*
G75*
G02*
X73130000Y-9190000I-150000J0D01*
G01*
X71480000Y-9190000D01*
G75*
G02*
X71330000Y-9040000I0J150000D01*
G01*
G37*
G36*
G01*
X71330000Y-7770000D02*
X71330000Y-7470000D01*
G75*
G02*
X71480000Y-7320000I150000J0D01*
G01*
X73130000Y-7320000D01*
G75*
G02*
X73280000Y-7470000I0J-150000D01*
G01*
X73280000Y-7770000D01*
G75*
G02*
X73130000Y-7920000I-150000J0D01*
G01*
X71480000Y-7920000D01*
G75*
G02*
X71330000Y-7770000I0J150000D01*
G01*
G37*
G36*
G01*
X66380000Y-7770000D02*
X66380000Y-7470000D01*
G75*
G02*
X66530000Y-7320000I150000J0D01*
G01*
X68180000Y-7320000D01*
G75*
G02*
X68330000Y-7470000I0J-150000D01*
G01*
X68330000Y-7770000D01*
G75*
G02*
X68180000Y-7920000I-150000J0D01*
G01*
X66530000Y-7920000D01*
G75*
G02*
X66380000Y-7770000I0J150000D01*
G01*
G37*
G36*
G01*
X66380000Y-9040000D02*
X66380000Y-8740000D01*
G75*
G02*
X66530000Y-8590000I150000J0D01*
G01*
X68180000Y-8590000D01*
G75*
G02*
X68330000Y-8740000I0J-150000D01*
G01*
X68330000Y-9040000D01*
G75*
G02*
X68180000Y-9190000I-150000J0D01*
G01*
X66530000Y-9190000D01*
G75*
G02*
X66380000Y-9040000I0J150000D01*
G01*
G37*
G36*
G01*
X66380000Y-10310000D02*
X66380000Y-10010000D01*
G75*
G02*
X66530000Y-9860000I150000J0D01*
G01*
X68180000Y-9860000D01*
G75*
G02*
X68330000Y-10010000I0J-150000D01*
G01*
X68330000Y-10310000D01*
G75*
G02*
X68180000Y-10460000I-150000J0D01*
G01*
X66530000Y-10460000D01*
G75*
G02*
X66380000Y-10310000I0J150000D01*
G01*
G37*
G36*
G01*
X66380000Y-11580000D02*
X66380000Y-11280000D01*
G75*
G02*
X66530000Y-11130000I150000J0D01*
G01*
X68180000Y-11130000D01*
G75*
G02*
X68330000Y-11280000I0J-150000D01*
G01*
X68330000Y-11580000D01*
G75*
G02*
X68180000Y-11730000I-150000J0D01*
G01*
X66530000Y-11730000D01*
G75*
G02*
X66380000Y-11580000I0J150000D01*
G01*
G37*
G36*
G01*
X66380000Y-12850000D02*
X66380000Y-12550000D01*
G75*
G02*
X66530000Y-12400000I150000J0D01*
G01*
X68180000Y-12400000D01*
G75*
G02*
X68330000Y-12550000I0J-150000D01*
G01*
X68330000Y-12850000D01*
G75*
G02*
X68180000Y-13000000I-150000J0D01*
G01*
X66530000Y-13000000D01*
G75*
G02*
X66380000Y-12850000I0J150000D01*
G01*
G37*
G36*
G01*
X66380000Y-14120000D02*
X66380000Y-13820000D01*
G75*
G02*
X66530000Y-13670000I150000J0D01*
G01*
X68180000Y-13670000D01*
G75*
G02*
X68330000Y-13820000I0J-150000D01*
G01*
X68330000Y-14120000D01*
G75*
G02*
X68180000Y-14270000I-150000J0D01*
G01*
X66530000Y-14270000D01*
G75*
G02*
X66380000Y-14120000I0J150000D01*
G01*
G37*
G36*
G01*
X66380000Y-15390000D02*
X66380000Y-15090000D01*
G75*
G02*
X66530000Y-14940000I150000J0D01*
G01*
X68180000Y-14940000D01*
G75*
G02*
X68330000Y-15090000I0J-150000D01*
G01*
X68330000Y-15390000D01*
G75*
G02*
X68180000Y-15540000I-150000J0D01*
G01*
X66530000Y-15540000D01*
G75*
G02*
X66380000Y-15390000I0J150000D01*
G01*
G37*
%TD*%
%TO.C,U2*%
G36*
G01*
X21780000Y-50950000D02*
X21780000Y-50650000D01*
G75*
G02*
X21930000Y-50500000I150000J0D01*
G01*
X23580000Y-50500000D01*
G75*
G02*
X23730000Y-50650000I0J-150000D01*
G01*
X23730000Y-50950000D01*
G75*
G02*
X23580000Y-51100000I-150000J0D01*
G01*
X21930000Y-51100000D01*
G75*
G02*
X21780000Y-50950000I0J150000D01*
G01*
G37*
G36*
G01*
X21780000Y-49680000D02*
X21780000Y-49380000D01*
G75*
G02*
X21930000Y-49230000I150000J0D01*
G01*
X23580000Y-49230000D01*
G75*
G02*
X23730000Y-49380000I0J-150000D01*
G01*
X23730000Y-49680000D01*
G75*
G02*
X23580000Y-49830000I-150000J0D01*
G01*
X21930000Y-49830000D01*
G75*
G02*
X21780000Y-49680000I0J150000D01*
G01*
G37*
G36*
G01*
X21780000Y-48410000D02*
X21780000Y-48110000D01*
G75*
G02*
X21930000Y-47960000I150000J0D01*
G01*
X23580000Y-47960000D01*
G75*
G02*
X23730000Y-48110000I0J-150000D01*
G01*
X23730000Y-48410000D01*
G75*
G02*
X23580000Y-48560000I-150000J0D01*
G01*
X21930000Y-48560000D01*
G75*
G02*
X21780000Y-48410000I0J150000D01*
G01*
G37*
G36*
G01*
X21780000Y-47140000D02*
X21780000Y-46840000D01*
G75*
G02*
X21930000Y-46690000I150000J0D01*
G01*
X23580000Y-46690000D01*
G75*
G02*
X23730000Y-46840000I0J-150000D01*
G01*
X23730000Y-47140000D01*
G75*
G02*
X23580000Y-47290000I-150000J0D01*
G01*
X21930000Y-47290000D01*
G75*
G02*
X21780000Y-47140000I0J150000D01*
G01*
G37*
G36*
G01*
X21780000Y-45870000D02*
X21780000Y-45570000D01*
G75*
G02*
X21930000Y-45420000I150000J0D01*
G01*
X23580000Y-45420000D01*
G75*
G02*
X23730000Y-45570000I0J-150000D01*
G01*
X23730000Y-45870000D01*
G75*
G02*
X23580000Y-46020000I-150000J0D01*
G01*
X21930000Y-46020000D01*
G75*
G02*
X21780000Y-45870000I0J150000D01*
G01*
G37*
G36*
G01*
X21780000Y-44600000D02*
X21780000Y-44300000D01*
G75*
G02*
X21930000Y-44150000I150000J0D01*
G01*
X23580000Y-44150000D01*
G75*
G02*
X23730000Y-44300000I0J-150000D01*
G01*
X23730000Y-44600000D01*
G75*
G02*
X23580000Y-44750000I-150000J0D01*
G01*
X21930000Y-44750000D01*
G75*
G02*
X21780000Y-44600000I0J150000D01*
G01*
G37*
G36*
G01*
X21780000Y-43330000D02*
X21780000Y-43030000D01*
G75*
G02*
X21930000Y-42880000I150000J0D01*
G01*
X23580000Y-42880000D01*
G75*
G02*
X23730000Y-43030000I0J-150000D01*
G01*
X23730000Y-43330000D01*
G75*
G02*
X23580000Y-43480000I-150000J0D01*
G01*
X21930000Y-43480000D01*
G75*
G02*
X21780000Y-43330000I0J150000D01*
G01*
G37*
G36*
G01*
X16830000Y-43330000D02*
X16830000Y-43030000D01*
G75*
G02*
X16980000Y-42880000I150000J0D01*
G01*
X18630000Y-42880000D01*
G75*
G02*
X18780000Y-43030000I0J-150000D01*
G01*
X18780000Y-43330000D01*
G75*
G02*
X18630000Y-43480000I-150000J0D01*
G01*
X16980000Y-43480000D01*
G75*
G02*
X16830000Y-43330000I0J150000D01*
G01*
G37*
G36*
G01*
X16830000Y-44600000D02*
X16830000Y-44300000D01*
G75*
G02*
X16980000Y-44150000I150000J0D01*
G01*
X18630000Y-44150000D01*
G75*
G02*
X18780000Y-44300000I0J-150000D01*
G01*
X18780000Y-44600000D01*
G75*
G02*
X18630000Y-44750000I-150000J0D01*
G01*
X16980000Y-44750000D01*
G75*
G02*
X16830000Y-44600000I0J150000D01*
G01*
G37*
G36*
G01*
X16830000Y-45870000D02*
X16830000Y-45570000D01*
G75*
G02*
X16980000Y-45420000I150000J0D01*
G01*
X18630000Y-45420000D01*
G75*
G02*
X18780000Y-45570000I0J-150000D01*
G01*
X18780000Y-45870000D01*
G75*
G02*
X18630000Y-46020000I-150000J0D01*
G01*
X16980000Y-46020000D01*
G75*
G02*
X16830000Y-45870000I0J150000D01*
G01*
G37*
G36*
G01*
X16830000Y-47140000D02*
X16830000Y-46840000D01*
G75*
G02*
X16980000Y-46690000I150000J0D01*
G01*
X18630000Y-46690000D01*
G75*
G02*
X18780000Y-46840000I0J-150000D01*
G01*
X18780000Y-47140000D01*
G75*
G02*
X18630000Y-47290000I-150000J0D01*
G01*
X16980000Y-47290000D01*
G75*
G02*
X16830000Y-47140000I0J150000D01*
G01*
G37*
G36*
G01*
X16830000Y-48410000D02*
X16830000Y-48110000D01*
G75*
G02*
X16980000Y-47960000I150000J0D01*
G01*
X18630000Y-47960000D01*
G75*
G02*
X18780000Y-48110000I0J-150000D01*
G01*
X18780000Y-48410000D01*
G75*
G02*
X18630000Y-48560000I-150000J0D01*
G01*
X16980000Y-48560000D01*
G75*
G02*
X16830000Y-48410000I0J150000D01*
G01*
G37*
G36*
G01*
X16830000Y-49680000D02*
X16830000Y-49380000D01*
G75*
G02*
X16980000Y-49230000I150000J0D01*
G01*
X18630000Y-49230000D01*
G75*
G02*
X18780000Y-49380000I0J-150000D01*
G01*
X18780000Y-49680000D01*
G75*
G02*
X18630000Y-49830000I-150000J0D01*
G01*
X16980000Y-49830000D01*
G75*
G02*
X16830000Y-49680000I0J150000D01*
G01*
G37*
G36*
G01*
X16830000Y-50950000D02*
X16830000Y-50650000D01*
G75*
G02*
X16980000Y-50500000I150000J0D01*
G01*
X18630000Y-50500000D01*
G75*
G02*
X18780000Y-50650000I0J-150000D01*
G01*
X18780000Y-50950000D01*
G75*
G02*
X18630000Y-51100000I-150000J0D01*
G01*
X16980000Y-51100000D01*
G75*
G02*
X16830000Y-50950000I0J150000D01*
G01*
G37*
%TD*%
D13*
%TO.C,R_A_RV3*%
X126605000Y-50285000D03*
X136205000Y-50285000D03*
D14*
X133905000Y-57785000D03*
X131405000Y-57785000D03*
D15*
X128905000Y-57785000D03*
%TD*%
D13*
%TO.C,B_A_RV3*%
X126605000Y-96005000D03*
X136205000Y-96005000D03*
D14*
X133905000Y-103505000D03*
X131405000Y-103505000D03*
D15*
X128905000Y-103505000D03*
%TD*%
D13*
%TO.C,G_A_RV3*%
X126605000Y-73145000D03*
X136205000Y-73145000D03*
D14*
X133905000Y-80645000D03*
X131405000Y-80645000D03*
D15*
X128905000Y-80645000D03*
%TD*%
D13*
%TO.C,R_A_RV2*%
X77115000Y-50285000D03*
X86715000Y-50285000D03*
D14*
X84415000Y-57785000D03*
X81915000Y-57785000D03*
D15*
X79415000Y-57785000D03*
%TD*%
D13*
%TO.C,B_A_RV2*%
X77115000Y-96005000D03*
X86715000Y-96005000D03*
D14*
X84415000Y-103505000D03*
X81915000Y-103505000D03*
D15*
X79415000Y-103505000D03*
%TD*%
D13*
%TO.C,G_A_RV2*%
X77115000Y-73145000D03*
X86715000Y-73145000D03*
D14*
X84415000Y-80645000D03*
X81915000Y-80645000D03*
D15*
X79415000Y-80645000D03*
%TD*%
D13*
%TO.C,R_A_RV1*%
X3415000Y-50285000D03*
X13015000Y-50285000D03*
D14*
X10715000Y-57785000D03*
X8215000Y-57785000D03*
D15*
X5715000Y-57785000D03*
%TD*%
D13*
%TO.C,G_A_RV1*%
X3415000Y-73145000D03*
X13015000Y-73145000D03*
D14*
X10715000Y-80645000D03*
X8215000Y-80645000D03*
D15*
X5715000Y-80645000D03*
%TD*%
%TO.C,R36*%
G36*
G01*
X123180001Y-35930000D02*
X121929999Y-35930000D01*
G75*
G02*
X121680000Y-35680001I0J249999D01*
G01*
X121680000Y-35054999D01*
G75*
G02*
X121929999Y-34805000I249999J0D01*
G01*
X123180001Y-34805000D01*
G75*
G02*
X123430000Y-35054999I0J-249999D01*
G01*
X123430000Y-35680001D01*
G75*
G02*
X123180001Y-35930000I-249999J0D01*
G01*
G37*
G36*
G01*
X123180001Y-38855000D02*
X121929999Y-38855000D01*
G75*
G02*
X121680000Y-38605001I0J249999D01*
G01*
X121680000Y-37979999D01*
G75*
G02*
X121929999Y-37730000I249999J0D01*
G01*
X123180001Y-37730000D01*
G75*
G02*
X123430000Y-37979999I0J-249999D01*
G01*
X123430000Y-38605001D01*
G75*
G02*
X123180001Y-38855000I-249999J0D01*
G01*
G37*
%TD*%
%TO.C,R35*%
G36*
G01*
X122564999Y-103135000D02*
X123815001Y-103135000D01*
G75*
G02*
X124065000Y-103384999I0J-249999D01*
G01*
X124065000Y-104010001D01*
G75*
G02*
X123815001Y-104260000I-249999J0D01*
G01*
X122564999Y-104260000D01*
G75*
G02*
X122315000Y-104010001I0J249999D01*
G01*
X122315000Y-103384999D01*
G75*
G02*
X122564999Y-103135000I249999J0D01*
G01*
G37*
G36*
G01*
X122564999Y-100210000D02*
X123815001Y-100210000D01*
G75*
G02*
X124065000Y-100459999I0J-249999D01*
G01*
X124065000Y-101085001D01*
G75*
G02*
X123815001Y-101335000I-249999J0D01*
G01*
X122564999Y-101335000D01*
G75*
G02*
X122315000Y-101085001I0J249999D01*
G01*
X122315000Y-100459999D01*
G75*
G02*
X122564999Y-100210000I249999J0D01*
G01*
G37*
%TD*%
%TO.C,R34*%
G36*
G01*
X119010000Y-55235001D02*
X119010000Y-53984999D01*
G75*
G02*
X119259999Y-53735000I249999J0D01*
G01*
X119885001Y-53735000D01*
G75*
G02*
X120135000Y-53984999I0J-249999D01*
G01*
X120135000Y-55235001D01*
G75*
G02*
X119885001Y-55485000I-249999J0D01*
G01*
X119259999Y-55485000D01*
G75*
G02*
X119010000Y-55235001I0J249999D01*
G01*
G37*
G36*
G01*
X116085000Y-55235001D02*
X116085000Y-53984999D01*
G75*
G02*
X116334999Y-53735000I249999J0D01*
G01*
X116960001Y-53735000D01*
G75*
G02*
X117210000Y-53984999I0J-249999D01*
G01*
X117210000Y-55235001D01*
G75*
G02*
X116960001Y-55485000I-249999J0D01*
G01*
X116334999Y-55485000D01*
G75*
G02*
X116085000Y-55235001I0J249999D01*
G01*
G37*
%TD*%
%TO.C,R33*%
G36*
G01*
X120385000Y-18424999D02*
X120385000Y-19675001D01*
G75*
G02*
X120135001Y-19925000I-249999J0D01*
G01*
X119509999Y-19925000D01*
G75*
G02*
X119260000Y-19675001I0J249999D01*
G01*
X119260000Y-18424999D01*
G75*
G02*
X119509999Y-18175000I249999J0D01*
G01*
X120135001Y-18175000D01*
G75*
G02*
X120385000Y-18424999I0J-249999D01*
G01*
G37*
G36*
G01*
X123310000Y-18424999D02*
X123310000Y-19675001D01*
G75*
G02*
X123060001Y-19925000I-249999J0D01*
G01*
X122434999Y-19925000D01*
G75*
G02*
X122185000Y-19675001I0J249999D01*
G01*
X122185000Y-18424999D01*
G75*
G02*
X122434999Y-18175000I249999J0D01*
G01*
X123060001Y-18175000D01*
G75*
G02*
X123310000Y-18424999I0J-249999D01*
G01*
G37*
%TD*%
%TO.C,R32*%
G36*
G01*
X119645000Y-31740001D02*
X119645000Y-30489999D01*
G75*
G02*
X119894999Y-30240000I249999J0D01*
G01*
X120520001Y-30240000D01*
G75*
G02*
X120770000Y-30489999I0J-249999D01*
G01*
X120770000Y-31740001D01*
G75*
G02*
X120520001Y-31990000I-249999J0D01*
G01*
X119894999Y-31990000D01*
G75*
G02*
X119645000Y-31740001I0J249999D01*
G01*
G37*
G36*
G01*
X116720000Y-31740001D02*
X116720000Y-30489999D01*
G75*
G02*
X116969999Y-30240000I249999J0D01*
G01*
X117595001Y-30240000D01*
G75*
G02*
X117845000Y-30489999I0J-249999D01*
G01*
X117845000Y-31740001D01*
G75*
G02*
X117595001Y-31990000I-249999J0D01*
G01*
X116969999Y-31990000D01*
G75*
G02*
X116720000Y-31740001I0J249999D01*
G01*
G37*
%TD*%
%TO.C,R31*%
G36*
G01*
X118375000Y-22850001D02*
X118375000Y-21599999D01*
G75*
G02*
X118624999Y-21350000I249999J0D01*
G01*
X119250001Y-21350000D01*
G75*
G02*
X119500000Y-21599999I0J-249999D01*
G01*
X119500000Y-22850001D01*
G75*
G02*
X119250001Y-23100000I-249999J0D01*
G01*
X118624999Y-23100000D01*
G75*
G02*
X118375000Y-22850001I0J249999D01*
G01*
G37*
G36*
G01*
X115450000Y-22850001D02*
X115450000Y-21599999D01*
G75*
G02*
X115699999Y-21350000I249999J0D01*
G01*
X116325001Y-21350000D01*
G75*
G02*
X116575000Y-21599999I0J-249999D01*
G01*
X116575000Y-22850001D01*
G75*
G02*
X116325001Y-23100000I-249999J0D01*
G01*
X115699999Y-23100000D01*
G75*
G02*
X115450000Y-22850001I0J249999D01*
G01*
G37*
%TD*%
%TO.C,R30*%
G36*
G01*
X122290000Y-21599999D02*
X122290000Y-22850001D01*
G75*
G02*
X122040001Y-23100000I-249999J0D01*
G01*
X121414999Y-23100000D01*
G75*
G02*
X121165000Y-22850001I0J249999D01*
G01*
X121165000Y-21599999D01*
G75*
G02*
X121414999Y-21350000I249999J0D01*
G01*
X122040001Y-21350000D01*
G75*
G02*
X122290000Y-21599999I0J-249999D01*
G01*
G37*
G36*
G01*
X125215000Y-21599999D02*
X125215000Y-22850001D01*
G75*
G02*
X124965001Y-23100000I-249999J0D01*
G01*
X124339999Y-23100000D01*
G75*
G02*
X124090000Y-22850001I0J249999D01*
G01*
X124090000Y-21599999D01*
G75*
G02*
X124339999Y-21350000I249999J0D01*
G01*
X124965001Y-21350000D01*
G75*
G02*
X125215000Y-21599999I0J-249999D01*
G01*
G37*
%TD*%
%TO.C,R29*%
G36*
G01*
X116849999Y-40270000D02*
X118100001Y-40270000D01*
G75*
G02*
X118350000Y-40519999I0J-249999D01*
G01*
X118350000Y-41145001D01*
G75*
G02*
X118100001Y-41395000I-249999J0D01*
G01*
X116849999Y-41395000D01*
G75*
G02*
X116600000Y-41145001I0J249999D01*
G01*
X116600000Y-40519999D01*
G75*
G02*
X116849999Y-40270000I249999J0D01*
G01*
G37*
G36*
G01*
X116849999Y-37345000D02*
X118100001Y-37345000D01*
G75*
G02*
X118350000Y-37594999I0J-249999D01*
G01*
X118350000Y-38220001D01*
G75*
G02*
X118100001Y-38470000I-249999J0D01*
G01*
X116849999Y-38470000D01*
G75*
G02*
X116600000Y-38220001I0J249999D01*
G01*
X116600000Y-37594999D01*
G75*
G02*
X116849999Y-37345000I249999J0D01*
G01*
G37*
%TD*%
%TO.C,R28*%
G36*
G01*
X129170000Y-61585001D02*
X129170000Y-60334999D01*
G75*
G02*
X129419999Y-60085000I249999J0D01*
G01*
X130045001Y-60085000D01*
G75*
G02*
X130295000Y-60334999I0J-249999D01*
G01*
X130295000Y-61585001D01*
G75*
G02*
X130045001Y-61835000I-249999J0D01*
G01*
X129419999Y-61835000D01*
G75*
G02*
X129170000Y-61585001I0J249999D01*
G01*
G37*
G36*
G01*
X126245000Y-61585001D02*
X126245000Y-60334999D01*
G75*
G02*
X126494999Y-60085000I249999J0D01*
G01*
X127120001Y-60085000D01*
G75*
G02*
X127370000Y-60334999I0J-249999D01*
G01*
X127370000Y-61585001D01*
G75*
G02*
X127120001Y-61835000I-249999J0D01*
G01*
X126494999Y-61835000D01*
G75*
G02*
X126245000Y-61585001I0J249999D01*
G01*
G37*
%TD*%
%TO.C,R27*%
G36*
G01*
X107685000Y-88274999D02*
X107685000Y-89525001D01*
G75*
G02*
X107435001Y-89775000I-249999J0D01*
G01*
X106809999Y-89775000D01*
G75*
G02*
X106560000Y-89525001I0J249999D01*
G01*
X106560000Y-88274999D01*
G75*
G02*
X106809999Y-88025000I249999J0D01*
G01*
X107435001Y-88025000D01*
G75*
G02*
X107685000Y-88274999I0J-249999D01*
G01*
G37*
G36*
G01*
X110610000Y-88274999D02*
X110610000Y-89525001D01*
G75*
G02*
X110360001Y-89775000I-249999J0D01*
G01*
X109734999Y-89775000D01*
G75*
G02*
X109485000Y-89525001I0J249999D01*
G01*
X109485000Y-88274999D01*
G75*
G02*
X109734999Y-88025000I249999J0D01*
G01*
X110360001Y-88025000D01*
G75*
G02*
X110610000Y-88274999I0J-249999D01*
G01*
G37*
%TD*%
%TO.C,R26*%
G36*
G01*
X106752000Y-85080001D02*
X106752000Y-83829999D01*
G75*
G02*
X107001999Y-83580000I249999J0D01*
G01*
X107627001Y-83580000D01*
G75*
G02*
X107877000Y-83829999I0J-249999D01*
G01*
X107877000Y-85080001D01*
G75*
G02*
X107627001Y-85330000I-249999J0D01*
G01*
X107001999Y-85330000D01*
G75*
G02*
X106752000Y-85080001I0J249999D01*
G01*
G37*
G36*
G01*
X103827000Y-85080001D02*
X103827000Y-83829999D01*
G75*
G02*
X104076999Y-83580000I249999J0D01*
G01*
X104702001Y-83580000D01*
G75*
G02*
X104952000Y-83829999I0J-249999D01*
G01*
X104952000Y-85080001D01*
G75*
G02*
X104702001Y-85330000I-249999J0D01*
G01*
X104076999Y-85330000D01*
G75*
G02*
X103827000Y-85080001I0J249999D01*
G01*
G37*
%TD*%
%TO.C,R25*%
G36*
G01*
X106752000Y-62220001D02*
X106752000Y-60969999D01*
G75*
G02*
X107001999Y-60720000I249999J0D01*
G01*
X107627001Y-60720000D01*
G75*
G02*
X107877000Y-60969999I0J-249999D01*
G01*
X107877000Y-62220001D01*
G75*
G02*
X107627001Y-62470000I-249999J0D01*
G01*
X107001999Y-62470000D01*
G75*
G02*
X106752000Y-62220001I0J249999D01*
G01*
G37*
G36*
G01*
X103827000Y-62220001D02*
X103827000Y-60969999D01*
G75*
G02*
X104076999Y-60720000I249999J0D01*
G01*
X104702001Y-60720000D01*
G75*
G02*
X104952000Y-60969999I0J-249999D01*
G01*
X104952000Y-62220001D01*
G75*
G02*
X104702001Y-62470000I-249999J0D01*
G01*
X104076999Y-62470000D01*
G75*
G02*
X103827000Y-62220001I0J249999D01*
G01*
G37*
%TD*%
%TO.C,R24*%
G36*
G01*
X85990000Y-2530001D02*
X85990000Y-1279999D01*
G75*
G02*
X86239999Y-1030000I249999J0D01*
G01*
X86865001Y-1030000D01*
G75*
G02*
X87115000Y-1279999I0J-249999D01*
G01*
X87115000Y-2530001D01*
G75*
G02*
X86865001Y-2780000I-249999J0D01*
G01*
X86239999Y-2780000D01*
G75*
G02*
X85990000Y-2530001I0J249999D01*
G01*
G37*
G36*
G01*
X83065000Y-2530001D02*
X83065000Y-1279999D01*
G75*
G02*
X83314999Y-1030000I249999J0D01*
G01*
X83940001Y-1030000D01*
G75*
G02*
X84190000Y-1279999I0J-249999D01*
G01*
X84190000Y-2530001D01*
G75*
G02*
X83940001Y-2780000I-249999J0D01*
G01*
X83314999Y-2780000D01*
G75*
G02*
X83065000Y-2530001I0J249999D01*
G01*
G37*
%TD*%
%TO.C,R23*%
G36*
G01*
X64760001Y-12435000D02*
X63509999Y-12435000D01*
G75*
G02*
X63260000Y-12185001I0J249999D01*
G01*
X63260000Y-11559999D01*
G75*
G02*
X63509999Y-11310000I249999J0D01*
G01*
X64760001Y-11310000D01*
G75*
G02*
X65010000Y-11559999I0J-249999D01*
G01*
X65010000Y-12185001D01*
G75*
G02*
X64760001Y-12435000I-249999J0D01*
G01*
G37*
G36*
G01*
X64760001Y-15360000D02*
X63509999Y-15360000D01*
G75*
G02*
X63260000Y-15110001I0J249999D01*
G01*
X63260000Y-14484999D01*
G75*
G02*
X63509999Y-14235000I249999J0D01*
G01*
X64760001Y-14235000D01*
G75*
G02*
X65010000Y-14484999I0J-249999D01*
G01*
X65010000Y-15110001D01*
G75*
G02*
X64760001Y-15360000I-249999J0D01*
G01*
G37*
%TD*%
%TO.C,R22*%
G36*
G01*
X64779999Y-20585000D02*
X66030001Y-20585000D01*
G75*
G02*
X66280000Y-20834999I0J-249999D01*
G01*
X66280000Y-21460001D01*
G75*
G02*
X66030001Y-21710000I-249999J0D01*
G01*
X64779999Y-21710000D01*
G75*
G02*
X64530000Y-21460001I0J249999D01*
G01*
X64530000Y-20834999D01*
G75*
G02*
X64779999Y-20585000I249999J0D01*
G01*
G37*
G36*
G01*
X64779999Y-17660000D02*
X66030001Y-17660000D01*
G75*
G02*
X66280000Y-17909999I0J-249999D01*
G01*
X66280000Y-18535001D01*
G75*
G02*
X66030001Y-18785000I-249999J0D01*
G01*
X64779999Y-18785000D01*
G75*
G02*
X64530000Y-18535001I0J249999D01*
G01*
X64530000Y-17909999D01*
G75*
G02*
X64779999Y-17660000I249999J0D01*
G01*
G37*
%TD*%
%TO.C,R21*%
G36*
G01*
X76190001Y-40817500D02*
X74939999Y-40817500D01*
G75*
G02*
X74690000Y-40567501I0J249999D01*
G01*
X74690000Y-39942499D01*
G75*
G02*
X74939999Y-39692500I249999J0D01*
G01*
X76190001Y-39692500D01*
G75*
G02*
X76440000Y-39942499I0J-249999D01*
G01*
X76440000Y-40567501D01*
G75*
G02*
X76190001Y-40817500I-249999J0D01*
G01*
G37*
G36*
G01*
X76190001Y-43742500D02*
X74939999Y-43742500D01*
G75*
G02*
X74690000Y-43492501I0J249999D01*
G01*
X74690000Y-42867499D01*
G75*
G02*
X74939999Y-42617500I249999J0D01*
G01*
X76190001Y-42617500D01*
G75*
G02*
X76440000Y-42867499I0J-249999D01*
G01*
X76440000Y-43492501D01*
G75*
G02*
X76190001Y-43742500I-249999J0D01*
G01*
G37*
%TD*%
%TO.C,R20*%
G36*
G01*
X64760001Y-40817500D02*
X63509999Y-40817500D01*
G75*
G02*
X63260000Y-40567501I0J249999D01*
G01*
X63260000Y-39942499D01*
G75*
G02*
X63509999Y-39692500I249999J0D01*
G01*
X64760001Y-39692500D01*
G75*
G02*
X65010000Y-39942499I0J-249999D01*
G01*
X65010000Y-40567501D01*
G75*
G02*
X64760001Y-40817500I-249999J0D01*
G01*
G37*
G36*
G01*
X64760001Y-43742500D02*
X63509999Y-43742500D01*
G75*
G02*
X63260000Y-43492501I0J249999D01*
G01*
X63260000Y-42867499D01*
G75*
G02*
X63509999Y-42617500I249999J0D01*
G01*
X64760001Y-42617500D01*
G75*
G02*
X65010000Y-42867499I0J-249999D01*
G01*
X65010000Y-43492501D01*
G75*
G02*
X64760001Y-43742500I-249999J0D01*
G01*
G37*
%TD*%
%TO.C,R19*%
G36*
G01*
X71385000Y-19040001D02*
X71385000Y-17789999D01*
G75*
G02*
X71634999Y-17540000I249999J0D01*
G01*
X72260001Y-17540000D01*
G75*
G02*
X72510000Y-17789999I0J-249999D01*
G01*
X72510000Y-19040001D01*
G75*
G02*
X72260001Y-19290000I-249999J0D01*
G01*
X71634999Y-19290000D01*
G75*
G02*
X71385000Y-19040001I0J249999D01*
G01*
G37*
G36*
G01*
X68460000Y-19040001D02*
X68460000Y-17789999D01*
G75*
G02*
X68709999Y-17540000I249999J0D01*
G01*
X69335001Y-17540000D01*
G75*
G02*
X69585000Y-17789999I0J-249999D01*
G01*
X69585000Y-19040001D01*
G75*
G02*
X69335001Y-19290000I-249999J0D01*
G01*
X68709999Y-19290000D01*
G75*
G02*
X68460000Y-19040001I0J249999D01*
G01*
G37*
%TD*%
%TO.C,R18*%
G36*
G01*
X61225000Y-88890001D02*
X61225000Y-87639999D01*
G75*
G02*
X61474999Y-87390000I249999J0D01*
G01*
X62100001Y-87390000D01*
G75*
G02*
X62350000Y-87639999I0J-249999D01*
G01*
X62350000Y-88890001D01*
G75*
G02*
X62100001Y-89140000I-249999J0D01*
G01*
X61474999Y-89140000D01*
G75*
G02*
X61225000Y-88890001I0J249999D01*
G01*
G37*
G36*
G01*
X58300000Y-88890001D02*
X58300000Y-87639999D01*
G75*
G02*
X58549999Y-87390000I249999J0D01*
G01*
X59175001Y-87390000D01*
G75*
G02*
X59425000Y-87639999I0J-249999D01*
G01*
X59425000Y-88890001D01*
G75*
G02*
X59175001Y-89140000I-249999J0D01*
G01*
X58549999Y-89140000D01*
G75*
G02*
X58300000Y-88890001I0J249999D01*
G01*
G37*
%TD*%
%TO.C,R17*%
G36*
G01*
X68210000Y-58410001D02*
X68210000Y-57159999D01*
G75*
G02*
X68459999Y-56910000I249999J0D01*
G01*
X69085001Y-56910000D01*
G75*
G02*
X69335000Y-57159999I0J-249999D01*
G01*
X69335000Y-58410001D01*
G75*
G02*
X69085001Y-58660000I-249999J0D01*
G01*
X68459999Y-58660000D01*
G75*
G02*
X68210000Y-58410001I0J249999D01*
G01*
G37*
G36*
G01*
X65285000Y-58410001D02*
X65285000Y-57159999D01*
G75*
G02*
X65534999Y-56910000I249999J0D01*
G01*
X66160001Y-56910000D01*
G75*
G02*
X66410000Y-57159999I0J-249999D01*
G01*
X66410000Y-58410001D01*
G75*
G02*
X66160001Y-58660000I-249999J0D01*
G01*
X65534999Y-58660000D01*
G75*
G02*
X65285000Y-58410001I0J249999D01*
G01*
G37*
%TD*%
%TO.C,R16*%
G36*
G01*
X68315000Y-20964999D02*
X68315000Y-22215001D01*
G75*
G02*
X68065001Y-22465000I-249999J0D01*
G01*
X67439999Y-22465000D01*
G75*
G02*
X67190000Y-22215001I0J249999D01*
G01*
X67190000Y-20964999D01*
G75*
G02*
X67439999Y-20715000I249999J0D01*
G01*
X68065001Y-20715000D01*
G75*
G02*
X68315000Y-20964999I0J-249999D01*
G01*
G37*
G36*
G01*
X71240000Y-20964999D02*
X71240000Y-22215001D01*
G75*
G02*
X70990001Y-22465000I-249999J0D01*
G01*
X70364999Y-22465000D01*
G75*
G02*
X70115000Y-22215001I0J249999D01*
G01*
X70115000Y-20964999D01*
G75*
G02*
X70364999Y-20715000I249999J0D01*
G01*
X70990001Y-20715000D01*
G75*
G02*
X71240000Y-20964999I0J-249999D01*
G01*
G37*
%TD*%
%TO.C,R15*%
G36*
G01*
X54875000Y-88890001D02*
X54875000Y-87639999D01*
G75*
G02*
X55124999Y-87390000I249999J0D01*
G01*
X55750001Y-87390000D01*
G75*
G02*
X56000000Y-87639999I0J-249999D01*
G01*
X56000000Y-88890001D01*
G75*
G02*
X55750001Y-89140000I-249999J0D01*
G01*
X55124999Y-89140000D01*
G75*
G02*
X54875000Y-88890001I0J249999D01*
G01*
G37*
G36*
G01*
X51950000Y-88890001D02*
X51950000Y-87639999D01*
G75*
G02*
X52199999Y-87390000I249999J0D01*
G01*
X52825001Y-87390000D01*
G75*
G02*
X53075000Y-87639999I0J-249999D01*
G01*
X53075000Y-88890001D01*
G75*
G02*
X52825001Y-89140000I-249999J0D01*
G01*
X52199999Y-89140000D01*
G75*
G02*
X51950000Y-88890001I0J249999D01*
G01*
G37*
%TD*%
%TO.C,R14*%
G36*
G01*
X67575000Y-61585001D02*
X67575000Y-60334999D01*
G75*
G02*
X67824999Y-60085000I249999J0D01*
G01*
X68450001Y-60085000D01*
G75*
G02*
X68700000Y-60334999I0J-249999D01*
G01*
X68700000Y-61585001D01*
G75*
G02*
X68450001Y-61835000I-249999J0D01*
G01*
X67824999Y-61835000D01*
G75*
G02*
X67575000Y-61585001I0J249999D01*
G01*
G37*
G36*
G01*
X64650000Y-61585001D02*
X64650000Y-60334999D01*
G75*
G02*
X64899999Y-60085000I249999J0D01*
G01*
X65525001Y-60085000D01*
G75*
G02*
X65775000Y-60334999I0J-249999D01*
G01*
X65775000Y-61585001D01*
G75*
G02*
X65525001Y-61835000I-249999J0D01*
G01*
X64899999Y-61835000D01*
G75*
G02*
X64650000Y-61585001I0J249999D01*
G01*
G37*
%TD*%
%TO.C,R13*%
G36*
G01*
X69480000Y-55235001D02*
X69480000Y-53984999D01*
G75*
G02*
X69729999Y-53735000I249999J0D01*
G01*
X70355001Y-53735000D01*
G75*
G02*
X70605000Y-53984999I0J-249999D01*
G01*
X70605000Y-55235001D01*
G75*
G02*
X70355001Y-55485000I-249999J0D01*
G01*
X69729999Y-55485000D01*
G75*
G02*
X69480000Y-55235001I0J249999D01*
G01*
G37*
G36*
G01*
X66555000Y-55235001D02*
X66555000Y-53984999D01*
G75*
G02*
X66804999Y-53735000I249999J0D01*
G01*
X67430001Y-53735000D01*
G75*
G02*
X67680000Y-53984999I0J-249999D01*
G01*
X67680000Y-55235001D01*
G75*
G02*
X67430001Y-55485000I-249999J0D01*
G01*
X66804999Y-55485000D01*
G75*
G02*
X66555000Y-55235001I0J249999D01*
G01*
G37*
%TD*%
%TO.C,R12*%
G36*
G01*
X17135001Y-27040000D02*
X15884999Y-27040000D01*
G75*
G02*
X15635000Y-26790001I0J249999D01*
G01*
X15635000Y-26164999D01*
G75*
G02*
X15884999Y-25915000I249999J0D01*
G01*
X17135001Y-25915000D01*
G75*
G02*
X17385000Y-26164999I0J-249999D01*
G01*
X17385000Y-26790001D01*
G75*
G02*
X17135001Y-27040000I-249999J0D01*
G01*
G37*
G36*
G01*
X17135001Y-29965000D02*
X15884999Y-29965000D01*
G75*
G02*
X15635000Y-29715001I0J249999D01*
G01*
X15635000Y-29089999D01*
G75*
G02*
X15884999Y-28840000I249999J0D01*
G01*
X17135001Y-28840000D01*
G75*
G02*
X17385000Y-29089999I0J-249999D01*
G01*
X17385000Y-29715001D01*
G75*
G02*
X17135001Y-29965000I-249999J0D01*
G01*
G37*
%TD*%
%TO.C,R11*%
G36*
G01*
X15865001Y-37835000D02*
X14614999Y-37835000D01*
G75*
G02*
X14365000Y-37585001I0J249999D01*
G01*
X14365000Y-36959999D01*
G75*
G02*
X14614999Y-36710000I249999J0D01*
G01*
X15865001Y-36710000D01*
G75*
G02*
X16115000Y-36959999I0J-249999D01*
G01*
X16115000Y-37585001D01*
G75*
G02*
X15865001Y-37835000I-249999J0D01*
G01*
G37*
G36*
G01*
X15865001Y-40760000D02*
X14614999Y-40760000D01*
G75*
G02*
X14365000Y-40510001I0J249999D01*
G01*
X14365000Y-39884999D01*
G75*
G02*
X14614999Y-39635000I249999J0D01*
G01*
X15865001Y-39635000D01*
G75*
G02*
X16115000Y-39884999I0J-249999D01*
G01*
X16115000Y-40510001D01*
G75*
G02*
X15865001Y-40760000I-249999J0D01*
G01*
G37*
%TD*%
%TO.C,R10*%
G36*
G01*
X4180000Y-40014999D02*
X4180000Y-41265001D01*
G75*
G02*
X3930001Y-41515000I-249999J0D01*
G01*
X3304999Y-41515000D01*
G75*
G02*
X3055000Y-41265001I0J249999D01*
G01*
X3055000Y-40014999D01*
G75*
G02*
X3304999Y-39765000I249999J0D01*
G01*
X3930001Y-39765000D01*
G75*
G02*
X4180000Y-40014999I0J-249999D01*
G01*
G37*
G36*
G01*
X7105000Y-40014999D02*
X7105000Y-41265001D01*
G75*
G02*
X6855001Y-41515000I-249999J0D01*
G01*
X6229999Y-41515000D01*
G75*
G02*
X5980000Y-41265001I0J249999D01*
G01*
X5980000Y-40014999D01*
G75*
G02*
X6229999Y-39765000I249999J0D01*
G01*
X6855001Y-39765000D01*
G75*
G02*
X7105000Y-40014999I0J-249999D01*
G01*
G37*
%TD*%
%TO.C,R9*%
G36*
G01*
X33390000Y-1279999D02*
X33390000Y-2530001D01*
G75*
G02*
X33140001Y-2780000I-249999J0D01*
G01*
X32514999Y-2780000D01*
G75*
G02*
X32265000Y-2530001I0J249999D01*
G01*
X32265000Y-1279999D01*
G75*
G02*
X32514999Y-1030000I249999J0D01*
G01*
X33140001Y-1030000D01*
G75*
G02*
X33390000Y-1279999I0J-249999D01*
G01*
G37*
G36*
G01*
X36315000Y-1279999D02*
X36315000Y-2530001D01*
G75*
G02*
X36065001Y-2780000I-249999J0D01*
G01*
X35439999Y-2780000D01*
G75*
G02*
X35190000Y-2530001I0J249999D01*
G01*
X35190000Y-1279999D01*
G75*
G02*
X35439999Y-1030000I249999J0D01*
G01*
X36065001Y-1030000D01*
G75*
G02*
X36315000Y-1279999I0J-249999D01*
G01*
G37*
%TD*%
%TO.C,R8*%
G36*
G01*
X22850001Y-18150000D02*
X21599999Y-18150000D01*
G75*
G02*
X21350000Y-17900001I0J249999D01*
G01*
X21350000Y-17274999D01*
G75*
G02*
X21599999Y-17025000I249999J0D01*
G01*
X22850001Y-17025000D01*
G75*
G02*
X23100000Y-17274999I0J-249999D01*
G01*
X23100000Y-17900001D01*
G75*
G02*
X22850001Y-18150000I-249999J0D01*
G01*
G37*
G36*
G01*
X22850001Y-21075000D02*
X21599999Y-21075000D01*
G75*
G02*
X21350000Y-20825001I0J249999D01*
G01*
X21350000Y-20199999D01*
G75*
G02*
X21599999Y-19950000I249999J0D01*
G01*
X22850001Y-19950000D01*
G75*
G02*
X23100000Y-20199999I0J-249999D01*
G01*
X23100000Y-20825001D01*
G75*
G02*
X22850001Y-21075000I-249999J0D01*
G01*
G37*
%TD*%
%TO.C,R7*%
G36*
G01*
X22490000Y-30470001D02*
X22490000Y-29219999D01*
G75*
G02*
X22739999Y-28970000I249999J0D01*
G01*
X23365001Y-28970000D01*
G75*
G02*
X23615000Y-29219999I0J-249999D01*
G01*
X23615000Y-30470001D01*
G75*
G02*
X23365001Y-30720000I-249999J0D01*
G01*
X22739999Y-30720000D01*
G75*
G02*
X22490000Y-30470001I0J249999D01*
G01*
G37*
G36*
G01*
X19565000Y-30470001D02*
X19565000Y-29219999D01*
G75*
G02*
X19814999Y-28970000I249999J0D01*
G01*
X20440001Y-28970000D01*
G75*
G02*
X20690000Y-29219999I0J-249999D01*
G01*
X20690000Y-30470001D01*
G75*
G02*
X20440001Y-30720000I-249999J0D01*
G01*
X19814999Y-30720000D01*
G75*
G02*
X19565000Y-30470001I0J249999D01*
G01*
G37*
%TD*%
%TO.C,R6*%
G36*
G01*
X43445000Y-13325001D02*
X43445000Y-12074999D01*
G75*
G02*
X43694999Y-11825000I249999J0D01*
G01*
X44320001Y-11825000D01*
G75*
G02*
X44570000Y-12074999I0J-249999D01*
G01*
X44570000Y-13325001D01*
G75*
G02*
X44320001Y-13575000I-249999J0D01*
G01*
X43694999Y-13575000D01*
G75*
G02*
X43445000Y-13325001I0J249999D01*
G01*
G37*
G36*
G01*
X40520000Y-13325001D02*
X40520000Y-12074999D01*
G75*
G02*
X40769999Y-11825000I249999J0D01*
G01*
X41395001Y-11825000D01*
G75*
G02*
X41645000Y-12074999I0J-249999D01*
G01*
X41645000Y-13325001D01*
G75*
G02*
X41395001Y-13575000I-249999J0D01*
G01*
X40769999Y-13575000D01*
G75*
G02*
X40520000Y-13325001I0J249999D01*
G01*
G37*
%TD*%
%TO.C,R5*%
G36*
G01*
X38109999Y-30110000D02*
X39360001Y-30110000D01*
G75*
G02*
X39610000Y-30359999I0J-249999D01*
G01*
X39610000Y-30985001D01*
G75*
G02*
X39360001Y-31235000I-249999J0D01*
G01*
X38109999Y-31235000D01*
G75*
G02*
X37860000Y-30985001I0J249999D01*
G01*
X37860000Y-30359999D01*
G75*
G02*
X38109999Y-30110000I249999J0D01*
G01*
G37*
G36*
G01*
X38109999Y-27185000D02*
X39360001Y-27185000D01*
G75*
G02*
X39610000Y-27434999I0J-249999D01*
G01*
X39610000Y-28060001D01*
G75*
G02*
X39360001Y-28310000I-249999J0D01*
G01*
X38109999Y-28310000D01*
G75*
G02*
X37860000Y-28060001I0J249999D01*
G01*
X37860000Y-27434999D01*
G75*
G02*
X38109999Y-27185000I249999J0D01*
G01*
G37*
%TD*%
%TO.C,R4*%
G36*
G01*
X15610000Y-31759999D02*
X15610000Y-33010001D01*
G75*
G02*
X15360001Y-33260000I-249999J0D01*
G01*
X14734999Y-33260000D01*
G75*
G02*
X14485000Y-33010001I0J249999D01*
G01*
X14485000Y-31759999D01*
G75*
G02*
X14734999Y-31510000I249999J0D01*
G01*
X15360001Y-31510000D01*
G75*
G02*
X15610000Y-31759999I0J-249999D01*
G01*
G37*
G36*
G01*
X18535000Y-31759999D02*
X18535000Y-33010001D01*
G75*
G02*
X18285001Y-33260000I-249999J0D01*
G01*
X17659999Y-33260000D01*
G75*
G02*
X17410000Y-33010001I0J249999D01*
G01*
X17410000Y-31759999D01*
G75*
G02*
X17659999Y-31510000I249999J0D01*
G01*
X18285001Y-31510000D01*
G75*
G02*
X18535000Y-31759999I0J-249999D01*
G01*
G37*
%TD*%
%TO.C,R3*%
G36*
G01*
X37474999Y-14870000D02*
X38725001Y-14870000D01*
G75*
G02*
X38975000Y-15119999I0J-249999D01*
G01*
X38975000Y-15745001D01*
G75*
G02*
X38725001Y-15995000I-249999J0D01*
G01*
X37474999Y-15995000D01*
G75*
G02*
X37225000Y-15745001I0J249999D01*
G01*
X37225000Y-15119999D01*
G75*
G02*
X37474999Y-14870000I249999J0D01*
G01*
G37*
G36*
G01*
X37474999Y-11945000D02*
X38725001Y-11945000D01*
G75*
G02*
X38975000Y-12194999I0J-249999D01*
G01*
X38975000Y-12820001D01*
G75*
G02*
X38725001Y-13070000I-249999J0D01*
G01*
X37474999Y-13070000D01*
G75*
G02*
X37225000Y-12820001I0J249999D01*
G01*
X37225000Y-12194999D01*
G75*
G02*
X37474999Y-11945000I249999J0D01*
G01*
G37*
%TD*%
%TO.C,R2*%
G36*
G01*
X24395000Y-26660001D02*
X24395000Y-25409999D01*
G75*
G02*
X24644999Y-25160000I249999J0D01*
G01*
X25270001Y-25160000D01*
G75*
G02*
X25520000Y-25409999I0J-249999D01*
G01*
X25520000Y-26660001D01*
G75*
G02*
X25270001Y-26910000I-249999J0D01*
G01*
X24644999Y-26910000D01*
G75*
G02*
X24395000Y-26660001I0J249999D01*
G01*
G37*
G36*
G01*
X21470000Y-26660001D02*
X21470000Y-25409999D01*
G75*
G02*
X21719999Y-25160000I249999J0D01*
G01*
X22345001Y-25160000D01*
G75*
G02*
X22595000Y-25409999I0J-249999D01*
G01*
X22595000Y-26660001D01*
G75*
G02*
X22345001Y-26910000I-249999J0D01*
G01*
X21719999Y-26910000D01*
G75*
G02*
X21470000Y-26660001I0J249999D01*
G01*
G37*
%TD*%
%TO.C,R1*%
G36*
G01*
X18680000Y-19040001D02*
X18680000Y-17789999D01*
G75*
G02*
X18929999Y-17540000I249999J0D01*
G01*
X19555001Y-17540000D01*
G75*
G02*
X19805000Y-17789999I0J-249999D01*
G01*
X19805000Y-19040001D01*
G75*
G02*
X19555001Y-19290000I-249999J0D01*
G01*
X18929999Y-19290000D01*
G75*
G02*
X18680000Y-19040001I0J249999D01*
G01*
G37*
G36*
G01*
X15755000Y-19040001D02*
X15755000Y-17789999D01*
G75*
G02*
X16004999Y-17540000I249999J0D01*
G01*
X16630001Y-17540000D01*
G75*
G02*
X16880000Y-17789999I0J-249999D01*
G01*
X16880000Y-19040001D01*
G75*
G02*
X16630001Y-19290000I-249999J0D01*
G01*
X16004999Y-19290000D01*
G75*
G02*
X15755000Y-19040001I0J249999D01*
G01*
G37*
%TD*%
D16*
%TO.C,J4*%
X115520000Y-3175000D03*
X118060000Y-3175000D03*
X120600000Y-3175000D03*
D17*
X123140000Y-3175000D03*
%TD*%
D16*
%TO.C,J3*%
X66010000Y-3175000D03*
X68550000Y-3175000D03*
X71090000Y-3175000D03*
D17*
X73630000Y-3175000D03*
%TD*%
D16*
%TO.C,J2*%
X15890000Y-3175000D03*
X18430000Y-3175000D03*
X20970000Y-3175000D03*
D17*
X23510000Y-3175000D03*
%TD*%
D16*
%TO.C,J1*%
X46355000Y-78740000D03*
X43815000Y-78740000D03*
X46355000Y-81280000D03*
X43815000Y-81280000D03*
X46355000Y-83820000D03*
X43815000Y-83820000D03*
X46355000Y-86360000D03*
X43815000Y-86360000D03*
X46355000Y-88900000D03*
X43815000Y-88900000D03*
X46355000Y-91440000D03*
X43815000Y-91440000D03*
X46355000Y-93980000D03*
X43815000Y-93980000D03*
X46355000Y-96520000D03*
D17*
X43815000Y-96520000D03*
%TD*%
M02*
