M48
; DRILL file {KiCad (5.1.8)-1} date 01/26/21 23:12:53
; FORMAT={-:-/ absolute / inch / decimal}
; #@! TF.CreationDate,2021-01-26T23:12:53-05:00
; #@! TF.GenerationSoftware,Kicad,Pcbnew,(5.1.8)-1
FMAT,2
INCH
T1C0.0157
T2C0.0315
T3C0.0394
T4C0.0433
T5C0.0709
%
G90
G05
T1
X0.4826Y-1.5822
X0.6385Y-1.8108
X0.6653Y-1.6257
X0.675Y-1.45
X0.6798Y-0.9729
X0.7345Y-0.8149
X0.8092Y-0.4057
X0.825Y-0.875
X0.8701Y-0.641
X0.9292Y-1.6433
X1.0276Y-2.4073
X1.7341Y-1.0184
X2.3068Y-3.0041
X2.5288Y-0.653
X2.575Y-1.075
X2.5878Y-1.7979
X2.5896Y-1.8639
X2.6641Y-1.632
X2.7101Y-2.1669
X2.7155Y-0.3877
X2.7206Y-1.8208
X2.7851Y-0.4243
X2.9093Y-1.785
X2.9201Y-0.5242
X2.925Y-1.1
X2.957Y-2.0959
X2.9762Y-0.957
X3.0336Y-1.4483
X3.3147Y-2.882
X4.1566Y-2.392
X4.5326Y-0.4229
X4.5331Y-0.542
X4.5483Y-1.1171
X4.601Y-0.6356
X4.6279Y-2.0375
X4.649Y-1.6566
X4.65Y-2.275
X4.6764Y-0.6007
X4.6821Y-1.8506
X4.6903Y-2.0586
X4.7183Y-0.6619
X4.725Y-3.225
X4.9445Y-2.3711
T3
X2.5988Y-0.125
X2.6988Y-0.125
X2.7988Y-0.125
X2.8988Y-0.125
X2.175Y-3.175
X2.2734Y-3.175
X2.3719Y-3.175
X0.225Y-2.275
X0.3234Y-2.275
X0.4219Y-2.275
X3.1266Y-2.275
X3.225Y-2.275
X3.3234Y-2.275
X4.125Y-4.075
X4.2234Y-4.075
X4.3219Y-4.075
X5.075Y-2.275
X5.1734Y-2.275
X5.2719Y-2.275
X4.548Y-0.125
X4.648Y-0.125
X4.748Y-0.125
X4.848Y-0.125
X4.125Y-2.275
X4.2234Y-2.275
X4.3219Y-2.275
X5.075Y-3.175
X5.1734Y-3.175
X5.2719Y-3.175
X1.725Y-3.1
X1.725Y-3.2
X1.725Y-3.3
X1.725Y-3.4
X1.725Y-3.5
X1.725Y-3.6
X1.725Y-3.7
X1.725Y-3.8
X1.825Y-3.1
X1.825Y-3.2
X1.825Y-3.3
X1.825Y-3.4
X1.825Y-3.5
X1.825Y-3.6
X1.825Y-3.7
X1.825Y-3.8
X2.175Y-4.075
X2.2734Y-4.075
X2.3719Y-4.075
X2.175Y-2.275
X2.2734Y-2.275
X2.3719Y-2.275
X1.175Y-3.175
X1.2734Y-3.175
X1.3719Y-3.175
X1.175Y-4.075
X1.2734Y-4.075
X1.3719Y-4.075
X3.1266Y-3.175
X3.225Y-3.175
X3.3234Y-3.175
X5.075Y-4.075
X5.1734Y-4.075
X5.2719Y-4.075
X0.225Y-4.075
X0.3234Y-4.075
X0.4219Y-4.075
X1.175Y-2.275
X1.2734Y-2.275
X1.3719Y-2.275
X0.225Y-3.175
X0.3234Y-3.175
X0.4219Y-3.175
X0.6256Y-0.125
X0.7256Y-0.125
X0.8256Y-0.125
X0.9256Y-0.125
X4.125Y-3.175
X4.2234Y-3.175
X4.3219Y-3.175
X3.1266Y-4.075
X3.225Y-4.075
X3.3234Y-4.075
T4
X3.4091Y-1.3486
X1.41Y-1.3486
X2.4575Y-0.3736
X2.4575Y-0.8611
X0.51Y-0.3736
X0.51Y-0.8611
X5.3575Y-0.3736
X3.4091Y-0.8611
X1.41Y-0.3736
X4.4075Y-0.8611
X2.4575Y-1.3486
X5.3575Y-0.8611
X4.4075Y-1.3486
X5.3575Y-1.3486
X0.51Y-1.3486
X1.41Y-0.8611
X4.4075Y-0.3736
X3.4091Y-0.3736
T5
X2.0844Y-3.7797
X2.4624Y-3.7797
X2.0844Y-1.9797
X2.4624Y-1.9797
X1.0844Y-2.8797
X1.4624Y-2.8797
X1.0844Y-3.7797
X1.4624Y-3.7797
X3.036Y-2.8797
X3.414Y-2.8797
X4.9844Y-3.7797
X5.3624Y-3.7797
X0.1344Y-3.7797
X0.5124Y-3.7797
X1.0844Y-1.9797
X1.4624Y-1.9797
X0.1344Y-2.8797
X0.5124Y-2.8797
X4.0344Y-2.8797
X4.4124Y-2.8797
X3.036Y-3.7797
X3.414Y-3.7797
X2.0844Y-2.8797
X2.4624Y-2.8797
X0.1344Y-1.9797
X0.5124Y-1.9797
X3.036Y-1.9797
X3.414Y-1.9797
X4.0344Y-3.7797
X4.4124Y-3.7797
X4.9844Y-1.9797
X5.3624Y-1.9797
X4.0344Y-1.9797
X4.4124Y-1.9797
X4.9844Y-2.8797
X5.3624Y-2.8797
T2
G00X2.2488Y-0.6485
M15
G01X2.2961Y-0.6485
M16
G05
G00X2.2488Y-0.9674
M15
G01X2.2961Y-0.9674
M16
G05
G00X0.3014Y-0.161
M15
G01X0.3486Y-0.161
M16
G05
G00X0.3014Y-0.4799
M15
G01X0.3486Y-0.4799
M16
G05
G00X0.3014Y-0.6485
M15
G01X0.3486Y-0.6485
M16
G05
G00X0.3014Y-0.9674
M15
G01X0.3486Y-0.9674
M16
G05
G00X5.1488Y-0.161
M15
G01X5.1961Y-0.161
M16
G05
G00X5.1488Y-0.4799
M15
G01X5.1961Y-0.4799
M16
G05
G00X3.2004Y-0.6485
M15
G01X3.2476Y-0.6485
M16
G05
G00X3.2004Y-0.9674
M15
G01X3.2476Y-0.9674
M16
G05
G00X1.2014Y-0.161
M15
G01X1.2486Y-0.161
M16
G05
G00X1.2014Y-0.4799
M15
G01X1.2486Y-0.4799
M16
G05
G00X4.1988Y-0.6485
M15
G01X4.2461Y-0.6485
M16
G05
G00X4.1988Y-0.9674
M15
G01X4.2461Y-0.9674
M16
G05
G00X2.2488Y-1.136
M15
G01X2.2961Y-1.136
M16
G05
G00X2.2488Y-1.4549
M15
G01X2.2961Y-1.4549
M16
G05
G00X5.1488Y-0.6485
M15
G01X5.1961Y-0.6485
M16
G05
G00X5.1488Y-0.9674
M15
G01X5.1961Y-0.9674
M16
G05
G00X4.1988Y-1.136
M15
G01X4.2461Y-1.136
M16
G05
G00X4.1988Y-1.4549
M15
G01X4.2461Y-1.4549
M16
G05
G00X5.1488Y-1.136
M15
G01X5.1961Y-1.136
M16
G05
G00X5.1488Y-1.4549
M15
G01X5.1961Y-1.4549
M16
G05
G00X0.3014Y-1.136
M15
G01X0.3486Y-1.136
M16
G05
G00X0.3014Y-1.4549
M15
G01X0.3486Y-1.4549
M16
G05
G00X1.2014Y-0.6485
M15
G01X1.2486Y-0.6485
M16
G05
G00X1.2014Y-0.9674
M15
G01X1.2486Y-0.9674
M16
G05
G00X4.1988Y-0.161
M15
G01X4.2461Y-0.161
M16
G05
G00X4.1988Y-0.4799
M15
G01X4.2461Y-0.4799
M16
G05
G00X3.2004Y-0.161
M15
G01X3.2476Y-0.161
M16
G05
G00X3.2004Y-0.4799
M15
G01X3.2476Y-0.4799
M16
G05
G00X3.2004Y-1.136
M15
G01X3.2476Y-1.136
M16
G05
G00X3.2004Y-1.4549
M15
G01X3.2476Y-1.4549
M16
G05
G00X1.2014Y-1.136
M15
G01X1.2486Y-1.136
M16
G05
G00X1.2014Y-1.4549
M15
G01X1.2486Y-1.4549
M16
G05
G00X2.2488Y-0.161
M15
G01X2.2961Y-0.161
M16
G05
G00X2.2488Y-0.4799
M15
G01X2.2961Y-0.4799
M16
G05
T3
G00X4.0374Y-0.3515
M15
G01X4.0374Y-0.3958
M16
G05
G00X3.039Y-0.3515
M15
G01X3.039Y-0.3958
M16
G05
G00X3.039Y-1.3265
M15
G01X3.039Y-1.3708
M16
G05
G00X1.04Y-1.3265
M15
G01X1.04Y-1.3708
M16
G05
G00X2.0874Y-0.3515
M15
G01X2.0874Y-0.3958
M16
G05
G00X2.0874Y-0.839
M15
G01X2.0874Y-0.8833
M16
G05
G00X0.14Y-0.3515
M15
G01X0.14Y-0.3958
M16
G05
G00X0.14Y-0.839
M15
G01X0.14Y-0.8833
M16
G05
G00X4.9874Y-0.3515
M15
G01X4.9874Y-0.3958
M16
G05
G00X3.039Y-0.839
M15
G01X3.039Y-0.8833
M16
G05
G00X1.04Y-0.3515
M15
G01X1.04Y-0.3958
M16
G05
G00X4.0374Y-0.839
M15
G01X4.0374Y-0.8833
M16
G05
G00X2.0874Y-1.3265
M15
G01X2.0874Y-1.3708
M16
G05
G00X4.9874Y-0.839
M15
G01X4.9874Y-0.8833
M16
G05
G00X4.0374Y-1.3265
M15
G01X4.0374Y-1.3708
M16
G05
G00X4.9874Y-1.3265
M15
G01X4.9874Y-1.3708
M16
G05
G00X0.14Y-1.3265
M15
G01X0.14Y-1.3708
M16
G05
G00X1.04Y-0.839
M15
G01X1.04Y-0.8833
M16
G05
T0
M30
