%TF.GenerationSoftware,KiCad,Pcbnew,(5.1.8)-1*%
%TF.CreationDate,2021-01-03T22:56:05-05:00*%
%TF.ProjectId,LedController1,4c656443-6f6e-4747-926f-6c6c6572312e,rev?*%
%TF.SameCoordinates,Original*%
%TF.FileFunction,Soldermask,Bot*%
%TF.FilePolarity,Negative*%
%FSLAX46Y46*%
G04 Gerber Fmt 4.6, Leading zero omitted, Abs format (unit mm)*
G04 Created by KiCad (PCBNEW (5.1.8)-1) date 2021-01-03 22:56:05*
%MOMM*%
%LPD*%
G01*
G04 APERTURE LIST*
%ADD10O,1.700000X1.700000*%
%ADD11R,1.700000X1.700000*%
%ADD12R,1.750000X3.000000*%
%ADD13R,1.850000X1.850000*%
%ADD14O,3.000000X1.524000*%
%ADD15O,2.720000X3.240000*%
%ADD16C,1.800000*%
%ADD17R,1.800000X1.800000*%
G04 APERTURE END LIST*
%TO.C,R6*%
G36*
G01*
X4257477Y-51202230D02*
X4257477Y-49952228D01*
G75*
G02*
X4507476Y-49702229I249999J0D01*
G01*
X5132478Y-49702229D01*
G75*
G02*
X5382477Y-49952228I0J-249999D01*
G01*
X5382477Y-51202230D01*
G75*
G02*
X5132478Y-51452229I-249999J0D01*
G01*
X4507476Y-51452229D01*
G75*
G02*
X4257477Y-51202230I0J249999D01*
G01*
G37*
G36*
G01*
X1332477Y-51202230D02*
X1332477Y-49952228D01*
G75*
G02*
X1582476Y-49702229I249999J0D01*
G01*
X2207478Y-49702229D01*
G75*
G02*
X2457477Y-49952228I0J-249999D01*
G01*
X2457477Y-51202230D01*
G75*
G02*
X2207478Y-51452229I-249999J0D01*
G01*
X1582476Y-51452229D01*
G75*
G02*
X1332477Y-51202230I0J249999D01*
G01*
G37*
%TD*%
%TO.C,R5*%
G36*
G01*
X9790000Y-51232269D02*
X9790000Y-49982267D01*
G75*
G02*
X10039999Y-49732268I249999J0D01*
G01*
X10665001Y-49732268D01*
G75*
G02*
X10915000Y-49982267I0J-249999D01*
G01*
X10915000Y-51232269D01*
G75*
G02*
X10665001Y-51482268I-249999J0D01*
G01*
X10039999Y-51482268D01*
G75*
G02*
X9790000Y-51232269I0J249999D01*
G01*
G37*
G36*
G01*
X6865000Y-51232269D02*
X6865000Y-49982267D01*
G75*
G02*
X7114999Y-49732268I249999J0D01*
G01*
X7740001Y-49732268D01*
G75*
G02*
X7990000Y-49982267I0J-249999D01*
G01*
X7990000Y-51232269D01*
G75*
G02*
X7740001Y-51482268I-249999J0D01*
G01*
X7114999Y-51482268D01*
G75*
G02*
X6865000Y-51232269I0J249999D01*
G01*
G37*
%TD*%
%TO.C,R4*%
G36*
G01*
X9790000Y-37455001D02*
X9790000Y-36204999D01*
G75*
G02*
X10039999Y-35955000I249999J0D01*
G01*
X10665001Y-35955000D01*
G75*
G02*
X10915000Y-36204999I0J-249999D01*
G01*
X10915000Y-37455001D01*
G75*
G02*
X10665001Y-37705000I-249999J0D01*
G01*
X10039999Y-37705000D01*
G75*
G02*
X9790000Y-37455001I0J249999D01*
G01*
G37*
G36*
G01*
X6865000Y-37455001D02*
X6865000Y-36204999D01*
G75*
G02*
X7114999Y-35955000I249999J0D01*
G01*
X7740001Y-35955000D01*
G75*
G02*
X7990000Y-36204999I0J-249999D01*
G01*
X7990000Y-37455001D01*
G75*
G02*
X7740001Y-37705000I-249999J0D01*
G01*
X7114999Y-37705000D01*
G75*
G02*
X6865000Y-37455001I0J249999D01*
G01*
G37*
%TD*%
%TO.C,R3*%
G36*
G01*
X7250000Y-53965001D02*
X7250000Y-52714999D01*
G75*
G02*
X7499999Y-52465000I249999J0D01*
G01*
X8125001Y-52465000D01*
G75*
G02*
X8375000Y-52714999I0J-249999D01*
G01*
X8375000Y-53965001D01*
G75*
G02*
X8125001Y-54215000I-249999J0D01*
G01*
X7499999Y-54215000D01*
G75*
G02*
X7250000Y-53965001I0J249999D01*
G01*
G37*
G36*
G01*
X4325000Y-53965001D02*
X4325000Y-52714999D01*
G75*
G02*
X4574999Y-52465000I249999J0D01*
G01*
X5200001Y-52465000D01*
G75*
G02*
X5450000Y-52714999I0J-249999D01*
G01*
X5450000Y-53965001D01*
G75*
G02*
X5200001Y-54215000I-249999J0D01*
G01*
X4574999Y-54215000D01*
G75*
G02*
X4325000Y-53965001I0J249999D01*
G01*
G37*
%TD*%
%TO.C,R2*%
G36*
G01*
X1279999Y-55510000D02*
X2530001Y-55510000D01*
G75*
G02*
X2780000Y-55759999I0J-249999D01*
G01*
X2780000Y-56385001D01*
G75*
G02*
X2530001Y-56635000I-249999J0D01*
G01*
X1279999Y-56635000D01*
G75*
G02*
X1030000Y-56385001I0J249999D01*
G01*
X1030000Y-55759999D01*
G75*
G02*
X1279999Y-55510000I249999J0D01*
G01*
G37*
G36*
G01*
X1279999Y-52585000D02*
X2530001Y-52585000D01*
G75*
G02*
X2780000Y-52834999I0J-249999D01*
G01*
X2780000Y-53460001D01*
G75*
G02*
X2530001Y-53710000I-249999J0D01*
G01*
X1279999Y-53710000D01*
G75*
G02*
X1030000Y-53460001I0J249999D01*
G01*
X1030000Y-52834999D01*
G75*
G02*
X1279999Y-52585000I249999J0D01*
G01*
G37*
%TD*%
%TO.C,R1*%
G36*
G01*
X2457477Y-36174960D02*
X2457477Y-37424962D01*
G75*
G02*
X2207478Y-37674961I-249999J0D01*
G01*
X1582476Y-37674961D01*
G75*
G02*
X1332477Y-37424962I0J249999D01*
G01*
X1332477Y-36174960D01*
G75*
G02*
X1582476Y-35924961I249999J0D01*
G01*
X2207478Y-35924961D01*
G75*
G02*
X2457477Y-36174960I0J-249999D01*
G01*
G37*
G36*
G01*
X5382477Y-36174960D02*
X5382477Y-37424962D01*
G75*
G02*
X5132478Y-37674961I-249999J0D01*
G01*
X4507476Y-37674961D01*
G75*
G02*
X4257477Y-37424962I0J249999D01*
G01*
X4257477Y-36174960D01*
G75*
G02*
X4507476Y-35924961I249999J0D01*
G01*
X5132478Y-35924961D01*
G75*
G02*
X5382477Y-36174960I0J-249999D01*
G01*
G37*
%TD*%
D10*
%TO.C,J5*%
X2540000Y-96520000D03*
X2540000Y-93980000D03*
X2540000Y-91440000D03*
D11*
X2540000Y-88900000D03*
%TD*%
D10*
%TO.C,J4*%
X16510000Y-35560000D03*
X13970000Y-35560000D03*
X16510000Y-38100000D03*
X13970000Y-38100000D03*
X16510000Y-40640000D03*
X13970000Y-40640000D03*
X16510000Y-43180000D03*
X13970000Y-43180000D03*
X16510000Y-45720000D03*
X13970000Y-45720000D03*
X16510000Y-48260000D03*
X13970000Y-48260000D03*
X16510000Y-50800000D03*
X13970000Y-50800000D03*
X16510000Y-53340000D03*
D11*
X13970000Y-53340000D03*
%TD*%
D12*
%TO.C,J3*%
X5460000Y-31080000D03*
D13*
X14860000Y-31080000D03*
D14*
X10160000Y-33780000D03*
X10160000Y-25680000D03*
%TD*%
D12*
%TO.C,J2*%
X5460000Y-19015000D03*
D13*
X14860000Y-19015000D03*
D14*
X10160000Y-21715000D03*
X10160000Y-13615000D03*
%TD*%
D12*
%TO.C,J1*%
X5460000Y-6950000D03*
D13*
X14860000Y-6950000D03*
D14*
X10160000Y-9650000D03*
X10160000Y-1550000D03*
%TD*%
%TO.C,U1*%
G36*
G01*
X4850000Y-39220000D02*
X4850000Y-39520000D01*
G75*
G02*
X4700000Y-39670000I-150000J0D01*
G01*
X3050000Y-39670000D01*
G75*
G02*
X2900000Y-39520000I0J150000D01*
G01*
X2900000Y-39220000D01*
G75*
G02*
X3050000Y-39070000I150000J0D01*
G01*
X4700000Y-39070000D01*
G75*
G02*
X4850000Y-39220000I0J-150000D01*
G01*
G37*
G36*
G01*
X4850000Y-40490000D02*
X4850000Y-40790000D01*
G75*
G02*
X4700000Y-40940000I-150000J0D01*
G01*
X3050000Y-40940000D01*
G75*
G02*
X2900000Y-40790000I0J150000D01*
G01*
X2900000Y-40490000D01*
G75*
G02*
X3050000Y-40340000I150000J0D01*
G01*
X4700000Y-40340000D01*
G75*
G02*
X4850000Y-40490000I0J-150000D01*
G01*
G37*
G36*
G01*
X4850000Y-41760000D02*
X4850000Y-42060000D01*
G75*
G02*
X4700000Y-42210000I-150000J0D01*
G01*
X3050000Y-42210000D01*
G75*
G02*
X2900000Y-42060000I0J150000D01*
G01*
X2900000Y-41760000D01*
G75*
G02*
X3050000Y-41610000I150000J0D01*
G01*
X4700000Y-41610000D01*
G75*
G02*
X4850000Y-41760000I0J-150000D01*
G01*
G37*
G36*
G01*
X4850000Y-43030000D02*
X4850000Y-43330000D01*
G75*
G02*
X4700000Y-43480000I-150000J0D01*
G01*
X3050000Y-43480000D01*
G75*
G02*
X2900000Y-43330000I0J150000D01*
G01*
X2900000Y-43030000D01*
G75*
G02*
X3050000Y-42880000I150000J0D01*
G01*
X4700000Y-42880000D01*
G75*
G02*
X4850000Y-43030000I0J-150000D01*
G01*
G37*
G36*
G01*
X4850000Y-44300000D02*
X4850000Y-44600000D01*
G75*
G02*
X4700000Y-44750000I-150000J0D01*
G01*
X3050000Y-44750000D01*
G75*
G02*
X2900000Y-44600000I0J150000D01*
G01*
X2900000Y-44300000D01*
G75*
G02*
X3050000Y-44150000I150000J0D01*
G01*
X4700000Y-44150000D01*
G75*
G02*
X4850000Y-44300000I0J-150000D01*
G01*
G37*
G36*
G01*
X4850000Y-45570000D02*
X4850000Y-45870000D01*
G75*
G02*
X4700000Y-46020000I-150000J0D01*
G01*
X3050000Y-46020000D01*
G75*
G02*
X2900000Y-45870000I0J150000D01*
G01*
X2900000Y-45570000D01*
G75*
G02*
X3050000Y-45420000I150000J0D01*
G01*
X4700000Y-45420000D01*
G75*
G02*
X4850000Y-45570000I0J-150000D01*
G01*
G37*
G36*
G01*
X4850000Y-46840000D02*
X4850000Y-47140000D01*
G75*
G02*
X4700000Y-47290000I-150000J0D01*
G01*
X3050000Y-47290000D01*
G75*
G02*
X2900000Y-47140000I0J150000D01*
G01*
X2900000Y-46840000D01*
G75*
G02*
X3050000Y-46690000I150000J0D01*
G01*
X4700000Y-46690000D01*
G75*
G02*
X4850000Y-46840000I0J-150000D01*
G01*
G37*
G36*
G01*
X9800000Y-46840000D02*
X9800000Y-47140000D01*
G75*
G02*
X9650000Y-47290000I-150000J0D01*
G01*
X8000000Y-47290000D01*
G75*
G02*
X7850000Y-47140000I0J150000D01*
G01*
X7850000Y-46840000D01*
G75*
G02*
X8000000Y-46690000I150000J0D01*
G01*
X9650000Y-46690000D01*
G75*
G02*
X9800000Y-46840000I0J-150000D01*
G01*
G37*
G36*
G01*
X9800000Y-45570000D02*
X9800000Y-45870000D01*
G75*
G02*
X9650000Y-46020000I-150000J0D01*
G01*
X8000000Y-46020000D01*
G75*
G02*
X7850000Y-45870000I0J150000D01*
G01*
X7850000Y-45570000D01*
G75*
G02*
X8000000Y-45420000I150000J0D01*
G01*
X9650000Y-45420000D01*
G75*
G02*
X9800000Y-45570000I0J-150000D01*
G01*
G37*
G36*
G01*
X9800000Y-44300000D02*
X9800000Y-44600000D01*
G75*
G02*
X9650000Y-44750000I-150000J0D01*
G01*
X8000000Y-44750000D01*
G75*
G02*
X7850000Y-44600000I0J150000D01*
G01*
X7850000Y-44300000D01*
G75*
G02*
X8000000Y-44150000I150000J0D01*
G01*
X9650000Y-44150000D01*
G75*
G02*
X9800000Y-44300000I0J-150000D01*
G01*
G37*
G36*
G01*
X9800000Y-43030000D02*
X9800000Y-43330000D01*
G75*
G02*
X9650000Y-43480000I-150000J0D01*
G01*
X8000000Y-43480000D01*
G75*
G02*
X7850000Y-43330000I0J150000D01*
G01*
X7850000Y-43030000D01*
G75*
G02*
X8000000Y-42880000I150000J0D01*
G01*
X9650000Y-42880000D01*
G75*
G02*
X9800000Y-43030000I0J-150000D01*
G01*
G37*
G36*
G01*
X9800000Y-41760000D02*
X9800000Y-42060000D01*
G75*
G02*
X9650000Y-42210000I-150000J0D01*
G01*
X8000000Y-42210000D01*
G75*
G02*
X7850000Y-42060000I0J150000D01*
G01*
X7850000Y-41760000D01*
G75*
G02*
X8000000Y-41610000I150000J0D01*
G01*
X9650000Y-41610000D01*
G75*
G02*
X9800000Y-41760000I0J-150000D01*
G01*
G37*
G36*
G01*
X9800000Y-40490000D02*
X9800000Y-40790000D01*
G75*
G02*
X9650000Y-40940000I-150000J0D01*
G01*
X8000000Y-40940000D01*
G75*
G02*
X7850000Y-40790000I0J150000D01*
G01*
X7850000Y-40490000D01*
G75*
G02*
X8000000Y-40340000I150000J0D01*
G01*
X9650000Y-40340000D01*
G75*
G02*
X9800000Y-40490000I0J-150000D01*
G01*
G37*
G36*
G01*
X9800000Y-39220000D02*
X9800000Y-39520000D01*
G75*
G02*
X9650000Y-39670000I-150000J0D01*
G01*
X8000000Y-39670000D01*
G75*
G02*
X7850000Y-39520000I0J150000D01*
G01*
X7850000Y-39220000D01*
G75*
G02*
X8000000Y-39070000I150000J0D01*
G01*
X9650000Y-39070000D01*
G75*
G02*
X9800000Y-39220000I0J-150000D01*
G01*
G37*
%TD*%
D15*
%TO.C,RV3*%
X6590000Y-90290000D03*
X16190000Y-90290000D03*
D16*
X13890000Y-97790000D03*
X11390000Y-97790000D03*
D17*
X8890000Y-97790000D03*
%TD*%
D15*
%TO.C,RV2*%
X6590000Y-75050000D03*
X16190000Y-75050000D03*
D16*
X13890000Y-82550000D03*
X11390000Y-82550000D03*
D17*
X8890000Y-82550000D03*
%TD*%
D15*
%TO.C,RV1*%
X6590000Y-59810000D03*
X16190000Y-59810000D03*
D16*
X13890000Y-67310000D03*
X11390000Y-67310000D03*
D17*
X8890000Y-67310000D03*
%TD*%
M02*
