%TF.GenerationSoftware,KiCad,Pcbnew,(6.0.0)*%
%TF.CreationDate,2022-02-22T23:17:02-05:00*%
%TF.ProjectId,LedController1,4c656443-6f6e-4747-926f-6c6c6572312e,rev?*%
%TF.SameCoordinates,Original*%
%TF.FileFunction,Copper,L1,Top*%
%TF.FilePolarity,Positive*%
%FSLAX46Y46*%
G04 Gerber Fmt 4.6, Leading zero omitted, Abs format (unit mm)*
G04 Created by KiCad (PCBNEW (6.0.0)) date 2022-02-22 23:17:02*
%MOMM*%
%LPD*%
G01*
G04 APERTURE LIST*
%TA.AperFunction,ComponentPad*%
%ADD10R,1.600000X1.600000*%
%TD*%
%TA.AperFunction,ComponentPad*%
%ADD11O,1.600000X1.600000*%
%TD*%
%TA.AperFunction,ComponentPad*%
%ADD12O,1.200000X2.800000*%
%TD*%
%TA.AperFunction,ComponentPad*%
%ADD13R,1.800000X1.800000*%
%TD*%
%TA.AperFunction,ComponentPad*%
%ADD14C,1.800000*%
%TD*%
%TA.AperFunction,ComponentPad*%
%ADD15C,1.600000*%
%TD*%
%TA.AperFunction,ComponentPad*%
%ADD16R,1.700000X1.700000*%
%TD*%
%TA.AperFunction,ComponentPad*%
%ADD17O,1.700000X1.700000*%
%TD*%
%TA.AperFunction,ComponentPad*%
%ADD18R,1.750000X3.000000*%
%TD*%
%TA.AperFunction,ComponentPad*%
%ADD19R,1.850000X1.850000*%
%TD*%
%TA.AperFunction,ComponentPad*%
%ADD20O,3.000000X1.524000*%
%TD*%
%TA.AperFunction,ViaPad*%
%ADD21C,0.800000*%
%TD*%
%TA.AperFunction,Conductor*%
%ADD22C,0.250000*%
%TD*%
G04 APERTURE END LIST*
D10*
%TO.P,U1,1*%
%TO.N,Net-(J5-Pad1)*%
X2281000Y-43190000D03*
D11*
%TO.P,U1,8*%
%TO.N,Net-(J5-Pad3)*%
X17521000Y-50810000D03*
%TO.P,U1,2,-*%
%TO.N,Net-(R1-Pad1)*%
X4821000Y-43190000D03*
%TO.P,U1,9,-*%
%TO.N,Net-(R3-Pad1)*%
X14981000Y-50810000D03*
%TO.P,U1,3,+*%
%TO.N,+5V*%
X7361000Y-43190000D03*
%TO.P,U1,10,+*%
X12441000Y-50810000D03*
%TO.P,U1,4,V+*%
%TO.N,+12V*%
X9901000Y-43190000D03*
%TO.P,U1,11,V-*%
%TO.N,-12V*%
X9901000Y-50810000D03*
%TO.P,U1,5,+*%
%TO.N,+5V*%
X12441000Y-43190000D03*
%TO.P,U1,12*%
%TO.N,N/C*%
X7361000Y-50810000D03*
%TO.P,U1,6,-*%
%TO.N,Net-(R2-Pad1)*%
X14981000Y-43190000D03*
%TO.P,U1,13*%
%TO.N,N/C*%
X4821000Y-50810000D03*
%TO.P,U1,7*%
%TO.N,Net-(J5-Pad2)*%
X17521000Y-43190000D03*
%TO.P,U1,14*%
%TO.N,N/C*%
X2281000Y-50810000D03*
%TD*%
D12*
%TO.P,RV3,*%
%TO.N,*%
X14800000Y-90681000D03*
X5200000Y-90681000D03*
D13*
%TO.P,RV3,1,1*%
%TO.N,GND*%
X7500000Y-98181000D03*
D14*
%TO.P,RV3,2,2*%
%TO.N,Net-(J3-PadT)*%
X10000000Y-98181000D03*
%TO.P,RV3,3,3*%
%TO.N,/sheet5FE67A34/Signal*%
X12500000Y-98181000D03*
%TD*%
D12*
%TO.P,RV2,*%
%TO.N,*%
X14800000Y-75441000D03*
X5200000Y-75441000D03*
D13*
%TO.P,RV2,1,1*%
%TO.N,GND*%
X7500000Y-82941000D03*
D14*
%TO.P,RV2,2,2*%
%TO.N,Net-(J2-PadT)*%
X10000000Y-82941000D03*
%TO.P,RV2,3,3*%
%TO.N,/sheet5FE679DC/Signal*%
X12500000Y-82941000D03*
%TD*%
%TO.P,RV1,3,3*%
%TO.N,/InputSignal/Signal*%
X12500000Y-67701000D03*
%TO.P,RV1,2,2*%
%TO.N,Net-(J1-PadT)*%
X10000000Y-67701000D03*
D13*
%TO.P,RV1,1,1*%
%TO.N,GND*%
X7500000Y-67701000D03*
D12*
%TO.P,RV1,*%
%TO.N,*%
X5200000Y-60201000D03*
X14800000Y-60201000D03*
%TD*%
D15*
%TO.P,R6,1*%
%TO.N,Net-(R3-Pad1)*%
X9652000Y-54102000D03*
D11*
%TO.P,R6,2*%
%TO.N,Net-(J5-Pad3)*%
X17272000Y-54102000D03*
%TD*%
D15*
%TO.P,R5,1*%
%TO.N,Net-(R2-Pad1)*%
X9398000Y-36576000D03*
D11*
%TO.P,R5,2*%
%TO.N,Net-(J5-Pad2)*%
X17018000Y-36576000D03*
%TD*%
D15*
%TO.P,R4,1*%
%TO.N,Net-(R1-Pad1)*%
X9652000Y-39878000D03*
D11*
%TO.P,R4,2*%
%TO.N,Net-(J5-Pad1)*%
X2032000Y-39878000D03*
%TD*%
D15*
%TO.P,R3,1*%
%TO.N,Net-(R3-Pad1)*%
X17526000Y-83820000D03*
D11*
%TO.P,R3,2*%
%TO.N,/sheet5FE67A34/Signal*%
X17526000Y-91440000D03*
%TD*%
D15*
%TO.P,R2,1*%
%TO.N,Net-(R2-Pad1)*%
X2794000Y-75438000D03*
D11*
%TO.P,R2,2*%
%TO.N,/sheet5FE679DC/Signal*%
X2794000Y-83058000D03*
%TD*%
D15*
%TO.P,R1,1*%
%TO.N,Net-(R1-Pad1)*%
X17526000Y-63500000D03*
D11*
%TO.P,R1,2*%
%TO.N,/InputSignal/Signal*%
X17526000Y-71120000D03*
%TD*%
D16*
%TO.P,J4,1,Pin_1*%
%TO.N,-12V*%
X3043000Y-22337000D03*
D17*
%TO.P,J4,2,Pin_2*%
X5583000Y-22337000D03*
%TO.P,J4,3,Pin_3*%
%TO.N,GND*%
X3043000Y-19797000D03*
%TO.P,J4,4,Pin_4*%
X5583000Y-19797000D03*
%TO.P,J4,5,Pin_5*%
X3043000Y-17257000D03*
%TO.P,J4,6,Pin_6*%
X5583000Y-17257000D03*
%TO.P,J4,7,Pin_7*%
X3043000Y-14717000D03*
%TO.P,J4,8,Pin_8*%
X5583000Y-14717000D03*
%TO.P,J4,9,Pin_9*%
%TO.N,+12V*%
X3043000Y-12177000D03*
%TO.P,J4,10,Pin_10*%
X5583000Y-12177000D03*
%TO.P,J4,11,Pin_11*%
%TO.N,+5V*%
X3043000Y-9637000D03*
%TO.P,J4,12,Pin_12*%
X5583000Y-9637000D03*
%TO.P,J4,13,Pin_13*%
%TO.N,unconnected-(J4-Pad13)*%
X3043000Y-7097000D03*
%TO.P,J4,14,Pin_14*%
%TO.N,unconnected-(J4-Pad14)*%
X5583000Y-7097000D03*
%TO.P,J4,15,Pin_15*%
%TO.N,unconnected-(J4-Pad15)*%
X3043000Y-4557000D03*
%TO.P,J4,16,Pin_16*%
%TO.N,unconnected-(J4-Pad16)*%
X5583000Y-4557000D03*
%TD*%
D18*
%TO.P,J3,S*%
%TO.N,GND*%
X8460000Y-31080000D03*
D19*
X17860000Y-31080000D03*
D20*
%TO.P,J3,TN*%
%TO.N,N/C*%
X13160000Y-33780000D03*
%TO.P,J3,T*%
%TO.N,Net-(J3-PadT)*%
X13160000Y-25680000D03*
%TD*%
D18*
%TO.P,J2,S*%
%TO.N,GND*%
X8460000Y-19015000D03*
D19*
X17860000Y-19015000D03*
D20*
%TO.P,J2,TN*%
%TO.N,N/C*%
X13160000Y-21715000D03*
%TO.P,J2,T*%
%TO.N,Net-(J2-PadT)*%
X13160000Y-13615000D03*
%TD*%
D18*
%TO.P,J1,S*%
%TO.N,GND*%
X8460000Y-6950000D03*
D19*
X17860000Y-6950000D03*
D20*
%TO.P,J1,TN*%
%TO.N,N/C*%
X13160000Y-9650000D03*
%TO.P,J1,T*%
%TO.N,Net-(J1-PadT)*%
X13160000Y-1550000D03*
%TD*%
D17*
%TO.P,J5,4,Pin_4*%
%TO.N,+12V*%
X2540000Y-96520000D03*
%TO.P,J5,3,Pin_3*%
%TO.N,Net-(J5-Pad3)*%
X2540000Y-93980000D03*
%TO.P,J5,2,Pin_2*%
%TO.N,Net-(J5-Pad2)*%
X2540000Y-91440000D03*
D16*
%TO.P,J5,1,Pin_1*%
%TO.N,Net-(J5-Pad1)*%
X2540000Y-88900000D03*
%TD*%
D21*
%TO.N,Net-(R1-Pad1)*%
X12470200Y-47393000D03*
%TD*%
D22*
%TO.N,-12V*%
X5583000Y-22337000D02*
X3043000Y-22337000D01*
%TO.N,Net-(J5-Pad1)*%
X2281000Y-41252300D02*
X2281000Y-43190000D01*
X2032000Y-41003300D02*
X2281000Y-41252300D01*
X2032000Y-39878000D02*
X2032000Y-41003300D01*
X1155700Y-45440600D02*
X2281000Y-44315300D01*
X1155700Y-86340400D02*
X1155700Y-45440600D01*
X2540000Y-87724700D02*
X1155700Y-86340400D01*
X2540000Y-88900000D02*
X2540000Y-87724700D01*
X2281000Y-43190000D02*
X2281000Y-44315300D01*
%TO.N,Net-(J5-Pad2)*%
X17018000Y-36576000D02*
X17018000Y-37701300D01*
X17018000Y-41561700D02*
X17521000Y-42064700D01*
X17018000Y-37701300D02*
X17018000Y-41561700D01*
X17521000Y-43190000D02*
X17521000Y-42064700D01*
%TO.N,Net-(J5-Pad3)*%
X17521000Y-52727700D02*
X17521000Y-50810000D01*
X17272000Y-52976700D02*
X17521000Y-52727700D01*
X17272000Y-54102000D02*
X17272000Y-52976700D01*
%TO.N,+12V*%
X8775700Y-45440600D02*
X9901000Y-44315300D01*
X8775700Y-53386800D02*
X8775700Y-45440600D01*
X6274600Y-55887900D02*
X8775700Y-53386800D01*
X6274600Y-91977400D02*
X6274600Y-55887900D01*
X2907300Y-95344700D02*
X6274600Y-91977400D01*
X2540000Y-95344700D02*
X2907300Y-95344700D01*
X2540000Y-96520000D02*
X2540000Y-95344700D01*
X9901000Y-43190000D02*
X9901000Y-44315300D01*
%TO.N,+5V*%
X12441000Y-43190000D02*
X12441000Y-44315300D01*
X12441000Y-50810000D02*
X12441000Y-49684700D01*
X6894700Y-41598400D02*
X7361000Y-42064700D01*
X6894700Y-11756600D02*
X6894700Y-41598400D01*
X5950400Y-10812300D02*
X6894700Y-11756600D01*
X5583000Y-10812300D02*
X5950400Y-10812300D01*
X7361000Y-43190000D02*
X7361000Y-42064700D01*
X5583000Y-9637000D02*
X5583000Y-10224600D01*
X5583000Y-10224600D02*
X5583000Y-10812300D01*
X4805900Y-10224600D02*
X4218300Y-9637000D01*
X5583000Y-10224600D02*
X4805900Y-10224600D01*
X3043000Y-9637000D02*
X4218300Y-9637000D01*
X11744900Y-48988600D02*
X12441000Y-49684700D01*
X11744900Y-45011400D02*
X11744900Y-48988600D01*
X12441000Y-44315300D02*
X11744900Y-45011400D01*
%TO.N,Net-(J2-PadT)*%
X12017200Y-84958200D02*
X10000000Y-82941000D01*
X18012600Y-84958200D02*
X12017200Y-84958200D01*
X18653000Y-84317800D02*
X18012600Y-84958200D01*
X18653000Y-34663700D02*
X18653000Y-84317800D01*
X15262100Y-31272800D02*
X18653000Y-34663700D01*
X15262100Y-15717100D02*
X15262100Y-31272800D01*
X13160000Y-13615000D02*
X15262100Y-15717100D01*
%TO.N,Net-(J1-PadT)*%
X11274600Y-66426400D02*
X10000000Y-67701000D01*
X11274600Y-3435400D02*
X11274600Y-66426400D01*
X13160000Y-1550000D02*
X11274600Y-3435400D01*
%TO.N,Net-(R3-Pad1)*%
X8725400Y-55028600D02*
X9652000Y-54102000D01*
X8725400Y-75019400D02*
X8725400Y-55028600D01*
X17526000Y-83820000D02*
X8725400Y-75019400D01*
%TO.N,/sheet5FE67A34/Signal*%
X17526000Y-93155000D02*
X12500000Y-98181000D01*
X17526000Y-91440000D02*
X17526000Y-93155000D01*
%TO.N,Net-(R1-Pad1)*%
X13855600Y-48778400D02*
X12470200Y-47393000D01*
X13855600Y-53291800D02*
X13855600Y-48778400D01*
X17526000Y-56962200D02*
X13855600Y-53291800D01*
X17526000Y-63500000D02*
X17526000Y-56962200D01*
%TD*%
M02*
