%TF.GenerationSoftware,KiCad,Pcbnew,(5.1.8)-1*%
%TF.CreationDate,2021-01-03T22:56:05-05:00*%
%TF.ProjectId,LedController1,4c656443-6f6e-4747-926f-6c6c6572312e,rev?*%
%TF.SameCoordinates,Original*%
%TF.FileFunction,Copper,L1,Top*%
%TF.FilePolarity,Positive*%
%FSLAX46Y46*%
G04 Gerber Fmt 4.6, Leading zero omitted, Abs format (unit mm)*
G04 Created by KiCad (PCBNEW (5.1.8)-1) date 2021-01-03 22:56:05*
%MOMM*%
%LPD*%
G01*
G04 APERTURE LIST*
%TA.AperFunction,ComponentPad*%
%ADD10O,1.700000X1.700000*%
%TD*%
%TA.AperFunction,ComponentPad*%
%ADD11R,1.700000X1.700000*%
%TD*%
%TA.AperFunction,ComponentPad*%
%ADD12R,1.750000X3.000000*%
%TD*%
%TA.AperFunction,ComponentPad*%
%ADD13R,1.850000X1.850000*%
%TD*%
%TA.AperFunction,ComponentPad*%
%ADD14O,3.000000X1.524000*%
%TD*%
%TA.AperFunction,ComponentPad*%
%ADD15O,2.720000X3.240000*%
%TD*%
%TA.AperFunction,ComponentPad*%
%ADD16C,1.800000*%
%TD*%
%TA.AperFunction,ComponentPad*%
%ADD17R,1.800000X1.800000*%
%TD*%
%TA.AperFunction,ViaPad*%
%ADD18C,0.800000*%
%TD*%
%TA.AperFunction,Conductor*%
%ADD19C,0.250000*%
%TD*%
G04 APERTURE END LIST*
D10*
%TO.P,J5,4*%
%TO.N,+12V*%
X2540000Y-96520000D03*
%TO.P,J5,3*%
%TO.N,Net-(J5-Pad3)*%
X2540000Y-93980000D03*
%TO.P,J5,2*%
%TO.N,Net-(J5-Pad2)*%
X2540000Y-91440000D03*
D11*
%TO.P,J5,1*%
%TO.N,Net-(J5-Pad1)*%
X2540000Y-88900000D03*
%TD*%
D10*
%TO.P,J4,16*%
%TO.N,N/C*%
X16510000Y-35560000D03*
%TO.P,J4,15*%
X13970000Y-35560000D03*
%TO.P,J4,14*%
X16510000Y-38100000D03*
%TO.P,J4,13*%
X13970000Y-38100000D03*
%TO.P,J4,12*%
%TO.N,+5V*%
X16510000Y-40640000D03*
%TO.P,J4,11*%
X13970000Y-40640000D03*
%TO.P,J4,10*%
%TO.N,+12V*%
X16510000Y-43180000D03*
%TO.P,J4,9*%
X13970000Y-43180000D03*
%TO.P,J4,8*%
%TO.N,GND*%
X16510000Y-45720000D03*
%TO.P,J4,7*%
X13970000Y-45720000D03*
%TO.P,J4,6*%
X16510000Y-48260000D03*
%TO.P,J4,5*%
X13970000Y-48260000D03*
%TO.P,J4,4*%
X16510000Y-50800000D03*
%TO.P,J4,3*%
X13970000Y-50800000D03*
%TO.P,J4,2*%
%TO.N,-12V*%
X16510000Y-53340000D03*
D11*
%TO.P,J4,1*%
X13970000Y-53340000D03*
%TD*%
D12*
%TO.P,J3,1*%
%TO.N,N/C*%
X5460000Y-31080000D03*
D13*
X14860000Y-31080000D03*
D14*
%TO.P,J3,S*%
%TO.N,GND*%
X10160000Y-33780000D03*
%TO.P,J3,T*%
%TO.N,Net-(J3-PadT)*%
X10160000Y-25680000D03*
%TD*%
D12*
%TO.P,J2,1*%
%TO.N,N/C*%
X5460000Y-19015000D03*
D13*
X14860000Y-19015000D03*
D14*
%TO.P,J2,S*%
%TO.N,GND*%
X10160000Y-21715000D03*
%TO.P,J2,T*%
%TO.N,Net-(J2-PadT)*%
X10160000Y-13615000D03*
%TD*%
D12*
%TO.P,J1,1*%
%TO.N,N/C*%
X5460000Y-6950000D03*
D13*
X14860000Y-6950000D03*
D14*
%TO.P,J1,S*%
%TO.N,GND*%
X10160000Y-9650000D03*
%TO.P,J1,T*%
%TO.N,Net-(J1-PadT)*%
X10160000Y-1550000D03*
%TD*%
D15*
%TO.P,RV3,*%
%TO.N,*%
X6590000Y-90290000D03*
X16190000Y-90290000D03*
D16*
%TO.P,RV3,3*%
%TO.N,Net-(J3-PadT)*%
X13890000Y-97790000D03*
%TO.P,RV3,2*%
%TO.N,/sheet5FE67A34/Signal*%
X11390000Y-97790000D03*
D17*
%TO.P,RV3,1*%
%TO.N,GND*%
X8890000Y-97790000D03*
%TD*%
D15*
%TO.P,RV2,*%
%TO.N,*%
X6590000Y-75050000D03*
X16190000Y-75050000D03*
D16*
%TO.P,RV2,3*%
%TO.N,Net-(J2-PadT)*%
X13890000Y-82550000D03*
%TO.P,RV2,2*%
%TO.N,/sheet5FE679DC/Signal*%
X11390000Y-82550000D03*
D17*
%TO.P,RV2,1*%
%TO.N,GND*%
X8890000Y-82550000D03*
%TD*%
D15*
%TO.P,RV1,*%
%TO.N,*%
X6590000Y-59810000D03*
X16190000Y-59810000D03*
D16*
%TO.P,RV1,3*%
%TO.N,Net-(J1-PadT)*%
X13890000Y-67310000D03*
%TO.P,RV1,2*%
%TO.N,/InputSignal/Signal*%
X11390000Y-67310000D03*
D17*
%TO.P,RV1,1*%
%TO.N,GND*%
X8890000Y-67310000D03*
%TD*%
D18*
%TO.N,/InputSignal/Signal*%
X4445000Y-70485000D03*
%TO.N,GND*%
X10160000Y-64135000D03*
X8890000Y-85725000D03*
%TO.N,Net-(J5-Pad3)*%
X3830021Y-56514992D03*
%TO.N,Net-(J5-Pad1)*%
X11430000Y-39370000D03*
X4445000Y-83820000D03*
%TD*%
D19*
%TO.N,/InputSignal/Signal*%
X8215000Y-70485000D02*
X11390000Y-67310000D01*
X4445000Y-70485000D02*
X8215000Y-70485000D01*
%TO.N,Net-(J1-PadT)*%
X7884979Y-3825021D02*
X7884979Y-53125812D01*
X12340024Y-65760024D02*
X13890000Y-67310000D01*
X10160000Y-1550000D02*
X7884979Y-3825021D01*
X7884979Y-53125812D02*
X8534976Y-53775809D01*
X8534976Y-53775809D02*
X8534976Y-64855802D01*
X9439198Y-65760024D02*
X12340024Y-65760024D01*
X8534976Y-64855802D02*
X9439198Y-65760024D01*
%TO.N,-12V*%
X13970000Y-53340000D02*
X16510000Y-53340000D01*
%TO.N,GND*%
X13970000Y-45720000D02*
X16510000Y-45720000D01*
X13970000Y-48260000D02*
X16510000Y-48260000D01*
X16510000Y-50800000D02*
X13970000Y-50800000D01*
X13970000Y-50800000D02*
X10160000Y-54610000D01*
X10160000Y-54610000D02*
X10160000Y-64135000D01*
X8890000Y-86360000D02*
X8890000Y-85725000D01*
X8890000Y-82550000D02*
X8890000Y-85725000D01*
%TO.N,Net-(J2-PadT)*%
X10160000Y-13615000D02*
X8334990Y-15440010D01*
X8984987Y-64669402D02*
X9625598Y-65310013D01*
X8334990Y-34230253D02*
X8984987Y-34880250D01*
X9625598Y-65310013D02*
X14511424Y-65310013D01*
X13890000Y-72308523D02*
X13890000Y-82550000D01*
X14511424Y-65310013D02*
X17699967Y-68498556D01*
X17699967Y-68498556D02*
X13890000Y-72308523D01*
X8984987Y-34880250D02*
X8984987Y-64669402D01*
X8334990Y-15440010D02*
X8334990Y-34230253D01*
%TO.N,Net-(J3-PadT)*%
X11910000Y-25680000D02*
X19050000Y-32820000D01*
X10160000Y-25680000D02*
X11910000Y-25680000D01*
X19225043Y-92454957D02*
X13890000Y-97790000D01*
X19050000Y-73357804D02*
X19225043Y-73532847D01*
X19050000Y-32820000D02*
X19050000Y-73357804D01*
X19225043Y-73532847D02*
X19225043Y-92454957D01*
%TO.N,+5V*%
X13970000Y-40640000D02*
X16510000Y-40640000D01*
%TO.N,+12V*%
X13970000Y-43180000D02*
X16510000Y-43180000D01*
X18599989Y-45269989D02*
X18599989Y-81662092D01*
X3742081Y-96520000D02*
X2540000Y-96520000D01*
X18599989Y-81662092D02*
X3742081Y-96520000D01*
X16510000Y-43180000D02*
X18599989Y-45269989D01*
%TO.N,Net-(J5-Pad3)*%
X3715001Y-56630012D02*
X3830021Y-56514992D01*
X3715001Y-92804999D02*
X3715001Y-56630012D01*
X2540000Y-93980000D02*
X3715001Y-92804999D01*
%TO.N,Net-(J5-Pad1)*%
X9434998Y-41365002D02*
X9434998Y-64483002D01*
X9434998Y-64483002D02*
X9811998Y-64860002D01*
X11430000Y-39370000D02*
X9434998Y-41365002D01*
X18149978Y-68312157D02*
X18149978Y-80276432D01*
X18149978Y-80276432D02*
X11616399Y-86810011D01*
X14697823Y-64860002D02*
X18149978Y-68312157D01*
X11616399Y-86810011D02*
X7435011Y-86810011D01*
X9811998Y-64860002D02*
X14697823Y-64860002D01*
X7435011Y-86810011D02*
X4445000Y-83820000D01*
%TD*%
M02*
