%TF.GenerationSoftware,KiCad,Pcbnew,(6.0.0)*%
%TF.CreationDate,2022-02-22T23:17:02-05:00*%
%TF.ProjectId,LedController1,4c656443-6f6e-4747-926f-6c6c6572312e,rev?*%
%TF.SameCoordinates,Original*%
%TF.FileFunction,Copper,L2,Bot*%
%TF.FilePolarity,Positive*%
%FSLAX46Y46*%
G04 Gerber Fmt 4.6, Leading zero omitted, Abs format (unit mm)*
G04 Created by KiCad (PCBNEW (6.0.0)) date 2022-02-22 23:17:02*
%MOMM*%
%LPD*%
G01*
G04 APERTURE LIST*
%TA.AperFunction,ComponentPad*%
%ADD10R,1.600000X1.600000*%
%TD*%
%TA.AperFunction,ComponentPad*%
%ADD11O,1.600000X1.600000*%
%TD*%
%TA.AperFunction,ComponentPad*%
%ADD12O,1.200000X2.800000*%
%TD*%
%TA.AperFunction,ComponentPad*%
%ADD13R,1.800000X1.800000*%
%TD*%
%TA.AperFunction,ComponentPad*%
%ADD14C,1.800000*%
%TD*%
%TA.AperFunction,ComponentPad*%
%ADD15C,1.600000*%
%TD*%
%TA.AperFunction,ComponentPad*%
%ADD16R,1.700000X1.700000*%
%TD*%
%TA.AperFunction,ComponentPad*%
%ADD17O,1.700000X1.700000*%
%TD*%
%TA.AperFunction,ComponentPad*%
%ADD18R,1.750000X3.000000*%
%TD*%
%TA.AperFunction,ComponentPad*%
%ADD19R,1.850000X1.850000*%
%TD*%
%TA.AperFunction,ComponentPad*%
%ADD20O,3.000000X1.524000*%
%TD*%
%TA.AperFunction,ViaPad*%
%ADD21C,0.800000*%
%TD*%
%TA.AperFunction,Conductor*%
%ADD22C,0.250000*%
%TD*%
G04 APERTURE END LIST*
D10*
%TO.P,U1,1*%
%TO.N,Net-(J5-Pad1)*%
X2281000Y-43190000D03*
D11*
%TO.P,U1,8*%
%TO.N,Net-(J5-Pad3)*%
X17521000Y-50810000D03*
%TO.P,U1,2,-*%
%TO.N,Net-(R1-Pad1)*%
X4821000Y-43190000D03*
%TO.P,U1,9,-*%
%TO.N,Net-(R3-Pad1)*%
X14981000Y-50810000D03*
%TO.P,U1,3,+*%
%TO.N,+5V*%
X7361000Y-43190000D03*
%TO.P,U1,10,+*%
X12441000Y-50810000D03*
%TO.P,U1,4,V+*%
%TO.N,+12V*%
X9901000Y-43190000D03*
%TO.P,U1,11,V-*%
%TO.N,-12V*%
X9901000Y-50810000D03*
%TO.P,U1,5,+*%
%TO.N,+5V*%
X12441000Y-43190000D03*
%TO.P,U1,12*%
%TO.N,N/C*%
X7361000Y-50810000D03*
%TO.P,U1,6,-*%
%TO.N,Net-(R2-Pad1)*%
X14981000Y-43190000D03*
%TO.P,U1,13*%
%TO.N,N/C*%
X4821000Y-50810000D03*
%TO.P,U1,7*%
%TO.N,Net-(J5-Pad2)*%
X17521000Y-43190000D03*
%TO.P,U1,14*%
%TO.N,N/C*%
X2281000Y-50810000D03*
%TD*%
D12*
%TO.P,RV3,*%
%TO.N,*%
X14800000Y-90681000D03*
X5200000Y-90681000D03*
D13*
%TO.P,RV3,1,1*%
%TO.N,GND*%
X7500000Y-98181000D03*
D14*
%TO.P,RV3,2,2*%
%TO.N,Net-(J3-PadT)*%
X10000000Y-98181000D03*
%TO.P,RV3,3,3*%
%TO.N,/sheet5FE67A34/Signal*%
X12500000Y-98181000D03*
%TD*%
D12*
%TO.P,RV2,*%
%TO.N,*%
X14800000Y-75441000D03*
X5200000Y-75441000D03*
D13*
%TO.P,RV2,1,1*%
%TO.N,GND*%
X7500000Y-82941000D03*
D14*
%TO.P,RV2,2,2*%
%TO.N,Net-(J2-PadT)*%
X10000000Y-82941000D03*
%TO.P,RV2,3,3*%
%TO.N,/sheet5FE679DC/Signal*%
X12500000Y-82941000D03*
%TD*%
%TO.P,RV1,3,3*%
%TO.N,/InputSignal/Signal*%
X12500000Y-67701000D03*
%TO.P,RV1,2,2*%
%TO.N,Net-(J1-PadT)*%
X10000000Y-67701000D03*
D13*
%TO.P,RV1,1,1*%
%TO.N,GND*%
X7500000Y-67701000D03*
D12*
%TO.P,RV1,*%
%TO.N,*%
X5200000Y-60201000D03*
X14800000Y-60201000D03*
%TD*%
D15*
%TO.P,R6,1*%
%TO.N,Net-(R3-Pad1)*%
X9652000Y-54102000D03*
D11*
%TO.P,R6,2*%
%TO.N,Net-(J5-Pad3)*%
X17272000Y-54102000D03*
%TD*%
D15*
%TO.P,R5,1*%
%TO.N,Net-(R2-Pad1)*%
X9398000Y-36576000D03*
D11*
%TO.P,R5,2*%
%TO.N,Net-(J5-Pad2)*%
X17018000Y-36576000D03*
%TD*%
D15*
%TO.P,R4,1*%
%TO.N,Net-(R1-Pad1)*%
X9652000Y-39878000D03*
D11*
%TO.P,R4,2*%
%TO.N,Net-(J5-Pad1)*%
X2032000Y-39878000D03*
%TD*%
D15*
%TO.P,R3,1*%
%TO.N,Net-(R3-Pad1)*%
X17526000Y-83820000D03*
D11*
%TO.P,R3,2*%
%TO.N,/sheet5FE67A34/Signal*%
X17526000Y-91440000D03*
%TD*%
D15*
%TO.P,R2,1*%
%TO.N,Net-(R2-Pad1)*%
X2794000Y-75438000D03*
D11*
%TO.P,R2,2*%
%TO.N,/sheet5FE679DC/Signal*%
X2794000Y-83058000D03*
%TD*%
D15*
%TO.P,R1,1*%
%TO.N,Net-(R1-Pad1)*%
X17526000Y-63500000D03*
D11*
%TO.P,R1,2*%
%TO.N,/InputSignal/Signal*%
X17526000Y-71120000D03*
%TD*%
D16*
%TO.P,J4,1,Pin_1*%
%TO.N,-12V*%
X3043000Y-22337000D03*
D17*
%TO.P,J4,2,Pin_2*%
X5583000Y-22337000D03*
%TO.P,J4,3,Pin_3*%
%TO.N,GND*%
X3043000Y-19797000D03*
%TO.P,J4,4,Pin_4*%
X5583000Y-19797000D03*
%TO.P,J4,5,Pin_5*%
X3043000Y-17257000D03*
%TO.P,J4,6,Pin_6*%
X5583000Y-17257000D03*
%TO.P,J4,7,Pin_7*%
X3043000Y-14717000D03*
%TO.P,J4,8,Pin_8*%
X5583000Y-14717000D03*
%TO.P,J4,9,Pin_9*%
%TO.N,+12V*%
X3043000Y-12177000D03*
%TO.P,J4,10,Pin_10*%
X5583000Y-12177000D03*
%TO.P,J4,11,Pin_11*%
%TO.N,+5V*%
X3043000Y-9637000D03*
%TO.P,J4,12,Pin_12*%
X5583000Y-9637000D03*
%TO.P,J4,13,Pin_13*%
%TO.N,unconnected-(J4-Pad13)*%
X3043000Y-7097000D03*
%TO.P,J4,14,Pin_14*%
%TO.N,unconnected-(J4-Pad14)*%
X5583000Y-7097000D03*
%TO.P,J4,15,Pin_15*%
%TO.N,unconnected-(J4-Pad15)*%
X3043000Y-4557000D03*
%TO.P,J4,16,Pin_16*%
%TO.N,unconnected-(J4-Pad16)*%
X5583000Y-4557000D03*
%TD*%
D18*
%TO.P,J3,S*%
%TO.N,GND*%
X8460000Y-31080000D03*
D19*
X17860000Y-31080000D03*
D20*
%TO.P,J3,TN*%
%TO.N,N/C*%
X13160000Y-33780000D03*
%TO.P,J3,T*%
%TO.N,Net-(J3-PadT)*%
X13160000Y-25680000D03*
%TD*%
D18*
%TO.P,J2,S*%
%TO.N,GND*%
X8460000Y-19015000D03*
D19*
X17860000Y-19015000D03*
D20*
%TO.P,J2,TN*%
%TO.N,N/C*%
X13160000Y-21715000D03*
%TO.P,J2,T*%
%TO.N,Net-(J2-PadT)*%
X13160000Y-13615000D03*
%TD*%
D18*
%TO.P,J1,S*%
%TO.N,GND*%
X8460000Y-6950000D03*
D19*
X17860000Y-6950000D03*
D20*
%TO.P,J1,TN*%
%TO.N,N/C*%
X13160000Y-9650000D03*
%TO.P,J1,T*%
%TO.N,Net-(J1-PadT)*%
X13160000Y-1550000D03*
%TD*%
D17*
%TO.P,J5,4,Pin_4*%
%TO.N,+12V*%
X2540000Y-96520000D03*
%TO.P,J5,3,Pin_3*%
%TO.N,Net-(J5-Pad3)*%
X2540000Y-93980000D03*
%TO.P,J5,2,Pin_2*%
%TO.N,Net-(J5-Pad2)*%
X2540000Y-91440000D03*
D16*
%TO.P,J5,1,Pin_1*%
%TO.N,Net-(J5-Pad1)*%
X2540000Y-88900000D03*
%TD*%
D21*
%TO.N,Net-(R1-Pad1)*%
X12470200Y-47393000D03*
%TD*%
D22*
%TO.N,-12V*%
X9619700Y-49684700D02*
X9901000Y-49684700D01*
X3406400Y-43471400D02*
X9619700Y-49684700D01*
X3406400Y-23875700D02*
X3406400Y-43471400D01*
X3043000Y-23512300D02*
X3406400Y-23875700D01*
X3043000Y-22337000D02*
X3043000Y-23512300D01*
X9901000Y-50810000D02*
X9901000Y-49684700D01*
%TO.N,Net-(J5-Pad2)*%
X17521000Y-43190000D02*
X17521000Y-44315300D01*
X2540000Y-91440000D02*
X2540000Y-90264700D01*
X1731900Y-90264700D02*
X2540000Y-90264700D01*
X1364700Y-89897500D02*
X1731900Y-90264700D01*
X1364700Y-81768500D02*
X1364700Y-89897500D01*
X4256300Y-78876900D02*
X1364700Y-81768500D01*
X4256300Y-63532300D02*
X4256300Y-78876900D01*
X16395700Y-51392900D02*
X4256300Y-63532300D01*
X16395700Y-45440600D02*
X16395700Y-51392900D01*
X17521000Y-44315300D02*
X16395700Y-45440600D01*
%TO.N,Net-(J5-Pad3)*%
X11250000Y-61249300D02*
X17272000Y-55227300D01*
X11250000Y-68451200D02*
X11250000Y-61249300D01*
X13727800Y-70929000D02*
X11250000Y-68451200D01*
X13727800Y-84290900D02*
X13727800Y-70929000D01*
X4038700Y-93980000D02*
X13727800Y-84290900D01*
X2540000Y-93980000D02*
X4038700Y-93980000D01*
X17272000Y-54102000D02*
X17272000Y-55227300D01*
%TO.N,+12V*%
X6758300Y-35565900D02*
X6758300Y-12177000D01*
X9546400Y-38354000D02*
X6758300Y-35565900D01*
X9783100Y-38354000D02*
X9546400Y-38354000D01*
X10777400Y-39348300D02*
X9783100Y-38354000D01*
X10777400Y-41188300D02*
X10777400Y-39348300D01*
X9901000Y-42064700D02*
X10777400Y-41188300D01*
X9901000Y-43190000D02*
X9901000Y-42064700D01*
X6170700Y-12177000D02*
X6758300Y-12177000D01*
X6170700Y-12177000D02*
X5583000Y-12177000D01*
X5583000Y-12177000D02*
X3043000Y-12177000D01*
%TO.N,+5V*%
X12441000Y-43190000D02*
X11437800Y-43190000D01*
X8486300Y-43471400D02*
X8486300Y-43190000D01*
X9330200Y-44315300D02*
X8486300Y-43471400D01*
X10367300Y-44315300D02*
X9330200Y-44315300D01*
X11437800Y-43244800D02*
X10367300Y-44315300D01*
X11437800Y-43190000D02*
X11437800Y-43244800D01*
X7361000Y-43190000D02*
X8486300Y-43190000D01*
%TO.N,Net-(J3-PadT)*%
X10000000Y-88979700D02*
X10000000Y-98181000D01*
X18668400Y-80311300D02*
X10000000Y-88979700D01*
X18668400Y-34679100D02*
X18668400Y-80311300D01*
X13160000Y-29170700D02*
X18668400Y-34679100D01*
X13160000Y-25680000D02*
X13160000Y-29170700D01*
%TO.N,Net-(R3-Pad1)*%
X13855700Y-51091300D02*
X13855700Y-50810000D01*
X10845000Y-54102000D02*
X13855700Y-51091300D01*
X9652000Y-54102000D02*
X10845000Y-54102000D01*
X14981000Y-50810000D02*
X13855700Y-50810000D01*
%TO.N,Net-(R2-Pad1)*%
X14981000Y-46218400D02*
X14981000Y-43190000D01*
X11171000Y-50028400D02*
X14981000Y-46218400D01*
X11171000Y-51133500D02*
X11171000Y-50028400D01*
X9943900Y-52360600D02*
X11171000Y-51133500D01*
X9768500Y-52360600D02*
X9943900Y-52360600D01*
X2794000Y-59335100D02*
X9768500Y-52360600D01*
X2794000Y-75438000D02*
X2794000Y-59335100D01*
X14886700Y-42064700D02*
X14981000Y-42064700D01*
X9398000Y-36576000D02*
X14886700Y-42064700D01*
X14981000Y-43190000D02*
X14981000Y-42064700D01*
%TO.N,/sheet5FE679DC/Signal*%
X11269600Y-84171400D02*
X12500000Y-82941000D01*
X5032700Y-84171400D02*
X11269600Y-84171400D01*
X3919300Y-83058000D02*
X5032700Y-84171400D01*
X2794000Y-83058000D02*
X3919300Y-83058000D01*
%TO.N,Net-(R1-Pad1)*%
X5946300Y-42992900D02*
X5946300Y-43190000D01*
X9061200Y-39878000D02*
X5946300Y-42992900D01*
X9652000Y-39878000D02*
X9061200Y-39878000D01*
X9972400Y-47393000D02*
X5769400Y-43190000D01*
X12470200Y-47393000D02*
X9972400Y-47393000D01*
X4821000Y-43190000D02*
X5769400Y-43190000D01*
X5769400Y-43190000D02*
X5946300Y-43190000D01*
%TO.N,/InputSignal/Signal*%
X15919000Y-71120000D02*
X12500000Y-67701000D01*
X17526000Y-71120000D02*
X15919000Y-71120000D01*
%TD*%
%TA.AperFunction,Conductor*%
%TO.N,GND*%
G36*
X9284532Y-89734238D02*
G01*
X9341368Y-89776785D01*
X9366179Y-89843305D01*
X9366500Y-89852294D01*
X9366500Y-96846319D01*
X9346498Y-96914440D01*
X9298679Y-96958083D01*
X9246872Y-96985052D01*
X9225212Y-97001315D01*
X9098583Y-97096391D01*
X9061655Y-97124117D01*
X9061066Y-97123333D01*
X9001346Y-97151484D01*
X8930955Y-97142231D01*
X8876741Y-97096391D01*
X8863925Y-97071224D01*
X8853323Y-97042944D01*
X8844786Y-97027351D01*
X8768285Y-96925276D01*
X8755724Y-96912715D01*
X8653649Y-96836214D01*
X8638054Y-96827676D01*
X8517606Y-96782522D01*
X8502351Y-96778895D01*
X8451486Y-96773369D01*
X8444672Y-96773000D01*
X7772115Y-96773000D01*
X7756876Y-96777475D01*
X7755671Y-96778865D01*
X7754000Y-96786548D01*
X7754000Y-98309000D01*
X7733998Y-98377121D01*
X7680342Y-98423614D01*
X7628000Y-98435000D01*
X6110116Y-98435000D01*
X6094877Y-98439475D01*
X6093672Y-98440865D01*
X6092001Y-98448548D01*
X6092001Y-98934000D01*
X6071999Y-99002121D01*
X6018343Y-99048614D01*
X5966001Y-99060000D01*
X761000Y-99060000D01*
X692879Y-99039998D01*
X646386Y-98986342D01*
X635000Y-98934000D01*
X635000Y-97908885D01*
X6092000Y-97908885D01*
X6096475Y-97924124D01*
X6097865Y-97925329D01*
X6105548Y-97927000D01*
X7227885Y-97927000D01*
X7243124Y-97922525D01*
X7244329Y-97921135D01*
X7246000Y-97913452D01*
X7246000Y-96791116D01*
X7241525Y-96775877D01*
X7240135Y-96774672D01*
X7232452Y-96773001D01*
X6555331Y-96773001D01*
X6548510Y-96773371D01*
X6497648Y-96778895D01*
X6482396Y-96782521D01*
X6361946Y-96827676D01*
X6346351Y-96836214D01*
X6244276Y-96912715D01*
X6231715Y-96925276D01*
X6155214Y-97027351D01*
X6146676Y-97042946D01*
X6101522Y-97163394D01*
X6097895Y-97178649D01*
X6092369Y-97229514D01*
X6092000Y-97236328D01*
X6092000Y-97908885D01*
X635000Y-97908885D01*
X635000Y-90364984D01*
X655002Y-90296863D01*
X708658Y-90250370D01*
X778932Y-90240266D01*
X843512Y-90269760D01*
X857752Y-90284793D01*
X860158Y-90288862D01*
X874479Y-90303183D01*
X887319Y-90318216D01*
X899228Y-90334607D01*
X905334Y-90339658D01*
X933305Y-90362798D01*
X942084Y-90370788D01*
X1228243Y-90656947D01*
X1235787Y-90665237D01*
X1239900Y-90671718D01*
X1268231Y-90698322D01*
X1284212Y-90713330D01*
X1320178Y-90774543D01*
X1317339Y-90845483D01*
X1312247Y-90858230D01*
X1260688Y-90969305D01*
X1200989Y-91184570D01*
X1177251Y-91406695D01*
X1177548Y-91411848D01*
X1177548Y-91411851D01*
X1179171Y-91440000D01*
X1190110Y-91629715D01*
X1191247Y-91634761D01*
X1191248Y-91634767D01*
X1199955Y-91673402D01*
X1239222Y-91847639D01*
X1323266Y-92054616D01*
X1439987Y-92245088D01*
X1586250Y-92413938D01*
X1758126Y-92556632D01*
X1801586Y-92582028D01*
X1831445Y-92599476D01*
X1880169Y-92651114D01*
X1893240Y-92720897D01*
X1866509Y-92786669D01*
X1826055Y-92820027D01*
X1813607Y-92826507D01*
X1809474Y-92829610D01*
X1809471Y-92829612D01*
X1785247Y-92847800D01*
X1634965Y-92960635D01*
X1480629Y-93122138D01*
X1354743Y-93306680D01*
X1260688Y-93509305D01*
X1200989Y-93724570D01*
X1177251Y-93946695D01*
X1190110Y-94169715D01*
X1191247Y-94174761D01*
X1191248Y-94174767D01*
X1215304Y-94281508D01*
X1239222Y-94387639D01*
X1299014Y-94534890D01*
X1316662Y-94578351D01*
X1323266Y-94594616D01*
X1439987Y-94785088D01*
X1586250Y-94953938D01*
X1758126Y-95096632D01*
X1828595Y-95137811D01*
X1831445Y-95139476D01*
X1880169Y-95191114D01*
X1893240Y-95260897D01*
X1866509Y-95326669D01*
X1826055Y-95360027D01*
X1813607Y-95366507D01*
X1809474Y-95369610D01*
X1809471Y-95369612D01*
X1785247Y-95387800D01*
X1634965Y-95500635D01*
X1480629Y-95662138D01*
X1354743Y-95846680D01*
X1260688Y-96049305D01*
X1200989Y-96264570D01*
X1177251Y-96486695D01*
X1177548Y-96491848D01*
X1177548Y-96491851D01*
X1183011Y-96586590D01*
X1190110Y-96709715D01*
X1191247Y-96714761D01*
X1191248Y-96714767D01*
X1206518Y-96782521D01*
X1239222Y-96927639D01*
X1277461Y-97021811D01*
X1320521Y-97127855D01*
X1323266Y-97134616D01*
X1331074Y-97147358D01*
X1419444Y-97291564D01*
X1439987Y-97325088D01*
X1586250Y-97493938D01*
X1758126Y-97636632D01*
X1951000Y-97749338D01*
X2159692Y-97829030D01*
X2164760Y-97830061D01*
X2164763Y-97830062D01*
X2272017Y-97851883D01*
X2378597Y-97873567D01*
X2383772Y-97873757D01*
X2383774Y-97873757D01*
X2596673Y-97881564D01*
X2596677Y-97881564D01*
X2601837Y-97881753D01*
X2606957Y-97881097D01*
X2606959Y-97881097D01*
X2818288Y-97854025D01*
X2818289Y-97854025D01*
X2823416Y-97853368D01*
X2828366Y-97851883D01*
X3032429Y-97790661D01*
X3032434Y-97790659D01*
X3037384Y-97789174D01*
X3237994Y-97690896D01*
X3419860Y-97561173D01*
X3578096Y-97403489D01*
X3635927Y-97323009D01*
X3705435Y-97226277D01*
X3708453Y-97222077D01*
X3729917Y-97178649D01*
X3805136Y-97026453D01*
X3805137Y-97026451D01*
X3807430Y-97021811D01*
X3872370Y-96808069D01*
X3901529Y-96586590D01*
X3903156Y-96520000D01*
X3884852Y-96297361D01*
X3830431Y-96080702D01*
X3741354Y-95875840D01*
X3620014Y-95688277D01*
X3469670Y-95523051D01*
X3465619Y-95519852D01*
X3465615Y-95519848D01*
X3298414Y-95387800D01*
X3298410Y-95387798D01*
X3294359Y-95384598D01*
X3253053Y-95361796D01*
X3203084Y-95311364D01*
X3188312Y-95241921D01*
X3213428Y-95175516D01*
X3240780Y-95148909D01*
X3284603Y-95117650D01*
X3419860Y-95021173D01*
X3578096Y-94863489D01*
X3637594Y-94780689D01*
X3705435Y-94686277D01*
X3708453Y-94682077D01*
X3710746Y-94677437D01*
X3712446Y-94674608D01*
X3764674Y-94626518D01*
X3820451Y-94613500D01*
X3959933Y-94613500D01*
X3971116Y-94614027D01*
X3978609Y-94615702D01*
X3986535Y-94615453D01*
X3986536Y-94615453D01*
X4046686Y-94613562D01*
X4050645Y-94613500D01*
X4078556Y-94613500D01*
X4082491Y-94613003D01*
X4082556Y-94612995D01*
X4094393Y-94612062D01*
X4126651Y-94611048D01*
X4130670Y-94610922D01*
X4138589Y-94610673D01*
X4158043Y-94605021D01*
X4177400Y-94601013D01*
X4189630Y-94599468D01*
X4189631Y-94599468D01*
X4197497Y-94598474D01*
X4204868Y-94595555D01*
X4204870Y-94595555D01*
X4238612Y-94582196D01*
X4249842Y-94578351D01*
X4284683Y-94568229D01*
X4284684Y-94568229D01*
X4292293Y-94566018D01*
X4299112Y-94561985D01*
X4299117Y-94561983D01*
X4309728Y-94555707D01*
X4327476Y-94547012D01*
X4346317Y-94539552D01*
X4382087Y-94513564D01*
X4392007Y-94507048D01*
X4423235Y-94488580D01*
X4423238Y-94488578D01*
X4430062Y-94484542D01*
X4444383Y-94470221D01*
X4459417Y-94457380D01*
X4469394Y-94450131D01*
X4475807Y-94445472D01*
X4503998Y-94411395D01*
X4511988Y-94402616D01*
X9151405Y-89763199D01*
X9213717Y-89729173D01*
X9284532Y-89734238D01*
G37*
%TD.AperFunction*%
%TA.AperFunction,Conductor*%
G36*
X16848678Y-51939993D02*
G01*
X16863408Y-51946933D01*
X16864251Y-51947523D01*
X17071757Y-52044284D01*
X17077065Y-52045706D01*
X17077067Y-52045707D01*
X17287598Y-52102119D01*
X17287600Y-52102119D01*
X17292913Y-52103543D01*
X17521000Y-52123498D01*
X17749087Y-52103543D01*
X17754400Y-52102119D01*
X17754402Y-52102119D01*
X17876289Y-52069459D01*
X17947265Y-52071149D01*
X18006061Y-52110943D01*
X18034009Y-52176207D01*
X18034900Y-52191166D01*
X18034900Y-52816196D01*
X18014898Y-52884317D01*
X17961242Y-52930810D01*
X17890968Y-52940914D01*
X17855652Y-52930392D01*
X17721243Y-52867716D01*
X17715935Y-52866294D01*
X17715933Y-52866293D01*
X17505402Y-52809881D01*
X17505400Y-52809881D01*
X17500087Y-52808457D01*
X17272000Y-52788502D01*
X17043913Y-52808457D01*
X17038600Y-52809881D01*
X17038598Y-52809881D01*
X16828067Y-52866293D01*
X16828065Y-52866294D01*
X16822757Y-52867716D01*
X16817776Y-52870039D01*
X16817775Y-52870039D01*
X16620238Y-52962151D01*
X16620233Y-52962154D01*
X16615251Y-52964477D01*
X16532116Y-53022689D01*
X16432211Y-53092643D01*
X16432208Y-53092645D01*
X16427700Y-53095802D01*
X16265802Y-53257700D01*
X16134477Y-53445251D01*
X16132154Y-53450233D01*
X16132151Y-53450238D01*
X16040039Y-53647775D01*
X16037716Y-53652757D01*
X15978457Y-53873913D01*
X15958502Y-54102000D01*
X15978457Y-54330087D01*
X15979881Y-54335400D01*
X15979881Y-54335402D01*
X16032934Y-54533395D01*
X16037716Y-54551243D01*
X16040039Y-54556224D01*
X16040039Y-54556225D01*
X16132151Y-54753762D01*
X16132154Y-54753767D01*
X16134477Y-54758749D01*
X16265802Y-54946300D01*
X16372354Y-55052852D01*
X16406380Y-55115164D01*
X16401315Y-55185979D01*
X16372354Y-55231042D01*
X10857747Y-60745648D01*
X10849461Y-60753188D01*
X10842982Y-60757300D01*
X10837557Y-60763077D01*
X10796357Y-60806951D01*
X10793602Y-60809793D01*
X10773865Y-60829530D01*
X10771385Y-60832727D01*
X10763682Y-60841747D01*
X10733414Y-60873979D01*
X10729595Y-60880925D01*
X10729593Y-60880928D01*
X10723652Y-60891734D01*
X10712801Y-60908253D01*
X10700386Y-60924259D01*
X10697241Y-60931528D01*
X10697238Y-60931532D01*
X10682826Y-60964837D01*
X10677609Y-60975487D01*
X10656305Y-61014240D01*
X10654334Y-61021915D01*
X10654334Y-61021916D01*
X10651267Y-61033862D01*
X10644863Y-61052566D01*
X10636819Y-61071155D01*
X10635580Y-61078978D01*
X10635577Y-61078988D01*
X10629901Y-61114824D01*
X10627495Y-61126444D01*
X10616500Y-61169270D01*
X10616500Y-61189524D01*
X10614949Y-61209234D01*
X10611780Y-61229243D01*
X10612526Y-61237135D01*
X10615941Y-61273261D01*
X10616500Y-61285119D01*
X10616500Y-66246743D01*
X10596498Y-66314864D01*
X10542842Y-66361357D01*
X10472568Y-66371461D01*
X10448441Y-66365516D01*
X10365907Y-66336289D01*
X10365899Y-66336287D01*
X10361028Y-66334562D01*
X10355935Y-66333655D01*
X10355932Y-66333654D01*
X10138095Y-66294851D01*
X10138089Y-66294850D01*
X10133006Y-66293945D01*
X10055644Y-66293000D01*
X9906581Y-66291179D01*
X9906579Y-66291179D01*
X9901411Y-66291116D01*
X9672464Y-66326150D01*
X9452314Y-66398106D01*
X9447726Y-66400494D01*
X9447722Y-66400496D01*
X9251461Y-66502663D01*
X9246872Y-66505052D01*
X9242739Y-66508155D01*
X9242736Y-66508157D01*
X9065789Y-66641013D01*
X9061655Y-66644117D01*
X9061066Y-66643333D01*
X9001346Y-66671484D01*
X8930955Y-66662231D01*
X8876741Y-66616391D01*
X8863925Y-66591224D01*
X8853323Y-66562944D01*
X8844786Y-66547351D01*
X8768285Y-66445276D01*
X8755724Y-66432715D01*
X8653649Y-66356214D01*
X8638054Y-66347676D01*
X8517606Y-66302522D01*
X8502351Y-66298895D01*
X8451486Y-66293369D01*
X8444672Y-66293000D01*
X7772115Y-66293000D01*
X7756876Y-66297475D01*
X7755671Y-66298865D01*
X7754000Y-66306548D01*
X7754000Y-69090884D01*
X7758475Y-69106123D01*
X7759865Y-69107328D01*
X7767548Y-69108999D01*
X8444669Y-69108999D01*
X8451490Y-69108629D01*
X8502352Y-69103105D01*
X8517604Y-69099479D01*
X8638054Y-69054324D01*
X8653649Y-69045786D01*
X8755724Y-68969285D01*
X8768285Y-68956724D01*
X8844786Y-68854649D01*
X8853325Y-68839052D01*
X8865278Y-68807167D01*
X8907919Y-68750402D01*
X8974480Y-68725702D01*
X9043829Y-68740909D01*
X9063741Y-68754448D01*
X9189349Y-68858730D01*
X9389322Y-68975584D01*
X9605694Y-69058209D01*
X9610760Y-69059240D01*
X9610761Y-69059240D01*
X9663846Y-69070040D01*
X9832656Y-69104385D01*
X9963324Y-69109176D01*
X10058949Y-69112683D01*
X10058953Y-69112683D01*
X10064113Y-69112872D01*
X10069233Y-69112216D01*
X10069235Y-69112216D01*
X10168668Y-69099478D01*
X10293847Y-69083442D01*
X10298795Y-69081957D01*
X10298802Y-69081956D01*
X10510747Y-69018369D01*
X10515690Y-69016886D01*
X10612856Y-68969285D01*
X10706054Y-68923628D01*
X10776028Y-68911622D01*
X10841385Y-68939352D01*
X10850581Y-68947685D01*
X13057395Y-71154499D01*
X13091421Y-71216811D01*
X13094300Y-71243594D01*
X13094300Y-81478882D01*
X13074298Y-81547003D01*
X13020642Y-81593496D01*
X12950368Y-81603600D01*
X12926240Y-81597655D01*
X12865903Y-81576288D01*
X12865899Y-81576287D01*
X12861028Y-81574562D01*
X12855935Y-81573655D01*
X12855932Y-81573654D01*
X12638095Y-81534851D01*
X12638089Y-81534850D01*
X12633006Y-81533945D01*
X12555644Y-81533000D01*
X12406581Y-81531179D01*
X12406579Y-81531179D01*
X12401411Y-81531116D01*
X12172464Y-81566150D01*
X11952314Y-81638106D01*
X11947726Y-81640494D01*
X11947722Y-81640496D01*
X11855565Y-81688470D01*
X11746872Y-81745052D01*
X11742739Y-81748155D01*
X11742736Y-81748157D01*
X11565790Y-81881012D01*
X11561655Y-81884117D01*
X11529131Y-81918151D01*
X11463020Y-81987333D01*
X11401639Y-82051564D01*
X11354836Y-82120174D01*
X11299927Y-82165175D01*
X11229402Y-82173346D01*
X11165655Y-82142092D01*
X11144959Y-82117609D01*
X11122577Y-82083013D01*
X11122576Y-82083012D01*
X11119764Y-82078665D01*
X10963887Y-81907358D01*
X10959836Y-81904159D01*
X10959832Y-81904155D01*
X10786177Y-81767011D01*
X10786172Y-81767008D01*
X10782123Y-81763810D01*
X10777607Y-81761317D01*
X10777604Y-81761315D01*
X10583879Y-81654373D01*
X10583875Y-81654371D01*
X10579355Y-81651876D01*
X10574486Y-81650152D01*
X10574482Y-81650150D01*
X10365903Y-81576288D01*
X10365899Y-81576287D01*
X10361028Y-81574562D01*
X10355935Y-81573655D01*
X10355932Y-81573654D01*
X10138095Y-81534851D01*
X10138089Y-81534850D01*
X10133006Y-81533945D01*
X10055644Y-81533000D01*
X9906581Y-81531179D01*
X9906579Y-81531179D01*
X9901411Y-81531116D01*
X9672464Y-81566150D01*
X9452314Y-81638106D01*
X9447726Y-81640494D01*
X9447722Y-81640496D01*
X9355565Y-81688470D01*
X9246872Y-81745052D01*
X9242739Y-81748155D01*
X9242736Y-81748157D01*
X9065790Y-81881012D01*
X9061655Y-81884117D01*
X9061066Y-81883333D01*
X9001346Y-81911484D01*
X8930955Y-81902231D01*
X8876741Y-81856391D01*
X8863925Y-81831224D01*
X8853323Y-81802944D01*
X8844786Y-81787351D01*
X8768285Y-81685276D01*
X8755724Y-81672715D01*
X8653649Y-81596214D01*
X8638054Y-81587676D01*
X8517606Y-81542522D01*
X8502351Y-81538895D01*
X8451486Y-81533369D01*
X8444672Y-81533000D01*
X7772115Y-81533000D01*
X7756876Y-81537475D01*
X7755671Y-81538865D01*
X7754000Y-81546548D01*
X7754000Y-83069000D01*
X7733998Y-83137121D01*
X7680342Y-83183614D01*
X7628000Y-83195000D01*
X6110116Y-83195000D01*
X6094877Y-83199475D01*
X6093672Y-83200865D01*
X6092001Y-83208548D01*
X6092001Y-83411900D01*
X6071999Y-83480021D01*
X6018343Y-83526514D01*
X5966001Y-83537900D01*
X5347295Y-83537900D01*
X5279174Y-83517898D01*
X5258200Y-83500995D01*
X4426090Y-82668885D01*
X6092000Y-82668885D01*
X6096475Y-82684124D01*
X6097865Y-82685329D01*
X6105548Y-82687000D01*
X7227885Y-82687000D01*
X7243124Y-82682525D01*
X7244329Y-82681135D01*
X7246000Y-82673452D01*
X7246000Y-81551116D01*
X7241525Y-81535877D01*
X7240135Y-81534672D01*
X7232452Y-81533001D01*
X6555331Y-81533001D01*
X6548510Y-81533371D01*
X6497648Y-81538895D01*
X6482396Y-81542521D01*
X6361946Y-81587676D01*
X6346351Y-81596214D01*
X6244276Y-81672715D01*
X6231715Y-81685276D01*
X6155214Y-81787351D01*
X6146676Y-81802946D01*
X6101522Y-81923394D01*
X6097895Y-81938649D01*
X6092369Y-81989514D01*
X6092000Y-81996328D01*
X6092000Y-82668885D01*
X4426090Y-82668885D01*
X4422952Y-82665747D01*
X4415412Y-82657461D01*
X4411300Y-82650982D01*
X4361648Y-82604356D01*
X4358807Y-82601602D01*
X4339070Y-82581865D01*
X4335873Y-82579385D01*
X4326851Y-82571680D01*
X4300400Y-82546841D01*
X4294621Y-82541414D01*
X4287675Y-82537595D01*
X4287672Y-82537593D01*
X4276866Y-82531652D01*
X4260347Y-82520801D01*
X4256001Y-82517430D01*
X4244341Y-82508386D01*
X4237072Y-82505241D01*
X4237068Y-82505238D01*
X4203763Y-82490826D01*
X4193113Y-82485609D01*
X4154360Y-82464305D01*
X4134737Y-82459267D01*
X4116034Y-82452863D01*
X4104720Y-82447967D01*
X4104719Y-82447967D01*
X4097445Y-82444819D01*
X4089622Y-82443580D01*
X4089612Y-82443577D01*
X4053776Y-82437901D01*
X4042156Y-82435495D01*
X4007011Y-82426472D01*
X4007010Y-82426472D01*
X3999330Y-82424500D01*
X3996777Y-82424500D01*
X3933892Y-82397075D01*
X3911545Y-82372720D01*
X3904863Y-82363176D01*
X3841812Y-82273131D01*
X3803357Y-82218211D01*
X3803355Y-82218208D01*
X3800198Y-82213700D01*
X3638300Y-82051802D01*
X3633792Y-82048645D01*
X3633789Y-82048643D01*
X3476701Y-81938649D01*
X3450749Y-81920477D01*
X3445767Y-81918154D01*
X3445762Y-81918151D01*
X3248225Y-81826039D01*
X3248224Y-81826039D01*
X3243243Y-81823716D01*
X3237935Y-81822294D01*
X3237933Y-81822293D01*
X3027402Y-81765881D01*
X3027400Y-81765881D01*
X3022087Y-81764457D01*
X2794000Y-81744502D01*
X2580627Y-81763170D01*
X2511023Y-81749181D01*
X2460031Y-81699782D01*
X2443840Y-81630656D01*
X2467592Y-81563750D01*
X2480551Y-81548554D01*
X4648553Y-79380552D01*
X4656839Y-79373012D01*
X4663318Y-79368900D01*
X4709944Y-79319248D01*
X4712698Y-79316407D01*
X4732435Y-79296670D01*
X4734915Y-79293473D01*
X4742620Y-79284451D01*
X4767459Y-79258000D01*
X4772886Y-79252221D01*
X4776705Y-79245275D01*
X4776707Y-79245272D01*
X4782648Y-79234466D01*
X4793499Y-79217947D01*
X4801058Y-79208201D01*
X4805914Y-79201941D01*
X4809059Y-79194672D01*
X4809062Y-79194668D01*
X4823474Y-79161363D01*
X4828691Y-79150713D01*
X4849995Y-79111960D01*
X4855033Y-79092337D01*
X4861437Y-79073634D01*
X4866333Y-79062320D01*
X4866333Y-79062319D01*
X4869481Y-79055045D01*
X4870720Y-79047222D01*
X4870723Y-79047212D01*
X4876399Y-79011376D01*
X4878805Y-78999756D01*
X4887828Y-78964611D01*
X4887828Y-78964610D01*
X4889800Y-78956930D01*
X4889800Y-78936676D01*
X4891351Y-78916965D01*
X4893280Y-78904786D01*
X4894520Y-78896957D01*
X4890359Y-78852938D01*
X4889800Y-78841081D01*
X4889800Y-77461710D01*
X4909802Y-77393589D01*
X4963458Y-77347096D01*
X5033880Y-77337014D01*
X5139664Y-77352352D01*
X5139667Y-77352352D01*
X5145604Y-77353213D01*
X5356899Y-77343433D01*
X5509219Y-77306724D01*
X5556701Y-77295281D01*
X5556703Y-77295280D01*
X5562534Y-77293875D01*
X5567992Y-77291393D01*
X5567996Y-77291392D01*
X5683041Y-77239084D01*
X5755087Y-77206326D01*
X5927611Y-77083946D01*
X6073881Y-76931150D01*
X6188620Y-76753452D01*
X6220758Y-76673707D01*
X6265442Y-76562832D01*
X6265443Y-76562829D01*
X6267686Y-76557263D01*
X6308228Y-76349663D01*
X6308500Y-76344101D01*
X6308500Y-74588154D01*
X6293452Y-74430434D01*
X6233908Y-74227466D01*
X6137058Y-74039420D01*
X6006396Y-73873080D01*
X6001865Y-73869148D01*
X6001862Y-73869145D01*
X5851167Y-73738379D01*
X5846637Y-73734448D01*
X5841451Y-73731448D01*
X5841447Y-73731445D01*
X5668742Y-73631533D01*
X5663546Y-73628527D01*
X5463729Y-73559139D01*
X5457794Y-73558278D01*
X5457792Y-73558278D01*
X5260336Y-73529648D01*
X5260333Y-73529648D01*
X5254396Y-73528787D01*
X5043101Y-73538567D01*
X5037273Y-73539972D01*
X5033552Y-73540501D01*
X4963292Y-73530296D01*
X4909704Y-73483726D01*
X4889800Y-73415758D01*
X4889800Y-68645669D01*
X6092001Y-68645669D01*
X6092371Y-68652490D01*
X6097895Y-68703352D01*
X6101521Y-68718604D01*
X6146676Y-68839054D01*
X6155214Y-68854649D01*
X6231715Y-68956724D01*
X6244276Y-68969285D01*
X6346351Y-69045786D01*
X6361946Y-69054324D01*
X6482394Y-69099478D01*
X6497649Y-69103105D01*
X6548514Y-69108631D01*
X6555328Y-69109000D01*
X7227885Y-69109000D01*
X7243124Y-69104525D01*
X7244329Y-69103135D01*
X7246000Y-69095452D01*
X7246000Y-67973115D01*
X7241525Y-67957876D01*
X7240135Y-67956671D01*
X7232452Y-67955000D01*
X6110116Y-67955000D01*
X6094877Y-67959475D01*
X6093672Y-67960865D01*
X6092001Y-67968548D01*
X6092001Y-68645669D01*
X4889800Y-68645669D01*
X4889800Y-67428885D01*
X6092000Y-67428885D01*
X6096475Y-67444124D01*
X6097865Y-67445329D01*
X6105548Y-67447000D01*
X7227885Y-67447000D01*
X7243124Y-67442525D01*
X7244329Y-67441135D01*
X7246000Y-67433452D01*
X7246000Y-66311116D01*
X7241525Y-66295877D01*
X7240135Y-66294672D01*
X7232452Y-66293001D01*
X6555331Y-66293001D01*
X6548510Y-66293371D01*
X6497648Y-66298895D01*
X6482396Y-66302521D01*
X6361946Y-66347676D01*
X6346351Y-66356214D01*
X6244276Y-66432715D01*
X6231715Y-66445276D01*
X6155214Y-66547351D01*
X6146676Y-66562946D01*
X6101522Y-66683394D01*
X6097895Y-66698649D01*
X6092369Y-66749514D01*
X6092000Y-66756328D01*
X6092000Y-67428885D01*
X4889800Y-67428885D01*
X4889800Y-63846894D01*
X4909802Y-63778773D01*
X4926705Y-63757799D01*
X16715551Y-51968954D01*
X16777863Y-51934928D01*
X16848678Y-51939993D01*
G37*
%TD.AperFunction*%
%TA.AperFunction,Conductor*%
G36*
X11337699Y-655002D02*
G01*
X11384192Y-708658D01*
X11394296Y-778932D01*
X11374160Y-831276D01*
X11307279Y-930805D01*
X11307276Y-930810D01*
X11304153Y-935458D01*
X11212993Y-1143124D01*
X11211683Y-1148581D01*
X11161360Y-1358192D01*
X11161359Y-1358198D01*
X11160050Y-1363651D01*
X11146994Y-1590069D01*
X11174241Y-1815219D01*
X11240927Y-2031987D01*
X11344946Y-2233519D01*
X11483009Y-2413447D01*
X11573850Y-2496106D01*
X11646605Y-2562308D01*
X11646608Y-2562310D01*
X11650752Y-2566081D01*
X11655503Y-2569062D01*
X11655504Y-2569062D01*
X11838118Y-2683616D01*
X11838122Y-2683618D01*
X11842874Y-2686599D01*
X12053301Y-2771190D01*
X12275382Y-2817181D01*
X12279993Y-2817447D01*
X12279994Y-2817447D01*
X12331121Y-2820395D01*
X12331125Y-2820395D01*
X12332944Y-2820500D01*
X13955535Y-2820500D01*
X13958322Y-2820251D01*
X13958328Y-2820251D01*
X14028506Y-2813987D01*
X14123895Y-2805474D01*
X14342651Y-2745630D01*
X14347709Y-2743218D01*
X14347713Y-2743216D01*
X14542284Y-2650410D01*
X14542285Y-2650409D01*
X14547351Y-2647993D01*
X14551913Y-2644715D01*
X14726966Y-2518926D01*
X14726968Y-2518924D01*
X14731526Y-2515649D01*
X14889355Y-2352783D01*
X14972845Y-2228536D01*
X15012721Y-2169195D01*
X15012724Y-2169190D01*
X15015847Y-2164542D01*
X15107007Y-1956876D01*
X15139728Y-1820583D01*
X15158640Y-1741808D01*
X15158641Y-1741802D01*
X15159950Y-1736349D01*
X15173006Y-1509931D01*
X15145759Y-1284781D01*
X15079073Y-1068013D01*
X14975054Y-866481D01*
X14971640Y-862032D01*
X14971637Y-862027D01*
X14952973Y-837703D01*
X14927373Y-771483D01*
X14941638Y-701934D01*
X14991240Y-651138D01*
X15052936Y-635000D01*
X18924000Y-635000D01*
X18992121Y-655002D01*
X19038614Y-708658D01*
X19050000Y-761000D01*
X19050000Y-5402096D01*
X19029998Y-5470217D01*
X18976342Y-5516710D01*
X18906068Y-5526814D01*
X18894850Y-5524678D01*
X18887350Y-5522894D01*
X18836486Y-5517369D01*
X18829672Y-5517000D01*
X18132115Y-5517000D01*
X18116876Y-5521475D01*
X18115671Y-5522865D01*
X18114000Y-5530548D01*
X18114000Y-8364884D01*
X18118475Y-8380123D01*
X18119865Y-8381328D01*
X18127548Y-8382999D01*
X18829669Y-8382999D01*
X18836490Y-8382629D01*
X18887350Y-8377105D01*
X18894855Y-8375321D01*
X18965755Y-8379024D01*
X19023398Y-8420470D01*
X19049483Y-8486501D01*
X19050000Y-8497904D01*
X19050000Y-17467096D01*
X19029998Y-17535217D01*
X18976342Y-17581710D01*
X18906068Y-17591814D01*
X18894850Y-17589678D01*
X18887350Y-17587894D01*
X18836486Y-17582369D01*
X18829672Y-17582000D01*
X18132115Y-17582000D01*
X18116876Y-17586475D01*
X18115671Y-17587865D01*
X18114000Y-17595548D01*
X18114000Y-20429884D01*
X18118475Y-20445123D01*
X18119865Y-20446328D01*
X18127548Y-20447999D01*
X18829669Y-20447999D01*
X18836490Y-20447629D01*
X18887350Y-20442105D01*
X18894855Y-20440321D01*
X18965755Y-20444024D01*
X19023398Y-20485470D01*
X19049483Y-20551501D01*
X19050000Y-20562904D01*
X19050000Y-29532096D01*
X19029998Y-29600217D01*
X18976342Y-29646710D01*
X18906068Y-29656814D01*
X18894850Y-29654678D01*
X18887350Y-29652894D01*
X18836486Y-29647369D01*
X18829672Y-29647000D01*
X18132115Y-29647000D01*
X18116876Y-29651475D01*
X18115671Y-29652865D01*
X18114000Y-29660548D01*
X18114000Y-32494884D01*
X18118475Y-32510123D01*
X18119865Y-32511328D01*
X18127548Y-32512999D01*
X18829669Y-32512999D01*
X18836490Y-32512629D01*
X18887350Y-32507105D01*
X18894855Y-32505321D01*
X18965755Y-32509024D01*
X19023398Y-32550470D01*
X19049483Y-32616501D01*
X19050000Y-32627904D01*
X19050000Y-33860606D01*
X19029998Y-33928727D01*
X18976342Y-33975220D01*
X18906068Y-33985324D01*
X18841488Y-33955830D01*
X18834905Y-33949701D01*
X17588866Y-32703662D01*
X17554840Y-32641350D01*
X17559905Y-32570535D01*
X17582736Y-32532055D01*
X17604329Y-32507135D01*
X17606000Y-32499452D01*
X17606000Y-31352115D01*
X17601525Y-31336876D01*
X17600135Y-31335671D01*
X17592452Y-31334000D01*
X16445116Y-31334000D01*
X16429877Y-31338474D01*
X16422777Y-31346669D01*
X16363051Y-31385053D01*
X16292055Y-31385053D01*
X16238457Y-31353252D01*
X15693090Y-30807885D01*
X16427000Y-30807885D01*
X16431475Y-30823124D01*
X16432865Y-30824329D01*
X16440548Y-30826000D01*
X17587885Y-30826000D01*
X17603124Y-30821525D01*
X17604329Y-30820135D01*
X17606000Y-30812452D01*
X17606000Y-29665116D01*
X17601525Y-29649877D01*
X17600135Y-29648672D01*
X17592452Y-29647001D01*
X16890331Y-29647001D01*
X16883510Y-29647371D01*
X16832648Y-29652895D01*
X16817396Y-29656521D01*
X16696946Y-29701676D01*
X16681351Y-29710214D01*
X16579276Y-29786715D01*
X16566715Y-29799276D01*
X16490214Y-29901351D01*
X16481676Y-29916946D01*
X16436522Y-30037394D01*
X16432895Y-30052649D01*
X16427369Y-30103514D01*
X16427000Y-30110328D01*
X16427000Y-30807885D01*
X15693090Y-30807885D01*
X13830405Y-28945200D01*
X13796379Y-28882888D01*
X13793500Y-28856105D01*
X13793500Y-27076500D01*
X13813502Y-27008379D01*
X13867158Y-26961886D01*
X13919500Y-26950500D01*
X13955535Y-26950500D01*
X13958322Y-26950251D01*
X13958328Y-26950251D01*
X14028506Y-26943987D01*
X14123895Y-26935474D01*
X14342651Y-26875630D01*
X14347709Y-26873218D01*
X14347713Y-26873216D01*
X14542284Y-26780410D01*
X14542285Y-26780409D01*
X14547351Y-26777993D01*
X14551913Y-26774715D01*
X14726966Y-26648926D01*
X14726968Y-26648924D01*
X14731526Y-26645649D01*
X14889355Y-26482783D01*
X14972845Y-26358536D01*
X15012721Y-26299195D01*
X15012724Y-26299190D01*
X15015847Y-26294542D01*
X15107007Y-26086876D01*
X15139728Y-25950583D01*
X15158640Y-25871808D01*
X15158641Y-25871802D01*
X15159950Y-25866349D01*
X15173006Y-25639931D01*
X15145759Y-25414781D01*
X15079073Y-25198013D01*
X14975054Y-24996481D01*
X14836991Y-24816553D01*
X14721071Y-24711074D01*
X14673395Y-24667692D01*
X14673392Y-24667690D01*
X14669248Y-24663919D01*
X14543895Y-24585285D01*
X14481882Y-24546384D01*
X14481878Y-24546382D01*
X14477126Y-24543401D01*
X14266699Y-24458810D01*
X14044618Y-24412819D01*
X14040007Y-24412553D01*
X14040006Y-24412553D01*
X13988879Y-24409605D01*
X13988875Y-24409605D01*
X13987056Y-24409500D01*
X12364465Y-24409500D01*
X12361678Y-24409749D01*
X12361672Y-24409749D01*
X12291494Y-24416013D01*
X12196105Y-24424526D01*
X11977349Y-24484370D01*
X11972291Y-24486782D01*
X11972287Y-24486784D01*
X11847334Y-24546384D01*
X11772649Y-24582007D01*
X11768088Y-24585284D01*
X11768087Y-24585285D01*
X11662806Y-24660938D01*
X11588474Y-24714351D01*
X11430645Y-24877217D01*
X11427518Y-24881871D01*
X11307279Y-25060805D01*
X11307276Y-25060810D01*
X11304153Y-25065458D01*
X11212993Y-25273124D01*
X11211683Y-25278581D01*
X11161360Y-25488192D01*
X11161359Y-25488198D01*
X11160050Y-25493651D01*
X11146994Y-25720069D01*
X11174241Y-25945219D01*
X11240927Y-26161987D01*
X11344946Y-26363519D01*
X11483009Y-26543447D01*
X11573850Y-26626106D01*
X11646605Y-26692308D01*
X11646608Y-26692310D01*
X11650752Y-26696081D01*
X11655503Y-26699062D01*
X11655504Y-26699062D01*
X11838118Y-26813616D01*
X11838122Y-26813618D01*
X11842874Y-26816599D01*
X12053301Y-26901190D01*
X12275382Y-26947181D01*
X12279993Y-26947447D01*
X12279994Y-26947447D01*
X12331121Y-26950395D01*
X12331125Y-26950395D01*
X12332944Y-26950500D01*
X12400500Y-26950500D01*
X12468621Y-26970502D01*
X12515114Y-27024158D01*
X12526500Y-27076500D01*
X12526500Y-29091933D01*
X12525973Y-29103116D01*
X12524298Y-29110609D01*
X12524547Y-29118535D01*
X12524547Y-29118536D01*
X12526438Y-29178686D01*
X12526500Y-29182645D01*
X12526500Y-29210556D01*
X12526997Y-29214490D01*
X12526997Y-29214491D01*
X12527005Y-29214556D01*
X12527938Y-29226393D01*
X12529327Y-29270589D01*
X12534978Y-29290039D01*
X12538987Y-29309400D01*
X12541526Y-29329497D01*
X12544445Y-29336868D01*
X12544445Y-29336870D01*
X12557804Y-29370612D01*
X12561649Y-29381842D01*
X12573982Y-29424293D01*
X12578015Y-29431112D01*
X12578017Y-29431117D01*
X12584293Y-29441728D01*
X12592988Y-29459476D01*
X12600448Y-29478317D01*
X12605110Y-29484733D01*
X12605110Y-29484734D01*
X12626436Y-29514087D01*
X12632952Y-29524007D01*
X12655458Y-29562062D01*
X12669779Y-29576383D01*
X12682619Y-29591416D01*
X12694528Y-29607807D01*
X12700634Y-29612858D01*
X12728605Y-29635998D01*
X12737384Y-29643988D01*
X17997995Y-34904600D01*
X18032021Y-34966912D01*
X18034900Y-34993695D01*
X18034900Y-35448614D01*
X18014898Y-35516735D01*
X17961242Y-35563228D01*
X17890968Y-35573332D01*
X17836629Y-35551827D01*
X17674749Y-35438477D01*
X17669767Y-35436154D01*
X17669762Y-35436151D01*
X17472225Y-35344039D01*
X17472224Y-35344039D01*
X17467243Y-35341716D01*
X17461935Y-35340294D01*
X17461933Y-35340293D01*
X17251402Y-35283881D01*
X17251400Y-35283881D01*
X17246087Y-35282457D01*
X17018000Y-35262502D01*
X16789913Y-35282457D01*
X16784600Y-35283881D01*
X16784598Y-35283881D01*
X16574067Y-35340293D01*
X16574065Y-35340294D01*
X16568757Y-35341716D01*
X16563776Y-35344039D01*
X16563775Y-35344039D01*
X16366238Y-35436151D01*
X16366233Y-35436154D01*
X16361251Y-35438477D01*
X16265091Y-35505809D01*
X16178211Y-35566643D01*
X16178208Y-35566645D01*
X16173700Y-35569802D01*
X16011802Y-35731700D01*
X15880477Y-35919251D01*
X15878154Y-35924233D01*
X15878151Y-35924238D01*
X15786039Y-36121775D01*
X15783716Y-36126757D01*
X15724457Y-36347913D01*
X15704502Y-36576000D01*
X15724457Y-36804087D01*
X15725881Y-36809400D01*
X15725881Y-36809402D01*
X15757375Y-36926936D01*
X15783716Y-37025243D01*
X15786039Y-37030224D01*
X15786039Y-37030225D01*
X15878151Y-37227762D01*
X15878154Y-37227767D01*
X15880477Y-37232749D01*
X16011802Y-37420300D01*
X16173700Y-37582198D01*
X16178208Y-37585355D01*
X16178211Y-37585357D01*
X16199371Y-37600173D01*
X16361251Y-37713523D01*
X16366233Y-37715846D01*
X16366238Y-37715849D01*
X16563775Y-37807961D01*
X16568757Y-37810284D01*
X16574065Y-37811706D01*
X16574067Y-37811707D01*
X16784598Y-37868119D01*
X16784600Y-37868119D01*
X16789913Y-37869543D01*
X17018000Y-37889498D01*
X17246087Y-37869543D01*
X17251400Y-37868119D01*
X17251402Y-37868119D01*
X17461933Y-37811707D01*
X17461935Y-37811706D01*
X17467243Y-37810284D01*
X17472225Y-37807961D01*
X17669762Y-37715849D01*
X17669767Y-37715846D01*
X17674749Y-37713523D01*
X17836629Y-37600173D01*
X17903903Y-37577485D01*
X17972764Y-37594770D01*
X18021348Y-37646540D01*
X18034900Y-37703386D01*
X18034900Y-41808834D01*
X18014898Y-41876955D01*
X17961242Y-41923448D01*
X17890968Y-41933552D01*
X17876289Y-41930541D01*
X17754402Y-41897881D01*
X17754400Y-41897881D01*
X17749087Y-41896457D01*
X17521000Y-41876502D01*
X17292913Y-41896457D01*
X17287600Y-41897881D01*
X17287598Y-41897881D01*
X17077067Y-41954293D01*
X17077065Y-41954294D01*
X17071757Y-41955716D01*
X17066776Y-41958039D01*
X17066775Y-41958039D01*
X16869238Y-42050151D01*
X16869233Y-42050154D01*
X16864251Y-42052477D01*
X16835720Y-42072455D01*
X16681211Y-42180643D01*
X16681208Y-42180645D01*
X16676700Y-42183802D01*
X16514802Y-42345700D01*
X16383477Y-42533251D01*
X16381154Y-42538233D01*
X16381151Y-42538238D01*
X16365195Y-42572457D01*
X16318278Y-42625742D01*
X16250001Y-42645203D01*
X16182041Y-42624661D01*
X16136805Y-42572457D01*
X16120849Y-42538238D01*
X16120846Y-42538233D01*
X16118523Y-42533251D01*
X15987198Y-42345700D01*
X15825300Y-42183802D01*
X15820792Y-42180645D01*
X15820789Y-42180643D01*
X15663607Y-42070583D01*
X15619279Y-42015126D01*
X15610127Y-41975282D01*
X15608723Y-41952963D01*
X15608723Y-41952962D01*
X15608225Y-41945050D01*
X15605679Y-41937213D01*
X15600506Y-41914069D01*
X15600468Y-41913765D01*
X15600467Y-41913760D01*
X15599474Y-41905903D01*
X15596558Y-41898538D01*
X15596557Y-41898534D01*
X15578801Y-41853689D01*
X15576129Y-41846270D01*
X15558764Y-41792825D01*
X15554514Y-41786128D01*
X15554350Y-41785869D01*
X15543585Y-41764742D01*
X15543471Y-41764454D01*
X15543468Y-41764449D01*
X15540552Y-41757083D01*
X15535896Y-41750675D01*
X15535893Y-41750669D01*
X15507542Y-41711648D01*
X15503092Y-41705101D01*
X15473000Y-41657682D01*
X15466993Y-41652041D01*
X15451312Y-41634254D01*
X15451134Y-41634009D01*
X15451132Y-41634007D01*
X15446472Y-41627593D01*
X15426263Y-41610874D01*
X15403204Y-41591797D01*
X15397270Y-41586566D01*
X15362102Y-41553542D01*
X15362099Y-41553540D01*
X15356321Y-41548114D01*
X15349097Y-41544142D01*
X15329494Y-41530819D01*
X15329254Y-41530620D01*
X15329247Y-41530616D01*
X15323144Y-41525567D01*
X15272324Y-41501653D01*
X15265292Y-41498071D01*
X15216060Y-41471005D01*
X15208381Y-41469033D01*
X15201008Y-41466114D01*
X15201883Y-41463903D01*
X15155155Y-41437251D01*
X10707152Y-36989248D01*
X10673126Y-36926936D01*
X10674541Y-36867541D01*
X10690118Y-36809409D01*
X10690120Y-36809398D01*
X10691543Y-36804087D01*
X10711498Y-36576000D01*
X10691543Y-36347913D01*
X10632284Y-36126757D01*
X10629961Y-36121775D01*
X10537849Y-35924238D01*
X10537846Y-35924233D01*
X10535523Y-35919251D01*
X10404198Y-35731700D01*
X10242300Y-35569802D01*
X10237792Y-35566645D01*
X10237789Y-35566643D01*
X10150909Y-35505809D01*
X10054749Y-35438477D01*
X10049767Y-35436154D01*
X10049762Y-35436151D01*
X9852225Y-35344039D01*
X9852224Y-35344039D01*
X9847243Y-35341716D01*
X9841935Y-35340294D01*
X9841933Y-35340293D01*
X9631402Y-35283881D01*
X9631400Y-35283881D01*
X9626087Y-35282457D01*
X9398000Y-35262502D01*
X9169913Y-35282457D01*
X9164600Y-35283881D01*
X9164598Y-35283881D01*
X8954067Y-35340293D01*
X8954065Y-35340294D01*
X8948757Y-35341716D01*
X8943776Y-35344039D01*
X8943775Y-35344039D01*
X8746238Y-35436151D01*
X8746233Y-35436154D01*
X8741251Y-35438477D01*
X8645091Y-35505809D01*
X8558211Y-35566643D01*
X8558208Y-35566645D01*
X8553700Y-35569802D01*
X8391802Y-35731700D01*
X8388645Y-35736208D01*
X8388643Y-35736211D01*
X8325550Y-35826317D01*
X8260477Y-35919251D01*
X8258154Y-35924233D01*
X8256092Y-35928655D01*
X8209173Y-35981939D01*
X8140896Y-36001399D01*
X8072936Y-35980856D01*
X8052803Y-35964498D01*
X7428705Y-35340400D01*
X7394679Y-35278088D01*
X7391800Y-35251305D01*
X7391800Y-33820069D01*
X11146994Y-33820069D01*
X11174241Y-34045219D01*
X11240927Y-34261987D01*
X11344946Y-34463519D01*
X11483009Y-34643447D01*
X11511248Y-34669142D01*
X11646605Y-34792308D01*
X11646608Y-34792310D01*
X11650752Y-34796081D01*
X11655503Y-34799062D01*
X11655504Y-34799062D01*
X11838118Y-34913616D01*
X11838122Y-34913618D01*
X11842874Y-34916599D01*
X12053301Y-35001190D01*
X12275382Y-35047181D01*
X12279993Y-35047447D01*
X12279994Y-35047447D01*
X12331121Y-35050395D01*
X12331125Y-35050395D01*
X12332944Y-35050500D01*
X13955535Y-35050500D01*
X13958322Y-35050251D01*
X13958328Y-35050251D01*
X14028506Y-35043987D01*
X14123895Y-35035474D01*
X14342651Y-34975630D01*
X14347709Y-34973218D01*
X14347713Y-34973216D01*
X14542284Y-34880410D01*
X14542285Y-34880409D01*
X14547351Y-34877993D01*
X14551913Y-34874715D01*
X14726966Y-34748926D01*
X14726968Y-34748924D01*
X14731526Y-34745649D01*
X14889355Y-34582783D01*
X14972845Y-34458536D01*
X15012721Y-34399195D01*
X15012724Y-34399190D01*
X15015847Y-34394542D01*
X15025970Y-34371483D01*
X15104750Y-34192017D01*
X15107007Y-34186876D01*
X15139728Y-34050583D01*
X15158640Y-33971808D01*
X15158641Y-33971802D01*
X15159950Y-33966349D01*
X15173006Y-33739931D01*
X15145759Y-33514781D01*
X15079073Y-33298013D01*
X14975054Y-33096481D01*
X14968088Y-33087402D01*
X14926592Y-33033324D01*
X14836991Y-32916553D01*
X14721071Y-32811074D01*
X14673395Y-32767692D01*
X14673392Y-32767690D01*
X14669248Y-32763919D01*
X14664496Y-32760938D01*
X14481882Y-32646384D01*
X14481878Y-32646382D01*
X14477126Y-32643401D01*
X14266699Y-32558810D01*
X14044618Y-32512819D01*
X14040007Y-32512553D01*
X14040006Y-32512553D01*
X13988879Y-32509605D01*
X13988875Y-32509605D01*
X13987056Y-32509500D01*
X12364465Y-32509500D01*
X12361678Y-32509749D01*
X12361672Y-32509749D01*
X12291494Y-32516013D01*
X12196105Y-32524526D01*
X11977349Y-32584370D01*
X11972291Y-32586782D01*
X11972287Y-32586784D01*
X11847334Y-32646384D01*
X11772649Y-32682007D01*
X11768088Y-32685284D01*
X11768087Y-32685285D01*
X11662806Y-32760938D01*
X11588474Y-32814351D01*
X11430645Y-32977217D01*
X11427518Y-32981871D01*
X11307279Y-33160805D01*
X11307276Y-33160810D01*
X11304153Y-33165458D01*
X11212993Y-33373124D01*
X11211683Y-33378581D01*
X11161360Y-33588192D01*
X11161359Y-33588198D01*
X11160050Y-33593651D01*
X11146994Y-33820069D01*
X7391800Y-33820069D01*
X7391800Y-33212665D01*
X7411802Y-33144544D01*
X7465458Y-33098051D01*
X7530108Y-33087613D01*
X7530117Y-33087447D01*
X7530878Y-33087488D01*
X7531412Y-33087402D01*
X7533524Y-33087632D01*
X7540328Y-33088000D01*
X8187885Y-33088000D01*
X8203124Y-33083525D01*
X8204329Y-33082135D01*
X8206000Y-33074452D01*
X8206000Y-33069884D01*
X8714000Y-33069884D01*
X8718475Y-33085123D01*
X8719865Y-33086328D01*
X8727548Y-33087999D01*
X9379669Y-33087999D01*
X9386490Y-33087629D01*
X9437352Y-33082105D01*
X9452604Y-33078479D01*
X9573054Y-33033324D01*
X9588649Y-33024786D01*
X9690724Y-32948285D01*
X9703285Y-32935724D01*
X9779786Y-32833649D01*
X9788324Y-32818054D01*
X9833478Y-32697606D01*
X9837105Y-32682351D01*
X9842631Y-32631486D01*
X9843000Y-32624672D01*
X9843000Y-31352115D01*
X9838525Y-31336876D01*
X9837135Y-31335671D01*
X9829452Y-31334000D01*
X8732115Y-31334000D01*
X8716876Y-31338475D01*
X8715671Y-31339865D01*
X8714000Y-31347548D01*
X8714000Y-33069884D01*
X8206000Y-33069884D01*
X8206000Y-30807885D01*
X8714000Y-30807885D01*
X8718475Y-30823124D01*
X8719865Y-30824329D01*
X8727548Y-30826000D01*
X9824884Y-30826000D01*
X9840123Y-30821525D01*
X9841328Y-30820135D01*
X9842999Y-30812452D01*
X9842999Y-29535331D01*
X9842629Y-29528510D01*
X9837105Y-29477648D01*
X9833479Y-29462396D01*
X9788324Y-29341946D01*
X9779786Y-29326351D01*
X9703285Y-29224276D01*
X9690724Y-29211715D01*
X9588649Y-29135214D01*
X9573054Y-29126676D01*
X9452606Y-29081522D01*
X9437351Y-29077895D01*
X9386486Y-29072369D01*
X9379672Y-29072000D01*
X8732115Y-29072000D01*
X8716876Y-29076475D01*
X8715671Y-29077865D01*
X8714000Y-29085548D01*
X8714000Y-30807885D01*
X8206000Y-30807885D01*
X8206000Y-29090116D01*
X8201525Y-29074877D01*
X8200135Y-29073672D01*
X8192452Y-29072001D01*
X7540331Y-29072001D01*
X7533521Y-29072370D01*
X7531402Y-29072600D01*
X7530908Y-29072511D01*
X7530123Y-29072554D01*
X7530113Y-29072369D01*
X7461520Y-29060068D01*
X7409507Y-29011745D01*
X7391800Y-28947336D01*
X7391800Y-21755069D01*
X11146994Y-21755069D01*
X11174241Y-21980219D01*
X11240927Y-22196987D01*
X11344946Y-22398519D01*
X11483009Y-22578447D01*
X11573850Y-22661106D01*
X11646605Y-22727308D01*
X11646608Y-22727310D01*
X11650752Y-22731081D01*
X11655503Y-22734062D01*
X11655504Y-22734062D01*
X11838118Y-22848616D01*
X11838122Y-22848618D01*
X11842874Y-22851599D01*
X12053301Y-22936190D01*
X12275382Y-22982181D01*
X12279993Y-22982447D01*
X12279994Y-22982447D01*
X12331121Y-22985395D01*
X12331125Y-22985395D01*
X12332944Y-22985500D01*
X13955535Y-22985500D01*
X13958322Y-22985251D01*
X13958328Y-22985251D01*
X14028506Y-22978987D01*
X14123895Y-22970474D01*
X14342651Y-22910630D01*
X14347709Y-22908218D01*
X14347713Y-22908216D01*
X14542284Y-22815410D01*
X14542285Y-22815409D01*
X14547351Y-22812993D01*
X14551913Y-22809715D01*
X14726966Y-22683926D01*
X14726968Y-22683924D01*
X14731526Y-22680649D01*
X14889355Y-22517783D01*
X14972845Y-22393536D01*
X15012721Y-22334195D01*
X15012724Y-22334190D01*
X15015847Y-22329542D01*
X15107007Y-22121876D01*
X15139728Y-21985583D01*
X15158640Y-21906808D01*
X15158641Y-21906802D01*
X15159950Y-21901349D01*
X15173006Y-21674931D01*
X15145759Y-21449781D01*
X15131080Y-21402064D01*
X15080722Y-21238374D01*
X15079073Y-21233013D01*
X14975054Y-21031481D01*
X14968088Y-21022402D01*
X14954645Y-21004884D01*
X14836991Y-20851553D01*
X14721071Y-20746074D01*
X14673395Y-20702692D01*
X14673392Y-20702690D01*
X14669248Y-20698919D01*
X14664496Y-20695938D01*
X14481882Y-20581384D01*
X14481878Y-20581382D01*
X14477126Y-20578401D01*
X14266699Y-20493810D01*
X14044618Y-20447819D01*
X14040007Y-20447553D01*
X14040006Y-20447553D01*
X13988879Y-20444605D01*
X13988875Y-20444605D01*
X13987056Y-20444500D01*
X12364465Y-20444500D01*
X12361678Y-20444749D01*
X12361672Y-20444749D01*
X12291494Y-20451013D01*
X12196105Y-20459526D01*
X11977349Y-20519370D01*
X11972291Y-20521782D01*
X11972287Y-20521784D01*
X11777716Y-20614590D01*
X11772649Y-20617007D01*
X11768088Y-20620284D01*
X11768087Y-20620285D01*
X11662806Y-20695938D01*
X11588474Y-20749351D01*
X11584569Y-20753381D01*
X11434858Y-20907870D01*
X11430645Y-20912217D01*
X11427518Y-20916871D01*
X11307279Y-21095805D01*
X11307276Y-21095810D01*
X11304153Y-21100458D01*
X11301900Y-21105590D01*
X11301898Y-21105594D01*
X11248152Y-21228030D01*
X11212993Y-21308124D01*
X11211683Y-21313581D01*
X11161360Y-21523192D01*
X11161359Y-21523198D01*
X11160050Y-21528651D01*
X11146994Y-21755069D01*
X7391800Y-21755069D01*
X7391800Y-21147665D01*
X7411802Y-21079544D01*
X7465458Y-21033051D01*
X7530108Y-21022613D01*
X7530117Y-21022447D01*
X7530878Y-21022488D01*
X7531412Y-21022402D01*
X7533524Y-21022632D01*
X7540328Y-21023000D01*
X8187885Y-21023000D01*
X8203124Y-21018525D01*
X8204329Y-21017135D01*
X8206000Y-21009452D01*
X8206000Y-21004884D01*
X8714000Y-21004884D01*
X8718475Y-21020123D01*
X8719865Y-21021328D01*
X8727548Y-21022999D01*
X9379669Y-21022999D01*
X9386490Y-21022629D01*
X9437352Y-21017105D01*
X9452604Y-21013479D01*
X9573054Y-20968324D01*
X9588649Y-20959786D01*
X9690724Y-20883285D01*
X9703285Y-20870724D01*
X9779786Y-20768649D01*
X9788324Y-20753054D01*
X9833478Y-20632606D01*
X9837105Y-20617351D01*
X9842631Y-20566486D01*
X9843000Y-20559672D01*
X9843000Y-19984669D01*
X16427001Y-19984669D01*
X16427371Y-19991490D01*
X16432895Y-20042352D01*
X16436521Y-20057604D01*
X16481676Y-20178054D01*
X16490214Y-20193649D01*
X16566715Y-20295724D01*
X16579276Y-20308285D01*
X16681351Y-20384786D01*
X16696946Y-20393324D01*
X16817394Y-20438478D01*
X16832649Y-20442105D01*
X16883514Y-20447631D01*
X16890328Y-20448000D01*
X17587885Y-20448000D01*
X17603124Y-20443525D01*
X17604329Y-20442135D01*
X17606000Y-20434452D01*
X17606000Y-19287115D01*
X17601525Y-19271876D01*
X17600135Y-19270671D01*
X17592452Y-19269000D01*
X16445116Y-19269000D01*
X16429877Y-19273475D01*
X16428672Y-19274865D01*
X16427001Y-19282548D01*
X16427001Y-19984669D01*
X9843000Y-19984669D01*
X9843000Y-19287115D01*
X9838525Y-19271876D01*
X9837135Y-19270671D01*
X9829452Y-19269000D01*
X8732115Y-19269000D01*
X8716876Y-19273475D01*
X8715671Y-19274865D01*
X8714000Y-19282548D01*
X8714000Y-21004884D01*
X8206000Y-21004884D01*
X8206000Y-18742885D01*
X8714000Y-18742885D01*
X8718475Y-18758124D01*
X8719865Y-18759329D01*
X8727548Y-18761000D01*
X9824884Y-18761000D01*
X9840123Y-18756525D01*
X9841328Y-18755135D01*
X9842999Y-18747452D01*
X9842999Y-18742885D01*
X16427000Y-18742885D01*
X16431475Y-18758124D01*
X16432865Y-18759329D01*
X16440548Y-18761000D01*
X17587885Y-18761000D01*
X17603124Y-18756525D01*
X17604329Y-18755135D01*
X17606000Y-18747452D01*
X17606000Y-17600116D01*
X17601525Y-17584877D01*
X17600135Y-17583672D01*
X17592452Y-17582001D01*
X16890331Y-17582001D01*
X16883510Y-17582371D01*
X16832648Y-17587895D01*
X16817396Y-17591521D01*
X16696946Y-17636676D01*
X16681351Y-17645214D01*
X16579276Y-17721715D01*
X16566715Y-17734276D01*
X16490214Y-17836351D01*
X16481676Y-17851946D01*
X16436522Y-17972394D01*
X16432895Y-17987649D01*
X16427369Y-18038514D01*
X16427000Y-18045328D01*
X16427000Y-18742885D01*
X9842999Y-18742885D01*
X9842999Y-17470331D01*
X9842629Y-17463510D01*
X9837105Y-17412648D01*
X9833479Y-17397396D01*
X9788324Y-17276946D01*
X9779786Y-17261351D01*
X9703285Y-17159276D01*
X9690724Y-17146715D01*
X9588649Y-17070214D01*
X9573054Y-17061676D01*
X9452606Y-17016522D01*
X9437351Y-17012895D01*
X9386486Y-17007369D01*
X9379672Y-17007000D01*
X8732115Y-17007000D01*
X8716876Y-17011475D01*
X8715671Y-17012865D01*
X8714000Y-17020548D01*
X8714000Y-18742885D01*
X8206000Y-18742885D01*
X8206000Y-17025116D01*
X8201525Y-17009877D01*
X8200135Y-17008672D01*
X8192452Y-17007001D01*
X7540331Y-17007001D01*
X7533521Y-17007370D01*
X7531402Y-17007600D01*
X7530908Y-17007511D01*
X7530123Y-17007554D01*
X7530113Y-17007369D01*
X7461520Y-16995068D01*
X7409507Y-16946745D01*
X7391800Y-16882336D01*
X7391800Y-13655069D01*
X11146994Y-13655069D01*
X11174241Y-13880219D01*
X11240927Y-14096987D01*
X11344946Y-14298519D01*
X11483009Y-14478447D01*
X11546982Y-14536658D01*
X11646605Y-14627308D01*
X11646608Y-14627310D01*
X11650752Y-14631081D01*
X11655503Y-14634062D01*
X11655504Y-14634062D01*
X11838118Y-14748616D01*
X11838122Y-14748618D01*
X11842874Y-14751599D01*
X12053301Y-14836190D01*
X12275382Y-14882181D01*
X12279993Y-14882447D01*
X12279994Y-14882447D01*
X12331121Y-14885395D01*
X12331125Y-14885395D01*
X12332944Y-14885500D01*
X13955535Y-14885500D01*
X13958322Y-14885251D01*
X13958328Y-14885251D01*
X14028506Y-14878987D01*
X14123895Y-14870474D01*
X14342651Y-14810630D01*
X14347709Y-14808218D01*
X14347713Y-14808216D01*
X14542284Y-14715410D01*
X14542285Y-14715409D01*
X14547351Y-14712993D01*
X14551913Y-14709715D01*
X14726966Y-14583926D01*
X14726968Y-14583924D01*
X14731526Y-14580649D01*
X14834875Y-14474002D01*
X14885452Y-14421811D01*
X14885454Y-14421808D01*
X14889355Y-14417783D01*
X14972845Y-14293536D01*
X15012721Y-14234195D01*
X15012724Y-14234190D01*
X15015847Y-14229542D01*
X15107007Y-14021876D01*
X15140646Y-13881757D01*
X15158640Y-13806808D01*
X15158641Y-13806802D01*
X15159950Y-13801349D01*
X15173006Y-13574931D01*
X15145759Y-13349781D01*
X15128486Y-13293632D01*
X15080722Y-13138374D01*
X15079073Y-13133013D01*
X14975054Y-12931481D01*
X14836991Y-12751553D01*
X14721071Y-12646074D01*
X14673395Y-12602692D01*
X14673392Y-12602690D01*
X14669248Y-12598919D01*
X14543895Y-12520285D01*
X14481882Y-12481384D01*
X14481878Y-12481382D01*
X14477126Y-12478401D01*
X14266699Y-12393810D01*
X14044618Y-12347819D01*
X14040007Y-12347553D01*
X14040006Y-12347553D01*
X13988879Y-12344605D01*
X13988875Y-12344605D01*
X13987056Y-12344500D01*
X12364465Y-12344500D01*
X12361678Y-12344749D01*
X12361672Y-12344749D01*
X12291494Y-12351013D01*
X12196105Y-12359526D01*
X11977349Y-12419370D01*
X11972291Y-12421782D01*
X11972287Y-12421784D01*
X11847334Y-12481384D01*
X11772649Y-12517007D01*
X11768088Y-12520284D01*
X11768087Y-12520285D01*
X11662806Y-12595938D01*
X11588474Y-12649351D01*
X11430645Y-12812217D01*
X11427518Y-12816871D01*
X11307279Y-12995805D01*
X11307276Y-12995810D01*
X11304153Y-13000458D01*
X11301900Y-13005590D01*
X11301898Y-13005594D01*
X11248152Y-13128030D01*
X11212993Y-13208124D01*
X11209861Y-13221171D01*
X11161360Y-13423192D01*
X11161359Y-13423198D01*
X11160050Y-13428651D01*
X11146994Y-13655069D01*
X7391800Y-13655069D01*
X7391800Y-12248793D01*
X7394032Y-12225184D01*
X7394090Y-12224881D01*
X7394090Y-12224877D01*
X7395575Y-12217094D01*
X7392049Y-12161049D01*
X7391800Y-12153138D01*
X7391800Y-12137144D01*
X7389794Y-12121270D01*
X7389051Y-12113402D01*
X7386023Y-12065263D01*
X7386023Y-12065262D01*
X7385525Y-12057350D01*
X7382979Y-12049513D01*
X7377806Y-12026369D01*
X7377768Y-12026065D01*
X7377767Y-12026060D01*
X7376774Y-12018203D01*
X7373858Y-12010838D01*
X7373857Y-12010834D01*
X7356101Y-11965989D01*
X7353429Y-11958570D01*
X7336064Y-11905125D01*
X7331814Y-11898428D01*
X7331650Y-11898169D01*
X7320885Y-11877042D01*
X7320771Y-11876754D01*
X7320768Y-11876749D01*
X7317852Y-11869383D01*
X7313196Y-11862975D01*
X7313193Y-11862969D01*
X7284842Y-11823948D01*
X7280392Y-11817401D01*
X7250300Y-11769982D01*
X7244293Y-11764341D01*
X7228612Y-11746554D01*
X7228434Y-11746309D01*
X7228432Y-11746307D01*
X7223772Y-11739893D01*
X7217662Y-11734838D01*
X7180504Y-11704097D01*
X7174570Y-11698866D01*
X7139402Y-11665842D01*
X7139399Y-11665840D01*
X7133621Y-11660414D01*
X7126397Y-11656442D01*
X7106794Y-11643119D01*
X7106554Y-11642920D01*
X7106547Y-11642916D01*
X7100444Y-11637867D01*
X7049624Y-11613953D01*
X7042592Y-11610371D01*
X6993360Y-11583305D01*
X6985685Y-11581335D01*
X6985679Y-11581332D01*
X6985381Y-11581256D01*
X6963072Y-11573224D01*
X6962797Y-11573094D01*
X6962789Y-11573091D01*
X6955618Y-11569717D01*
X6900451Y-11559194D01*
X6892742Y-11557471D01*
X6869876Y-11551600D01*
X6846012Y-11545472D01*
X6846009Y-11545472D01*
X6838330Y-11543500D01*
X6838642Y-11542284D01*
X6780851Y-11517083D01*
X6755927Y-11488898D01*
X6663014Y-11345277D01*
X6512670Y-11180051D01*
X6508619Y-11176852D01*
X6508615Y-11176848D01*
X6341414Y-11044800D01*
X6341410Y-11044798D01*
X6337359Y-11041598D01*
X6296053Y-11018796D01*
X6246084Y-10968364D01*
X6231312Y-10898921D01*
X6256428Y-10832516D01*
X6283780Y-10805909D01*
X6327603Y-10774650D01*
X6462860Y-10678173D01*
X6474995Y-10666081D01*
X6617435Y-10524137D01*
X6621096Y-10520489D01*
X6669748Y-10452783D01*
X6748435Y-10343277D01*
X6751453Y-10339077D01*
X6772320Y-10296857D01*
X6848136Y-10143453D01*
X6848137Y-10143451D01*
X6850430Y-10138811D01*
X6915370Y-9925069D01*
X6944529Y-9703590D01*
X6944723Y-9695646D01*
X6944859Y-9690069D01*
X11146994Y-9690069D01*
X11174241Y-9915219D01*
X11240927Y-10131987D01*
X11344946Y-10333519D01*
X11348359Y-10337967D01*
X11352434Y-10343277D01*
X11483009Y-10513447D01*
X11573850Y-10596106D01*
X11646605Y-10662308D01*
X11646608Y-10662310D01*
X11650752Y-10666081D01*
X11655503Y-10669062D01*
X11655504Y-10669062D01*
X11838118Y-10783616D01*
X11838122Y-10783618D01*
X11842874Y-10786599D01*
X12053301Y-10871190D01*
X12275382Y-10917181D01*
X12279993Y-10917447D01*
X12279994Y-10917447D01*
X12331121Y-10920395D01*
X12331125Y-10920395D01*
X12332944Y-10920500D01*
X13955535Y-10920500D01*
X13958322Y-10920251D01*
X13958328Y-10920251D01*
X14028506Y-10913987D01*
X14123895Y-10905474D01*
X14342651Y-10845630D01*
X14347709Y-10843218D01*
X14347713Y-10843216D01*
X14542284Y-10750410D01*
X14542285Y-10750409D01*
X14547351Y-10747993D01*
X14640343Y-10681171D01*
X14726966Y-10618926D01*
X14726968Y-10618924D01*
X14731526Y-10615649D01*
X14889355Y-10452783D01*
X14983860Y-10312144D01*
X15012721Y-10269195D01*
X15012724Y-10269190D01*
X15015847Y-10264542D01*
X15021522Y-10251616D01*
X15104750Y-10062017D01*
X15107007Y-10056876D01*
X15115110Y-10023122D01*
X15158640Y-9841808D01*
X15158641Y-9841802D01*
X15159950Y-9836349D01*
X15167605Y-9703590D01*
X15172683Y-9615537D01*
X15172683Y-9615534D01*
X15173006Y-9609931D01*
X15145759Y-9384781D01*
X15079073Y-9168013D01*
X14975054Y-8966481D01*
X14836991Y-8786553D01*
X14721071Y-8681074D01*
X14673395Y-8637692D01*
X14673392Y-8637690D01*
X14669248Y-8633919D01*
X14643289Y-8617635D01*
X14481882Y-8516384D01*
X14481878Y-8516382D01*
X14477126Y-8513401D01*
X14266699Y-8428810D01*
X14044618Y-8382819D01*
X14040007Y-8382553D01*
X14040006Y-8382553D01*
X13988879Y-8379605D01*
X13988875Y-8379605D01*
X13987056Y-8379500D01*
X12364465Y-8379500D01*
X12361678Y-8379749D01*
X12361672Y-8379749D01*
X12291494Y-8386013D01*
X12196105Y-8394526D01*
X11977349Y-8454370D01*
X11972291Y-8456782D01*
X11972287Y-8456784D01*
X11847334Y-8516384D01*
X11772649Y-8552007D01*
X11768088Y-8555284D01*
X11768087Y-8555285D01*
X11650124Y-8640051D01*
X11588474Y-8684351D01*
X11584569Y-8688381D01*
X11496619Y-8779138D01*
X11430645Y-8847217D01*
X11427518Y-8851871D01*
X11307279Y-9030805D01*
X11307276Y-9030810D01*
X11304153Y-9035458D01*
X11212993Y-9243124D01*
X11211683Y-9248581D01*
X11161360Y-9458192D01*
X11161359Y-9458198D01*
X11160050Y-9463651D01*
X11159727Y-9469257D01*
X11150248Y-9633646D01*
X11146994Y-9690069D01*
X6944859Y-9690069D01*
X6946074Y-9640365D01*
X6946074Y-9640361D01*
X6946156Y-9637000D01*
X6927852Y-9414361D01*
X6873431Y-9197702D01*
X6784354Y-8992840D01*
X6744906Y-8931862D01*
X6665822Y-8809617D01*
X6665820Y-8809614D01*
X6663014Y-8805277D01*
X6512670Y-8640051D01*
X6508619Y-8636852D01*
X6508615Y-8636848D01*
X6341414Y-8504800D01*
X6341410Y-8504798D01*
X6337359Y-8501598D01*
X6296053Y-8478796D01*
X6246084Y-8428364D01*
X6231312Y-8358921D01*
X6256428Y-8292516D01*
X6283780Y-8265909D01*
X6327603Y-8234650D01*
X6462860Y-8138173D01*
X6472418Y-8128649D01*
X6544209Y-8057107D01*
X6621096Y-7980489D01*
X6680594Y-7897689D01*
X6748435Y-7803277D01*
X6751453Y-7799077D01*
X6764764Y-7772144D01*
X6838044Y-7623873D01*
X6886158Y-7571666D01*
X6954859Y-7553759D01*
X7022335Y-7575837D01*
X7067163Y-7630891D01*
X7077001Y-7679700D01*
X7077001Y-8494669D01*
X7077371Y-8501490D01*
X7082895Y-8552352D01*
X7086521Y-8567604D01*
X7131676Y-8688054D01*
X7140214Y-8703649D01*
X7216715Y-8805724D01*
X7229276Y-8818285D01*
X7331351Y-8894786D01*
X7346946Y-8903324D01*
X7467394Y-8948478D01*
X7482649Y-8952105D01*
X7533514Y-8957631D01*
X7540328Y-8958000D01*
X8187885Y-8958000D01*
X8203124Y-8953525D01*
X8204329Y-8952135D01*
X8206000Y-8944452D01*
X8206000Y-8939884D01*
X8714000Y-8939884D01*
X8718475Y-8955123D01*
X8719865Y-8956328D01*
X8727548Y-8957999D01*
X9379669Y-8957999D01*
X9386490Y-8957629D01*
X9437352Y-8952105D01*
X9452604Y-8948479D01*
X9573054Y-8903324D01*
X9588649Y-8894786D01*
X9690724Y-8818285D01*
X9703285Y-8805724D01*
X9779786Y-8703649D01*
X9788324Y-8688054D01*
X9833478Y-8567606D01*
X9837105Y-8552351D01*
X9842631Y-8501486D01*
X9843000Y-8494672D01*
X9843000Y-7919669D01*
X16427001Y-7919669D01*
X16427371Y-7926490D01*
X16432895Y-7977352D01*
X16436521Y-7992604D01*
X16481676Y-8113054D01*
X16490214Y-8128649D01*
X16566715Y-8230724D01*
X16579276Y-8243285D01*
X16681351Y-8319786D01*
X16696946Y-8328324D01*
X16817394Y-8373478D01*
X16832649Y-8377105D01*
X16883514Y-8382631D01*
X16890328Y-8383000D01*
X17587885Y-8383000D01*
X17603124Y-8378525D01*
X17604329Y-8377135D01*
X17606000Y-8369452D01*
X17606000Y-7222115D01*
X17601525Y-7206876D01*
X17600135Y-7205671D01*
X17592452Y-7204000D01*
X16445116Y-7204000D01*
X16429877Y-7208475D01*
X16428672Y-7209865D01*
X16427001Y-7217548D01*
X16427001Y-7919669D01*
X9843000Y-7919669D01*
X9843000Y-7222115D01*
X9838525Y-7206876D01*
X9837135Y-7205671D01*
X9829452Y-7204000D01*
X8732115Y-7204000D01*
X8716876Y-7208475D01*
X8715671Y-7209865D01*
X8714000Y-7217548D01*
X8714000Y-8939884D01*
X8206000Y-8939884D01*
X8206000Y-6677885D01*
X8714000Y-6677885D01*
X8718475Y-6693124D01*
X8719865Y-6694329D01*
X8727548Y-6696000D01*
X9824884Y-6696000D01*
X9840123Y-6691525D01*
X9841328Y-6690135D01*
X9842999Y-6682452D01*
X9842999Y-6677885D01*
X16427000Y-6677885D01*
X16431475Y-6693124D01*
X16432865Y-6694329D01*
X16440548Y-6696000D01*
X17587885Y-6696000D01*
X17603124Y-6691525D01*
X17604329Y-6690135D01*
X17606000Y-6682452D01*
X17606000Y-5535116D01*
X17601525Y-5519877D01*
X17600135Y-5518672D01*
X17592452Y-5517001D01*
X16890331Y-5517001D01*
X16883510Y-5517371D01*
X16832648Y-5522895D01*
X16817396Y-5526521D01*
X16696946Y-5571676D01*
X16681351Y-5580214D01*
X16579276Y-5656715D01*
X16566715Y-5669276D01*
X16490214Y-5771351D01*
X16481676Y-5786946D01*
X16436522Y-5907394D01*
X16432895Y-5922649D01*
X16427369Y-5973514D01*
X16427000Y-5980328D01*
X16427000Y-6677885D01*
X9842999Y-6677885D01*
X9842999Y-5405331D01*
X9842629Y-5398510D01*
X9837105Y-5347648D01*
X9833479Y-5332396D01*
X9788324Y-5211946D01*
X9779786Y-5196351D01*
X9703285Y-5094276D01*
X9690724Y-5081715D01*
X9588649Y-5005214D01*
X9573054Y-4996676D01*
X9452606Y-4951522D01*
X9437351Y-4947895D01*
X9386486Y-4942369D01*
X9379672Y-4942000D01*
X8732115Y-4942000D01*
X8716876Y-4946475D01*
X8715671Y-4947865D01*
X8714000Y-4955548D01*
X8714000Y-6677885D01*
X8206000Y-6677885D01*
X8206000Y-4960116D01*
X8201525Y-4944877D01*
X8200135Y-4943672D01*
X8192452Y-4942001D01*
X7540331Y-4942001D01*
X7533510Y-4942371D01*
X7482648Y-4947895D01*
X7467396Y-4951521D01*
X7346946Y-4996676D01*
X7331351Y-5005214D01*
X7229276Y-5081715D01*
X7216715Y-5094276D01*
X7140214Y-5196351D01*
X7131676Y-5211946D01*
X7086522Y-5332394D01*
X7082895Y-5347649D01*
X7077369Y-5398514D01*
X7077000Y-5405328D01*
X7077000Y-6520112D01*
X7056998Y-6588233D01*
X7003342Y-6634726D01*
X6933068Y-6644830D01*
X6868488Y-6615336D01*
X6835452Y-6570357D01*
X6784354Y-6452840D01*
X6663014Y-6265277D01*
X6512670Y-6100051D01*
X6508619Y-6096852D01*
X6508615Y-6096848D01*
X6341414Y-5964800D01*
X6341410Y-5964798D01*
X6337359Y-5961598D01*
X6296053Y-5938796D01*
X6246084Y-5888364D01*
X6231312Y-5818921D01*
X6256428Y-5752516D01*
X6283780Y-5725909D01*
X6327603Y-5694650D01*
X6462860Y-5598173D01*
X6539827Y-5521475D01*
X6617435Y-5444137D01*
X6621096Y-5440489D01*
X6646360Y-5405331D01*
X6748435Y-5263277D01*
X6751453Y-5259077D01*
X6772320Y-5216857D01*
X6848136Y-5063453D01*
X6848137Y-5063451D01*
X6850430Y-5058811D01*
X6915370Y-4845069D01*
X6944529Y-4623590D01*
X6946156Y-4557000D01*
X6927852Y-4334361D01*
X6873431Y-4117702D01*
X6784354Y-3912840D01*
X6663014Y-3725277D01*
X6512670Y-3560051D01*
X6508619Y-3556852D01*
X6508615Y-3556848D01*
X6341414Y-3424800D01*
X6341410Y-3424798D01*
X6337359Y-3421598D01*
X6141789Y-3313638D01*
X6136920Y-3311914D01*
X6136916Y-3311912D01*
X5936087Y-3240795D01*
X5936083Y-3240794D01*
X5931212Y-3239069D01*
X5926119Y-3238162D01*
X5926116Y-3238161D01*
X5716373Y-3200800D01*
X5716367Y-3200799D01*
X5711284Y-3199894D01*
X5637452Y-3198992D01*
X5493081Y-3197228D01*
X5493079Y-3197228D01*
X5487911Y-3197165D01*
X5267091Y-3230955D01*
X5054756Y-3300357D01*
X4856607Y-3403507D01*
X4852474Y-3406610D01*
X4852471Y-3406612D01*
X4828247Y-3424800D01*
X4677965Y-3537635D01*
X4523629Y-3699138D01*
X4416201Y-3856621D01*
X4361293Y-3901621D01*
X4290768Y-3909792D01*
X4227021Y-3878538D01*
X4206324Y-3854054D01*
X4125822Y-3729617D01*
X4125820Y-3729614D01*
X4123014Y-3725277D01*
X3972670Y-3560051D01*
X3968619Y-3556852D01*
X3968615Y-3556848D01*
X3801414Y-3424800D01*
X3801410Y-3424798D01*
X3797359Y-3421598D01*
X3601789Y-3313638D01*
X3596920Y-3311914D01*
X3596916Y-3311912D01*
X3396087Y-3240795D01*
X3396083Y-3240794D01*
X3391212Y-3239069D01*
X3386119Y-3238162D01*
X3386116Y-3238161D01*
X3176373Y-3200800D01*
X3176367Y-3200799D01*
X3171284Y-3199894D01*
X3097452Y-3198992D01*
X2953081Y-3197228D01*
X2953079Y-3197228D01*
X2947911Y-3197165D01*
X2727091Y-3230955D01*
X2514756Y-3300357D01*
X2316607Y-3403507D01*
X2312474Y-3406610D01*
X2312471Y-3406612D01*
X2288247Y-3424800D01*
X2137965Y-3537635D01*
X1983629Y-3699138D01*
X1857743Y-3883680D01*
X1763688Y-4086305D01*
X1703989Y-4301570D01*
X1680251Y-4523695D01*
X1680548Y-4528848D01*
X1680548Y-4528851D01*
X1686011Y-4623590D01*
X1693110Y-4746715D01*
X1694247Y-4751761D01*
X1694248Y-4751767D01*
X1714119Y-4839939D01*
X1742222Y-4964639D01*
X1826266Y-5171616D01*
X1877019Y-5254438D01*
X1940291Y-5357688D01*
X1942987Y-5362088D01*
X2089250Y-5530938D01*
X2261126Y-5673632D01*
X2331595Y-5714811D01*
X2334445Y-5716476D01*
X2383169Y-5768114D01*
X2396240Y-5837897D01*
X2369509Y-5903669D01*
X2329055Y-5937027D01*
X2316607Y-5943507D01*
X2312474Y-5946610D01*
X2312471Y-5946612D01*
X2142100Y-6074530D01*
X2137965Y-6077635D01*
X1983629Y-6239138D01*
X1857743Y-6423680D01*
X1812981Y-6520112D01*
X1768780Y-6615336D01*
X1763688Y-6626305D01*
X1703989Y-6841570D01*
X1680251Y-7063695D01*
X1680548Y-7068848D01*
X1680548Y-7068851D01*
X1688599Y-7208475D01*
X1693110Y-7286715D01*
X1694247Y-7291761D01*
X1694248Y-7291767D01*
X1715275Y-7385069D01*
X1742222Y-7504639D01*
X1826266Y-7711616D01*
X1877019Y-7794438D01*
X1940291Y-7897688D01*
X1942987Y-7902088D01*
X2089250Y-8070938D01*
X2261126Y-8213632D01*
X2290376Y-8230724D01*
X2334445Y-8256476D01*
X2383169Y-8308114D01*
X2396240Y-8377897D01*
X2369509Y-8443669D01*
X2329055Y-8477027D01*
X2316607Y-8483507D01*
X2312474Y-8486610D01*
X2312471Y-8486612D01*
X2204600Y-8567604D01*
X2137965Y-8617635D01*
X1983629Y-8779138D01*
X1857743Y-8963680D01*
X1763688Y-9166305D01*
X1703989Y-9381570D01*
X1680251Y-9603695D01*
X1680548Y-9608848D01*
X1680548Y-9608851D01*
X1686011Y-9703590D01*
X1693110Y-9826715D01*
X1694247Y-9831761D01*
X1694248Y-9831767D01*
X1714119Y-9919939D01*
X1742222Y-10044639D01*
X1826266Y-10251616D01*
X1876456Y-10333519D01*
X1940291Y-10437688D01*
X1942987Y-10442088D01*
X2089250Y-10610938D01*
X2261126Y-10753632D01*
X2321126Y-10788693D01*
X2334445Y-10796476D01*
X2383169Y-10848114D01*
X2396240Y-10917897D01*
X2369509Y-10983669D01*
X2329055Y-11017027D01*
X2316607Y-11023507D01*
X2312474Y-11026610D01*
X2312471Y-11026612D01*
X2288247Y-11044800D01*
X2137965Y-11157635D01*
X1983629Y-11319138D01*
X1857743Y-11503680D01*
X1819010Y-11587123D01*
X1765885Y-11701573D01*
X1763688Y-11706305D01*
X1703989Y-11921570D01*
X1680251Y-12143695D01*
X1680548Y-12148848D01*
X1680548Y-12148851D01*
X1692667Y-12359027D01*
X1693110Y-12366715D01*
X1694247Y-12371761D01*
X1694248Y-12371767D01*
X1717808Y-12476307D01*
X1742222Y-12584639D01*
X1826266Y-12791616D01*
X1828965Y-12796020D01*
X1940286Y-12977680D01*
X1942987Y-12982088D01*
X2089250Y-13150938D01*
X2261126Y-13293632D01*
X2334955Y-13336774D01*
X2383679Y-13388412D01*
X2396750Y-13458195D01*
X2370019Y-13523967D01*
X2329562Y-13557327D01*
X2321457Y-13561546D01*
X2312738Y-13567036D01*
X2142433Y-13694905D01*
X2134726Y-13701748D01*
X1987590Y-13855717D01*
X1981104Y-13863727D01*
X1861098Y-14039649D01*
X1856000Y-14048623D01*
X1766338Y-14241783D01*
X1762775Y-14251470D01*
X1707389Y-14451183D01*
X1708912Y-14459607D01*
X1721292Y-14463000D01*
X5711000Y-14463000D01*
X5779121Y-14483002D01*
X5825614Y-14536658D01*
X5837000Y-14589000D01*
X5837000Y-19925000D01*
X5816998Y-19993121D01*
X5763342Y-20039614D01*
X5711000Y-20051000D01*
X1726225Y-20051000D01*
X1712694Y-20054973D01*
X1711257Y-20064966D01*
X1741565Y-20199446D01*
X1744645Y-20209275D01*
X1824770Y-20406603D01*
X1829413Y-20415794D01*
X1940694Y-20597388D01*
X1946777Y-20605699D01*
X2086213Y-20766667D01*
X2093577Y-20773879D01*
X2098522Y-20777985D01*
X2138156Y-20836889D01*
X2139653Y-20907870D01*
X2102537Y-20968392D01*
X2062264Y-20992910D01*
X1954705Y-21033232D01*
X1954704Y-21033233D01*
X1946295Y-21036385D01*
X1829739Y-21123739D01*
X1742385Y-21240295D01*
X1691255Y-21376684D01*
X1684500Y-21438866D01*
X1684500Y-23235134D01*
X1691255Y-23297316D01*
X1742385Y-23433705D01*
X1829739Y-23550261D01*
X1946295Y-23637615D01*
X2082684Y-23688745D01*
X2144866Y-23695500D01*
X2344837Y-23695500D01*
X2412958Y-23715502D01*
X2456158Y-23766379D01*
X2456981Y-23765892D01*
X2456982Y-23765893D01*
X2462847Y-23775810D01*
X2467293Y-23783328D01*
X2475988Y-23801076D01*
X2483448Y-23819917D01*
X2488110Y-23826333D01*
X2488110Y-23826334D01*
X2509436Y-23855687D01*
X2515952Y-23865607D01*
X2538458Y-23903662D01*
X2552779Y-23917983D01*
X2565619Y-23933016D01*
X2577528Y-23949407D01*
X2611605Y-23977598D01*
X2620384Y-23985588D01*
X2735995Y-24101199D01*
X2770021Y-24163511D01*
X2772900Y-24190294D01*
X2772900Y-38581937D01*
X2752898Y-38650058D01*
X2699242Y-38696551D01*
X2628968Y-38706655D01*
X2593650Y-38696132D01*
X2486225Y-38646039D01*
X2486224Y-38646039D01*
X2481243Y-38643716D01*
X2475935Y-38642294D01*
X2475933Y-38642293D01*
X2265402Y-38585881D01*
X2265400Y-38585881D01*
X2260087Y-38584457D01*
X2032000Y-38564502D01*
X1803913Y-38584457D01*
X1798600Y-38585881D01*
X1798598Y-38585881D01*
X1588067Y-38642293D01*
X1588065Y-38642294D01*
X1582757Y-38643716D01*
X1577776Y-38646039D01*
X1577775Y-38646039D01*
X1380238Y-38738151D01*
X1380233Y-38738154D01*
X1375251Y-38740477D01*
X1276786Y-38809423D01*
X1192211Y-38868643D01*
X1192208Y-38868645D01*
X1187700Y-38871802D01*
X1025802Y-39033700D01*
X894477Y-39221251D01*
X892153Y-39226236D01*
X892149Y-39226242D01*
X875195Y-39262601D01*
X828278Y-39315887D01*
X760001Y-39335348D01*
X692041Y-39314807D01*
X645975Y-39260784D01*
X635000Y-39209352D01*
X635000Y-19531183D01*
X1707389Y-19531183D01*
X1708912Y-19539607D01*
X1721292Y-19543000D01*
X2770885Y-19543000D01*
X2786124Y-19538525D01*
X2787329Y-19537135D01*
X2789000Y-19529452D01*
X2789000Y-19524885D01*
X3297000Y-19524885D01*
X3301475Y-19540124D01*
X3302865Y-19541329D01*
X3310548Y-19543000D01*
X5310885Y-19543000D01*
X5326124Y-19538525D01*
X5327329Y-19537135D01*
X5329000Y-19529452D01*
X5329000Y-17529115D01*
X5324525Y-17513876D01*
X5323135Y-17512671D01*
X5315452Y-17511000D01*
X3315115Y-17511000D01*
X3299876Y-17515475D01*
X3298671Y-17516865D01*
X3297000Y-17524548D01*
X3297000Y-19524885D01*
X2789000Y-19524885D01*
X2789000Y-17529115D01*
X2784525Y-17513876D01*
X2783135Y-17512671D01*
X2775452Y-17511000D01*
X1726225Y-17511000D01*
X1712694Y-17514973D01*
X1711257Y-17524966D01*
X1741565Y-17659446D01*
X1744645Y-17669275D01*
X1824770Y-17866603D01*
X1829413Y-17875794D01*
X1940694Y-18057388D01*
X1946777Y-18065699D01*
X2086213Y-18226667D01*
X2093580Y-18233883D01*
X2257434Y-18369916D01*
X2265881Y-18375831D01*
X2335479Y-18416501D01*
X2384203Y-18468140D01*
X2397274Y-18537923D01*
X2370543Y-18603694D01*
X2330087Y-18637053D01*
X2321462Y-18641542D01*
X2312738Y-18647036D01*
X2142433Y-18774905D01*
X2134726Y-18781748D01*
X1987590Y-18935717D01*
X1981104Y-18943727D01*
X1861098Y-19119649D01*
X1856000Y-19128623D01*
X1766338Y-19321783D01*
X1762775Y-19331470D01*
X1707389Y-19531183D01*
X635000Y-19531183D01*
X635000Y-16991183D01*
X1707389Y-16991183D01*
X1708912Y-16999607D01*
X1721292Y-17003000D01*
X2770885Y-17003000D01*
X2786124Y-16998525D01*
X2787329Y-16997135D01*
X2789000Y-16989452D01*
X2789000Y-16984885D01*
X3297000Y-16984885D01*
X3301475Y-17000124D01*
X3302865Y-17001329D01*
X3310548Y-17003000D01*
X5310885Y-17003000D01*
X5326124Y-16998525D01*
X5327329Y-16997135D01*
X5329000Y-16989452D01*
X5329000Y-14989115D01*
X5324525Y-14973876D01*
X5323135Y-14972671D01*
X5315452Y-14971000D01*
X3315115Y-14971000D01*
X3299876Y-14975475D01*
X3298671Y-14976865D01*
X3297000Y-14984548D01*
X3297000Y-16984885D01*
X2789000Y-16984885D01*
X2789000Y-14989115D01*
X2784525Y-14973876D01*
X2783135Y-14972671D01*
X2775452Y-14971000D01*
X1726225Y-14971000D01*
X1712694Y-14974973D01*
X1711257Y-14984966D01*
X1741565Y-15119446D01*
X1744645Y-15129275D01*
X1824770Y-15326603D01*
X1829413Y-15335794D01*
X1940694Y-15517388D01*
X1946777Y-15525699D01*
X2086213Y-15686667D01*
X2093580Y-15693883D01*
X2257434Y-15829916D01*
X2265881Y-15835831D01*
X2335479Y-15876501D01*
X2384203Y-15928140D01*
X2397274Y-15997923D01*
X2370543Y-16063694D01*
X2330087Y-16097053D01*
X2321462Y-16101542D01*
X2312738Y-16107036D01*
X2142433Y-16234905D01*
X2134726Y-16241748D01*
X1987590Y-16395717D01*
X1981104Y-16403727D01*
X1861098Y-16579649D01*
X1856000Y-16588623D01*
X1766338Y-16781783D01*
X1762775Y-16791470D01*
X1707389Y-16991183D01*
X635000Y-16991183D01*
X635000Y-761000D01*
X655002Y-692879D01*
X708658Y-646386D01*
X761000Y-635000D01*
X11269578Y-635000D01*
X11337699Y-655002D01*
G37*
%TD.AperFunction*%
%TD*%
M02*
