%TF.GenerationSoftware,KiCad,Pcbnew,(5.1.8)-1*%
%TF.CreationDate,2021-01-03T22:56:05-05:00*%
%TF.ProjectId,LedController1,4c656443-6f6e-4747-926f-6c6c6572312e,rev?*%
%TF.SameCoordinates,Original*%
%TF.FileFunction,Copper,L2,Bot*%
%TF.FilePolarity,Positive*%
%FSLAX46Y46*%
G04 Gerber Fmt 4.6, Leading zero omitted, Abs format (unit mm)*
G04 Created by KiCad (PCBNEW (5.1.8)-1) date 2021-01-03 22:56:05*
%MOMM*%
%LPD*%
G01*
G04 APERTURE LIST*
%TA.AperFunction,ComponentPad*%
%ADD10O,1.700000X1.700000*%
%TD*%
%TA.AperFunction,ComponentPad*%
%ADD11R,1.700000X1.700000*%
%TD*%
%TA.AperFunction,ComponentPad*%
%ADD12R,1.750000X3.000000*%
%TD*%
%TA.AperFunction,ComponentPad*%
%ADD13R,1.850000X1.850000*%
%TD*%
%TA.AperFunction,ComponentPad*%
%ADD14O,3.000000X1.524000*%
%TD*%
%TA.AperFunction,ComponentPad*%
%ADD15O,2.720000X3.240000*%
%TD*%
%TA.AperFunction,ComponentPad*%
%ADD16C,1.800000*%
%TD*%
%TA.AperFunction,ComponentPad*%
%ADD17R,1.800000X1.800000*%
%TD*%
%TA.AperFunction,ViaPad*%
%ADD18C,0.800000*%
%TD*%
%TA.AperFunction,Conductor*%
%ADD19C,0.250000*%
%TD*%
%TA.AperFunction,Conductor*%
%ADD20C,0.254000*%
%TD*%
%TA.AperFunction,Conductor*%
%ADD21C,0.100000*%
%TD*%
G04 APERTURE END LIST*
%TO.P,R6,2*%
%TO.N,Net-(J5-Pad3)*%
%TA.AperFunction,SMDPad,CuDef*%
G36*
G01*
X4257477Y-51202230D02*
X4257477Y-49952228D01*
G75*
G02*
X4507476Y-49702229I249999J0D01*
G01*
X5132478Y-49702229D01*
G75*
G02*
X5382477Y-49952228I0J-249999D01*
G01*
X5382477Y-51202230D01*
G75*
G02*
X5132478Y-51452229I-249999J0D01*
G01*
X4507476Y-51452229D01*
G75*
G02*
X4257477Y-51202230I0J249999D01*
G01*
G37*
%TD.AperFunction*%
%TO.P,R6,1*%
%TO.N,Net-(R3-Pad1)*%
%TA.AperFunction,SMDPad,CuDef*%
G36*
G01*
X1332477Y-51202230D02*
X1332477Y-49952228D01*
G75*
G02*
X1582476Y-49702229I249999J0D01*
G01*
X2207478Y-49702229D01*
G75*
G02*
X2457477Y-49952228I0J-249999D01*
G01*
X2457477Y-51202230D01*
G75*
G02*
X2207478Y-51452229I-249999J0D01*
G01*
X1582476Y-51452229D01*
G75*
G02*
X1332477Y-51202230I0J249999D01*
G01*
G37*
%TD.AperFunction*%
%TD*%
%TO.P,R5,2*%
%TO.N,Net-(J5-Pad2)*%
%TA.AperFunction,SMDPad,CuDef*%
G36*
G01*
X9790000Y-51232269D02*
X9790000Y-49982267D01*
G75*
G02*
X10039999Y-49732268I249999J0D01*
G01*
X10665001Y-49732268D01*
G75*
G02*
X10915000Y-49982267I0J-249999D01*
G01*
X10915000Y-51232269D01*
G75*
G02*
X10665001Y-51482268I-249999J0D01*
G01*
X10039999Y-51482268D01*
G75*
G02*
X9790000Y-51232269I0J249999D01*
G01*
G37*
%TD.AperFunction*%
%TO.P,R5,1*%
%TO.N,Net-(R2-Pad1)*%
%TA.AperFunction,SMDPad,CuDef*%
G36*
G01*
X6865000Y-51232269D02*
X6865000Y-49982267D01*
G75*
G02*
X7114999Y-49732268I249999J0D01*
G01*
X7740001Y-49732268D01*
G75*
G02*
X7990000Y-49982267I0J-249999D01*
G01*
X7990000Y-51232269D01*
G75*
G02*
X7740001Y-51482268I-249999J0D01*
G01*
X7114999Y-51482268D01*
G75*
G02*
X6865000Y-51232269I0J249999D01*
G01*
G37*
%TD.AperFunction*%
%TD*%
%TO.P,R4,2*%
%TO.N,Net-(J5-Pad1)*%
%TA.AperFunction,SMDPad,CuDef*%
G36*
G01*
X9790000Y-37455001D02*
X9790000Y-36204999D01*
G75*
G02*
X10039999Y-35955000I249999J0D01*
G01*
X10665001Y-35955000D01*
G75*
G02*
X10915000Y-36204999I0J-249999D01*
G01*
X10915000Y-37455001D01*
G75*
G02*
X10665001Y-37705000I-249999J0D01*
G01*
X10039999Y-37705000D01*
G75*
G02*
X9790000Y-37455001I0J249999D01*
G01*
G37*
%TD.AperFunction*%
%TO.P,R4,1*%
%TO.N,Net-(R1-Pad1)*%
%TA.AperFunction,SMDPad,CuDef*%
G36*
G01*
X6865000Y-37455001D02*
X6865000Y-36204999D01*
G75*
G02*
X7114999Y-35955000I249999J0D01*
G01*
X7740001Y-35955000D01*
G75*
G02*
X7990000Y-36204999I0J-249999D01*
G01*
X7990000Y-37455001D01*
G75*
G02*
X7740001Y-37705000I-249999J0D01*
G01*
X7114999Y-37705000D01*
G75*
G02*
X6865000Y-37455001I0J249999D01*
G01*
G37*
%TD.AperFunction*%
%TD*%
%TO.P,R3,2*%
%TO.N,/sheet5FE67A34/Signal*%
%TA.AperFunction,SMDPad,CuDef*%
G36*
G01*
X7250000Y-53965001D02*
X7250000Y-52714999D01*
G75*
G02*
X7499999Y-52465000I249999J0D01*
G01*
X8125001Y-52465000D01*
G75*
G02*
X8375000Y-52714999I0J-249999D01*
G01*
X8375000Y-53965001D01*
G75*
G02*
X8125001Y-54215000I-249999J0D01*
G01*
X7499999Y-54215000D01*
G75*
G02*
X7250000Y-53965001I0J249999D01*
G01*
G37*
%TD.AperFunction*%
%TO.P,R3,1*%
%TO.N,Net-(R3-Pad1)*%
%TA.AperFunction,SMDPad,CuDef*%
G36*
G01*
X4325000Y-53965001D02*
X4325000Y-52714999D01*
G75*
G02*
X4574999Y-52465000I249999J0D01*
G01*
X5200001Y-52465000D01*
G75*
G02*
X5450000Y-52714999I0J-249999D01*
G01*
X5450000Y-53965001D01*
G75*
G02*
X5200001Y-54215000I-249999J0D01*
G01*
X4574999Y-54215000D01*
G75*
G02*
X4325000Y-53965001I0J249999D01*
G01*
G37*
%TD.AperFunction*%
%TD*%
%TO.P,R2,2*%
%TO.N,/sheet5FE679DC/Signal*%
%TA.AperFunction,SMDPad,CuDef*%
G36*
G01*
X1279999Y-55510000D02*
X2530001Y-55510000D01*
G75*
G02*
X2780000Y-55759999I0J-249999D01*
G01*
X2780000Y-56385001D01*
G75*
G02*
X2530001Y-56635000I-249999J0D01*
G01*
X1279999Y-56635000D01*
G75*
G02*
X1030000Y-56385001I0J249999D01*
G01*
X1030000Y-55759999D01*
G75*
G02*
X1279999Y-55510000I249999J0D01*
G01*
G37*
%TD.AperFunction*%
%TO.P,R2,1*%
%TO.N,Net-(R2-Pad1)*%
%TA.AperFunction,SMDPad,CuDef*%
G36*
G01*
X1279999Y-52585000D02*
X2530001Y-52585000D01*
G75*
G02*
X2780000Y-52834999I0J-249999D01*
G01*
X2780000Y-53460001D01*
G75*
G02*
X2530001Y-53710000I-249999J0D01*
G01*
X1279999Y-53710000D01*
G75*
G02*
X1030000Y-53460001I0J249999D01*
G01*
X1030000Y-52834999D01*
G75*
G02*
X1279999Y-52585000I249999J0D01*
G01*
G37*
%TD.AperFunction*%
%TD*%
%TO.P,R1,2*%
%TO.N,/InputSignal/Signal*%
%TA.AperFunction,SMDPad,CuDef*%
G36*
G01*
X2457477Y-36174960D02*
X2457477Y-37424962D01*
G75*
G02*
X2207478Y-37674961I-249999J0D01*
G01*
X1582476Y-37674961D01*
G75*
G02*
X1332477Y-37424962I0J249999D01*
G01*
X1332477Y-36174960D01*
G75*
G02*
X1582476Y-35924961I249999J0D01*
G01*
X2207478Y-35924961D01*
G75*
G02*
X2457477Y-36174960I0J-249999D01*
G01*
G37*
%TD.AperFunction*%
%TO.P,R1,1*%
%TO.N,Net-(R1-Pad1)*%
%TA.AperFunction,SMDPad,CuDef*%
G36*
G01*
X5382477Y-36174960D02*
X5382477Y-37424962D01*
G75*
G02*
X5132478Y-37674961I-249999J0D01*
G01*
X4507476Y-37674961D01*
G75*
G02*
X4257477Y-37424962I0J249999D01*
G01*
X4257477Y-36174960D01*
G75*
G02*
X4507476Y-35924961I249999J0D01*
G01*
X5132478Y-35924961D01*
G75*
G02*
X5382477Y-36174960I0J-249999D01*
G01*
G37*
%TD.AperFunction*%
%TD*%
D10*
%TO.P,J5,4*%
%TO.N,+12V*%
X2540000Y-96520000D03*
%TO.P,J5,3*%
%TO.N,Net-(J5-Pad3)*%
X2540000Y-93980000D03*
%TO.P,J5,2*%
%TO.N,Net-(J5-Pad2)*%
X2540000Y-91440000D03*
D11*
%TO.P,J5,1*%
%TO.N,Net-(J5-Pad1)*%
X2540000Y-88900000D03*
%TD*%
D10*
%TO.P,J4,16*%
%TO.N,N/C*%
X16510000Y-35560000D03*
%TO.P,J4,15*%
X13970000Y-35560000D03*
%TO.P,J4,14*%
X16510000Y-38100000D03*
%TO.P,J4,13*%
X13970000Y-38100000D03*
%TO.P,J4,12*%
%TO.N,+5V*%
X16510000Y-40640000D03*
%TO.P,J4,11*%
X13970000Y-40640000D03*
%TO.P,J4,10*%
%TO.N,+12V*%
X16510000Y-43180000D03*
%TO.P,J4,9*%
X13970000Y-43180000D03*
%TO.P,J4,8*%
%TO.N,GND*%
X16510000Y-45720000D03*
%TO.P,J4,7*%
X13970000Y-45720000D03*
%TO.P,J4,6*%
X16510000Y-48260000D03*
%TO.P,J4,5*%
X13970000Y-48260000D03*
%TO.P,J4,4*%
X16510000Y-50800000D03*
%TO.P,J4,3*%
X13970000Y-50800000D03*
%TO.P,J4,2*%
%TO.N,-12V*%
X16510000Y-53340000D03*
D11*
%TO.P,J4,1*%
X13970000Y-53340000D03*
%TD*%
D12*
%TO.P,J3,1*%
%TO.N,N/C*%
X5460000Y-31080000D03*
D13*
X14860000Y-31080000D03*
D14*
%TO.P,J3,S*%
%TO.N,GND*%
X10160000Y-33780000D03*
%TO.P,J3,T*%
%TO.N,Net-(J3-PadT)*%
X10160000Y-25680000D03*
%TD*%
D12*
%TO.P,J2,1*%
%TO.N,N/C*%
X5460000Y-19015000D03*
D13*
X14860000Y-19015000D03*
D14*
%TO.P,J2,S*%
%TO.N,GND*%
X10160000Y-21715000D03*
%TO.P,J2,T*%
%TO.N,Net-(J2-PadT)*%
X10160000Y-13615000D03*
%TD*%
D12*
%TO.P,J1,1*%
%TO.N,N/C*%
X5460000Y-6950000D03*
D13*
X14860000Y-6950000D03*
D14*
%TO.P,J1,S*%
%TO.N,GND*%
X10160000Y-9650000D03*
%TO.P,J1,T*%
%TO.N,Net-(J1-PadT)*%
X10160000Y-1550000D03*
%TD*%
%TO.P,U1,14*%
%TO.N,N/C*%
%TA.AperFunction,SMDPad,CuDef*%
G36*
G01*
X4850000Y-39220000D02*
X4850000Y-39520000D01*
G75*
G02*
X4700000Y-39670000I-150000J0D01*
G01*
X3050000Y-39670000D01*
G75*
G02*
X2900000Y-39520000I0J150000D01*
G01*
X2900000Y-39220000D01*
G75*
G02*
X3050000Y-39070000I150000J0D01*
G01*
X4700000Y-39070000D01*
G75*
G02*
X4850000Y-39220000I0J-150000D01*
G01*
G37*
%TD.AperFunction*%
%TO.P,U1,13*%
%TA.AperFunction,SMDPad,CuDef*%
G36*
G01*
X4850000Y-40490000D02*
X4850000Y-40790000D01*
G75*
G02*
X4700000Y-40940000I-150000J0D01*
G01*
X3050000Y-40940000D01*
G75*
G02*
X2900000Y-40790000I0J150000D01*
G01*
X2900000Y-40490000D01*
G75*
G02*
X3050000Y-40340000I150000J0D01*
G01*
X4700000Y-40340000D01*
G75*
G02*
X4850000Y-40490000I0J-150000D01*
G01*
G37*
%TD.AperFunction*%
%TO.P,U1,12*%
%TA.AperFunction,SMDPad,CuDef*%
G36*
G01*
X4850000Y-41760000D02*
X4850000Y-42060000D01*
G75*
G02*
X4700000Y-42210000I-150000J0D01*
G01*
X3050000Y-42210000D01*
G75*
G02*
X2900000Y-42060000I0J150000D01*
G01*
X2900000Y-41760000D01*
G75*
G02*
X3050000Y-41610000I150000J0D01*
G01*
X4700000Y-41610000D01*
G75*
G02*
X4850000Y-41760000I0J-150000D01*
G01*
G37*
%TD.AperFunction*%
%TO.P,U1,11*%
%TO.N,-12V*%
%TA.AperFunction,SMDPad,CuDef*%
G36*
G01*
X4850000Y-43030000D02*
X4850000Y-43330000D01*
G75*
G02*
X4700000Y-43480000I-150000J0D01*
G01*
X3050000Y-43480000D01*
G75*
G02*
X2900000Y-43330000I0J150000D01*
G01*
X2900000Y-43030000D01*
G75*
G02*
X3050000Y-42880000I150000J0D01*
G01*
X4700000Y-42880000D01*
G75*
G02*
X4850000Y-43030000I0J-150000D01*
G01*
G37*
%TD.AperFunction*%
%TO.P,U1,10*%
%TO.N,+5V*%
%TA.AperFunction,SMDPad,CuDef*%
G36*
G01*
X4850000Y-44300000D02*
X4850000Y-44600000D01*
G75*
G02*
X4700000Y-44750000I-150000J0D01*
G01*
X3050000Y-44750000D01*
G75*
G02*
X2900000Y-44600000I0J150000D01*
G01*
X2900000Y-44300000D01*
G75*
G02*
X3050000Y-44150000I150000J0D01*
G01*
X4700000Y-44150000D01*
G75*
G02*
X4850000Y-44300000I0J-150000D01*
G01*
G37*
%TD.AperFunction*%
%TO.P,U1,9*%
%TO.N,Net-(R3-Pad1)*%
%TA.AperFunction,SMDPad,CuDef*%
G36*
G01*
X4850000Y-45570000D02*
X4850000Y-45870000D01*
G75*
G02*
X4700000Y-46020000I-150000J0D01*
G01*
X3050000Y-46020000D01*
G75*
G02*
X2900000Y-45870000I0J150000D01*
G01*
X2900000Y-45570000D01*
G75*
G02*
X3050000Y-45420000I150000J0D01*
G01*
X4700000Y-45420000D01*
G75*
G02*
X4850000Y-45570000I0J-150000D01*
G01*
G37*
%TD.AperFunction*%
%TO.P,U1,8*%
%TO.N,Net-(J5-Pad3)*%
%TA.AperFunction,SMDPad,CuDef*%
G36*
G01*
X4850000Y-46840000D02*
X4850000Y-47140000D01*
G75*
G02*
X4700000Y-47290000I-150000J0D01*
G01*
X3050000Y-47290000D01*
G75*
G02*
X2900000Y-47140000I0J150000D01*
G01*
X2900000Y-46840000D01*
G75*
G02*
X3050000Y-46690000I150000J0D01*
G01*
X4700000Y-46690000D01*
G75*
G02*
X4850000Y-46840000I0J-150000D01*
G01*
G37*
%TD.AperFunction*%
%TO.P,U1,7*%
%TO.N,Net-(J5-Pad2)*%
%TA.AperFunction,SMDPad,CuDef*%
G36*
G01*
X9800000Y-46840000D02*
X9800000Y-47140000D01*
G75*
G02*
X9650000Y-47290000I-150000J0D01*
G01*
X8000000Y-47290000D01*
G75*
G02*
X7850000Y-47140000I0J150000D01*
G01*
X7850000Y-46840000D01*
G75*
G02*
X8000000Y-46690000I150000J0D01*
G01*
X9650000Y-46690000D01*
G75*
G02*
X9800000Y-46840000I0J-150000D01*
G01*
G37*
%TD.AperFunction*%
%TO.P,U1,6*%
%TO.N,Net-(R2-Pad1)*%
%TA.AperFunction,SMDPad,CuDef*%
G36*
G01*
X9800000Y-45570000D02*
X9800000Y-45870000D01*
G75*
G02*
X9650000Y-46020000I-150000J0D01*
G01*
X8000000Y-46020000D01*
G75*
G02*
X7850000Y-45870000I0J150000D01*
G01*
X7850000Y-45570000D01*
G75*
G02*
X8000000Y-45420000I150000J0D01*
G01*
X9650000Y-45420000D01*
G75*
G02*
X9800000Y-45570000I0J-150000D01*
G01*
G37*
%TD.AperFunction*%
%TO.P,U1,5*%
%TO.N,+5V*%
%TA.AperFunction,SMDPad,CuDef*%
G36*
G01*
X9800000Y-44300000D02*
X9800000Y-44600000D01*
G75*
G02*
X9650000Y-44750000I-150000J0D01*
G01*
X8000000Y-44750000D01*
G75*
G02*
X7850000Y-44600000I0J150000D01*
G01*
X7850000Y-44300000D01*
G75*
G02*
X8000000Y-44150000I150000J0D01*
G01*
X9650000Y-44150000D01*
G75*
G02*
X9800000Y-44300000I0J-150000D01*
G01*
G37*
%TD.AperFunction*%
%TO.P,U1,4*%
%TO.N,+12V*%
%TA.AperFunction,SMDPad,CuDef*%
G36*
G01*
X9800000Y-43030000D02*
X9800000Y-43330000D01*
G75*
G02*
X9650000Y-43480000I-150000J0D01*
G01*
X8000000Y-43480000D01*
G75*
G02*
X7850000Y-43330000I0J150000D01*
G01*
X7850000Y-43030000D01*
G75*
G02*
X8000000Y-42880000I150000J0D01*
G01*
X9650000Y-42880000D01*
G75*
G02*
X9800000Y-43030000I0J-150000D01*
G01*
G37*
%TD.AperFunction*%
%TO.P,U1,3*%
%TO.N,+5V*%
%TA.AperFunction,SMDPad,CuDef*%
G36*
G01*
X9800000Y-41760000D02*
X9800000Y-42060000D01*
G75*
G02*
X9650000Y-42210000I-150000J0D01*
G01*
X8000000Y-42210000D01*
G75*
G02*
X7850000Y-42060000I0J150000D01*
G01*
X7850000Y-41760000D01*
G75*
G02*
X8000000Y-41610000I150000J0D01*
G01*
X9650000Y-41610000D01*
G75*
G02*
X9800000Y-41760000I0J-150000D01*
G01*
G37*
%TD.AperFunction*%
%TO.P,U1,2*%
%TO.N,Net-(R1-Pad1)*%
%TA.AperFunction,SMDPad,CuDef*%
G36*
G01*
X9800000Y-40490000D02*
X9800000Y-40790000D01*
G75*
G02*
X9650000Y-40940000I-150000J0D01*
G01*
X8000000Y-40940000D01*
G75*
G02*
X7850000Y-40790000I0J150000D01*
G01*
X7850000Y-40490000D01*
G75*
G02*
X8000000Y-40340000I150000J0D01*
G01*
X9650000Y-40340000D01*
G75*
G02*
X9800000Y-40490000I0J-150000D01*
G01*
G37*
%TD.AperFunction*%
%TO.P,U1,1*%
%TO.N,Net-(J5-Pad1)*%
%TA.AperFunction,SMDPad,CuDef*%
G36*
G01*
X9800000Y-39220000D02*
X9800000Y-39520000D01*
G75*
G02*
X9650000Y-39670000I-150000J0D01*
G01*
X8000000Y-39670000D01*
G75*
G02*
X7850000Y-39520000I0J150000D01*
G01*
X7850000Y-39220000D01*
G75*
G02*
X8000000Y-39070000I150000J0D01*
G01*
X9650000Y-39070000D01*
G75*
G02*
X9800000Y-39220000I0J-150000D01*
G01*
G37*
%TD.AperFunction*%
%TD*%
D15*
%TO.P,RV3,*%
%TO.N,*%
X6590000Y-90290000D03*
X16190000Y-90290000D03*
D16*
%TO.P,RV3,3*%
%TO.N,Net-(J3-PadT)*%
X13890000Y-97790000D03*
%TO.P,RV3,2*%
%TO.N,/sheet5FE67A34/Signal*%
X11390000Y-97790000D03*
D17*
%TO.P,RV3,1*%
%TO.N,GND*%
X8890000Y-97790000D03*
%TD*%
D15*
%TO.P,RV2,*%
%TO.N,*%
X6590000Y-75050000D03*
X16190000Y-75050000D03*
D16*
%TO.P,RV2,3*%
%TO.N,Net-(J2-PadT)*%
X13890000Y-82550000D03*
%TO.P,RV2,2*%
%TO.N,/sheet5FE679DC/Signal*%
X11390000Y-82550000D03*
D17*
%TO.P,RV2,1*%
%TO.N,GND*%
X8890000Y-82550000D03*
%TD*%
D15*
%TO.P,RV1,*%
%TO.N,*%
X6590000Y-59810000D03*
X16190000Y-59810000D03*
D16*
%TO.P,RV1,3*%
%TO.N,Net-(J1-PadT)*%
X13890000Y-67310000D03*
%TO.P,RV1,2*%
%TO.N,/InputSignal/Signal*%
X11390000Y-67310000D03*
D17*
%TO.P,RV1,1*%
%TO.N,GND*%
X8890000Y-67310000D03*
%TD*%
D18*
%TO.N,/InputSignal/Signal*%
X4445000Y-70485000D03*
%TO.N,GND*%
X10160000Y-64135000D03*
X8890000Y-85725000D03*
%TO.N,Net-(J5-Pad3)*%
X3830021Y-56514992D03*
%TO.N,Net-(J5-Pad1)*%
X11430000Y-39370000D03*
X4445000Y-83820000D03*
%TD*%
D19*
%TO.N,/InputSignal/Signal*%
X819989Y-97341400D02*
X819989Y-74110011D01*
X1869977Y-36799961D02*
X350010Y-35279994D01*
X350010Y-350010D02*
X19649990Y-350010D01*
X819989Y-74110011D02*
X4445000Y-70485000D01*
X350010Y-35279994D02*
X350010Y-350010D01*
X10050001Y-99015001D02*
X2493590Y-99015001D01*
X19649990Y-350010D02*
X19649990Y-84118621D01*
X2493590Y-99015001D02*
X819989Y-97341400D01*
X10115001Y-98950001D02*
X10050001Y-99015001D01*
X10115001Y-93653610D02*
X10115001Y-98950001D01*
X19649990Y-84118621D02*
X10115001Y-93653610D01*
%TO.N,Net-(R1-Pad1)*%
X4875016Y-36830000D02*
X4844977Y-36799961D01*
X7402500Y-36830000D02*
X4875016Y-36830000D01*
X7810016Y-40640000D02*
X8825000Y-40640000D01*
X4844977Y-37674961D02*
X7810016Y-40640000D01*
X4844977Y-36799961D02*
X4844977Y-37674961D01*
%TO.N,/sheet5FE679DC/Signal*%
X1905000Y-56097500D02*
X1905000Y-62601392D01*
X1905000Y-62601392D02*
X8439990Y-69136382D01*
X8439990Y-69136382D02*
X8439990Y-80615008D01*
X7664999Y-83710001D02*
X7729999Y-83775001D01*
X8439990Y-80615008D02*
X7664999Y-81389999D01*
X7664999Y-81389999D02*
X7664999Y-83710001D01*
X7729999Y-83775001D02*
X10164999Y-83775001D01*
X10164999Y-83775001D02*
X11390000Y-82550000D01*
%TO.N,Net-(R2-Pad1)*%
X11415010Y-49744088D02*
X11078180Y-49407258D01*
X3105010Y-54322510D02*
X3105010Y-56883014D01*
X3461998Y-57240002D02*
X5838188Y-57240002D01*
X5838188Y-57240002D02*
X11415010Y-51663180D01*
X11415010Y-51663180D02*
X11415010Y-49744088D01*
X1905000Y-53122500D02*
X3105010Y-54322510D01*
X3105010Y-56883014D02*
X3461998Y-57240002D01*
X11078180Y-49407258D02*
X8602510Y-49407258D01*
X8602510Y-49407258D02*
X7402500Y-50607268D01*
X8825000Y-45720000D02*
X9800000Y-45720000D01*
X10125010Y-46045010D02*
X10125010Y-47884758D01*
X10125010Y-47884758D02*
X7402500Y-50607268D01*
X9800000Y-45720000D02*
X10125010Y-46045010D01*
%TO.N,/sheet5FE67A34/Signal*%
X5914979Y-51656848D02*
X5914979Y-46113211D01*
X6515420Y-52257289D02*
X5914979Y-51656848D01*
X7629789Y-52257289D02*
X6515420Y-52257289D01*
X7837500Y-52465000D02*
X7629789Y-52257289D01*
X7837500Y-53340000D02*
X7837500Y-52465000D01*
X4983384Y-45181616D02*
X4886768Y-45085000D01*
X5914979Y-46113211D02*
X4983384Y-45181616D01*
X369978Y-45985022D02*
X369978Y-98019998D01*
X11390000Y-99062792D02*
X11390000Y-97790000D01*
X10987780Y-99465012D02*
X11390000Y-99062792D01*
X1814992Y-99465012D02*
X10987780Y-99465012D01*
X369978Y-98019998D02*
X1814992Y-99465012D01*
X1260010Y-45094990D02*
X369978Y-45985022D01*
X4896758Y-45094990D02*
X1260010Y-45094990D01*
X4983384Y-45181616D02*
X4896758Y-45094990D01*
%TO.N,Net-(R3-Pad1)*%
X2099729Y-50577229D02*
X4862500Y-53340000D01*
X1869977Y-50577229D02*
X2099729Y-50577229D01*
X3498232Y-45720000D02*
X3875000Y-45720000D01*
X1869977Y-47348255D02*
X3498232Y-45720000D01*
X1869977Y-50577229D02*
X1869977Y-47348255D01*
%TO.N,GND*%
X10160000Y-66040000D02*
X8890000Y-67310000D01*
X10160000Y-64135000D02*
X10160000Y-66040000D01*
X8890000Y-82550000D02*
X8890000Y-67310000D01*
X1364999Y-90875999D02*
X1364999Y-97084001D01*
X1975999Y-90264999D02*
X1364999Y-90875999D01*
X3104001Y-90264999D02*
X1975999Y-90264999D01*
X5074012Y-92235010D02*
X3104001Y-90264999D01*
X7287953Y-92235010D02*
X5074012Y-92235010D01*
X8890000Y-90632963D02*
X7287953Y-92235010D01*
X8890000Y-85725000D02*
X8890000Y-90632963D01*
X1364999Y-97084001D02*
X2705998Y-98425000D01*
X8255000Y-98425000D02*
X8890000Y-97790000D01*
X2705998Y-98425000D02*
X8255000Y-98425000D01*
%TO.N,+5V*%
X3875000Y-44450000D02*
X8825000Y-44450000D01*
X7850000Y-41910000D02*
X8825000Y-41910000D01*
X7524990Y-42235010D02*
X7850000Y-41910000D01*
X7524990Y-44124990D02*
X7524990Y-42235010D01*
X7850000Y-44450000D02*
X7524990Y-44124990D01*
X8825000Y-44450000D02*
X7850000Y-44450000D01*
X12700000Y-41910000D02*
X13970000Y-40640000D01*
X8825000Y-41910000D02*
X12700000Y-41910000D01*
%TO.N,+12V*%
X8825000Y-43180000D02*
X13970000Y-43180000D01*
%TO.N,Net-(J5-Pad3)*%
X4844977Y-47959977D02*
X3875000Y-46990000D01*
X4844977Y-50577229D02*
X4844977Y-47959977D01*
X5900010Y-54445003D02*
X3830021Y-56514992D01*
X5900010Y-52890010D02*
X5900010Y-54445003D01*
X5900010Y-52476820D02*
X5900010Y-52890010D01*
X4844977Y-51223256D02*
X5900010Y-52278289D01*
X4844977Y-50577229D02*
X4844977Y-51223256D01*
X5900010Y-52278289D02*
X5900010Y-52890010D01*
%TO.N,Net-(J5-Pad2)*%
X9177490Y-51807278D02*
X10377500Y-50607268D01*
X6701820Y-51807278D02*
X9177490Y-51807278D01*
X6364990Y-51470448D02*
X6701820Y-51807278D01*
X6364990Y-49450010D02*
X6364990Y-51470448D01*
X8825000Y-46990000D02*
X6364990Y-49450010D01*
X12615001Y-47863233D02*
X12615001Y-87544373D01*
X8825000Y-46990000D02*
X7850000Y-46990000D01*
X7524990Y-45373242D02*
X7803242Y-45094990D01*
X7850000Y-46990000D02*
X7524990Y-46664990D01*
X12615001Y-87544373D02*
X7474353Y-92685021D01*
X3785021Y-92685021D02*
X2540000Y-91440000D01*
X7524990Y-46664990D02*
X7524990Y-45373242D01*
X7474353Y-92685021D02*
X3785021Y-92685021D01*
X7803242Y-45094990D02*
X9846758Y-45094990D01*
X9846758Y-45094990D02*
X12615001Y-47863233D01*
%TO.N,Net-(J5-Pad1)*%
X10377500Y-37817500D02*
X8825000Y-39370000D01*
X10377500Y-36830000D02*
X10377500Y-37817500D01*
X8825000Y-39370000D02*
X10795000Y-39370000D01*
X10795000Y-39370000D02*
X11430000Y-39370000D01*
X2540000Y-85725000D02*
X2540000Y-88900000D01*
X4445000Y-83820000D02*
X2540000Y-85725000D01*
%TO.N,-12V*%
X17685001Y-52164999D02*
X16510000Y-53340000D01*
X17685001Y-40075999D02*
X17685001Y-52164999D01*
X17074001Y-39464999D02*
X17685001Y-40075999D01*
X13405999Y-39464999D02*
X17074001Y-39464999D01*
X11605988Y-41265010D02*
X13405999Y-39464999D01*
X7823222Y-41265010D02*
X11605988Y-41265010D01*
X5908232Y-43180000D02*
X7823222Y-41265010D01*
X3875000Y-43180000D02*
X5908232Y-43180000D01*
%TD*%
D20*
%TO.N,GND*%
X8045214Y-1276140D02*
X8018241Y-1550000D01*
X8045214Y-1823860D01*
X8125096Y-2087195D01*
X8254817Y-2329887D01*
X8429392Y-2542608D01*
X8642113Y-2717183D01*
X8884805Y-2846904D01*
X9148140Y-2926786D01*
X9353375Y-2947000D01*
X10966625Y-2947000D01*
X11171860Y-2926786D01*
X11435195Y-2846904D01*
X11677887Y-2717183D01*
X11890608Y-2542608D01*
X12065183Y-2329887D01*
X12194904Y-2087195D01*
X12274786Y-1823860D01*
X12301759Y-1550000D01*
X12274786Y-1276140D01*
X12224391Y-1110010D01*
X18889990Y-1110010D01*
X18889991Y-83803818D01*
X9604004Y-93089806D01*
X9575000Y-93113609D01*
X9519872Y-93180784D01*
X9480027Y-93229334D01*
X9409456Y-93361363D01*
X9409455Y-93361364D01*
X9365998Y-93504625D01*
X9355001Y-93616278D01*
X9355001Y-93616288D01*
X9351325Y-93653610D01*
X9355001Y-93690933D01*
X9355001Y-96254104D01*
X9175750Y-96255000D01*
X9017000Y-96413750D01*
X9017000Y-97663000D01*
X9037000Y-97663000D01*
X9037000Y-97917000D01*
X9017000Y-97917000D01*
X9017000Y-97937000D01*
X8763000Y-97937000D01*
X8763000Y-97917000D01*
X7513750Y-97917000D01*
X7355000Y-98075750D01*
X7354104Y-98255001D01*
X2808392Y-98255001D01*
X2558391Y-98005000D01*
X2686260Y-98005000D01*
X2973158Y-97947932D01*
X3243411Y-97835990D01*
X3486632Y-97673475D01*
X3693475Y-97466632D01*
X3855990Y-97223411D01*
X3967932Y-96953158D01*
X3980495Y-96890000D01*
X7351928Y-96890000D01*
X7355000Y-97504250D01*
X7513750Y-97663000D01*
X8763000Y-97663000D01*
X8763000Y-96413750D01*
X8604250Y-96255000D01*
X7990000Y-96251928D01*
X7865518Y-96264188D01*
X7745820Y-96300498D01*
X7635506Y-96359463D01*
X7538815Y-96438815D01*
X7459463Y-96535506D01*
X7400498Y-96645820D01*
X7364188Y-96765518D01*
X7351928Y-96890000D01*
X3980495Y-96890000D01*
X4025000Y-96666260D01*
X4025000Y-96373740D01*
X3967932Y-96086842D01*
X3855990Y-95816589D01*
X3693475Y-95573368D01*
X3486632Y-95366525D01*
X3312240Y-95250000D01*
X3486632Y-95133475D01*
X3693475Y-94926632D01*
X3855990Y-94683411D01*
X3967932Y-94413158D01*
X4025000Y-94126260D01*
X4025000Y-93833740D01*
X3967932Y-93546842D01*
X3925757Y-93445021D01*
X7437031Y-93445021D01*
X7474353Y-93448697D01*
X7511675Y-93445021D01*
X7511686Y-93445021D01*
X7623339Y-93434024D01*
X7766600Y-93390567D01*
X7898629Y-93319995D01*
X8014354Y-93225022D01*
X8038157Y-93196018D01*
X13126004Y-88108172D01*
X13155002Y-88084374D01*
X13183212Y-88050000D01*
X13249975Y-87968650D01*
X13320547Y-87836620D01*
X13329890Y-87805820D01*
X13364004Y-87693359D01*
X13375001Y-87581706D01*
X13375001Y-87581697D01*
X13378677Y-87544374D01*
X13375001Y-87507051D01*
X13375001Y-83998153D01*
X13442257Y-84026011D01*
X13738816Y-84085000D01*
X14041184Y-84085000D01*
X14337743Y-84026011D01*
X14617095Y-83910299D01*
X14868505Y-83742312D01*
X15082312Y-83528505D01*
X15250299Y-83277095D01*
X15366011Y-82997743D01*
X15425000Y-82701184D01*
X15425000Y-82398816D01*
X15366011Y-82102257D01*
X15250299Y-81822905D01*
X15082312Y-81571495D01*
X14868505Y-81357688D01*
X14617095Y-81189701D01*
X14337743Y-81073989D01*
X14041184Y-81015000D01*
X13738816Y-81015000D01*
X13442257Y-81073989D01*
X13375001Y-81101847D01*
X13375001Y-74692002D01*
X14195000Y-74692002D01*
X14195000Y-75407997D01*
X14223867Y-75701087D01*
X14337943Y-76077146D01*
X14523193Y-76423725D01*
X14772497Y-76727503D01*
X15076275Y-76976807D01*
X15422853Y-77162057D01*
X15798912Y-77276133D01*
X16190000Y-77314652D01*
X16581087Y-77276133D01*
X16957146Y-77162057D01*
X17303725Y-76976807D01*
X17607503Y-76727503D01*
X17856807Y-76423725D01*
X18042057Y-76077147D01*
X18156133Y-75701088D01*
X18185000Y-75407998D01*
X18185000Y-74692003D01*
X18156133Y-74398913D01*
X18042057Y-74022853D01*
X17856807Y-73676275D01*
X17607503Y-73372497D01*
X17303725Y-73123193D01*
X16957147Y-72937943D01*
X16581088Y-72823867D01*
X16190000Y-72785348D01*
X15798913Y-72823867D01*
X15422854Y-72937943D01*
X15076276Y-73123193D01*
X14772498Y-73372497D01*
X14523193Y-73676275D01*
X14337943Y-74022853D01*
X14223867Y-74398912D01*
X14195000Y-74692002D01*
X13375001Y-74692002D01*
X13375001Y-68758153D01*
X13442257Y-68786011D01*
X13738816Y-68845000D01*
X14041184Y-68845000D01*
X14337743Y-68786011D01*
X14617095Y-68670299D01*
X14868505Y-68502312D01*
X15082312Y-68288505D01*
X15250299Y-68037095D01*
X15366011Y-67757743D01*
X15425000Y-67461184D01*
X15425000Y-67158816D01*
X15366011Y-66862257D01*
X15250299Y-66582905D01*
X15082312Y-66331495D01*
X14868505Y-66117688D01*
X14617095Y-65949701D01*
X14337743Y-65833989D01*
X14041184Y-65775000D01*
X13738816Y-65775000D01*
X13442257Y-65833989D01*
X13375001Y-65861847D01*
X13375001Y-59452002D01*
X14195000Y-59452002D01*
X14195000Y-60167997D01*
X14223867Y-60461087D01*
X14337943Y-60837146D01*
X14523193Y-61183725D01*
X14772497Y-61487503D01*
X15076275Y-61736807D01*
X15422853Y-61922057D01*
X15798912Y-62036133D01*
X16190000Y-62074652D01*
X16581087Y-62036133D01*
X16957146Y-61922057D01*
X17303725Y-61736807D01*
X17607503Y-61487503D01*
X17856807Y-61183725D01*
X18042057Y-60837147D01*
X18156133Y-60461088D01*
X18185000Y-60167998D01*
X18185000Y-59452003D01*
X18156133Y-59158913D01*
X18042057Y-58782853D01*
X17856807Y-58436275D01*
X17607503Y-58132497D01*
X17303725Y-57883193D01*
X16957147Y-57697943D01*
X16581088Y-57583867D01*
X16190000Y-57545348D01*
X15798913Y-57583867D01*
X15422854Y-57697943D01*
X15076276Y-57883193D01*
X14772498Y-58132497D01*
X14523193Y-58436275D01*
X14337943Y-58782853D01*
X14223867Y-59158912D01*
X14195000Y-59452002D01*
X13375001Y-59452002D01*
X13375001Y-54828072D01*
X14820000Y-54828072D01*
X14944482Y-54815812D01*
X15064180Y-54779502D01*
X15174494Y-54720537D01*
X15271185Y-54641185D01*
X15350537Y-54544494D01*
X15409502Y-54434180D01*
X15431513Y-54361620D01*
X15563368Y-54493475D01*
X15806589Y-54655990D01*
X16076842Y-54767932D01*
X16363740Y-54825000D01*
X16656260Y-54825000D01*
X16943158Y-54767932D01*
X17213411Y-54655990D01*
X17456632Y-54493475D01*
X17663475Y-54286632D01*
X17825990Y-54043411D01*
X17937932Y-53773158D01*
X17995000Y-53486260D01*
X17995000Y-53193740D01*
X17951210Y-52973592D01*
X18196004Y-52728798D01*
X18225002Y-52705000D01*
X18319975Y-52589275D01*
X18390547Y-52457246D01*
X18434004Y-52313985D01*
X18445001Y-52202332D01*
X18445001Y-52202323D01*
X18448677Y-52165000D01*
X18445001Y-52127677D01*
X18445001Y-40113321D01*
X18448677Y-40075998D01*
X18445001Y-40038675D01*
X18445001Y-40038666D01*
X18434004Y-39927013D01*
X18390547Y-39783752D01*
X18319975Y-39651723D01*
X18289004Y-39613985D01*
X18248800Y-39564995D01*
X18248796Y-39564991D01*
X18225002Y-39535998D01*
X18196010Y-39512205D01*
X17690296Y-39006492D01*
X17825990Y-38803411D01*
X17937932Y-38533158D01*
X17995000Y-38246260D01*
X17995000Y-37953740D01*
X17937932Y-37666842D01*
X17825990Y-37396589D01*
X17663475Y-37153368D01*
X17456632Y-36946525D01*
X17282240Y-36830000D01*
X17456632Y-36713475D01*
X17663475Y-36506632D01*
X17825990Y-36263411D01*
X17937932Y-35993158D01*
X17995000Y-35706260D01*
X17995000Y-35413740D01*
X17937932Y-35126842D01*
X17825990Y-34856589D01*
X17663475Y-34613368D01*
X17456632Y-34406525D01*
X17213411Y-34244010D01*
X16943158Y-34132068D01*
X16656260Y-34075000D01*
X16363740Y-34075000D01*
X16076842Y-34132068D01*
X15806589Y-34244010D01*
X15563368Y-34406525D01*
X15356525Y-34613368D01*
X15240000Y-34787760D01*
X15123475Y-34613368D01*
X14916632Y-34406525D01*
X14673411Y-34244010D01*
X14403158Y-34132068D01*
X14116260Y-34075000D01*
X13823740Y-34075000D01*
X13536842Y-34132068D01*
X13266589Y-34244010D01*
X13023368Y-34406525D01*
X12816525Y-34613368D01*
X12654010Y-34856589D01*
X12542068Y-35126842D01*
X12485000Y-35413740D01*
X12485000Y-35706260D01*
X12542068Y-35993158D01*
X12654010Y-36263411D01*
X12816525Y-36506632D01*
X13023368Y-36713475D01*
X13197760Y-36830000D01*
X13023368Y-36946525D01*
X12816525Y-37153368D01*
X12654010Y-37396589D01*
X12542068Y-37666842D01*
X12485000Y-37953740D01*
X12485000Y-38246260D01*
X12542068Y-38533158D01*
X12654010Y-38803411D01*
X12789704Y-39006492D01*
X12465000Y-39331196D01*
X12465000Y-39268061D01*
X12425226Y-39068102D01*
X12347205Y-38879744D01*
X12233937Y-38710226D01*
X12089774Y-38566063D01*
X11920256Y-38452795D01*
X11731898Y-38374774D01*
X11531939Y-38335000D01*
X11328061Y-38335000D01*
X11128102Y-38374774D01*
X10939744Y-38452795D01*
X10770226Y-38566063D01*
X10726289Y-38610000D01*
X10659802Y-38610000D01*
X10888503Y-38381299D01*
X10917501Y-38357501D01*
X10978181Y-38283562D01*
X11004851Y-38275472D01*
X11158387Y-38193405D01*
X11292962Y-38082962D01*
X11403405Y-37948387D01*
X11485472Y-37794851D01*
X11536008Y-37628255D01*
X11553072Y-37455001D01*
X11553072Y-36204999D01*
X11536008Y-36031745D01*
X11485472Y-35865149D01*
X11403405Y-35711613D01*
X11292962Y-35577038D01*
X11158387Y-35466595D01*
X11004851Y-35384528D01*
X10838255Y-35333992D01*
X10665001Y-35316928D01*
X10039999Y-35316928D01*
X9866745Y-35333992D01*
X9700149Y-35384528D01*
X9546613Y-35466595D01*
X9412038Y-35577038D01*
X9301595Y-35711613D01*
X9219528Y-35865149D01*
X9168992Y-36031745D01*
X9151928Y-36204999D01*
X9151928Y-37455001D01*
X9168992Y-37628255D01*
X9219528Y-37794851D01*
X9256388Y-37863811D01*
X8688271Y-38431928D01*
X8000000Y-38431928D01*
X7846255Y-38447071D01*
X7698418Y-38491916D01*
X7562171Y-38564742D01*
X7442749Y-38662749D01*
X7344742Y-38782171D01*
X7271916Y-38918418D01*
X7246622Y-39001804D01*
X5966141Y-37721324D01*
X6003485Y-37598216D01*
X6004294Y-37590000D01*
X6240224Y-37590000D01*
X6243992Y-37628255D01*
X6294528Y-37794851D01*
X6376595Y-37948387D01*
X6487038Y-38082962D01*
X6621613Y-38193405D01*
X6775149Y-38275472D01*
X6941745Y-38326008D01*
X7114999Y-38343072D01*
X7740001Y-38343072D01*
X7913255Y-38326008D01*
X8079851Y-38275472D01*
X8233387Y-38193405D01*
X8367962Y-38082962D01*
X8478405Y-37948387D01*
X8560472Y-37794851D01*
X8611008Y-37628255D01*
X8628072Y-37455001D01*
X8628072Y-36204999D01*
X8611008Y-36031745D01*
X8560472Y-35865149D01*
X8478405Y-35711613D01*
X8367962Y-35577038D01*
X8233387Y-35466595D01*
X8079851Y-35384528D01*
X7913255Y-35333992D01*
X7740001Y-35316928D01*
X7114999Y-35316928D01*
X6941745Y-35333992D01*
X6775149Y-35384528D01*
X6621613Y-35466595D01*
X6487038Y-35577038D01*
X6376595Y-35711613D01*
X6294528Y-35865149D01*
X6243992Y-36031745D01*
X6240224Y-36070000D01*
X6010211Y-36070000D01*
X6003485Y-36001706D01*
X5952949Y-35835110D01*
X5870882Y-35681574D01*
X5760439Y-35546999D01*
X5625864Y-35436556D01*
X5472328Y-35354489D01*
X5305732Y-35303953D01*
X5132478Y-35286889D01*
X4507476Y-35286889D01*
X4334222Y-35303953D01*
X4167626Y-35354489D01*
X4014090Y-35436556D01*
X3879515Y-35546999D01*
X3769072Y-35681574D01*
X3687005Y-35835110D01*
X3636469Y-36001706D01*
X3619405Y-36174960D01*
X3619405Y-37424962D01*
X3636469Y-37598216D01*
X3687005Y-37764812D01*
X3769072Y-37918348D01*
X3879515Y-38052923D01*
X4014090Y-38163366D01*
X4167626Y-38245433D01*
X4334222Y-38295969D01*
X4397407Y-38302192D01*
X4527143Y-38431928D01*
X3050000Y-38431928D01*
X2896255Y-38447071D01*
X2748418Y-38491916D01*
X2612171Y-38564742D01*
X2492749Y-38662749D01*
X2394742Y-38782171D01*
X2321916Y-38918418D01*
X2277071Y-39066255D01*
X2261928Y-39220000D01*
X2261928Y-39520000D01*
X2277071Y-39673745D01*
X2321916Y-39821582D01*
X2394742Y-39957829D01*
X2433454Y-40005000D01*
X2394742Y-40052171D01*
X2321916Y-40188418D01*
X2277071Y-40336255D01*
X2261928Y-40490000D01*
X2261928Y-40790000D01*
X2277071Y-40943745D01*
X2321916Y-41091582D01*
X2394742Y-41227829D01*
X2433454Y-41275000D01*
X2394742Y-41322171D01*
X2321916Y-41458418D01*
X2277071Y-41606255D01*
X2261928Y-41760000D01*
X2261928Y-42060000D01*
X2277071Y-42213745D01*
X2321916Y-42361582D01*
X2394742Y-42497829D01*
X2433454Y-42545000D01*
X2394742Y-42592171D01*
X2321916Y-42728418D01*
X2277071Y-42876255D01*
X2261928Y-43030000D01*
X2261928Y-43330000D01*
X2277071Y-43483745D01*
X2321916Y-43631582D01*
X2394742Y-43767829D01*
X2433454Y-43815000D01*
X2394742Y-43862171D01*
X2321916Y-43998418D01*
X2277071Y-44146255D01*
X2261928Y-44300000D01*
X2261928Y-44334990D01*
X1297332Y-44334990D01*
X1260009Y-44331314D01*
X1222686Y-44334990D01*
X1222677Y-44334990D01*
X1111024Y-44345987D01*
X967763Y-44389444D01*
X835734Y-44460016D01*
X762000Y-44520528D01*
X762000Y-37764796D01*
X762005Y-37764812D01*
X844072Y-37918348D01*
X954515Y-38052923D01*
X1089090Y-38163366D01*
X1242626Y-38245433D01*
X1409222Y-38295969D01*
X1582476Y-38313033D01*
X2207478Y-38313033D01*
X2380732Y-38295969D01*
X2547328Y-38245433D01*
X2700864Y-38163366D01*
X2835439Y-38052923D01*
X2945882Y-37918348D01*
X3027949Y-37764812D01*
X3078485Y-37598216D01*
X3095549Y-37424962D01*
X3095549Y-36174960D01*
X3078485Y-36001706D01*
X3027949Y-35835110D01*
X2945882Y-35681574D01*
X2835439Y-35546999D01*
X2700864Y-35436556D01*
X2547328Y-35354489D01*
X2380732Y-35303953D01*
X2207478Y-35286889D01*
X1582476Y-35286889D01*
X1445224Y-35300407D01*
X1110010Y-34965193D01*
X1110010Y-34123070D01*
X8067780Y-34123070D01*
X8082738Y-34197276D01*
X8189878Y-34450535D01*
X8344368Y-34678026D01*
X8540271Y-34871006D01*
X8770058Y-35022059D01*
X9024899Y-35125381D01*
X9295000Y-35177000D01*
X10033000Y-35177000D01*
X10033000Y-33907000D01*
X10287000Y-33907000D01*
X10287000Y-35177000D01*
X11025000Y-35177000D01*
X11295101Y-35125381D01*
X11549942Y-35022059D01*
X11779729Y-34871006D01*
X11975632Y-34678026D01*
X12130122Y-34450535D01*
X12237262Y-34197276D01*
X12252220Y-34123070D01*
X12129720Y-33907000D01*
X10287000Y-33907000D01*
X10033000Y-33907000D01*
X8190280Y-33907000D01*
X8067780Y-34123070D01*
X1110010Y-34123070D01*
X1110010Y-33436930D01*
X8067780Y-33436930D01*
X8190280Y-33653000D01*
X10033000Y-33653000D01*
X10033000Y-32383000D01*
X10287000Y-32383000D01*
X10287000Y-33653000D01*
X12129720Y-33653000D01*
X12252220Y-33436930D01*
X12237262Y-33362724D01*
X12130122Y-33109465D01*
X11975632Y-32881974D01*
X11779729Y-32688994D01*
X11549942Y-32537941D01*
X11295101Y-32434619D01*
X11025000Y-32383000D01*
X10287000Y-32383000D01*
X10033000Y-32383000D01*
X9295000Y-32383000D01*
X9024899Y-32434619D01*
X8770058Y-32537941D01*
X8540271Y-32688994D01*
X8344368Y-32881974D01*
X8189878Y-33109465D01*
X8082738Y-33362724D01*
X8067780Y-33436930D01*
X1110010Y-33436930D01*
X1110010Y-29580000D01*
X3946928Y-29580000D01*
X3946928Y-32580000D01*
X3959188Y-32704482D01*
X3995498Y-32824180D01*
X4054463Y-32934494D01*
X4133815Y-33031185D01*
X4230506Y-33110537D01*
X4340820Y-33169502D01*
X4460518Y-33205812D01*
X4585000Y-33218072D01*
X6335000Y-33218072D01*
X6459482Y-33205812D01*
X6579180Y-33169502D01*
X6689494Y-33110537D01*
X6786185Y-33031185D01*
X6865537Y-32934494D01*
X6924502Y-32824180D01*
X6960812Y-32704482D01*
X6973072Y-32580000D01*
X6973072Y-30155000D01*
X13296928Y-30155000D01*
X13296928Y-32005000D01*
X13309188Y-32129482D01*
X13345498Y-32249180D01*
X13404463Y-32359494D01*
X13483815Y-32456185D01*
X13580506Y-32535537D01*
X13690820Y-32594502D01*
X13810518Y-32630812D01*
X13935000Y-32643072D01*
X15785000Y-32643072D01*
X15909482Y-32630812D01*
X16029180Y-32594502D01*
X16139494Y-32535537D01*
X16236185Y-32456185D01*
X16315537Y-32359494D01*
X16374502Y-32249180D01*
X16410812Y-32129482D01*
X16423072Y-32005000D01*
X16423072Y-30155000D01*
X16410812Y-30030518D01*
X16374502Y-29910820D01*
X16315537Y-29800506D01*
X16236185Y-29703815D01*
X16139494Y-29624463D01*
X16029180Y-29565498D01*
X15909482Y-29529188D01*
X15785000Y-29516928D01*
X13935000Y-29516928D01*
X13810518Y-29529188D01*
X13690820Y-29565498D01*
X13580506Y-29624463D01*
X13483815Y-29703815D01*
X13404463Y-29800506D01*
X13345498Y-29910820D01*
X13309188Y-30030518D01*
X13296928Y-30155000D01*
X6973072Y-30155000D01*
X6973072Y-29580000D01*
X6960812Y-29455518D01*
X6924502Y-29335820D01*
X6865537Y-29225506D01*
X6786185Y-29128815D01*
X6689494Y-29049463D01*
X6579180Y-28990498D01*
X6459482Y-28954188D01*
X6335000Y-28941928D01*
X4585000Y-28941928D01*
X4460518Y-28954188D01*
X4340820Y-28990498D01*
X4230506Y-29049463D01*
X4133815Y-29128815D01*
X4054463Y-29225506D01*
X3995498Y-29335820D01*
X3959188Y-29455518D01*
X3946928Y-29580000D01*
X1110010Y-29580000D01*
X1110010Y-25680000D01*
X8018241Y-25680000D01*
X8045214Y-25953860D01*
X8125096Y-26217195D01*
X8254817Y-26459887D01*
X8429392Y-26672608D01*
X8642113Y-26847183D01*
X8884805Y-26976904D01*
X9148140Y-27056786D01*
X9353375Y-27077000D01*
X10966625Y-27077000D01*
X11171860Y-27056786D01*
X11435195Y-26976904D01*
X11677887Y-26847183D01*
X11890608Y-26672608D01*
X12065183Y-26459887D01*
X12194904Y-26217195D01*
X12274786Y-25953860D01*
X12301759Y-25680000D01*
X12274786Y-25406140D01*
X12194904Y-25142805D01*
X12065183Y-24900113D01*
X11890608Y-24687392D01*
X11677887Y-24512817D01*
X11435195Y-24383096D01*
X11171860Y-24303214D01*
X10966625Y-24283000D01*
X9353375Y-24283000D01*
X9148140Y-24303214D01*
X8884805Y-24383096D01*
X8642113Y-24512817D01*
X8429392Y-24687392D01*
X8254817Y-24900113D01*
X8125096Y-25142805D01*
X8045214Y-25406140D01*
X8018241Y-25680000D01*
X1110010Y-25680000D01*
X1110010Y-22058070D01*
X8067780Y-22058070D01*
X8082738Y-22132276D01*
X8189878Y-22385535D01*
X8344368Y-22613026D01*
X8540271Y-22806006D01*
X8770058Y-22957059D01*
X9024899Y-23060381D01*
X9295000Y-23112000D01*
X10033000Y-23112000D01*
X10033000Y-21842000D01*
X10287000Y-21842000D01*
X10287000Y-23112000D01*
X11025000Y-23112000D01*
X11295101Y-23060381D01*
X11549942Y-22957059D01*
X11779729Y-22806006D01*
X11975632Y-22613026D01*
X12130122Y-22385535D01*
X12237262Y-22132276D01*
X12252220Y-22058070D01*
X12129720Y-21842000D01*
X10287000Y-21842000D01*
X10033000Y-21842000D01*
X8190280Y-21842000D01*
X8067780Y-22058070D01*
X1110010Y-22058070D01*
X1110010Y-21371930D01*
X8067780Y-21371930D01*
X8190280Y-21588000D01*
X10033000Y-21588000D01*
X10033000Y-20318000D01*
X10287000Y-20318000D01*
X10287000Y-21588000D01*
X12129720Y-21588000D01*
X12252220Y-21371930D01*
X12237262Y-21297724D01*
X12130122Y-21044465D01*
X11975632Y-20816974D01*
X11779729Y-20623994D01*
X11549942Y-20472941D01*
X11295101Y-20369619D01*
X11025000Y-20318000D01*
X10287000Y-20318000D01*
X10033000Y-20318000D01*
X9295000Y-20318000D01*
X9024899Y-20369619D01*
X8770058Y-20472941D01*
X8540271Y-20623994D01*
X8344368Y-20816974D01*
X8189878Y-21044465D01*
X8082738Y-21297724D01*
X8067780Y-21371930D01*
X1110010Y-21371930D01*
X1110010Y-17515000D01*
X3946928Y-17515000D01*
X3946928Y-20515000D01*
X3959188Y-20639482D01*
X3995498Y-20759180D01*
X4054463Y-20869494D01*
X4133815Y-20966185D01*
X4230506Y-21045537D01*
X4340820Y-21104502D01*
X4460518Y-21140812D01*
X4585000Y-21153072D01*
X6335000Y-21153072D01*
X6459482Y-21140812D01*
X6579180Y-21104502D01*
X6689494Y-21045537D01*
X6786185Y-20966185D01*
X6865537Y-20869494D01*
X6924502Y-20759180D01*
X6960812Y-20639482D01*
X6973072Y-20515000D01*
X6973072Y-18090000D01*
X13296928Y-18090000D01*
X13296928Y-19940000D01*
X13309188Y-20064482D01*
X13345498Y-20184180D01*
X13404463Y-20294494D01*
X13483815Y-20391185D01*
X13580506Y-20470537D01*
X13690820Y-20529502D01*
X13810518Y-20565812D01*
X13935000Y-20578072D01*
X15785000Y-20578072D01*
X15909482Y-20565812D01*
X16029180Y-20529502D01*
X16139494Y-20470537D01*
X16236185Y-20391185D01*
X16315537Y-20294494D01*
X16374502Y-20184180D01*
X16410812Y-20064482D01*
X16423072Y-19940000D01*
X16423072Y-18090000D01*
X16410812Y-17965518D01*
X16374502Y-17845820D01*
X16315537Y-17735506D01*
X16236185Y-17638815D01*
X16139494Y-17559463D01*
X16029180Y-17500498D01*
X15909482Y-17464188D01*
X15785000Y-17451928D01*
X13935000Y-17451928D01*
X13810518Y-17464188D01*
X13690820Y-17500498D01*
X13580506Y-17559463D01*
X13483815Y-17638815D01*
X13404463Y-17735506D01*
X13345498Y-17845820D01*
X13309188Y-17965518D01*
X13296928Y-18090000D01*
X6973072Y-18090000D01*
X6973072Y-17515000D01*
X6960812Y-17390518D01*
X6924502Y-17270820D01*
X6865537Y-17160506D01*
X6786185Y-17063815D01*
X6689494Y-16984463D01*
X6579180Y-16925498D01*
X6459482Y-16889188D01*
X6335000Y-16876928D01*
X4585000Y-16876928D01*
X4460518Y-16889188D01*
X4340820Y-16925498D01*
X4230506Y-16984463D01*
X4133815Y-17063815D01*
X4054463Y-17160506D01*
X3995498Y-17270820D01*
X3959188Y-17390518D01*
X3946928Y-17515000D01*
X1110010Y-17515000D01*
X1110010Y-13615000D01*
X8018241Y-13615000D01*
X8045214Y-13888860D01*
X8125096Y-14152195D01*
X8254817Y-14394887D01*
X8429392Y-14607608D01*
X8642113Y-14782183D01*
X8884805Y-14911904D01*
X9148140Y-14991786D01*
X9353375Y-15012000D01*
X10966625Y-15012000D01*
X11171860Y-14991786D01*
X11435195Y-14911904D01*
X11677887Y-14782183D01*
X11890608Y-14607608D01*
X12065183Y-14394887D01*
X12194904Y-14152195D01*
X12274786Y-13888860D01*
X12301759Y-13615000D01*
X12274786Y-13341140D01*
X12194904Y-13077805D01*
X12065183Y-12835113D01*
X11890608Y-12622392D01*
X11677887Y-12447817D01*
X11435195Y-12318096D01*
X11171860Y-12238214D01*
X10966625Y-12218000D01*
X9353375Y-12218000D01*
X9148140Y-12238214D01*
X8884805Y-12318096D01*
X8642113Y-12447817D01*
X8429392Y-12622392D01*
X8254817Y-12835113D01*
X8125096Y-13077805D01*
X8045214Y-13341140D01*
X8018241Y-13615000D01*
X1110010Y-13615000D01*
X1110010Y-9993070D01*
X8067780Y-9993070D01*
X8082738Y-10067276D01*
X8189878Y-10320535D01*
X8344368Y-10548026D01*
X8540271Y-10741006D01*
X8770058Y-10892059D01*
X9024899Y-10995381D01*
X9295000Y-11047000D01*
X10033000Y-11047000D01*
X10033000Y-9777000D01*
X10287000Y-9777000D01*
X10287000Y-11047000D01*
X11025000Y-11047000D01*
X11295101Y-10995381D01*
X11549942Y-10892059D01*
X11779729Y-10741006D01*
X11975632Y-10548026D01*
X12130122Y-10320535D01*
X12237262Y-10067276D01*
X12252220Y-9993070D01*
X12129720Y-9777000D01*
X10287000Y-9777000D01*
X10033000Y-9777000D01*
X8190280Y-9777000D01*
X8067780Y-9993070D01*
X1110010Y-9993070D01*
X1110010Y-9306930D01*
X8067780Y-9306930D01*
X8190280Y-9523000D01*
X10033000Y-9523000D01*
X10033000Y-8253000D01*
X10287000Y-8253000D01*
X10287000Y-9523000D01*
X12129720Y-9523000D01*
X12252220Y-9306930D01*
X12237262Y-9232724D01*
X12130122Y-8979465D01*
X11975632Y-8751974D01*
X11779729Y-8558994D01*
X11549942Y-8407941D01*
X11295101Y-8304619D01*
X11025000Y-8253000D01*
X10287000Y-8253000D01*
X10033000Y-8253000D01*
X9295000Y-8253000D01*
X9024899Y-8304619D01*
X8770058Y-8407941D01*
X8540271Y-8558994D01*
X8344368Y-8751974D01*
X8189878Y-8979465D01*
X8082738Y-9232724D01*
X8067780Y-9306930D01*
X1110010Y-9306930D01*
X1110010Y-5450000D01*
X3946928Y-5450000D01*
X3946928Y-8450000D01*
X3959188Y-8574482D01*
X3995498Y-8694180D01*
X4054463Y-8804494D01*
X4133815Y-8901185D01*
X4230506Y-8980537D01*
X4340820Y-9039502D01*
X4460518Y-9075812D01*
X4585000Y-9088072D01*
X6335000Y-9088072D01*
X6459482Y-9075812D01*
X6579180Y-9039502D01*
X6689494Y-8980537D01*
X6786185Y-8901185D01*
X6865537Y-8804494D01*
X6924502Y-8694180D01*
X6960812Y-8574482D01*
X6973072Y-8450000D01*
X6973072Y-6025000D01*
X13296928Y-6025000D01*
X13296928Y-7875000D01*
X13309188Y-7999482D01*
X13345498Y-8119180D01*
X13404463Y-8229494D01*
X13483815Y-8326185D01*
X13580506Y-8405537D01*
X13690820Y-8464502D01*
X13810518Y-8500812D01*
X13935000Y-8513072D01*
X15785000Y-8513072D01*
X15909482Y-8500812D01*
X16029180Y-8464502D01*
X16139494Y-8405537D01*
X16236185Y-8326185D01*
X16315537Y-8229494D01*
X16374502Y-8119180D01*
X16410812Y-7999482D01*
X16423072Y-7875000D01*
X16423072Y-6025000D01*
X16410812Y-5900518D01*
X16374502Y-5780820D01*
X16315537Y-5670506D01*
X16236185Y-5573815D01*
X16139494Y-5494463D01*
X16029180Y-5435498D01*
X15909482Y-5399188D01*
X15785000Y-5386928D01*
X13935000Y-5386928D01*
X13810518Y-5399188D01*
X13690820Y-5435498D01*
X13580506Y-5494463D01*
X13483815Y-5573815D01*
X13404463Y-5670506D01*
X13345498Y-5780820D01*
X13309188Y-5900518D01*
X13296928Y-6025000D01*
X6973072Y-6025000D01*
X6973072Y-5450000D01*
X6960812Y-5325518D01*
X6924502Y-5205820D01*
X6865537Y-5095506D01*
X6786185Y-4998815D01*
X6689494Y-4919463D01*
X6579180Y-4860498D01*
X6459482Y-4824188D01*
X6335000Y-4811928D01*
X4585000Y-4811928D01*
X4460518Y-4824188D01*
X4340820Y-4860498D01*
X4230506Y-4919463D01*
X4133815Y-4998815D01*
X4054463Y-5095506D01*
X3995498Y-5205820D01*
X3959188Y-5325518D01*
X3946928Y-5450000D01*
X1110010Y-5450000D01*
X1110010Y-1110010D01*
X8095609Y-1110010D01*
X8045214Y-1276140D01*
%TA.AperFunction,Conductor*%
D21*
G36*
X8045214Y-1276140D02*
G01*
X8018241Y-1550000D01*
X8045214Y-1823860D01*
X8125096Y-2087195D01*
X8254817Y-2329887D01*
X8429392Y-2542608D01*
X8642113Y-2717183D01*
X8884805Y-2846904D01*
X9148140Y-2926786D01*
X9353375Y-2947000D01*
X10966625Y-2947000D01*
X11171860Y-2926786D01*
X11435195Y-2846904D01*
X11677887Y-2717183D01*
X11890608Y-2542608D01*
X12065183Y-2329887D01*
X12194904Y-2087195D01*
X12274786Y-1823860D01*
X12301759Y-1550000D01*
X12274786Y-1276140D01*
X12224391Y-1110010D01*
X18889990Y-1110010D01*
X18889991Y-83803818D01*
X9604004Y-93089806D01*
X9575000Y-93113609D01*
X9519872Y-93180784D01*
X9480027Y-93229334D01*
X9409456Y-93361363D01*
X9409455Y-93361364D01*
X9365998Y-93504625D01*
X9355001Y-93616278D01*
X9355001Y-93616288D01*
X9351325Y-93653610D01*
X9355001Y-93690933D01*
X9355001Y-96254104D01*
X9175750Y-96255000D01*
X9017000Y-96413750D01*
X9017000Y-97663000D01*
X9037000Y-97663000D01*
X9037000Y-97917000D01*
X9017000Y-97917000D01*
X9017000Y-97937000D01*
X8763000Y-97937000D01*
X8763000Y-97917000D01*
X7513750Y-97917000D01*
X7355000Y-98075750D01*
X7354104Y-98255001D01*
X2808392Y-98255001D01*
X2558391Y-98005000D01*
X2686260Y-98005000D01*
X2973158Y-97947932D01*
X3243411Y-97835990D01*
X3486632Y-97673475D01*
X3693475Y-97466632D01*
X3855990Y-97223411D01*
X3967932Y-96953158D01*
X3980495Y-96890000D01*
X7351928Y-96890000D01*
X7355000Y-97504250D01*
X7513750Y-97663000D01*
X8763000Y-97663000D01*
X8763000Y-96413750D01*
X8604250Y-96255000D01*
X7990000Y-96251928D01*
X7865518Y-96264188D01*
X7745820Y-96300498D01*
X7635506Y-96359463D01*
X7538815Y-96438815D01*
X7459463Y-96535506D01*
X7400498Y-96645820D01*
X7364188Y-96765518D01*
X7351928Y-96890000D01*
X3980495Y-96890000D01*
X4025000Y-96666260D01*
X4025000Y-96373740D01*
X3967932Y-96086842D01*
X3855990Y-95816589D01*
X3693475Y-95573368D01*
X3486632Y-95366525D01*
X3312240Y-95250000D01*
X3486632Y-95133475D01*
X3693475Y-94926632D01*
X3855990Y-94683411D01*
X3967932Y-94413158D01*
X4025000Y-94126260D01*
X4025000Y-93833740D01*
X3967932Y-93546842D01*
X3925757Y-93445021D01*
X7437031Y-93445021D01*
X7474353Y-93448697D01*
X7511675Y-93445021D01*
X7511686Y-93445021D01*
X7623339Y-93434024D01*
X7766600Y-93390567D01*
X7898629Y-93319995D01*
X8014354Y-93225022D01*
X8038157Y-93196018D01*
X13126004Y-88108172D01*
X13155002Y-88084374D01*
X13183212Y-88050000D01*
X13249975Y-87968650D01*
X13320547Y-87836620D01*
X13329890Y-87805820D01*
X13364004Y-87693359D01*
X13375001Y-87581706D01*
X13375001Y-87581697D01*
X13378677Y-87544374D01*
X13375001Y-87507051D01*
X13375001Y-83998153D01*
X13442257Y-84026011D01*
X13738816Y-84085000D01*
X14041184Y-84085000D01*
X14337743Y-84026011D01*
X14617095Y-83910299D01*
X14868505Y-83742312D01*
X15082312Y-83528505D01*
X15250299Y-83277095D01*
X15366011Y-82997743D01*
X15425000Y-82701184D01*
X15425000Y-82398816D01*
X15366011Y-82102257D01*
X15250299Y-81822905D01*
X15082312Y-81571495D01*
X14868505Y-81357688D01*
X14617095Y-81189701D01*
X14337743Y-81073989D01*
X14041184Y-81015000D01*
X13738816Y-81015000D01*
X13442257Y-81073989D01*
X13375001Y-81101847D01*
X13375001Y-74692002D01*
X14195000Y-74692002D01*
X14195000Y-75407997D01*
X14223867Y-75701087D01*
X14337943Y-76077146D01*
X14523193Y-76423725D01*
X14772497Y-76727503D01*
X15076275Y-76976807D01*
X15422853Y-77162057D01*
X15798912Y-77276133D01*
X16190000Y-77314652D01*
X16581087Y-77276133D01*
X16957146Y-77162057D01*
X17303725Y-76976807D01*
X17607503Y-76727503D01*
X17856807Y-76423725D01*
X18042057Y-76077147D01*
X18156133Y-75701088D01*
X18185000Y-75407998D01*
X18185000Y-74692003D01*
X18156133Y-74398913D01*
X18042057Y-74022853D01*
X17856807Y-73676275D01*
X17607503Y-73372497D01*
X17303725Y-73123193D01*
X16957147Y-72937943D01*
X16581088Y-72823867D01*
X16190000Y-72785348D01*
X15798913Y-72823867D01*
X15422854Y-72937943D01*
X15076276Y-73123193D01*
X14772498Y-73372497D01*
X14523193Y-73676275D01*
X14337943Y-74022853D01*
X14223867Y-74398912D01*
X14195000Y-74692002D01*
X13375001Y-74692002D01*
X13375001Y-68758153D01*
X13442257Y-68786011D01*
X13738816Y-68845000D01*
X14041184Y-68845000D01*
X14337743Y-68786011D01*
X14617095Y-68670299D01*
X14868505Y-68502312D01*
X15082312Y-68288505D01*
X15250299Y-68037095D01*
X15366011Y-67757743D01*
X15425000Y-67461184D01*
X15425000Y-67158816D01*
X15366011Y-66862257D01*
X15250299Y-66582905D01*
X15082312Y-66331495D01*
X14868505Y-66117688D01*
X14617095Y-65949701D01*
X14337743Y-65833989D01*
X14041184Y-65775000D01*
X13738816Y-65775000D01*
X13442257Y-65833989D01*
X13375001Y-65861847D01*
X13375001Y-59452002D01*
X14195000Y-59452002D01*
X14195000Y-60167997D01*
X14223867Y-60461087D01*
X14337943Y-60837146D01*
X14523193Y-61183725D01*
X14772497Y-61487503D01*
X15076275Y-61736807D01*
X15422853Y-61922057D01*
X15798912Y-62036133D01*
X16190000Y-62074652D01*
X16581087Y-62036133D01*
X16957146Y-61922057D01*
X17303725Y-61736807D01*
X17607503Y-61487503D01*
X17856807Y-61183725D01*
X18042057Y-60837147D01*
X18156133Y-60461088D01*
X18185000Y-60167998D01*
X18185000Y-59452003D01*
X18156133Y-59158913D01*
X18042057Y-58782853D01*
X17856807Y-58436275D01*
X17607503Y-58132497D01*
X17303725Y-57883193D01*
X16957147Y-57697943D01*
X16581088Y-57583867D01*
X16190000Y-57545348D01*
X15798913Y-57583867D01*
X15422854Y-57697943D01*
X15076276Y-57883193D01*
X14772498Y-58132497D01*
X14523193Y-58436275D01*
X14337943Y-58782853D01*
X14223867Y-59158912D01*
X14195000Y-59452002D01*
X13375001Y-59452002D01*
X13375001Y-54828072D01*
X14820000Y-54828072D01*
X14944482Y-54815812D01*
X15064180Y-54779502D01*
X15174494Y-54720537D01*
X15271185Y-54641185D01*
X15350537Y-54544494D01*
X15409502Y-54434180D01*
X15431513Y-54361620D01*
X15563368Y-54493475D01*
X15806589Y-54655990D01*
X16076842Y-54767932D01*
X16363740Y-54825000D01*
X16656260Y-54825000D01*
X16943158Y-54767932D01*
X17213411Y-54655990D01*
X17456632Y-54493475D01*
X17663475Y-54286632D01*
X17825990Y-54043411D01*
X17937932Y-53773158D01*
X17995000Y-53486260D01*
X17995000Y-53193740D01*
X17951210Y-52973592D01*
X18196004Y-52728798D01*
X18225002Y-52705000D01*
X18319975Y-52589275D01*
X18390547Y-52457246D01*
X18434004Y-52313985D01*
X18445001Y-52202332D01*
X18445001Y-52202323D01*
X18448677Y-52165000D01*
X18445001Y-52127677D01*
X18445001Y-40113321D01*
X18448677Y-40075998D01*
X18445001Y-40038675D01*
X18445001Y-40038666D01*
X18434004Y-39927013D01*
X18390547Y-39783752D01*
X18319975Y-39651723D01*
X18289004Y-39613985D01*
X18248800Y-39564995D01*
X18248796Y-39564991D01*
X18225002Y-39535998D01*
X18196010Y-39512205D01*
X17690296Y-39006492D01*
X17825990Y-38803411D01*
X17937932Y-38533158D01*
X17995000Y-38246260D01*
X17995000Y-37953740D01*
X17937932Y-37666842D01*
X17825990Y-37396589D01*
X17663475Y-37153368D01*
X17456632Y-36946525D01*
X17282240Y-36830000D01*
X17456632Y-36713475D01*
X17663475Y-36506632D01*
X17825990Y-36263411D01*
X17937932Y-35993158D01*
X17995000Y-35706260D01*
X17995000Y-35413740D01*
X17937932Y-35126842D01*
X17825990Y-34856589D01*
X17663475Y-34613368D01*
X17456632Y-34406525D01*
X17213411Y-34244010D01*
X16943158Y-34132068D01*
X16656260Y-34075000D01*
X16363740Y-34075000D01*
X16076842Y-34132068D01*
X15806589Y-34244010D01*
X15563368Y-34406525D01*
X15356525Y-34613368D01*
X15240000Y-34787760D01*
X15123475Y-34613368D01*
X14916632Y-34406525D01*
X14673411Y-34244010D01*
X14403158Y-34132068D01*
X14116260Y-34075000D01*
X13823740Y-34075000D01*
X13536842Y-34132068D01*
X13266589Y-34244010D01*
X13023368Y-34406525D01*
X12816525Y-34613368D01*
X12654010Y-34856589D01*
X12542068Y-35126842D01*
X12485000Y-35413740D01*
X12485000Y-35706260D01*
X12542068Y-35993158D01*
X12654010Y-36263411D01*
X12816525Y-36506632D01*
X13023368Y-36713475D01*
X13197760Y-36830000D01*
X13023368Y-36946525D01*
X12816525Y-37153368D01*
X12654010Y-37396589D01*
X12542068Y-37666842D01*
X12485000Y-37953740D01*
X12485000Y-38246260D01*
X12542068Y-38533158D01*
X12654010Y-38803411D01*
X12789704Y-39006492D01*
X12465000Y-39331196D01*
X12465000Y-39268061D01*
X12425226Y-39068102D01*
X12347205Y-38879744D01*
X12233937Y-38710226D01*
X12089774Y-38566063D01*
X11920256Y-38452795D01*
X11731898Y-38374774D01*
X11531939Y-38335000D01*
X11328061Y-38335000D01*
X11128102Y-38374774D01*
X10939744Y-38452795D01*
X10770226Y-38566063D01*
X10726289Y-38610000D01*
X10659802Y-38610000D01*
X10888503Y-38381299D01*
X10917501Y-38357501D01*
X10978181Y-38283562D01*
X11004851Y-38275472D01*
X11158387Y-38193405D01*
X11292962Y-38082962D01*
X11403405Y-37948387D01*
X11485472Y-37794851D01*
X11536008Y-37628255D01*
X11553072Y-37455001D01*
X11553072Y-36204999D01*
X11536008Y-36031745D01*
X11485472Y-35865149D01*
X11403405Y-35711613D01*
X11292962Y-35577038D01*
X11158387Y-35466595D01*
X11004851Y-35384528D01*
X10838255Y-35333992D01*
X10665001Y-35316928D01*
X10039999Y-35316928D01*
X9866745Y-35333992D01*
X9700149Y-35384528D01*
X9546613Y-35466595D01*
X9412038Y-35577038D01*
X9301595Y-35711613D01*
X9219528Y-35865149D01*
X9168992Y-36031745D01*
X9151928Y-36204999D01*
X9151928Y-37455001D01*
X9168992Y-37628255D01*
X9219528Y-37794851D01*
X9256388Y-37863811D01*
X8688271Y-38431928D01*
X8000000Y-38431928D01*
X7846255Y-38447071D01*
X7698418Y-38491916D01*
X7562171Y-38564742D01*
X7442749Y-38662749D01*
X7344742Y-38782171D01*
X7271916Y-38918418D01*
X7246622Y-39001804D01*
X5966141Y-37721324D01*
X6003485Y-37598216D01*
X6004294Y-37590000D01*
X6240224Y-37590000D01*
X6243992Y-37628255D01*
X6294528Y-37794851D01*
X6376595Y-37948387D01*
X6487038Y-38082962D01*
X6621613Y-38193405D01*
X6775149Y-38275472D01*
X6941745Y-38326008D01*
X7114999Y-38343072D01*
X7740001Y-38343072D01*
X7913255Y-38326008D01*
X8079851Y-38275472D01*
X8233387Y-38193405D01*
X8367962Y-38082962D01*
X8478405Y-37948387D01*
X8560472Y-37794851D01*
X8611008Y-37628255D01*
X8628072Y-37455001D01*
X8628072Y-36204999D01*
X8611008Y-36031745D01*
X8560472Y-35865149D01*
X8478405Y-35711613D01*
X8367962Y-35577038D01*
X8233387Y-35466595D01*
X8079851Y-35384528D01*
X7913255Y-35333992D01*
X7740001Y-35316928D01*
X7114999Y-35316928D01*
X6941745Y-35333992D01*
X6775149Y-35384528D01*
X6621613Y-35466595D01*
X6487038Y-35577038D01*
X6376595Y-35711613D01*
X6294528Y-35865149D01*
X6243992Y-36031745D01*
X6240224Y-36070000D01*
X6010211Y-36070000D01*
X6003485Y-36001706D01*
X5952949Y-35835110D01*
X5870882Y-35681574D01*
X5760439Y-35546999D01*
X5625864Y-35436556D01*
X5472328Y-35354489D01*
X5305732Y-35303953D01*
X5132478Y-35286889D01*
X4507476Y-35286889D01*
X4334222Y-35303953D01*
X4167626Y-35354489D01*
X4014090Y-35436556D01*
X3879515Y-35546999D01*
X3769072Y-35681574D01*
X3687005Y-35835110D01*
X3636469Y-36001706D01*
X3619405Y-36174960D01*
X3619405Y-37424962D01*
X3636469Y-37598216D01*
X3687005Y-37764812D01*
X3769072Y-37918348D01*
X3879515Y-38052923D01*
X4014090Y-38163366D01*
X4167626Y-38245433D01*
X4334222Y-38295969D01*
X4397407Y-38302192D01*
X4527143Y-38431928D01*
X3050000Y-38431928D01*
X2896255Y-38447071D01*
X2748418Y-38491916D01*
X2612171Y-38564742D01*
X2492749Y-38662749D01*
X2394742Y-38782171D01*
X2321916Y-38918418D01*
X2277071Y-39066255D01*
X2261928Y-39220000D01*
X2261928Y-39520000D01*
X2277071Y-39673745D01*
X2321916Y-39821582D01*
X2394742Y-39957829D01*
X2433454Y-40005000D01*
X2394742Y-40052171D01*
X2321916Y-40188418D01*
X2277071Y-40336255D01*
X2261928Y-40490000D01*
X2261928Y-40790000D01*
X2277071Y-40943745D01*
X2321916Y-41091582D01*
X2394742Y-41227829D01*
X2433454Y-41275000D01*
X2394742Y-41322171D01*
X2321916Y-41458418D01*
X2277071Y-41606255D01*
X2261928Y-41760000D01*
X2261928Y-42060000D01*
X2277071Y-42213745D01*
X2321916Y-42361582D01*
X2394742Y-42497829D01*
X2433454Y-42545000D01*
X2394742Y-42592171D01*
X2321916Y-42728418D01*
X2277071Y-42876255D01*
X2261928Y-43030000D01*
X2261928Y-43330000D01*
X2277071Y-43483745D01*
X2321916Y-43631582D01*
X2394742Y-43767829D01*
X2433454Y-43815000D01*
X2394742Y-43862171D01*
X2321916Y-43998418D01*
X2277071Y-44146255D01*
X2261928Y-44300000D01*
X2261928Y-44334990D01*
X1297332Y-44334990D01*
X1260009Y-44331314D01*
X1222686Y-44334990D01*
X1222677Y-44334990D01*
X1111024Y-44345987D01*
X967763Y-44389444D01*
X835734Y-44460016D01*
X762000Y-44520528D01*
X762000Y-37764796D01*
X762005Y-37764812D01*
X844072Y-37918348D01*
X954515Y-38052923D01*
X1089090Y-38163366D01*
X1242626Y-38245433D01*
X1409222Y-38295969D01*
X1582476Y-38313033D01*
X2207478Y-38313033D01*
X2380732Y-38295969D01*
X2547328Y-38245433D01*
X2700864Y-38163366D01*
X2835439Y-38052923D01*
X2945882Y-37918348D01*
X3027949Y-37764812D01*
X3078485Y-37598216D01*
X3095549Y-37424962D01*
X3095549Y-36174960D01*
X3078485Y-36001706D01*
X3027949Y-35835110D01*
X2945882Y-35681574D01*
X2835439Y-35546999D01*
X2700864Y-35436556D01*
X2547328Y-35354489D01*
X2380732Y-35303953D01*
X2207478Y-35286889D01*
X1582476Y-35286889D01*
X1445224Y-35300407D01*
X1110010Y-34965193D01*
X1110010Y-34123070D01*
X8067780Y-34123070D01*
X8082738Y-34197276D01*
X8189878Y-34450535D01*
X8344368Y-34678026D01*
X8540271Y-34871006D01*
X8770058Y-35022059D01*
X9024899Y-35125381D01*
X9295000Y-35177000D01*
X10033000Y-35177000D01*
X10033000Y-33907000D01*
X10287000Y-33907000D01*
X10287000Y-35177000D01*
X11025000Y-35177000D01*
X11295101Y-35125381D01*
X11549942Y-35022059D01*
X11779729Y-34871006D01*
X11975632Y-34678026D01*
X12130122Y-34450535D01*
X12237262Y-34197276D01*
X12252220Y-34123070D01*
X12129720Y-33907000D01*
X10287000Y-33907000D01*
X10033000Y-33907000D01*
X8190280Y-33907000D01*
X8067780Y-34123070D01*
X1110010Y-34123070D01*
X1110010Y-33436930D01*
X8067780Y-33436930D01*
X8190280Y-33653000D01*
X10033000Y-33653000D01*
X10033000Y-32383000D01*
X10287000Y-32383000D01*
X10287000Y-33653000D01*
X12129720Y-33653000D01*
X12252220Y-33436930D01*
X12237262Y-33362724D01*
X12130122Y-33109465D01*
X11975632Y-32881974D01*
X11779729Y-32688994D01*
X11549942Y-32537941D01*
X11295101Y-32434619D01*
X11025000Y-32383000D01*
X10287000Y-32383000D01*
X10033000Y-32383000D01*
X9295000Y-32383000D01*
X9024899Y-32434619D01*
X8770058Y-32537941D01*
X8540271Y-32688994D01*
X8344368Y-32881974D01*
X8189878Y-33109465D01*
X8082738Y-33362724D01*
X8067780Y-33436930D01*
X1110010Y-33436930D01*
X1110010Y-29580000D01*
X3946928Y-29580000D01*
X3946928Y-32580000D01*
X3959188Y-32704482D01*
X3995498Y-32824180D01*
X4054463Y-32934494D01*
X4133815Y-33031185D01*
X4230506Y-33110537D01*
X4340820Y-33169502D01*
X4460518Y-33205812D01*
X4585000Y-33218072D01*
X6335000Y-33218072D01*
X6459482Y-33205812D01*
X6579180Y-33169502D01*
X6689494Y-33110537D01*
X6786185Y-33031185D01*
X6865537Y-32934494D01*
X6924502Y-32824180D01*
X6960812Y-32704482D01*
X6973072Y-32580000D01*
X6973072Y-30155000D01*
X13296928Y-30155000D01*
X13296928Y-32005000D01*
X13309188Y-32129482D01*
X13345498Y-32249180D01*
X13404463Y-32359494D01*
X13483815Y-32456185D01*
X13580506Y-32535537D01*
X13690820Y-32594502D01*
X13810518Y-32630812D01*
X13935000Y-32643072D01*
X15785000Y-32643072D01*
X15909482Y-32630812D01*
X16029180Y-32594502D01*
X16139494Y-32535537D01*
X16236185Y-32456185D01*
X16315537Y-32359494D01*
X16374502Y-32249180D01*
X16410812Y-32129482D01*
X16423072Y-32005000D01*
X16423072Y-30155000D01*
X16410812Y-30030518D01*
X16374502Y-29910820D01*
X16315537Y-29800506D01*
X16236185Y-29703815D01*
X16139494Y-29624463D01*
X16029180Y-29565498D01*
X15909482Y-29529188D01*
X15785000Y-29516928D01*
X13935000Y-29516928D01*
X13810518Y-29529188D01*
X13690820Y-29565498D01*
X13580506Y-29624463D01*
X13483815Y-29703815D01*
X13404463Y-29800506D01*
X13345498Y-29910820D01*
X13309188Y-30030518D01*
X13296928Y-30155000D01*
X6973072Y-30155000D01*
X6973072Y-29580000D01*
X6960812Y-29455518D01*
X6924502Y-29335820D01*
X6865537Y-29225506D01*
X6786185Y-29128815D01*
X6689494Y-29049463D01*
X6579180Y-28990498D01*
X6459482Y-28954188D01*
X6335000Y-28941928D01*
X4585000Y-28941928D01*
X4460518Y-28954188D01*
X4340820Y-28990498D01*
X4230506Y-29049463D01*
X4133815Y-29128815D01*
X4054463Y-29225506D01*
X3995498Y-29335820D01*
X3959188Y-29455518D01*
X3946928Y-29580000D01*
X1110010Y-29580000D01*
X1110010Y-25680000D01*
X8018241Y-25680000D01*
X8045214Y-25953860D01*
X8125096Y-26217195D01*
X8254817Y-26459887D01*
X8429392Y-26672608D01*
X8642113Y-26847183D01*
X8884805Y-26976904D01*
X9148140Y-27056786D01*
X9353375Y-27077000D01*
X10966625Y-27077000D01*
X11171860Y-27056786D01*
X11435195Y-26976904D01*
X11677887Y-26847183D01*
X11890608Y-26672608D01*
X12065183Y-26459887D01*
X12194904Y-26217195D01*
X12274786Y-25953860D01*
X12301759Y-25680000D01*
X12274786Y-25406140D01*
X12194904Y-25142805D01*
X12065183Y-24900113D01*
X11890608Y-24687392D01*
X11677887Y-24512817D01*
X11435195Y-24383096D01*
X11171860Y-24303214D01*
X10966625Y-24283000D01*
X9353375Y-24283000D01*
X9148140Y-24303214D01*
X8884805Y-24383096D01*
X8642113Y-24512817D01*
X8429392Y-24687392D01*
X8254817Y-24900113D01*
X8125096Y-25142805D01*
X8045214Y-25406140D01*
X8018241Y-25680000D01*
X1110010Y-25680000D01*
X1110010Y-22058070D01*
X8067780Y-22058070D01*
X8082738Y-22132276D01*
X8189878Y-22385535D01*
X8344368Y-22613026D01*
X8540271Y-22806006D01*
X8770058Y-22957059D01*
X9024899Y-23060381D01*
X9295000Y-23112000D01*
X10033000Y-23112000D01*
X10033000Y-21842000D01*
X10287000Y-21842000D01*
X10287000Y-23112000D01*
X11025000Y-23112000D01*
X11295101Y-23060381D01*
X11549942Y-22957059D01*
X11779729Y-22806006D01*
X11975632Y-22613026D01*
X12130122Y-22385535D01*
X12237262Y-22132276D01*
X12252220Y-22058070D01*
X12129720Y-21842000D01*
X10287000Y-21842000D01*
X10033000Y-21842000D01*
X8190280Y-21842000D01*
X8067780Y-22058070D01*
X1110010Y-22058070D01*
X1110010Y-21371930D01*
X8067780Y-21371930D01*
X8190280Y-21588000D01*
X10033000Y-21588000D01*
X10033000Y-20318000D01*
X10287000Y-20318000D01*
X10287000Y-21588000D01*
X12129720Y-21588000D01*
X12252220Y-21371930D01*
X12237262Y-21297724D01*
X12130122Y-21044465D01*
X11975632Y-20816974D01*
X11779729Y-20623994D01*
X11549942Y-20472941D01*
X11295101Y-20369619D01*
X11025000Y-20318000D01*
X10287000Y-20318000D01*
X10033000Y-20318000D01*
X9295000Y-20318000D01*
X9024899Y-20369619D01*
X8770058Y-20472941D01*
X8540271Y-20623994D01*
X8344368Y-20816974D01*
X8189878Y-21044465D01*
X8082738Y-21297724D01*
X8067780Y-21371930D01*
X1110010Y-21371930D01*
X1110010Y-17515000D01*
X3946928Y-17515000D01*
X3946928Y-20515000D01*
X3959188Y-20639482D01*
X3995498Y-20759180D01*
X4054463Y-20869494D01*
X4133815Y-20966185D01*
X4230506Y-21045537D01*
X4340820Y-21104502D01*
X4460518Y-21140812D01*
X4585000Y-21153072D01*
X6335000Y-21153072D01*
X6459482Y-21140812D01*
X6579180Y-21104502D01*
X6689494Y-21045537D01*
X6786185Y-20966185D01*
X6865537Y-20869494D01*
X6924502Y-20759180D01*
X6960812Y-20639482D01*
X6973072Y-20515000D01*
X6973072Y-18090000D01*
X13296928Y-18090000D01*
X13296928Y-19940000D01*
X13309188Y-20064482D01*
X13345498Y-20184180D01*
X13404463Y-20294494D01*
X13483815Y-20391185D01*
X13580506Y-20470537D01*
X13690820Y-20529502D01*
X13810518Y-20565812D01*
X13935000Y-20578072D01*
X15785000Y-20578072D01*
X15909482Y-20565812D01*
X16029180Y-20529502D01*
X16139494Y-20470537D01*
X16236185Y-20391185D01*
X16315537Y-20294494D01*
X16374502Y-20184180D01*
X16410812Y-20064482D01*
X16423072Y-19940000D01*
X16423072Y-18090000D01*
X16410812Y-17965518D01*
X16374502Y-17845820D01*
X16315537Y-17735506D01*
X16236185Y-17638815D01*
X16139494Y-17559463D01*
X16029180Y-17500498D01*
X15909482Y-17464188D01*
X15785000Y-17451928D01*
X13935000Y-17451928D01*
X13810518Y-17464188D01*
X13690820Y-17500498D01*
X13580506Y-17559463D01*
X13483815Y-17638815D01*
X13404463Y-17735506D01*
X13345498Y-17845820D01*
X13309188Y-17965518D01*
X13296928Y-18090000D01*
X6973072Y-18090000D01*
X6973072Y-17515000D01*
X6960812Y-17390518D01*
X6924502Y-17270820D01*
X6865537Y-17160506D01*
X6786185Y-17063815D01*
X6689494Y-16984463D01*
X6579180Y-16925498D01*
X6459482Y-16889188D01*
X6335000Y-16876928D01*
X4585000Y-16876928D01*
X4460518Y-16889188D01*
X4340820Y-16925498D01*
X4230506Y-16984463D01*
X4133815Y-17063815D01*
X4054463Y-17160506D01*
X3995498Y-17270820D01*
X3959188Y-17390518D01*
X3946928Y-17515000D01*
X1110010Y-17515000D01*
X1110010Y-13615000D01*
X8018241Y-13615000D01*
X8045214Y-13888860D01*
X8125096Y-14152195D01*
X8254817Y-14394887D01*
X8429392Y-14607608D01*
X8642113Y-14782183D01*
X8884805Y-14911904D01*
X9148140Y-14991786D01*
X9353375Y-15012000D01*
X10966625Y-15012000D01*
X11171860Y-14991786D01*
X11435195Y-14911904D01*
X11677887Y-14782183D01*
X11890608Y-14607608D01*
X12065183Y-14394887D01*
X12194904Y-14152195D01*
X12274786Y-13888860D01*
X12301759Y-13615000D01*
X12274786Y-13341140D01*
X12194904Y-13077805D01*
X12065183Y-12835113D01*
X11890608Y-12622392D01*
X11677887Y-12447817D01*
X11435195Y-12318096D01*
X11171860Y-12238214D01*
X10966625Y-12218000D01*
X9353375Y-12218000D01*
X9148140Y-12238214D01*
X8884805Y-12318096D01*
X8642113Y-12447817D01*
X8429392Y-12622392D01*
X8254817Y-12835113D01*
X8125096Y-13077805D01*
X8045214Y-13341140D01*
X8018241Y-13615000D01*
X1110010Y-13615000D01*
X1110010Y-9993070D01*
X8067780Y-9993070D01*
X8082738Y-10067276D01*
X8189878Y-10320535D01*
X8344368Y-10548026D01*
X8540271Y-10741006D01*
X8770058Y-10892059D01*
X9024899Y-10995381D01*
X9295000Y-11047000D01*
X10033000Y-11047000D01*
X10033000Y-9777000D01*
X10287000Y-9777000D01*
X10287000Y-11047000D01*
X11025000Y-11047000D01*
X11295101Y-10995381D01*
X11549942Y-10892059D01*
X11779729Y-10741006D01*
X11975632Y-10548026D01*
X12130122Y-10320535D01*
X12237262Y-10067276D01*
X12252220Y-9993070D01*
X12129720Y-9777000D01*
X10287000Y-9777000D01*
X10033000Y-9777000D01*
X8190280Y-9777000D01*
X8067780Y-9993070D01*
X1110010Y-9993070D01*
X1110010Y-9306930D01*
X8067780Y-9306930D01*
X8190280Y-9523000D01*
X10033000Y-9523000D01*
X10033000Y-8253000D01*
X10287000Y-8253000D01*
X10287000Y-9523000D01*
X12129720Y-9523000D01*
X12252220Y-9306930D01*
X12237262Y-9232724D01*
X12130122Y-8979465D01*
X11975632Y-8751974D01*
X11779729Y-8558994D01*
X11549942Y-8407941D01*
X11295101Y-8304619D01*
X11025000Y-8253000D01*
X10287000Y-8253000D01*
X10033000Y-8253000D01*
X9295000Y-8253000D01*
X9024899Y-8304619D01*
X8770058Y-8407941D01*
X8540271Y-8558994D01*
X8344368Y-8751974D01*
X8189878Y-8979465D01*
X8082738Y-9232724D01*
X8067780Y-9306930D01*
X1110010Y-9306930D01*
X1110010Y-5450000D01*
X3946928Y-5450000D01*
X3946928Y-8450000D01*
X3959188Y-8574482D01*
X3995498Y-8694180D01*
X4054463Y-8804494D01*
X4133815Y-8901185D01*
X4230506Y-8980537D01*
X4340820Y-9039502D01*
X4460518Y-9075812D01*
X4585000Y-9088072D01*
X6335000Y-9088072D01*
X6459482Y-9075812D01*
X6579180Y-9039502D01*
X6689494Y-8980537D01*
X6786185Y-8901185D01*
X6865537Y-8804494D01*
X6924502Y-8694180D01*
X6960812Y-8574482D01*
X6973072Y-8450000D01*
X6973072Y-6025000D01*
X13296928Y-6025000D01*
X13296928Y-7875000D01*
X13309188Y-7999482D01*
X13345498Y-8119180D01*
X13404463Y-8229494D01*
X13483815Y-8326185D01*
X13580506Y-8405537D01*
X13690820Y-8464502D01*
X13810518Y-8500812D01*
X13935000Y-8513072D01*
X15785000Y-8513072D01*
X15909482Y-8500812D01*
X16029180Y-8464502D01*
X16139494Y-8405537D01*
X16236185Y-8326185D01*
X16315537Y-8229494D01*
X16374502Y-8119180D01*
X16410812Y-7999482D01*
X16423072Y-7875000D01*
X16423072Y-6025000D01*
X16410812Y-5900518D01*
X16374502Y-5780820D01*
X16315537Y-5670506D01*
X16236185Y-5573815D01*
X16139494Y-5494463D01*
X16029180Y-5435498D01*
X15909482Y-5399188D01*
X15785000Y-5386928D01*
X13935000Y-5386928D01*
X13810518Y-5399188D01*
X13690820Y-5435498D01*
X13580506Y-5494463D01*
X13483815Y-5573815D01*
X13404463Y-5670506D01*
X13345498Y-5780820D01*
X13309188Y-5900518D01*
X13296928Y-6025000D01*
X6973072Y-6025000D01*
X6973072Y-5450000D01*
X6960812Y-5325518D01*
X6924502Y-5205820D01*
X6865537Y-5095506D01*
X6786185Y-4998815D01*
X6689494Y-4919463D01*
X6579180Y-4860498D01*
X6459482Y-4824188D01*
X6335000Y-4811928D01*
X4585000Y-4811928D01*
X4460518Y-4824188D01*
X4340820Y-4860498D01*
X4230506Y-4919463D01*
X4133815Y-4998815D01*
X4054463Y-5095506D01*
X3995498Y-5205820D01*
X3959188Y-5325518D01*
X3946928Y-5450000D01*
X1110010Y-5450000D01*
X1110010Y-1110010D01*
X8095609Y-1110010D01*
X8045214Y-1276140D01*
G37*
%TD.AperFunction*%
D20*
X1145000Y-57259776D02*
X1145001Y-62564060D01*
X1141324Y-62601392D01*
X1155998Y-62750377D01*
X1199454Y-62893638D01*
X1270026Y-63025668D01*
X1341201Y-63112394D01*
X1365000Y-63141393D01*
X1393998Y-63165191D01*
X7679990Y-69451185D01*
X7679990Y-73110507D01*
X7357147Y-72937943D01*
X6981088Y-72823867D01*
X6590000Y-72785348D01*
X6198913Y-72823867D01*
X5822854Y-72937943D01*
X5476276Y-73123193D01*
X5172498Y-73372497D01*
X4923193Y-73676275D01*
X4737943Y-74022853D01*
X4623867Y-74398912D01*
X4595000Y-74692002D01*
X4595000Y-75407997D01*
X4623867Y-75701087D01*
X4737943Y-76077146D01*
X4923193Y-76423725D01*
X5172497Y-76727503D01*
X5476275Y-76976807D01*
X5822853Y-77162057D01*
X6198912Y-77276133D01*
X6590000Y-77314652D01*
X6981087Y-77276133D01*
X7357146Y-77162057D01*
X7679991Y-76989493D01*
X7679991Y-80300205D01*
X7154001Y-80826196D01*
X7124998Y-80849998D01*
X7078009Y-80907255D01*
X7030025Y-80965723D01*
X6972155Y-81073989D01*
X6959453Y-81097753D01*
X6915996Y-81241014D01*
X6904999Y-81352667D01*
X6904999Y-81352677D01*
X6901323Y-81389999D01*
X6904999Y-81427322D01*
X6905000Y-83672669D01*
X6901323Y-83710001D01*
X6915997Y-83858986D01*
X6959453Y-84002247D01*
X7030025Y-84134277D01*
X7083370Y-84199277D01*
X7124999Y-84250002D01*
X7153997Y-84273800D01*
X7166195Y-84285998D01*
X7189998Y-84315002D01*
X7305723Y-84409975D01*
X7437752Y-84480547D01*
X7581013Y-84524004D01*
X7692666Y-84535001D01*
X7692677Y-84535001D01*
X7729999Y-84538677D01*
X7767322Y-84535001D01*
X10127677Y-84535001D01*
X10164999Y-84538677D01*
X10202321Y-84535001D01*
X10202332Y-84535001D01*
X10313985Y-84524004D01*
X10457246Y-84480547D01*
X10589275Y-84409975D01*
X10705000Y-84315002D01*
X10728803Y-84285998D01*
X10981070Y-84033731D01*
X11238816Y-84085000D01*
X11541184Y-84085000D01*
X11837743Y-84026011D01*
X11855002Y-84018862D01*
X11855002Y-87229570D01*
X8585000Y-90499573D01*
X8585000Y-89932003D01*
X8556133Y-89638913D01*
X8442057Y-89262853D01*
X8256807Y-88916275D01*
X8007503Y-88612497D01*
X7703725Y-88363193D01*
X7357147Y-88177943D01*
X6981088Y-88063867D01*
X6590000Y-88025348D01*
X6198913Y-88063867D01*
X5822854Y-88177943D01*
X5476276Y-88363193D01*
X5172498Y-88612497D01*
X4923193Y-88916275D01*
X4737943Y-89262853D01*
X4623867Y-89638912D01*
X4595000Y-89932002D01*
X4595000Y-90647997D01*
X4623867Y-90941087D01*
X4737943Y-91317146D01*
X4923193Y-91663725D01*
X5137633Y-91925021D01*
X4099823Y-91925021D01*
X3981210Y-91806408D01*
X4025000Y-91586260D01*
X4025000Y-91293740D01*
X3967932Y-91006842D01*
X3855990Y-90736589D01*
X3693475Y-90493368D01*
X3561620Y-90361513D01*
X3634180Y-90339502D01*
X3744494Y-90280537D01*
X3841185Y-90201185D01*
X3920537Y-90104494D01*
X3979502Y-89994180D01*
X4015812Y-89874482D01*
X4028072Y-89750000D01*
X4028072Y-88050000D01*
X4015812Y-87925518D01*
X3979502Y-87805820D01*
X3920537Y-87695506D01*
X3841185Y-87598815D01*
X3744494Y-87519463D01*
X3634180Y-87460498D01*
X3514482Y-87424188D01*
X3390000Y-87411928D01*
X3300000Y-87411928D01*
X3300000Y-86039801D01*
X4484802Y-84855000D01*
X4546939Y-84855000D01*
X4746898Y-84815226D01*
X4935256Y-84737205D01*
X5104774Y-84623937D01*
X5248937Y-84479774D01*
X5362205Y-84310256D01*
X5440226Y-84121898D01*
X5480000Y-83921939D01*
X5480000Y-83718061D01*
X5440226Y-83518102D01*
X5362205Y-83329744D01*
X5248937Y-83160226D01*
X5104774Y-83016063D01*
X4935256Y-82902795D01*
X4746898Y-82824774D01*
X4546939Y-82785000D01*
X4343061Y-82785000D01*
X4143102Y-82824774D01*
X3954744Y-82902795D01*
X3785226Y-83016063D01*
X3641063Y-83160226D01*
X3527795Y-83329744D01*
X3449774Y-83518102D01*
X3410000Y-83718061D01*
X3410000Y-83780198D01*
X2029003Y-85161196D01*
X1999999Y-85184999D01*
X1944871Y-85252174D01*
X1905026Y-85300724D01*
X1834455Y-85432753D01*
X1834454Y-85432754D01*
X1790997Y-85576015D01*
X1780000Y-85687668D01*
X1780000Y-85687678D01*
X1776324Y-85725000D01*
X1780000Y-85762323D01*
X1780001Y-87411928D01*
X1690000Y-87411928D01*
X1579989Y-87422763D01*
X1579989Y-74424812D01*
X4484802Y-71520000D01*
X4546939Y-71520000D01*
X4746898Y-71480226D01*
X4935256Y-71402205D01*
X5104774Y-71288937D01*
X5248937Y-71144774D01*
X5362205Y-70975256D01*
X5440226Y-70786898D01*
X5480000Y-70586939D01*
X5480000Y-70383061D01*
X5440226Y-70183102D01*
X5362205Y-69994744D01*
X5248937Y-69825226D01*
X5104774Y-69681063D01*
X4935256Y-69567795D01*
X4746898Y-69489774D01*
X4546939Y-69450000D01*
X4343061Y-69450000D01*
X4143102Y-69489774D01*
X3954744Y-69567795D01*
X3785226Y-69681063D01*
X3641063Y-69825226D01*
X3527795Y-69994744D01*
X3449774Y-70183102D01*
X3410000Y-70383061D01*
X3410000Y-70445198D01*
X1129978Y-72725221D01*
X1129978Y-57258296D01*
X1145000Y-57259776D01*
%TA.AperFunction,Conductor*%
D21*
G36*
X1145000Y-57259776D02*
G01*
X1145001Y-62564060D01*
X1141324Y-62601392D01*
X1155998Y-62750377D01*
X1199454Y-62893638D01*
X1270026Y-63025668D01*
X1341201Y-63112394D01*
X1365000Y-63141393D01*
X1393998Y-63165191D01*
X7679990Y-69451185D01*
X7679990Y-73110507D01*
X7357147Y-72937943D01*
X6981088Y-72823867D01*
X6590000Y-72785348D01*
X6198913Y-72823867D01*
X5822854Y-72937943D01*
X5476276Y-73123193D01*
X5172498Y-73372497D01*
X4923193Y-73676275D01*
X4737943Y-74022853D01*
X4623867Y-74398912D01*
X4595000Y-74692002D01*
X4595000Y-75407997D01*
X4623867Y-75701087D01*
X4737943Y-76077146D01*
X4923193Y-76423725D01*
X5172497Y-76727503D01*
X5476275Y-76976807D01*
X5822853Y-77162057D01*
X6198912Y-77276133D01*
X6590000Y-77314652D01*
X6981087Y-77276133D01*
X7357146Y-77162057D01*
X7679991Y-76989493D01*
X7679991Y-80300205D01*
X7154001Y-80826196D01*
X7124998Y-80849998D01*
X7078009Y-80907255D01*
X7030025Y-80965723D01*
X6972155Y-81073989D01*
X6959453Y-81097753D01*
X6915996Y-81241014D01*
X6904999Y-81352667D01*
X6904999Y-81352677D01*
X6901323Y-81389999D01*
X6904999Y-81427322D01*
X6905000Y-83672669D01*
X6901323Y-83710001D01*
X6915997Y-83858986D01*
X6959453Y-84002247D01*
X7030025Y-84134277D01*
X7083370Y-84199277D01*
X7124999Y-84250002D01*
X7153997Y-84273800D01*
X7166195Y-84285998D01*
X7189998Y-84315002D01*
X7305723Y-84409975D01*
X7437752Y-84480547D01*
X7581013Y-84524004D01*
X7692666Y-84535001D01*
X7692677Y-84535001D01*
X7729999Y-84538677D01*
X7767322Y-84535001D01*
X10127677Y-84535001D01*
X10164999Y-84538677D01*
X10202321Y-84535001D01*
X10202332Y-84535001D01*
X10313985Y-84524004D01*
X10457246Y-84480547D01*
X10589275Y-84409975D01*
X10705000Y-84315002D01*
X10728803Y-84285998D01*
X10981070Y-84033731D01*
X11238816Y-84085000D01*
X11541184Y-84085000D01*
X11837743Y-84026011D01*
X11855002Y-84018862D01*
X11855002Y-87229570D01*
X8585000Y-90499573D01*
X8585000Y-89932003D01*
X8556133Y-89638913D01*
X8442057Y-89262853D01*
X8256807Y-88916275D01*
X8007503Y-88612497D01*
X7703725Y-88363193D01*
X7357147Y-88177943D01*
X6981088Y-88063867D01*
X6590000Y-88025348D01*
X6198913Y-88063867D01*
X5822854Y-88177943D01*
X5476276Y-88363193D01*
X5172498Y-88612497D01*
X4923193Y-88916275D01*
X4737943Y-89262853D01*
X4623867Y-89638912D01*
X4595000Y-89932002D01*
X4595000Y-90647997D01*
X4623867Y-90941087D01*
X4737943Y-91317146D01*
X4923193Y-91663725D01*
X5137633Y-91925021D01*
X4099823Y-91925021D01*
X3981210Y-91806408D01*
X4025000Y-91586260D01*
X4025000Y-91293740D01*
X3967932Y-91006842D01*
X3855990Y-90736589D01*
X3693475Y-90493368D01*
X3561620Y-90361513D01*
X3634180Y-90339502D01*
X3744494Y-90280537D01*
X3841185Y-90201185D01*
X3920537Y-90104494D01*
X3979502Y-89994180D01*
X4015812Y-89874482D01*
X4028072Y-89750000D01*
X4028072Y-88050000D01*
X4015812Y-87925518D01*
X3979502Y-87805820D01*
X3920537Y-87695506D01*
X3841185Y-87598815D01*
X3744494Y-87519463D01*
X3634180Y-87460498D01*
X3514482Y-87424188D01*
X3390000Y-87411928D01*
X3300000Y-87411928D01*
X3300000Y-86039801D01*
X4484802Y-84855000D01*
X4546939Y-84855000D01*
X4746898Y-84815226D01*
X4935256Y-84737205D01*
X5104774Y-84623937D01*
X5248937Y-84479774D01*
X5362205Y-84310256D01*
X5440226Y-84121898D01*
X5480000Y-83921939D01*
X5480000Y-83718061D01*
X5440226Y-83518102D01*
X5362205Y-83329744D01*
X5248937Y-83160226D01*
X5104774Y-83016063D01*
X4935256Y-82902795D01*
X4746898Y-82824774D01*
X4546939Y-82785000D01*
X4343061Y-82785000D01*
X4143102Y-82824774D01*
X3954744Y-82902795D01*
X3785226Y-83016063D01*
X3641063Y-83160226D01*
X3527795Y-83329744D01*
X3449774Y-83518102D01*
X3410000Y-83718061D01*
X3410000Y-83780198D01*
X2029003Y-85161196D01*
X1999999Y-85184999D01*
X1944871Y-85252174D01*
X1905026Y-85300724D01*
X1834455Y-85432753D01*
X1834454Y-85432754D01*
X1790997Y-85576015D01*
X1780000Y-85687668D01*
X1780000Y-85687678D01*
X1776324Y-85725000D01*
X1780000Y-85762323D01*
X1780001Y-87411928D01*
X1690000Y-87411928D01*
X1579989Y-87422763D01*
X1579989Y-74424812D01*
X4484802Y-71520000D01*
X4546939Y-71520000D01*
X4746898Y-71480226D01*
X4935256Y-71402205D01*
X5104774Y-71288937D01*
X5248937Y-71144774D01*
X5362205Y-70975256D01*
X5440226Y-70786898D01*
X5480000Y-70586939D01*
X5480000Y-70383061D01*
X5440226Y-70183102D01*
X5362205Y-69994744D01*
X5248937Y-69825226D01*
X5104774Y-69681063D01*
X4935256Y-69567795D01*
X4746898Y-69489774D01*
X4546939Y-69450000D01*
X4343061Y-69450000D01*
X4143102Y-69489774D01*
X3954744Y-69567795D01*
X3785226Y-69681063D01*
X3641063Y-69825226D01*
X3527795Y-69994744D01*
X3449774Y-70183102D01*
X3410000Y-70383061D01*
X3410000Y-70445198D01*
X1129978Y-72725221D01*
X1129978Y-57258296D01*
X1145000Y-57259776D01*
G37*
%TD.AperFunction*%
D20*
X9017000Y-82423000D02*
X9037000Y-82423000D01*
X9037000Y-82677000D01*
X9017000Y-82677000D01*
X9017000Y-82697000D01*
X8763000Y-82697000D01*
X8763000Y-82677000D01*
X8743000Y-82677000D01*
X8743000Y-82423000D01*
X8763000Y-82423000D01*
X8763000Y-82403000D01*
X9017000Y-82403000D01*
X9017000Y-82423000D01*
%TA.AperFunction,Conductor*%
D21*
G36*
X9017000Y-82423000D02*
G01*
X9037000Y-82423000D01*
X9037000Y-82677000D01*
X9017000Y-82677000D01*
X9017000Y-82697000D01*
X8763000Y-82697000D01*
X8763000Y-82677000D01*
X8743000Y-82677000D01*
X8743000Y-82423000D01*
X8763000Y-82423000D01*
X8763000Y-82403000D01*
X9017000Y-82403000D01*
X9017000Y-82423000D01*
G37*
%TD.AperFunction*%
D20*
X11855001Y-65841138D02*
X11837743Y-65833989D01*
X11541184Y-65775000D01*
X11238816Y-65775000D01*
X10942257Y-65833989D01*
X10662905Y-65949701D01*
X10411495Y-66117688D01*
X10373880Y-66155303D01*
X10320537Y-66055506D01*
X10241185Y-65958815D01*
X10144494Y-65879463D01*
X10034180Y-65820498D01*
X9914482Y-65784188D01*
X9790000Y-65771928D01*
X9175750Y-65775000D01*
X9017000Y-65933750D01*
X9017000Y-67183000D01*
X9037000Y-67183000D01*
X9037000Y-67437000D01*
X9017000Y-67437000D01*
X9017000Y-67457000D01*
X8763000Y-67457000D01*
X8763000Y-67437000D01*
X8743000Y-67437000D01*
X8743000Y-67183000D01*
X8763000Y-67183000D01*
X8763000Y-65933750D01*
X8604250Y-65775000D01*
X7990000Y-65771928D01*
X7865518Y-65784188D01*
X7745820Y-65820498D01*
X7635506Y-65879463D01*
X7538815Y-65958815D01*
X7459463Y-66055506D01*
X7400498Y-66165820D01*
X7364188Y-66285518D01*
X7351928Y-66410000D01*
X7354760Y-66976350D01*
X2665000Y-62286591D01*
X2665000Y-57517805D01*
X2898194Y-57750999D01*
X2921997Y-57780003D01*
X3037722Y-57874976D01*
X3169751Y-57945548D01*
X3313012Y-57989005D01*
X3424665Y-58000002D01*
X3424674Y-58000002D01*
X3461997Y-58003678D01*
X3499320Y-58000002D01*
X5333944Y-58000002D01*
X5172498Y-58132497D01*
X4923193Y-58436275D01*
X4737943Y-58782853D01*
X4623867Y-59158912D01*
X4595000Y-59452002D01*
X4595000Y-60167997D01*
X4623867Y-60461087D01*
X4737943Y-60837146D01*
X4923193Y-61183725D01*
X5172497Y-61487503D01*
X5476275Y-61736807D01*
X5822853Y-61922057D01*
X6198912Y-62036133D01*
X6590000Y-62074652D01*
X6981087Y-62036133D01*
X7357146Y-61922057D01*
X7703725Y-61736807D01*
X8007503Y-61487503D01*
X8256807Y-61183725D01*
X8442057Y-60837147D01*
X8556133Y-60461088D01*
X8585000Y-60167998D01*
X8585000Y-59452003D01*
X8556133Y-59158913D01*
X8442057Y-58782853D01*
X8256807Y-58436275D01*
X8007503Y-58132497D01*
X7703725Y-57883193D01*
X7357147Y-57697943D01*
X6981088Y-57583867D01*
X6606061Y-57546930D01*
X11855001Y-52297991D01*
X11855001Y-65841138D01*
%TA.AperFunction,Conductor*%
D21*
G36*
X11855001Y-65841138D02*
G01*
X11837743Y-65833989D01*
X11541184Y-65775000D01*
X11238816Y-65775000D01*
X10942257Y-65833989D01*
X10662905Y-65949701D01*
X10411495Y-66117688D01*
X10373880Y-66155303D01*
X10320537Y-66055506D01*
X10241185Y-65958815D01*
X10144494Y-65879463D01*
X10034180Y-65820498D01*
X9914482Y-65784188D01*
X9790000Y-65771928D01*
X9175750Y-65775000D01*
X9017000Y-65933750D01*
X9017000Y-67183000D01*
X9037000Y-67183000D01*
X9037000Y-67437000D01*
X9017000Y-67437000D01*
X9017000Y-67457000D01*
X8763000Y-67457000D01*
X8763000Y-67437000D01*
X8743000Y-67437000D01*
X8743000Y-67183000D01*
X8763000Y-67183000D01*
X8763000Y-65933750D01*
X8604250Y-65775000D01*
X7990000Y-65771928D01*
X7865518Y-65784188D01*
X7745820Y-65820498D01*
X7635506Y-65879463D01*
X7538815Y-65958815D01*
X7459463Y-66055506D01*
X7400498Y-66165820D01*
X7364188Y-66285518D01*
X7351928Y-66410000D01*
X7354760Y-66976350D01*
X2665000Y-62286591D01*
X2665000Y-57517805D01*
X2898194Y-57750999D01*
X2921997Y-57780003D01*
X3037722Y-57874976D01*
X3169751Y-57945548D01*
X3313012Y-57989005D01*
X3424665Y-58000002D01*
X3424674Y-58000002D01*
X3461997Y-58003678D01*
X3499320Y-58000002D01*
X5333944Y-58000002D01*
X5172498Y-58132497D01*
X4923193Y-58436275D01*
X4737943Y-58782853D01*
X4623867Y-59158912D01*
X4595000Y-59452002D01*
X4595000Y-60167997D01*
X4623867Y-60461087D01*
X4737943Y-60837146D01*
X4923193Y-61183725D01*
X5172497Y-61487503D01*
X5476275Y-61736807D01*
X5822853Y-61922057D01*
X6198912Y-62036133D01*
X6590000Y-62074652D01*
X6981087Y-62036133D01*
X7357146Y-61922057D01*
X7703725Y-61736807D01*
X8007503Y-61487503D01*
X8256807Y-61183725D01*
X8442057Y-60837147D01*
X8556133Y-60461088D01*
X8585000Y-60167998D01*
X8585000Y-59452003D01*
X8556133Y-59158913D01*
X8442057Y-58782853D01*
X8256807Y-58436275D01*
X8007503Y-58132497D01*
X7703725Y-57883193D01*
X7357147Y-57697943D01*
X6981088Y-57583867D01*
X6606061Y-57546930D01*
X11855001Y-52297991D01*
X11855001Y-65841138D01*
G37*
%TD.AperFunction*%
D20*
X12816525Y-44126632D02*
X13023368Y-44333475D01*
X13205534Y-44455195D01*
X13088645Y-44524822D01*
X12872412Y-44719731D01*
X12698359Y-44953080D01*
X12573175Y-45215901D01*
X12528524Y-45363110D01*
X12649845Y-45593000D01*
X13843000Y-45593000D01*
X13843000Y-45573000D01*
X14097000Y-45573000D01*
X14097000Y-45593000D01*
X16383000Y-45593000D01*
X16383000Y-45573000D01*
X16637000Y-45573000D01*
X16637000Y-45593000D01*
X16657000Y-45593000D01*
X16657000Y-45847000D01*
X16637000Y-45847000D01*
X16637000Y-48133000D01*
X16657000Y-48133000D01*
X16657000Y-48387000D01*
X16637000Y-48387000D01*
X16637000Y-50673000D01*
X16657000Y-50673000D01*
X16657000Y-50927000D01*
X16637000Y-50927000D01*
X16637000Y-50947000D01*
X16383000Y-50947000D01*
X16383000Y-50927000D01*
X14097000Y-50927000D01*
X14097000Y-50947000D01*
X13843000Y-50947000D01*
X13843000Y-50927000D01*
X13823000Y-50927000D01*
X13823000Y-50673000D01*
X13843000Y-50673000D01*
X13843000Y-48387000D01*
X14097000Y-48387000D01*
X14097000Y-50673000D01*
X16383000Y-50673000D01*
X16383000Y-48387000D01*
X14097000Y-48387000D01*
X13843000Y-48387000D01*
X13823000Y-48387000D01*
X13823000Y-48133000D01*
X13843000Y-48133000D01*
X13843000Y-45847000D01*
X14097000Y-45847000D01*
X14097000Y-48133000D01*
X16383000Y-48133000D01*
X16383000Y-45847000D01*
X14097000Y-45847000D01*
X13843000Y-45847000D01*
X12649845Y-45847000D01*
X12528524Y-46076890D01*
X12573175Y-46224099D01*
X12698359Y-46486920D01*
X12872412Y-46720269D01*
X13088645Y-46915178D01*
X13214255Y-46990000D01*
X13088645Y-47064822D01*
X12984903Y-47158333D01*
X10437041Y-44610472D01*
X10438072Y-44600000D01*
X10438072Y-44300000D01*
X10422929Y-44146255D01*
X10378084Y-43998418D01*
X10346859Y-43940000D01*
X12691822Y-43940000D01*
X12816525Y-44126632D01*
%TA.AperFunction,Conductor*%
D21*
G36*
X12816525Y-44126632D02*
G01*
X13023368Y-44333475D01*
X13205534Y-44455195D01*
X13088645Y-44524822D01*
X12872412Y-44719731D01*
X12698359Y-44953080D01*
X12573175Y-45215901D01*
X12528524Y-45363110D01*
X12649845Y-45593000D01*
X13843000Y-45593000D01*
X13843000Y-45573000D01*
X14097000Y-45573000D01*
X14097000Y-45593000D01*
X16383000Y-45593000D01*
X16383000Y-45573000D01*
X16637000Y-45573000D01*
X16637000Y-45593000D01*
X16657000Y-45593000D01*
X16657000Y-45847000D01*
X16637000Y-45847000D01*
X16637000Y-48133000D01*
X16657000Y-48133000D01*
X16657000Y-48387000D01*
X16637000Y-48387000D01*
X16637000Y-50673000D01*
X16657000Y-50673000D01*
X16657000Y-50927000D01*
X16637000Y-50927000D01*
X16637000Y-50947000D01*
X16383000Y-50947000D01*
X16383000Y-50927000D01*
X14097000Y-50927000D01*
X14097000Y-50947000D01*
X13843000Y-50947000D01*
X13843000Y-50927000D01*
X13823000Y-50927000D01*
X13823000Y-50673000D01*
X13843000Y-50673000D01*
X13843000Y-48387000D01*
X14097000Y-48387000D01*
X14097000Y-50673000D01*
X16383000Y-50673000D01*
X16383000Y-48387000D01*
X14097000Y-48387000D01*
X13843000Y-48387000D01*
X13823000Y-48387000D01*
X13823000Y-48133000D01*
X13843000Y-48133000D01*
X13843000Y-45847000D01*
X14097000Y-45847000D01*
X14097000Y-48133000D01*
X16383000Y-48133000D01*
X16383000Y-45847000D01*
X14097000Y-45847000D01*
X13843000Y-45847000D01*
X12649845Y-45847000D01*
X12528524Y-46076890D01*
X12573175Y-46224099D01*
X12698359Y-46486920D01*
X12872412Y-46720269D01*
X13088645Y-46915178D01*
X13214255Y-46990000D01*
X13088645Y-47064822D01*
X12984903Y-47158333D01*
X10437041Y-44610472D01*
X10438072Y-44600000D01*
X10438072Y-44300000D01*
X10422929Y-44146255D01*
X10378084Y-43998418D01*
X10346859Y-43940000D01*
X12691822Y-43940000D01*
X12816525Y-44126632D01*
G37*
%TD.AperFunction*%
%TD*%
M02*
