%TF.GenerationSoftware,KiCad,Pcbnew,(5.1.8)-1*%
%TF.CreationDate,2021-01-03T22:56:05-05:00*%
%TF.ProjectId,LedController1,4c656443-6f6e-4747-926f-6c6c6572312e,rev?*%
%TF.SameCoordinates,Original*%
%TF.FileFunction,Legend,Top*%
%TF.FilePolarity,Positive*%
%FSLAX46Y46*%
G04 Gerber Fmt 4.6, Leading zero omitted, Abs format (unit mm)*
G04 Created by KiCad (PCBNEW (5.1.8)-1) date 2021-01-03 22:56:05*
%MOMM*%
%LPD*%
G01*
G04 APERTURE LIST*
%ADD10C,0.120000*%
%ADD11C,0.150000*%
G04 APERTURE END LIST*
D10*
%TO.C,J5*%
X1210000Y-97850000D02*
X3870000Y-97850000D01*
X1210000Y-90170000D02*
X1210000Y-97850000D01*
X3870000Y-90170000D02*
X3870000Y-97850000D01*
X1210000Y-90170000D02*
X3870000Y-90170000D01*
X1210000Y-88900000D02*
X1210000Y-87570000D01*
X1210000Y-87570000D02*
X2540000Y-87570000D01*
D11*
%TO.C,J3*%
X13752102Y-30480000D02*
G75*
G03*
X13752102Y-30480000I-3592102J0D01*
G01*
X5207000Y-25019000D02*
X15113000Y-25019000D01*
X15113000Y-25019000D02*
X15113000Y-35560000D01*
X15113000Y-35560000D02*
X5207000Y-35560000D01*
X5207000Y-35560000D02*
X5207000Y-25019000D01*
G36*
X6223000Y-35560000D02*
G01*
X6223000Y-34417000D01*
X14097000Y-34417000D01*
X14097000Y-35560000D01*
X6223000Y-35560000D01*
G37*
X6223000Y-35560000D02*
X6223000Y-34417000D01*
X14097000Y-34417000D01*
X14097000Y-35560000D01*
X6223000Y-35560000D01*
%TO.C,J2*%
X13752102Y-18415000D02*
G75*
G03*
X13752102Y-18415000I-3592102J0D01*
G01*
X5207000Y-12954000D02*
X15113000Y-12954000D01*
X15113000Y-12954000D02*
X15113000Y-23495000D01*
X15113000Y-23495000D02*
X5207000Y-23495000D01*
X5207000Y-23495000D02*
X5207000Y-12954000D01*
G36*
X6223000Y-23495000D02*
G01*
X6223000Y-22352000D01*
X14097000Y-22352000D01*
X14097000Y-23495000D01*
X6223000Y-23495000D01*
G37*
X6223000Y-23495000D02*
X6223000Y-22352000D01*
X14097000Y-22352000D01*
X14097000Y-23495000D01*
X6223000Y-23495000D01*
%TO.C,J1*%
X13752102Y-6350000D02*
G75*
G03*
X13752102Y-6350000I-3592102J0D01*
G01*
X5207000Y-889000D02*
X15113000Y-889000D01*
X15113000Y-889000D02*
X15113000Y-11430000D01*
X15113000Y-11430000D02*
X5207000Y-11430000D01*
X5207000Y-11430000D02*
X5207000Y-889000D01*
G36*
X6223000Y-11430000D02*
G01*
X6223000Y-10287000D01*
X14097000Y-10287000D01*
X14097000Y-11430000D01*
X6223000Y-11430000D01*
G37*
X6223000Y-11430000D02*
X6223000Y-10287000D01*
X14097000Y-10287000D01*
X14097000Y-11430000D01*
X6223000Y-11430000D01*
D10*
%TO.C,RV3*%
X16260000Y-85320000D02*
X6520000Y-85320000D01*
X16260000Y-96910000D02*
X14770000Y-96910000D01*
X16260000Y-88380000D02*
X16260000Y-85320000D01*
X6510000Y-96910000D02*
X6510000Y-92190000D01*
X6520000Y-88380000D02*
X6520000Y-85320000D01*
X16260000Y-96910000D02*
X16260000Y-92190000D01*
X7700000Y-96910000D02*
X6520000Y-96910000D01*
X10600000Y-96910000D02*
X10070000Y-96910000D01*
X13050000Y-96910000D02*
X12220000Y-96910000D01*
%TO.C,RV2*%
X16260000Y-70080000D02*
X6520000Y-70080000D01*
X16260000Y-81670000D02*
X14770000Y-81670000D01*
X16260000Y-73140000D02*
X16260000Y-70080000D01*
X6510000Y-81670000D02*
X6510000Y-76950000D01*
X6520000Y-73140000D02*
X6520000Y-70080000D01*
X16260000Y-81670000D02*
X16260000Y-76950000D01*
X7700000Y-81670000D02*
X6520000Y-81670000D01*
X10600000Y-81670000D02*
X10070000Y-81670000D01*
X13050000Y-81670000D02*
X12220000Y-81670000D01*
%TO.C,RV1*%
X16260000Y-54840000D02*
X6520000Y-54840000D01*
X16260000Y-66430000D02*
X14770000Y-66430000D01*
X16260000Y-57900000D02*
X16260000Y-54840000D01*
X6510000Y-66430000D02*
X6510000Y-61710000D01*
X6520000Y-57900000D02*
X6520000Y-54840000D01*
X16260000Y-66430000D02*
X16260000Y-61710000D01*
X7700000Y-66430000D02*
X6520000Y-66430000D01*
X10600000Y-66430000D02*
X10070000Y-66430000D01*
X13050000Y-66430000D02*
X12220000Y-66430000D01*
%TO.C,J5*%
D11*
X2206666Y-86022380D02*
X2206666Y-86736666D01*
X2159047Y-86879523D01*
X2063809Y-86974761D01*
X1920952Y-87022380D01*
X1825714Y-87022380D01*
X3159047Y-86022380D02*
X2682857Y-86022380D01*
X2635238Y-86498571D01*
X2682857Y-86450952D01*
X2778095Y-86403333D01*
X3016190Y-86403333D01*
X3111428Y-86450952D01*
X3159047Y-86498571D01*
X3206666Y-86593809D01*
X3206666Y-86831904D01*
X3159047Y-86927142D01*
X3111428Y-86974761D01*
X3016190Y-87022380D01*
X2778095Y-87022380D01*
X2682857Y-86974761D01*
X2635238Y-86927142D01*
%TO.C,J3*%
X9826666Y-30821380D02*
X9826666Y-31535666D01*
X9779047Y-31678523D01*
X9683809Y-31773761D01*
X9540952Y-31821380D01*
X9445714Y-31821380D01*
X10207619Y-30821380D02*
X10826666Y-30821380D01*
X10493333Y-31202333D01*
X10636190Y-31202333D01*
X10731428Y-31249952D01*
X10779047Y-31297571D01*
X10826666Y-31392809D01*
X10826666Y-31630904D01*
X10779047Y-31726142D01*
X10731428Y-31773761D01*
X10636190Y-31821380D01*
X10350476Y-31821380D01*
X10255238Y-31773761D01*
X10207619Y-31726142D01*
%TO.C,J2*%
X9826666Y-18756380D02*
X9826666Y-19470666D01*
X9779047Y-19613523D01*
X9683809Y-19708761D01*
X9540952Y-19756380D01*
X9445714Y-19756380D01*
X10255238Y-18851619D02*
X10302857Y-18804000D01*
X10398095Y-18756380D01*
X10636190Y-18756380D01*
X10731428Y-18804000D01*
X10779047Y-18851619D01*
X10826666Y-18946857D01*
X10826666Y-19042095D01*
X10779047Y-19184952D01*
X10207619Y-19756380D01*
X10826666Y-19756380D01*
%TO.C,J1*%
X9826666Y-6691380D02*
X9826666Y-7405666D01*
X9779047Y-7548523D01*
X9683809Y-7643761D01*
X9540952Y-7691380D01*
X9445714Y-7691380D01*
X10826666Y-7691380D02*
X10255238Y-7691380D01*
X10540952Y-7691380D02*
X10540952Y-6691380D01*
X10445714Y-6834238D01*
X10350476Y-6929476D01*
X10255238Y-6977095D01*
%TO.C,RV3*%
X4702380Y-91675238D02*
X4226190Y-92008571D01*
X4702380Y-92246666D02*
X3702380Y-92246666D01*
X3702380Y-91865714D01*
X3750000Y-91770476D01*
X3797619Y-91722857D01*
X3892857Y-91675238D01*
X4035714Y-91675238D01*
X4130952Y-91722857D01*
X4178571Y-91770476D01*
X4226190Y-91865714D01*
X4226190Y-92246666D01*
X3702380Y-91389523D02*
X4702380Y-91056190D01*
X3702380Y-90722857D01*
X3702380Y-90484761D02*
X3702380Y-89865714D01*
X4083333Y-90199047D01*
X4083333Y-90056190D01*
X4130952Y-89960952D01*
X4178571Y-89913333D01*
X4273809Y-89865714D01*
X4511904Y-89865714D01*
X4607142Y-89913333D01*
X4654761Y-89960952D01*
X4702380Y-90056190D01*
X4702380Y-90341904D01*
X4654761Y-90437142D01*
X4607142Y-90484761D01*
%TO.C,RV2*%
X4702380Y-76435238D02*
X4226190Y-76768571D01*
X4702380Y-77006666D02*
X3702380Y-77006666D01*
X3702380Y-76625714D01*
X3750000Y-76530476D01*
X3797619Y-76482857D01*
X3892857Y-76435238D01*
X4035714Y-76435238D01*
X4130952Y-76482857D01*
X4178571Y-76530476D01*
X4226190Y-76625714D01*
X4226190Y-77006666D01*
X3702380Y-76149523D02*
X4702380Y-75816190D01*
X3702380Y-75482857D01*
X3797619Y-75197142D02*
X3750000Y-75149523D01*
X3702380Y-75054285D01*
X3702380Y-74816190D01*
X3750000Y-74720952D01*
X3797619Y-74673333D01*
X3892857Y-74625714D01*
X3988095Y-74625714D01*
X4130952Y-74673333D01*
X4702380Y-75244761D01*
X4702380Y-74625714D01*
%TO.C,RV1*%
X4702380Y-61195238D02*
X4226190Y-61528571D01*
X4702380Y-61766666D02*
X3702380Y-61766666D01*
X3702380Y-61385714D01*
X3750000Y-61290476D01*
X3797619Y-61242857D01*
X3892857Y-61195238D01*
X4035714Y-61195238D01*
X4130952Y-61242857D01*
X4178571Y-61290476D01*
X4226190Y-61385714D01*
X4226190Y-61766666D01*
X3702380Y-60909523D02*
X4702380Y-60576190D01*
X3702380Y-60242857D01*
X4702380Y-59385714D02*
X4702380Y-59957142D01*
X4702380Y-59671428D02*
X3702380Y-59671428D01*
X3845238Y-59766666D01*
X3940476Y-59861904D01*
X3988095Y-59957142D01*
%TD*%
M02*
