%TF.GenerationSoftware,KiCad,Pcbnew,(6.0.0)*%
%TF.CreationDate,2022-02-22T23:17:02-05:00*%
%TF.ProjectId,LedController1,4c656443-6f6e-4747-926f-6c6c6572312e,rev?*%
%TF.SameCoordinates,Original*%
%TF.FileFunction,Soldermask,Top*%
%TF.FilePolarity,Negative*%
%FSLAX46Y46*%
G04 Gerber Fmt 4.6, Leading zero omitted, Abs format (unit mm)*
G04 Created by KiCad (PCBNEW (6.0.0)) date 2022-02-22 23:17:02*
%MOMM*%
%LPD*%
G01*
G04 APERTURE LIST*
%ADD10R,1.600000X1.600000*%
%ADD11O,1.600000X1.600000*%
%ADD12O,1.200000X2.800000*%
%ADD13R,1.800000X1.800000*%
%ADD14C,1.800000*%
%ADD15C,1.600000*%
%ADD16R,1.700000X1.700000*%
%ADD17O,1.700000X1.700000*%
%ADD18R,1.750000X3.000000*%
%ADD19R,1.850000X1.850000*%
%ADD20O,3.000000X1.524000*%
G04 APERTURE END LIST*
D10*
%TO.C,U1*%
X2281000Y-43190000D03*
D11*
X17521000Y-50810000D03*
X4821000Y-43190000D03*
X14981000Y-50810000D03*
X7361000Y-43190000D03*
X12441000Y-50810000D03*
X9901000Y-43190000D03*
X9901000Y-50810000D03*
X12441000Y-43190000D03*
X7361000Y-50810000D03*
X14981000Y-43190000D03*
X4821000Y-50810000D03*
X17521000Y-43190000D03*
X2281000Y-50810000D03*
%TD*%
D12*
%TO.C,RV3*%
X14800000Y-90681000D03*
X5200000Y-90681000D03*
D13*
X7500000Y-98181000D03*
D14*
X10000000Y-98181000D03*
X12500000Y-98181000D03*
%TD*%
D12*
%TO.C,RV2*%
X14800000Y-75441000D03*
X5200000Y-75441000D03*
D13*
X7500000Y-82941000D03*
D14*
X10000000Y-82941000D03*
X12500000Y-82941000D03*
%TD*%
%TO.C,RV1*%
X12500000Y-67701000D03*
X10000000Y-67701000D03*
D13*
X7500000Y-67701000D03*
D12*
X5200000Y-60201000D03*
X14800000Y-60201000D03*
%TD*%
D15*
%TO.C,R6*%
X9652000Y-54102000D03*
D11*
X17272000Y-54102000D03*
%TD*%
D15*
%TO.C,R5*%
X9398000Y-36576000D03*
D11*
X17018000Y-36576000D03*
%TD*%
D15*
%TO.C,R4*%
X9652000Y-39878000D03*
D11*
X2032000Y-39878000D03*
%TD*%
D15*
%TO.C,R3*%
X17526000Y-83820000D03*
D11*
X17526000Y-91440000D03*
%TD*%
D15*
%TO.C,R2*%
X2794000Y-75438000D03*
D11*
X2794000Y-83058000D03*
%TD*%
D15*
%TO.C,R1*%
X17526000Y-63500000D03*
D11*
X17526000Y-71120000D03*
%TD*%
D16*
%TO.C,J4*%
X3043000Y-22337000D03*
D17*
X5583000Y-22337000D03*
X3043000Y-19797000D03*
X5583000Y-19797000D03*
X3043000Y-17257000D03*
X5583000Y-17257000D03*
X3043000Y-14717000D03*
X5583000Y-14717000D03*
X3043000Y-12177000D03*
X5583000Y-12177000D03*
X3043000Y-9637000D03*
X5583000Y-9637000D03*
X3043000Y-7097000D03*
X5583000Y-7097000D03*
X3043000Y-4557000D03*
X5583000Y-4557000D03*
%TD*%
D18*
%TO.C,J3*%
X8460000Y-31080000D03*
D19*
X17860000Y-31080000D03*
D20*
X13160000Y-33780000D03*
X13160000Y-25680000D03*
%TD*%
D18*
%TO.C,J2*%
X8460000Y-19015000D03*
D19*
X17860000Y-19015000D03*
D20*
X13160000Y-21715000D03*
X13160000Y-13615000D03*
%TD*%
D18*
%TO.C,J1*%
X8460000Y-6950000D03*
D19*
X17860000Y-6950000D03*
D20*
X13160000Y-9650000D03*
X13160000Y-1550000D03*
%TD*%
D17*
%TO.C,J5*%
X2540000Y-96520000D03*
X2540000Y-93980000D03*
X2540000Y-91440000D03*
D16*
X2540000Y-88900000D03*
%TD*%
M02*
