M48
; DRILL file {KiCad (6.0.0)} date Tue Feb 22 23:17:06 2022
; FORMAT={-:-/ absolute / inch / decimal}
; #@! TF.CreationDate,2022-02-22T23:17:06-05:00
; #@! TF.GenerationSoftware,Kicad,Pcbnew,(6.0.0)
; #@! TF.FileFunction,MixedPlating,1,2
FMAT,2
INCH
; #@! TA.AperFunction,Plated,PTH,ViaDrill
T1C0.0157
; #@! TA.AperFunction,Plated,PTH,ComponentDrill
T2C0.0315
; #@! TA.AperFunction,Plated,PTH,ComponentDrill
T3C0.0354
; #@! TA.AperFunction,Plated,PTH,ComponentDrill
T4C0.0394
; #@! TA.AperFunction,Plated,PTH,ComponentDrill
T5C0.0433
%
G90
G05
T1
X0.491Y-1.8659
T2
X0.08Y-1.57
X0.0898Y-1.7004
X0.0898Y-2.0004
X0.11Y-2.97
X0.11Y-3.27
X0.1898Y-1.7004
X0.1898Y-2.0004
X0.2898Y-1.7004
X0.2898Y-2.0004
X0.37Y-1.44
X0.38Y-1.57
X0.38Y-2.13
X0.3898Y-1.7004
X0.3898Y-2.0004
X0.4898Y-1.7004
X0.4898Y-2.0004
X0.5898Y-1.7004
X0.5898Y-2.0004
X0.67Y-1.44
X0.68Y-2.13
X0.6898Y-1.7004
X0.6898Y-2.0004
X0.69Y-2.5
X0.69Y-2.8
X0.69Y-3.3
X0.69Y-3.6
T4
X0.1Y-3.5
X0.1Y-3.6
X0.1Y-3.7
X0.1Y-3.8
X0.1198Y-0.1794
X0.1198Y-0.2794
X0.1198Y-0.3794
X0.1198Y-0.4794
X0.1198Y-0.5794
X0.1198Y-0.6794
X0.1198Y-0.7794
X0.1198Y-0.8794
X0.2198Y-0.1794
X0.2198Y-0.2794
X0.2198Y-0.3794
X0.2198Y-0.4794
X0.2198Y-0.5794
X0.2198Y-0.6794
X0.2198Y-0.7794
X0.2198Y-0.8794
X0.2953Y-2.6654
X0.2953Y-3.2654
X0.2953Y-3.8654
X0.3937Y-2.6654
X0.3937Y-3.2654
X0.3937Y-3.8654
X0.4921Y-2.6654
X0.4921Y-3.2654
X0.4921Y-3.8654
T5
X0.7031Y-0.2736
X0.7031Y-0.7486
X0.7031Y-1.2236
T2
G00X0.4945Y-0.061
M15
G01X0.5417Y-0.061
M16
G05
G00X0.4945Y-0.3799
M15
G01X0.5417Y-0.3799
M16
G05
G00X0.4945Y-0.536
M15
G01X0.5417Y-0.536
M16
G05
G00X0.4945Y-0.8549
M15
G01X0.5417Y-0.8549
M16
G05
G00X0.4945Y-1.011
M15
G01X0.5417Y-1.011
M16
G05
G00X0.4945Y-1.3299
M15
G01X0.5417Y-1.3299
M16
G05
T3
G00X0.2047Y-2.4016
M15
G01X0.2047Y-2.3386
M16
G05
G00X0.2047Y-3.0016
M15
G01X0.2047Y-2.9386
M16
G05
G00X0.2047Y-3.6016
M15
G01X0.2047Y-3.5386
M16
G05
G00X0.5827Y-2.4016
M15
G01X0.5827Y-2.3386
M16
G05
G00X0.5827Y-3.0016
M15
G01X0.5827Y-2.9386
M16
G05
G00X0.5827Y-3.6016
M15
G01X0.5827Y-3.5386
M16
G05
T5
G00X0.3331Y-0.2461
M15
G01X0.3331Y-0.3012
M16
G05
G00X0.3331Y-0.7211
M15
G01X0.3331Y-0.7762
M16
G05
G00X0.3331Y-1.1961
M15
G01X0.3331Y-1.2512
M16
G05
T0
M30
