%TF.GenerationSoftware,KiCad,Pcbnew,(6.0.0)*%
%TF.CreationDate,2022-02-22T23:17:02-05:00*%
%TF.ProjectId,LedController1,4c656443-6f6e-4747-926f-6c6c6572312e,rev?*%
%TF.SameCoordinates,Original*%
%TF.FileFunction,Legend,Top*%
%TF.FilePolarity,Positive*%
%FSLAX46Y46*%
G04 Gerber Fmt 4.6, Leading zero omitted, Abs format (unit mm)*
G04 Created by KiCad (PCBNEW (6.0.0)) date 2022-02-22 23:17:02*
%MOMM*%
%LPD*%
G01*
G04 APERTURE LIST*
%ADD10C,0.150000*%
%ADD11C,0.120000*%
G04 APERTURE END LIST*
D10*
%TO.C,RV3*%
X4904761Y-85133380D02*
X4571428Y-84657190D01*
X4333333Y-85133380D02*
X4333333Y-84133380D01*
X4714285Y-84133380D01*
X4809523Y-84181000D01*
X4857142Y-84228619D01*
X4904761Y-84323857D01*
X4904761Y-84466714D01*
X4857142Y-84561952D01*
X4809523Y-84609571D01*
X4714285Y-84657190D01*
X4333333Y-84657190D01*
X5190476Y-84133380D02*
X5523809Y-85133380D01*
X5857142Y-84133380D01*
X6095238Y-84133380D02*
X6714285Y-84133380D01*
X6380952Y-84514333D01*
X6523809Y-84514333D01*
X6619047Y-84561952D01*
X6666666Y-84609571D01*
X6714285Y-84704809D01*
X6714285Y-84942904D01*
X6666666Y-85038142D01*
X6619047Y-85085761D01*
X6523809Y-85133380D01*
X6238095Y-85133380D01*
X6142857Y-85085761D01*
X6095238Y-85038142D01*
%TO.C,RV2*%
X4904761Y-69893380D02*
X4571428Y-69417190D01*
X4333333Y-69893380D02*
X4333333Y-68893380D01*
X4714285Y-68893380D01*
X4809523Y-68941000D01*
X4857142Y-68988619D01*
X4904761Y-69083857D01*
X4904761Y-69226714D01*
X4857142Y-69321952D01*
X4809523Y-69369571D01*
X4714285Y-69417190D01*
X4333333Y-69417190D01*
X5190476Y-68893380D02*
X5523809Y-69893380D01*
X5857142Y-68893380D01*
X6142857Y-68988619D02*
X6190476Y-68941000D01*
X6285714Y-68893380D01*
X6523809Y-68893380D01*
X6619047Y-68941000D01*
X6666666Y-68988619D01*
X6714285Y-69083857D01*
X6714285Y-69179095D01*
X6666666Y-69321952D01*
X6095238Y-69893380D01*
X6714285Y-69893380D01*
%TO.C,RV1*%
X4904761Y-54653380D02*
X4571428Y-54177190D01*
X4333333Y-54653380D02*
X4333333Y-53653380D01*
X4714285Y-53653380D01*
X4809523Y-53701000D01*
X4857142Y-53748619D01*
X4904761Y-53843857D01*
X4904761Y-53986714D01*
X4857142Y-54081952D01*
X4809523Y-54129571D01*
X4714285Y-54177190D01*
X4333333Y-54177190D01*
X5190476Y-53653380D02*
X5523809Y-54653380D01*
X5857142Y-53653380D01*
X6714285Y-54653380D02*
X6142857Y-54653380D01*
X6428571Y-54653380D02*
X6428571Y-53653380D01*
X6333333Y-53796238D01*
X6238095Y-53891476D01*
X6142857Y-53939095D01*
%TO.C,J3*%
X12826666Y-30821380D02*
X12826666Y-31535666D01*
X12779047Y-31678523D01*
X12683809Y-31773761D01*
X12540952Y-31821380D01*
X12445714Y-31821380D01*
X13207619Y-30821380D02*
X13826666Y-30821380D01*
X13493333Y-31202333D01*
X13636190Y-31202333D01*
X13731428Y-31249952D01*
X13779047Y-31297571D01*
X13826666Y-31392809D01*
X13826666Y-31630904D01*
X13779047Y-31726142D01*
X13731428Y-31773761D01*
X13636190Y-31821380D01*
X13350476Y-31821380D01*
X13255238Y-31773761D01*
X13207619Y-31726142D01*
%TO.C,J2*%
X12826666Y-18756380D02*
X12826666Y-19470666D01*
X12779047Y-19613523D01*
X12683809Y-19708761D01*
X12540952Y-19756380D01*
X12445714Y-19756380D01*
X13255238Y-18851619D02*
X13302857Y-18804000D01*
X13398095Y-18756380D01*
X13636190Y-18756380D01*
X13731428Y-18804000D01*
X13779047Y-18851619D01*
X13826666Y-18946857D01*
X13826666Y-19042095D01*
X13779047Y-19184952D01*
X13207619Y-19756380D01*
X13826666Y-19756380D01*
%TO.C,J1*%
X12826666Y-6691380D02*
X12826666Y-7405666D01*
X12779047Y-7548523D01*
X12683809Y-7643761D01*
X12540952Y-7691380D01*
X12445714Y-7691380D01*
X13826666Y-7691380D02*
X13255238Y-7691380D01*
X13540952Y-7691380D02*
X13540952Y-6691380D01*
X13445714Y-6834238D01*
X13350476Y-6929476D01*
X13255238Y-6977095D01*
%TO.C,J5*%
X2206666Y-86022380D02*
X2206666Y-86736666D01*
X2159047Y-86879523D01*
X2063809Y-86974761D01*
X1920952Y-87022380D01*
X1825714Y-87022380D01*
X3159047Y-86022380D02*
X2682857Y-86022380D01*
X2635238Y-86498571D01*
X2682857Y-86450952D01*
X2778095Y-86403333D01*
X3016190Y-86403333D01*
X3111428Y-86450952D01*
X3159047Y-86498571D01*
X3206666Y-86593809D01*
X3206666Y-86831904D01*
X3159047Y-86927142D01*
X3111428Y-86974761D01*
X3016190Y-87022380D01*
X2778095Y-87022380D01*
X2682857Y-86974761D01*
X2635238Y-86927142D01*
D11*
%TO.C,RV3*%
X5130000Y-88771000D02*
X5130000Y-85711000D01*
X14870000Y-88771000D02*
X14870000Y-85711000D01*
X14870000Y-97301000D02*
X13380000Y-97301000D01*
X5120000Y-97301000D02*
X5120000Y-92581000D01*
X6310000Y-97301000D02*
X5130000Y-97301000D01*
X11660000Y-97301000D02*
X10830000Y-97301000D01*
X14870000Y-97301000D02*
X14870000Y-92581000D01*
X9210000Y-97301000D02*
X8680000Y-97301000D01*
X14870000Y-85711000D02*
X5130000Y-85711000D01*
%TO.C,RV2*%
X5130000Y-73531000D02*
X5130000Y-70471000D01*
X14870000Y-73531000D02*
X14870000Y-70471000D01*
X14870000Y-82061000D02*
X13380000Y-82061000D01*
X5120000Y-82061000D02*
X5120000Y-77341000D01*
X6310000Y-82061000D02*
X5130000Y-82061000D01*
X11660000Y-82061000D02*
X10830000Y-82061000D01*
X14870000Y-82061000D02*
X14870000Y-77341000D01*
X9210000Y-82061000D02*
X8680000Y-82061000D01*
X14870000Y-70471000D02*
X5130000Y-70471000D01*
%TO.C,RV1*%
X14870000Y-55231000D02*
X5130000Y-55231000D01*
X9210000Y-66821000D02*
X8680000Y-66821000D01*
X14870000Y-66821000D02*
X14870000Y-62101000D01*
X11660000Y-66821000D02*
X10830000Y-66821000D01*
X6310000Y-66821000D02*
X5130000Y-66821000D01*
X5120000Y-66821000D02*
X5120000Y-62101000D01*
X14870000Y-66821000D02*
X13380000Y-66821000D01*
X14870000Y-58291000D02*
X14870000Y-55231000D01*
X5130000Y-58291000D02*
X5130000Y-55231000D01*
D10*
%TO.C,J3*%
X16752102Y-30480000D02*
G75*
G03*
X16752102Y-30480000I-3592102J0D01*
G01*
X8207000Y-25019000D02*
X18113000Y-25019000D01*
X18113000Y-25019000D02*
X18113000Y-35560000D01*
X18113000Y-35560000D02*
X8207000Y-35560000D01*
X8207000Y-35560000D02*
X8207000Y-25019000D01*
X9223000Y-35560000D02*
X9223000Y-34417000D01*
X9223000Y-34417000D02*
X17097000Y-34417000D01*
X17097000Y-34417000D02*
X17097000Y-35560000D01*
X17097000Y-35560000D02*
X9223000Y-35560000D01*
G36*
X17097000Y-35560000D02*
G01*
X9223000Y-35560000D01*
X9223000Y-34417000D01*
X17097000Y-34417000D01*
X17097000Y-35560000D01*
G37*
X17097000Y-35560000D02*
X9223000Y-35560000D01*
X9223000Y-34417000D01*
X17097000Y-34417000D01*
X17097000Y-35560000D01*
%TO.C,J2*%
X16752102Y-18415000D02*
G75*
G03*
X16752102Y-18415000I-3592102J0D01*
G01*
X8207000Y-12954000D02*
X18113000Y-12954000D01*
X18113000Y-12954000D02*
X18113000Y-23495000D01*
X18113000Y-23495000D02*
X8207000Y-23495000D01*
X8207000Y-23495000D02*
X8207000Y-12954000D01*
X9223000Y-23495000D02*
X9223000Y-22352000D01*
X9223000Y-22352000D02*
X17097000Y-22352000D01*
X17097000Y-22352000D02*
X17097000Y-23495000D01*
X17097000Y-23495000D02*
X9223000Y-23495000D01*
G36*
X17097000Y-23495000D02*
G01*
X9223000Y-23495000D01*
X9223000Y-22352000D01*
X17097000Y-22352000D01*
X17097000Y-23495000D01*
G37*
X17097000Y-23495000D02*
X9223000Y-23495000D01*
X9223000Y-22352000D01*
X17097000Y-22352000D01*
X17097000Y-23495000D01*
%TO.C,J1*%
X16752102Y-6350000D02*
G75*
G03*
X16752102Y-6350000I-3592102J0D01*
G01*
X8207000Y-889000D02*
X18113000Y-889000D01*
X18113000Y-889000D02*
X18113000Y-11430000D01*
X18113000Y-11430000D02*
X8207000Y-11430000D01*
X8207000Y-11430000D02*
X8207000Y-889000D01*
X9223000Y-11430000D02*
X9223000Y-10287000D01*
X9223000Y-10287000D02*
X17097000Y-10287000D01*
X17097000Y-10287000D02*
X17097000Y-11430000D01*
X17097000Y-11430000D02*
X9223000Y-11430000D01*
G36*
X17097000Y-11430000D02*
G01*
X9223000Y-11430000D01*
X9223000Y-10287000D01*
X17097000Y-10287000D01*
X17097000Y-11430000D01*
G37*
X17097000Y-11430000D02*
X9223000Y-11430000D01*
X9223000Y-10287000D01*
X17097000Y-10287000D01*
X17097000Y-11430000D01*
D11*
%TO.C,J5*%
X1210000Y-87570000D02*
X2540000Y-87570000D01*
X1210000Y-88900000D02*
X1210000Y-87570000D01*
X1210000Y-90170000D02*
X3870000Y-90170000D01*
X3870000Y-90170000D02*
X3870000Y-97850000D01*
X1210000Y-90170000D02*
X1210000Y-97850000D01*
X1210000Y-97850000D02*
X3870000Y-97850000D01*
%TD*%
M02*
