M48
; DRILL file {KiCad (5.1.8)-1} date 01/04/21 22:34:05
; FORMAT={-:-/ absolute / inch / decimal}
; #@! TF.CreationDate,2021-01-04T22:34:05-05:00
; #@! TF.GenerationSoftware,Kicad,Pcbnew,(5.1.8)-1
FMAT,2
INCH
T1C0.0157
T2C0.0315
T3C0.0394
T4C0.0433
%
G90
G05
T1
X0.1508Y-2.225
X0.175Y-2.775
X0.175Y-3.3
X0.35Y-3.375
X0.4Y-2.525
X0.45Y-1.55
T3
X0.35Y-3.25
X0.4484Y-3.25
X0.5469Y-3.25
X0.1Y-3.5
X0.1Y-3.6
X0.1Y-3.7
X0.1Y-3.8
X0.55Y-1.4
X0.55Y-1.5
X0.55Y-1.6
X0.55Y-1.7
X0.55Y-1.8
X0.55Y-1.9
X0.55Y-2.0
X0.55Y-2.1
X0.65Y-1.4
X0.65Y-1.5
X0.65Y-1.6
X0.65Y-1.7
X0.65Y-1.8
X0.65Y-1.9
X0.65Y-2.0
X0.65Y-2.1
X0.35Y-2.65
X0.4484Y-2.65
X0.5469Y-2.65
X0.35Y-3.85
X0.4484Y-3.85
X0.5469Y-3.85
T4
X0.585Y-0.2736
X0.585Y-1.2236
X0.585Y-0.7486
T2
G00X0.3764Y-1.011
M15
G01X0.4236Y-1.011
M16
G05
G00X0.3764Y-1.3299
M15
G01X0.4236Y-1.3299
M16
G05
G00X0.3764Y-0.536
M15
G01X0.4236Y-0.536
M16
G05
G00X0.3764Y-0.8549
M15
G01X0.4236Y-0.8549
M16
G05
G00X0.3764Y-0.061
M15
G01X0.4236Y-0.061
M16
G05
G00X0.3764Y-0.3799
M15
G01X0.4236Y-0.3799
M16
G05
T3
G00X0.215Y-1.2015
M15
G01X0.215Y-1.2458
M16
G05
G00X0.215Y-0.7265
M15
G01X0.215Y-0.7708
M16
G05
G00X0.215Y-0.2515
M15
G01X0.215Y-0.2958
M16
G05
T4
G00X0.2594Y-3.5685
M15
G01X0.2594Y-3.5409
M16
G05
G00X0.6374Y-3.5685
M15
G01X0.6374Y-3.5409
M16
G05
G00X0.2594Y-2.9685
M15
G01X0.2594Y-2.9409
M16
G05
G00X0.6374Y-2.9685
M15
G01X0.6374Y-2.9409
M16
G05
G00X0.2594Y-2.3685
M15
G01X0.2594Y-2.3409
M16
G05
G00X0.6374Y-2.3685
M15
G01X0.6374Y-2.3409
M16
G05
T0
M30
