%TF.GenerationSoftware,KiCad,Pcbnew,(5.1.8)-1*%
%TF.CreationDate,2021-01-03T22:56:05-05:00*%
%TF.ProjectId,LedController1,4c656443-6f6e-4747-926f-6c6c6572312e,rev?*%
%TF.SameCoordinates,Original*%
%TF.FileFunction,Legend,Bot*%
%TF.FilePolarity,Positive*%
%FSLAX46Y46*%
G04 Gerber Fmt 4.6, Leading zero omitted, Abs format (unit mm)*
G04 Created by KiCad (PCBNEW (5.1.8)-1) date 2021-01-03 22:56:05*
%MOMM*%
%LPD*%
G01*
G04 APERTURE LIST*
%ADD10C,0.300000*%
%ADD11C,0.150000*%
%ADD12C,0.750000*%
%ADD13C,0.120000*%
G04 APERTURE END LIST*
D10*
X19271691Y-92889664D02*
X19033596Y-92889664D01*
X18914548Y-92949188D01*
X18795501Y-93068235D01*
X18735977Y-93306330D01*
X18735977Y-93722997D01*
X18795501Y-93961092D01*
X18914548Y-94080140D01*
X19033596Y-94139664D01*
X19271691Y-94139664D01*
X19390739Y-94080140D01*
X19509786Y-93961092D01*
X19569310Y-93722997D01*
X19569310Y-93306330D01*
X19509786Y-93068235D01*
X19390739Y-92949188D01*
X19271691Y-92889664D01*
X18021691Y-94139664D02*
X18140739Y-94080140D01*
X18200263Y-93961092D01*
X18200263Y-92889664D01*
X17009786Y-94139664D02*
X17009786Y-92889664D01*
X17009786Y-94080140D02*
X17128834Y-94139664D01*
X17366929Y-94139664D01*
X17485977Y-94080140D01*
X17545501Y-94020616D01*
X17605025Y-93901568D01*
X17605025Y-93544426D01*
X17545501Y-93425378D01*
X17485977Y-93365854D01*
X17366929Y-93306330D01*
X17128834Y-93306330D01*
X17009786Y-93365854D01*
X16414548Y-94139664D02*
X16414548Y-92889664D01*
X15997882Y-93782521D01*
X15581215Y-92889664D01*
X15581215Y-94139664D01*
X14450263Y-94139664D02*
X14450263Y-93484902D01*
X14509786Y-93365854D01*
X14628834Y-93306330D01*
X14866929Y-93306330D01*
X14985977Y-93365854D01*
X14450263Y-94080140D02*
X14569310Y-94139664D01*
X14866929Y-94139664D01*
X14985977Y-94080140D01*
X15045501Y-93961092D01*
X15045501Y-93842045D01*
X14985977Y-93722997D01*
X14866929Y-93663473D01*
X14569310Y-93663473D01*
X14450263Y-93603949D01*
X13855025Y-93306330D02*
X13855025Y-94139664D01*
X13855025Y-93425378D02*
X13795501Y-93365854D01*
X13676453Y-93306330D01*
X13497882Y-93306330D01*
X13378834Y-93365854D01*
X13319310Y-93484902D01*
X13319310Y-94139664D01*
X12724072Y-94139664D02*
X12724072Y-92889664D01*
X12307406Y-93782521D01*
X11890739Y-92889664D01*
X11890739Y-94139664D01*
X11116929Y-94139664D02*
X11235977Y-94080140D01*
X11295501Y-94020616D01*
X11355025Y-93901568D01*
X11355025Y-93544426D01*
X11295501Y-93425378D01*
X11235977Y-93365854D01*
X11116929Y-93306330D01*
X10938358Y-93306330D01*
X10819310Y-93365854D01*
X10759786Y-93425378D01*
X10700263Y-93544426D01*
X10700263Y-93901568D01*
X10759786Y-94020616D01*
X10819310Y-94080140D01*
X10938358Y-94139664D01*
X11116929Y-94139664D01*
X9628834Y-94139664D02*
X9628834Y-92889664D01*
X9628834Y-94080140D02*
X9747882Y-94139664D01*
X9985977Y-94139664D01*
X10105025Y-94080140D01*
X10164548Y-94020616D01*
X10224072Y-93901568D01*
X10224072Y-93544426D01*
X10164548Y-93425378D01*
X10105025Y-93365854D01*
X9985977Y-93306330D01*
X9747882Y-93306330D01*
X9628834Y-93365854D01*
X8497882Y-93306330D02*
X8497882Y-94139664D01*
X9033596Y-93306330D02*
X9033596Y-93961092D01*
X8974072Y-94080140D01*
X8855025Y-94139664D01*
X8676453Y-94139664D01*
X8557406Y-94080140D01*
X8497882Y-94020616D01*
X7724072Y-94139664D02*
X7843120Y-94080140D01*
X7902644Y-93961092D01*
X7902644Y-92889664D01*
X6712167Y-94139664D02*
X6712167Y-93484902D01*
X6771691Y-93365854D01*
X6890739Y-93306330D01*
X7128834Y-93306330D01*
X7247882Y-93365854D01*
X6712167Y-94080140D02*
X6831215Y-94139664D01*
X7128834Y-94139664D01*
X7247882Y-94080140D01*
X7307406Y-93961092D01*
X7307406Y-93842045D01*
X7247882Y-93722997D01*
X7128834Y-93663473D01*
X6831215Y-93663473D01*
X6712167Y-93603949D01*
X6116929Y-94139664D02*
X6116929Y-93306330D01*
X6116929Y-93544426D02*
X6057406Y-93425378D01*
X5997882Y-93365854D01*
X5878834Y-93306330D01*
X5759786Y-93306330D01*
X18795501Y-96195616D02*
X18855025Y-96255140D01*
X19033596Y-96314664D01*
X19152644Y-96314664D01*
X19331215Y-96255140D01*
X19450263Y-96136092D01*
X19509786Y-96017045D01*
X19569310Y-95778949D01*
X19569310Y-95600378D01*
X19509786Y-95362283D01*
X19450263Y-95243235D01*
X19331215Y-95124188D01*
X19152644Y-95064664D01*
X19033596Y-95064664D01*
X18855025Y-95124188D01*
X18795501Y-95183711D01*
X18438358Y-95064664D02*
X18021691Y-96314664D01*
X17605025Y-95064664D01*
X17188358Y-95838473D02*
X16235977Y-95838473D01*
X15045501Y-96314664D02*
X15640739Y-96314664D01*
X15640739Y-95064664D01*
X14628834Y-95659902D02*
X14212167Y-95659902D01*
X14033596Y-96314664D02*
X14628834Y-96314664D01*
X14628834Y-95064664D01*
X14033596Y-95064664D01*
X13497882Y-96314664D02*
X13497882Y-95064664D01*
X13200263Y-95064664D01*
X13021691Y-95124188D01*
X12902644Y-95243235D01*
X12843120Y-95362283D01*
X12783596Y-95600378D01*
X12783596Y-95778949D01*
X12843120Y-96017045D01*
X12902644Y-96136092D01*
X13021691Y-96255140D01*
X13200263Y-96314664D01*
X13497882Y-96314664D01*
X19509786Y-98489664D02*
X19509786Y-97656330D01*
X19509786Y-97894426D02*
X19450263Y-97775378D01*
X19390739Y-97715854D01*
X19271691Y-97656330D01*
X19152644Y-97656330D01*
X18259786Y-98430140D02*
X18378834Y-98489664D01*
X18616929Y-98489664D01*
X18735977Y-98430140D01*
X18795501Y-98311092D01*
X18795501Y-97834902D01*
X18735977Y-97715854D01*
X18616929Y-97656330D01*
X18378834Y-97656330D01*
X18259786Y-97715854D01*
X18200263Y-97834902D01*
X18200263Y-97953949D01*
X18795501Y-98072997D01*
X17783596Y-97656330D02*
X17485977Y-98489664D01*
X17188358Y-97656330D01*
X15105025Y-98489664D02*
X15819310Y-98489664D01*
X15462167Y-98489664D02*
X15462167Y-97239664D01*
X15581215Y-97418235D01*
X15700263Y-97537283D01*
X15819310Y-97596807D01*
D11*
X17541428Y-57602380D02*
X17874761Y-57126190D01*
X18112857Y-57602380D02*
X18112857Y-56602380D01*
X17731904Y-56602380D01*
X17636666Y-56650000D01*
X17589047Y-56697619D01*
X17541428Y-56792857D01*
X17541428Y-56935714D01*
X17589047Y-57030952D01*
X17636666Y-57078571D01*
X17731904Y-57126190D01*
X18112857Y-57126190D01*
X17112857Y-57078571D02*
X16779523Y-57078571D01*
X16636666Y-57602380D02*
X17112857Y-57602380D01*
X17112857Y-56602380D01*
X16636666Y-56602380D01*
X16208095Y-57602380D02*
X16208095Y-56602380D01*
X15970000Y-56602380D01*
X15827142Y-56650000D01*
X15731904Y-56745238D01*
X15684285Y-56840476D01*
X15636666Y-57030952D01*
X15636666Y-57173809D01*
X15684285Y-57364285D01*
X15731904Y-57459523D01*
X15827142Y-57554761D01*
X15970000Y-57602380D01*
X16208095Y-57602380D01*
X14493809Y-57554761D02*
X14350952Y-57602380D01*
X14112857Y-57602380D01*
X14017619Y-57554761D01*
X13970000Y-57507142D01*
X13922380Y-57411904D01*
X13922380Y-57316666D01*
X13970000Y-57221428D01*
X14017619Y-57173809D01*
X14112857Y-57126190D01*
X14303333Y-57078571D01*
X14398571Y-57030952D01*
X14446190Y-56983333D01*
X14493809Y-56888095D01*
X14493809Y-56792857D01*
X14446190Y-56697619D01*
X14398571Y-56650000D01*
X14303333Y-56602380D01*
X14065238Y-56602380D01*
X13922380Y-56650000D01*
X13636666Y-56602380D02*
X13065238Y-56602380D01*
X13350952Y-57602380D02*
X13350952Y-56602380D01*
X12160476Y-57602380D02*
X12493809Y-57126190D01*
X12731904Y-57602380D02*
X12731904Y-56602380D01*
X12350952Y-56602380D01*
X12255714Y-56650000D01*
X12208095Y-56697619D01*
X12160476Y-56792857D01*
X12160476Y-56935714D01*
X12208095Y-57030952D01*
X12255714Y-57078571D01*
X12350952Y-57126190D01*
X12731904Y-57126190D01*
X11731904Y-57602380D02*
X11731904Y-56602380D01*
X11255714Y-57602380D02*
X11255714Y-56602380D01*
X10874761Y-56602380D01*
X10779523Y-56650000D01*
X10731904Y-56697619D01*
X10684285Y-56792857D01*
X10684285Y-56935714D01*
X10731904Y-57030952D01*
X10779523Y-57078571D01*
X10874761Y-57126190D01*
X11255714Y-57126190D01*
X10255714Y-57078571D02*
X9922380Y-57078571D01*
X9779523Y-57602380D02*
X10255714Y-57602380D01*
X10255714Y-56602380D01*
X9779523Y-56602380D01*
D12*
X10160000Y-55880000D02*
X17780000Y-55880000D01*
D13*
%TO.C,R6*%
X2630413Y-51487229D02*
X4084541Y-51487229D01*
X2630413Y-49667229D02*
X4084541Y-49667229D01*
%TO.C,R5*%
X8162936Y-51517268D02*
X9617064Y-51517268D01*
X8162936Y-49697268D02*
X9617064Y-49697268D01*
%TO.C,R4*%
X8162936Y-37740000D02*
X9617064Y-37740000D01*
X8162936Y-35920000D02*
X9617064Y-35920000D01*
%TO.C,R3*%
X5622936Y-54250000D02*
X7077064Y-54250000D01*
X5622936Y-52430000D02*
X7077064Y-52430000D01*
%TO.C,R2*%
X995000Y-53882936D02*
X995000Y-55337064D01*
X2815000Y-53882936D02*
X2815000Y-55337064D01*
%TO.C,R1*%
X4084541Y-35889961D02*
X2630413Y-35889961D01*
X4084541Y-37709961D02*
X2630413Y-37709961D01*
%TO.C,J4*%
X12640000Y-34230000D02*
X17840000Y-34230000D01*
X12640000Y-52070000D02*
X12640000Y-34230000D01*
X17840000Y-54670000D02*
X17840000Y-34230000D01*
X12640000Y-52070000D02*
X15240000Y-52070000D01*
X15240000Y-52070000D02*
X15240000Y-54670000D01*
X15240000Y-54670000D02*
X17840000Y-54670000D01*
X12640000Y-53340000D02*
X12640000Y-54670000D01*
X12640000Y-54670000D02*
X13970000Y-54670000D01*
%TO.C,U1*%
X6350000Y-47615000D02*
X4400000Y-47615000D01*
X6350000Y-47615000D02*
X8300000Y-47615000D01*
X6350000Y-38745000D02*
X4400000Y-38745000D01*
X6350000Y-38745000D02*
X9800000Y-38745000D01*
%TO.C,R6*%
D11*
X3524143Y-52849609D02*
X3857477Y-52373419D01*
X4095572Y-52849609D02*
X4095572Y-51849609D01*
X3714619Y-51849609D01*
X3619381Y-51897229D01*
X3571762Y-51944848D01*
X3524143Y-52040086D01*
X3524143Y-52182943D01*
X3571762Y-52278181D01*
X3619381Y-52325800D01*
X3714619Y-52373419D01*
X4095572Y-52373419D01*
X2667000Y-51849609D02*
X2857477Y-51849609D01*
X2952715Y-51897229D01*
X3000334Y-51944848D01*
X3095572Y-52087705D01*
X3143191Y-52278181D01*
X3143191Y-52659133D01*
X3095572Y-52754371D01*
X3047953Y-52801990D01*
X2952715Y-52849609D01*
X2762238Y-52849609D01*
X2667000Y-52801990D01*
X2619381Y-52754371D01*
X2571762Y-52659133D01*
X2571762Y-52421038D01*
X2619381Y-52325800D01*
X2667000Y-52278181D01*
X2762238Y-52230562D01*
X2952715Y-52230562D01*
X3047953Y-52278181D01*
X3095572Y-52325800D01*
X3143191Y-52421038D01*
%TO.C,R5*%
X9056666Y-52879648D02*
X9390000Y-52403458D01*
X9628095Y-52879648D02*
X9628095Y-51879648D01*
X9247142Y-51879648D01*
X9151904Y-51927268D01*
X9104285Y-51974887D01*
X9056666Y-52070125D01*
X9056666Y-52212982D01*
X9104285Y-52308220D01*
X9151904Y-52355839D01*
X9247142Y-52403458D01*
X9628095Y-52403458D01*
X8151904Y-51879648D02*
X8628095Y-51879648D01*
X8675714Y-52355839D01*
X8628095Y-52308220D01*
X8532857Y-52260601D01*
X8294761Y-52260601D01*
X8199523Y-52308220D01*
X8151904Y-52355839D01*
X8104285Y-52451077D01*
X8104285Y-52689172D01*
X8151904Y-52784410D01*
X8199523Y-52832029D01*
X8294761Y-52879648D01*
X8532857Y-52879648D01*
X8628095Y-52832029D01*
X8675714Y-52784410D01*
%TO.C,R4*%
X9056666Y-39102380D02*
X9390000Y-38626190D01*
X9628095Y-39102380D02*
X9628095Y-38102380D01*
X9247142Y-38102380D01*
X9151904Y-38150000D01*
X9104285Y-38197619D01*
X9056666Y-38292857D01*
X9056666Y-38435714D01*
X9104285Y-38530952D01*
X9151904Y-38578571D01*
X9247142Y-38626190D01*
X9628095Y-38626190D01*
X8199523Y-38435714D02*
X8199523Y-39102380D01*
X8437619Y-38054761D02*
X8675714Y-38769047D01*
X8056666Y-38769047D01*
%TO.C,R3*%
X6516666Y-55612380D02*
X6850000Y-55136190D01*
X7088095Y-55612380D02*
X7088095Y-54612380D01*
X6707142Y-54612380D01*
X6611904Y-54660000D01*
X6564285Y-54707619D01*
X6516666Y-54802857D01*
X6516666Y-54945714D01*
X6564285Y-55040952D01*
X6611904Y-55088571D01*
X6707142Y-55136190D01*
X7088095Y-55136190D01*
X6183333Y-54612380D02*
X5564285Y-54612380D01*
X5897619Y-54993333D01*
X5754761Y-54993333D01*
X5659523Y-55040952D01*
X5611904Y-55088571D01*
X5564285Y-55183809D01*
X5564285Y-55421904D01*
X5611904Y-55517142D01*
X5659523Y-55564761D01*
X5754761Y-55612380D01*
X6040476Y-55612380D01*
X6135714Y-55564761D01*
X6183333Y-55517142D01*
%TO.C,R2*%
X537380Y-54443333D02*
X61190Y-54110000D01*
X537380Y-53871904D02*
X-462619Y-53871904D01*
X-462619Y-54252857D01*
X-415000Y-54348095D01*
X-367380Y-54395714D01*
X-272142Y-54443333D01*
X-129285Y-54443333D01*
X-34047Y-54395714D01*
X13571Y-54348095D01*
X61190Y-54252857D01*
X61190Y-53871904D01*
X-367380Y-54824285D02*
X-415000Y-54871904D01*
X-462619Y-54967142D01*
X-462619Y-55205238D01*
X-415000Y-55300476D01*
X-367380Y-55348095D01*
X-272142Y-55395714D01*
X-176904Y-55395714D01*
X-34047Y-55348095D01*
X537380Y-54776666D01*
X537380Y-55395714D01*
%TO.C,R1*%
X3524143Y-35432341D02*
X3857477Y-34956151D01*
X4095572Y-35432341D02*
X4095572Y-34432341D01*
X3714619Y-34432341D01*
X3619381Y-34479961D01*
X3571762Y-34527580D01*
X3524143Y-34622818D01*
X3524143Y-34765675D01*
X3571762Y-34860913D01*
X3619381Y-34908532D01*
X3714619Y-34956151D01*
X4095572Y-34956151D01*
X2571762Y-35432341D02*
X3143191Y-35432341D01*
X2857477Y-35432341D02*
X2857477Y-34432341D01*
X2952715Y-34575199D01*
X3047953Y-34670437D01*
X3143191Y-34718056D01*
%TO.C,J4*%
X12398333Y-46442380D02*
X12398333Y-47156666D01*
X12445952Y-47299523D01*
X12541190Y-47394761D01*
X12684047Y-47442380D01*
X12779285Y-47442380D01*
X11493571Y-46775714D02*
X11493571Y-47442380D01*
X11731666Y-46394761D02*
X11969761Y-47109047D01*
X11350714Y-47109047D01*
%TO.C,U1*%
X7111904Y-37352380D02*
X7111904Y-38161904D01*
X7064285Y-38257142D01*
X7016666Y-38304761D01*
X6921428Y-38352380D01*
X6730952Y-38352380D01*
X6635714Y-38304761D01*
X6588095Y-38257142D01*
X6540476Y-38161904D01*
X6540476Y-37352380D01*
X5540476Y-38352380D02*
X6111904Y-38352380D01*
X5826190Y-38352380D02*
X5826190Y-37352380D01*
X5921428Y-37495238D01*
X6016666Y-37590476D01*
X6111904Y-37638095D01*
%TD*%
M02*
